<svg width="24" height="25" viewBox="0 0 24 25" fill="none" xmlns="http://www.w3.org/2000/svg">
<path d="M9.09321 21.5C9.79834 22.1224 10.7246 22.5 11.739 22.5C12.7535 22.5 13.6797 22.1224 14.3849 21.5M17.739 8.5C17.739 6.9087 17.1069 5.38258 15.9817 4.25736C14.8565 3.13214 13.3303 2.5 11.739 2.5C10.1477 2.5 8.62161 3.13214 7.49639 4.25736C6.37117 5.38258 5.73903 6.9087 5.73903 8.5C5.73903 11.5902 4.9595 13.706 4.0887 15.1054C3.35416 16.2859 2.98689 16.8761 3.00036 17.0408C3.01527 17.2231 3.05389 17.2926 3.20081 17.4016C3.33349 17.5 3.93162 17.5 5.12789 17.5H18.3502C19.5464 17.5 20.1446 17.5 20.2773 17.4016C20.4242 17.2926 20.4628 17.2231 20.4777 17.0408C20.4912 16.8761 20.1239 16.2859 19.3894 15.1054C18.5186 13.706 17.739 11.5902 17.739 8.5Z" stroke="white" stroke-width="2" stroke-linecap="round" stroke-linejoin="round"/>
</svg>
