<svg width="367" height="170" viewBox="0 0 367 170" fill="none" xmlns="http://www.w3.org/2000/svg">
<rect width="367" height="170" rx="10" fill="#E7E4F2"/>
<g clip-path="url(#clip0_780_5973)">
<path d="M301.881 51.2747L312.746 44.6105C312.97 44.4739 313.236 44.4253 313.494 44.4769L327.624 47.3447C328.004 47.4206 328.308 47.7059 328.412 48.0761C328.516 48.4463 328.397 48.8439 328.105 49.1018L319.639 56.634L301.881 51.2717V51.2747Z" fill="#8E37ED"/>
<path d="M395.99 63.6746C395.99 63.6746 264.292 40.3164 259.153 41.943C254.014 43.5696 244.827 48.9653 242.119 48.9744C239.411 48.9835 229.939 50.6283 232.401 57.3199C234.864 64.0114 344.075 84.5048 356.785 80.1682C369.499 75.8347 401.693 67.6743 401.693 67.6743C401.693 67.6743 404.655 63.1071 395.99 63.6746Z" fill="#C896FA"/>
<path d="M357.872 57.393L376.816 46.9627C378.003 46.3072 378.984 45.3391 379.64 44.1617L387.297 30.4599C387.904 29.3735 389.158 28.806 390.385 29.0609C394.313 29.8803 402.461 31.692 402.5 32.6055C402.553 33.8103 398.582 64.0845 398.582 64.0845L357.872 57.393Z" fill="#C896FA"/>
<path d="M325.79 89.3756C325.79 89.3756 321.748 94.3161 315.146 94.3404C308.544 94.3647 300.415 92.5864 298.882 90.28C297.349 87.9736 294.037 70.9124 307.449 73.319C320.862 75.7255 336.532 83.4064 325.79 89.3756Z" fill="#C896FA"/>
<path d="M333.236 71.7136L301.937 66.3483L328.296 99.6846C328.667 100.152 329.216 100.446 329.814 100.492L348.559 101.994C349.371 102.058 350.15 101.663 350.57 100.974C350.99 100.285 350.981 99.4175 350.546 98.7378L333.236 71.7136Z" fill="#8E37ED"/>
<path d="M300.605 90.7442C300.526 90.7624 300.446 90.7655 300.369 90.7563C299.949 90.7017 299.529 90.2738 299.118 89.4818C297.796 86.9387 296.947 81.4853 299.198 77.3338C299.866 76.1048 301.102 75.3127 302.506 75.2126C303.659 75.1306 305.134 75.4675 305.607 77.5311C306.346 80.7661 303.224 88.2284 301.452 90.1555C301.139 90.4954 300.86 90.6896 300.599 90.7442H300.605ZM302.08 75.8407C301.077 76.0532 300.194 76.6965 299.707 77.6009C297.576 81.5308 298.4 86.8598 299.63 89.2238C299.986 89.9097 300.292 90.1767 300.446 90.1949C300.467 90.198 300.642 90.2071 301.038 89.7761C302.881 87.7732 305.711 80.5112 305.058 77.6555C304.748 76.2929 303.926 75.6799 302.555 75.774C302.396 75.7861 302.237 75.8074 302.083 75.8407H302.08Z" fill="#8E37ED"/>
<path d="M348.444 65.9313L348.44 64.681C348.436 63.6249 347.565 62.7691 346.498 62.7728L346.376 62.7732C345.309 62.7769 344.444 63.6387 344.448 64.6948L344.452 65.9451C344.456 67.0012 345.326 67.857 346.394 67.8533L346.516 67.8529C347.583 67.8492 348.448 66.9874 348.444 65.9313Z" fill="#5F259F"/>
<path d="M341.023 65.395L341.018 64.1448C341.014 63.0887 340.143 62.2333 339.076 62.2376L338.953 62.238C337.886 62.2423 337.022 63.1045 337.026 64.1606L337.031 65.4109C337.035 66.467 337.907 67.3224 338.974 67.3181L339.096 67.3176C340.163 67.3134 341.028 66.4511 341.023 65.395Z" fill="#5F259F"/>
<path d="M333.601 63.7284L333.596 62.4781C333.591 61.4221 332.72 60.5667 331.653 60.5709L331.53 60.5714C330.463 60.5757 329.599 61.4379 329.603 62.494L329.608 63.7443C329.612 64.8004 330.484 65.6557 331.551 65.6515L331.673 65.651C332.741 65.6468 333.605 64.7845 333.601 63.7284Z" fill="#5F259F"/>
<path d="M326.749 61.3685L326.755 62.6219C326.759 63.6794 325.896 64.5403 324.828 64.5448L324.702 64.5453C323.633 64.5497 322.764 63.696 322.759 62.6384L322.754 61.3851C322.749 60.3275 323.612 59.4666 324.681 59.4622L324.806 59.4617C325.875 59.4572 326.745 60.311 326.749 61.3685Z" fill="#5F259F"/>
<path d="M318.754 61.5255L318.749 60.2752C318.745 59.2192 317.873 58.3638 316.806 58.368L316.684 58.3685C315.616 58.3728 314.752 59.235 314.756 60.2911L314.761 61.5414C314.766 62.5975 315.637 63.4528 316.704 63.4486L316.827 63.4481C317.894 63.4439 318.758 62.5816 318.754 61.5255Z" fill="#5F259F"/>
<path d="M311.334 60.4256L311.33 59.1753C311.326 58.1192 310.455 57.2634 309.388 57.2671L309.265 57.2675C308.198 57.2712 307.333 58.133 307.337 59.1891L307.342 60.4394C307.345 61.4954 308.216 62.3512 309.283 62.3476L309.406 62.3471C310.473 62.3435 311.338 61.4816 311.334 60.4256Z" fill="#5F259F"/>
<path d="M303.917 57.5022L303.922 58.7555C303.926 59.8131 303.062 60.6736 301.994 60.6774L301.868 60.6779C300.799 60.6818 299.93 59.8276 299.926 58.77L299.921 57.5167C299.918 56.4591 300.781 55.5987 301.849 55.5948L301.975 55.5943C303.044 55.5904 303.913 56.4446 303.917 57.5022Z" fill="#5F259F"/>
<path d="M297.071 58.2165L297.066 56.9662C297.062 55.9101 296.192 55.0544 295.124 55.0583L295.002 55.0587C293.935 55.0626 293.07 55.9246 293.074 56.9806L293.079 58.2309C293.082 59.29 293.953 60.1427 295.021 60.1388L295.143 60.1384C296.21 60.1345 297.075 59.2725 297.071 58.2165Z" fill="#5F259F"/>
<path d="M289.636 55.8633C289.633 54.8042 288.763 53.9514 287.692 53.9545H287.57C286.499 53.9575 285.638 54.8194 285.641 55.8785L285.647 57.1288C285.65 58.1879 286.521 59.0407 287.591 59.0376H287.714C288.784 59.0346 289.646 58.1727 289.643 57.1136L289.636 55.8633Z" fill="#5F259F"/>
<path d="M282.219 54.1975L282.223 55.4508C282.227 56.5084 281.364 57.3689 280.296 57.3727L280.17 57.3732C279.101 57.3771 278.232 56.5229 278.228 55.4653L278.223 54.212C278.219 53.1544 279.082 52.294 280.151 52.2901L280.277 52.2896C281.345 52.2858 282.215 53.1399 282.219 54.1975Z" fill="#5F259F"/>
<path d="M275.367 54.9107L275.363 53.6604C275.359 52.6043 274.488 51.7485 273.421 51.7522L273.299 51.7526C272.231 51.7563 271.367 52.6181 271.37 53.6742L271.375 54.9245C271.379 55.9805 272.249 56.8364 273.316 56.8327L273.439 56.8322C274.506 56.8286 275.371 55.9667 275.367 54.9107Z" fill="#5F259F"/>
<path d="M249.975 46.0066L263.005 49.536C263.983 49.803 264.633 50.7195 264.547 51.721C264.446 52.9106 264.268 54.2549 264.001 54.1427C263.526 53.9424 243.104 48.8926 243.104 48.8926L249.978 46.0096L249.975 46.0066Z" fill="#5F259F"/>
</g>
<defs>
<clipPath id="clip0_780_5973">
<rect width="135" height="73" fill="white" transform="matrix(-1 0 0 1 367 29)"/>
</clipPath>
</defs>
</svg>
