<svg width="367" height="170" viewBox="0 0 367 170" fill="none" xmlns="http://www.w3.org/2000/svg">
<rect width="367" height="170" rx="10" fill="#F9F8FE"/>
<g clip-path="url(#clip0_780_5974)">
<path d="M375.205 78.8765H332.135V54.8678C332.135 52.7659 333.838 51.0606 335.938 51.0606H372.618C374.044 51.0606 375.205 52.2225 375.205 53.6511V78.8765Z" fill="#C896FA"/>
<path d="M335.36 78.3672H375.205V50.5479H339.163C337.064 50.5479 335.36 52.2532 335.36 54.3551V78.3638V78.3672Z" fill="#EDE1FA"/>
<path d="M283.889 30.3738H285.661V14H283.889V30.3738Z" fill="#8E37ED"/>
<path d="M287.354 15.1346H282.523V14.9398C282.523 14.4204 282.943 14 283.462 14H286.411C286.93 14 287.35 14.4204 287.35 14.9398V15.1346H287.354Z" fill="#8E37ED"/>
<path d="M289.01 34.3962H292.157V26.0265H289.01V34.3962Z" fill="#8E37ED"/>
<path d="M265.916 34.3962H269.063V26.0265H265.916V34.3962Z" fill="#8E37ED"/>
<path d="M301.538 52.6805H260.604V76.0365H301.538V52.6805Z" fill="#EDE1FA"/>
<path d="M263.987 52.848H295.11V30.1551C295.11 29.7928 294.816 29.4955 294.451 29.4955H263.987V52.848Z" fill="#EDE1FA"/>
<path d="M260.642 54.5533L301.023 54.5533C301.801 54.5533 302.433 53.9214 302.433 53.1419V52.5575C302.433 51.7779 301.801 51.146 301.023 51.146L260.642 51.146C259.864 51.146 259.233 51.7779 259.233 52.5575V53.1419C259.233 53.9214 259.864 54.5533 260.642 54.5533Z" fill="#8E37ED"/>
<path d="M267.49 39.9055H271.033V32.9746H267.49V39.9055Z" fill="#C896FA"/>
<path d="M273.6 39.9055H277.144V32.9746H273.6V39.9055Z" fill="#C896FA"/>
<path d="M280.834 39.9055H284.377V32.9746H280.834V39.9055Z" fill="#C896FA"/>
<path d="M286.944 39.9055H290.487V32.9746H286.944V39.9055Z" fill="#C896FA"/>
<path d="M269.576 65.3291H273.119V58.4016H269.576V65.3291Z" fill="#C896FA"/>
<path d="M275.682 65.3291H279.226V58.4016H275.682V65.3291Z" fill="#C896FA"/>
<path d="M282.919 65.3291H286.463V58.4016H282.919V65.3291Z" fill="#C896FA"/>
<path d="M289.027 65.3291H292.57V58.4016H289.027V65.3291Z" fill="#C896FA"/>
<path d="M381.906 86.0226C374.106 89.7752 366.917 93.8182 364.718 99.3855L272.72 99.8913L269.337 86.6686C268.548 83.5893 266.042 80.9817 262.55 79.5907C251.278 75.1102 242.491 71.7405 243.024 64.7856L303.019 64.2422C303.436 64.2388 303.804 64.5054 303.934 64.8984L304.808 67.5539C305.863 70.7664 309.42 73.0323 313.537 73.1075L366.548 74.0986L368.576 70.4999C368.739 70.206 369.05 70.0248 369.388 70.0282L390.447 70.1137C390.884 70.1137 391.154 70.5921 390.928 70.9681L381.913 86.0226H381.906Z" fill="#C896FA"/>
<path d="M381.905 88.1314C374.105 91.8839 366.916 95.9269 364.718 101.494L272.719 102L269.336 88.7773C268.548 85.698 266.042 83.0904 262.55 81.6994C251.278 77.2189 243.641 72.301 243.023 66.8944L301.769 66.0707C302.142 66.0639 302.476 66.2826 302.626 66.6209L304.162 70.1172C305.675 73.4698 309.419 75.141 313.536 75.2162L366.547 76.2073L368.493 72.7487C368.708 72.3694 369.108 72.1301 369.545 72.1267L390.457 71.908L381.909 88.1314H381.905Z" fill="#8E37ED"/>
<path d="M364.275 86.238C362.619 86.238 361.271 84.8881 361.271 83.2305C361.271 81.573 362.619 80.223 364.275 80.223C365.93 80.223 367.279 81.573 367.279 83.2305C367.279 84.8881 365.93 86.238 364.275 86.238ZM364.275 80.9202C363.005 80.9202 361.97 81.9557 361.97 83.2271C361.97 84.4984 363.005 85.534 364.275 85.534C365.544 85.534 366.579 84.4984 366.579 83.2271C366.579 81.9557 365.544 80.9202 364.275 80.9202Z" fill="#C896FA"/>
<path d="M354.709 86.238C353.053 86.238 351.705 84.8881 351.705 83.2305C351.705 81.573 353.053 80.223 354.709 80.223C356.365 80.223 357.713 81.573 357.713 83.2305C357.713 84.8881 356.365 86.238 354.709 86.238ZM354.709 80.9202C353.439 80.9202 352.405 81.9557 352.405 83.2271C352.405 84.4984 353.439 85.534 354.709 85.534C355.979 85.534 357.013 84.4984 357.013 83.2271C357.013 81.9557 355.979 80.9202 354.709 80.9202Z" fill="#C896FA"/>
<path d="M346.124 86.009C344.469 86.009 343.12 84.659 343.12 83.0015C343.12 81.344 344.469 79.994 346.124 79.994C347.78 79.994 349.128 81.344 349.128 83.0015C349.128 84.659 347.78 86.009 346.124 86.009ZM346.124 80.6912C344.854 80.6912 343.82 81.7267 343.82 82.9981C343.82 84.2694 344.854 85.305 346.124 85.305C347.394 85.305 348.428 84.2694 348.428 82.9981C348.428 81.7267 347.394 80.6912 346.124 80.6912Z" fill="#C896FA"/>
<path d="M292.57 74.8916C290.915 74.8916 289.566 73.5416 289.566 71.8841C289.566 70.2265 290.915 68.8766 292.57 68.8766C294.226 68.8766 295.574 70.2265 295.574 71.8841C295.574 73.5416 294.226 74.8916 292.57 74.8916ZM292.57 69.5738C291.301 69.5738 290.266 70.6093 290.266 71.8807C290.266 73.152 291.301 74.1875 292.57 74.1875C293.84 74.1875 294.875 73.152 294.875 71.8807C294.875 70.6093 293.84 69.5738 292.57 69.5738Z" fill="#C896FA"/>
<path d="M282.919 74.8916C281.263 74.8916 279.915 73.5416 279.915 71.8841C279.915 70.2265 281.263 68.8766 282.919 68.8766C284.575 68.8766 285.923 70.2265 285.923 71.8841C285.923 73.5416 284.575 74.8916 282.919 74.8916ZM282.919 69.5738C281.649 69.5738 280.615 70.6093 280.615 71.8807C280.615 73.152 281.649 74.1875 282.919 74.1875C284.189 74.1875 285.223 73.152 285.223 71.8807C285.223 70.6093 284.189 69.5738 282.919 69.5738Z" fill="#C896FA"/>
<path d="M275.368 74.8916C273.713 74.8916 272.364 73.5416 272.364 71.8841C272.364 70.2265 273.713 68.8766 275.368 68.8766C277.024 68.8766 278.372 70.2265 278.372 71.8841C278.372 73.5416 277.024 74.8916 275.368 74.8916ZM275.368 69.5738C274.098 69.5738 273.064 70.6093 273.064 71.8807C273.064 73.152 274.098 74.1875 275.368 74.1875C276.638 74.1875 277.673 73.152 277.673 71.8807C277.673 70.6093 276.638 69.5738 275.368 69.5738Z" fill="#C896FA"/>
<path d="M367.477 79.2832H367.47L315.783 78.3707C315.589 78.3672 315.435 78.2066 315.439 78.0118C315.442 77.8204 315.599 77.6666 315.79 77.6666H315.797L367.483 78.5791C367.678 78.5825 367.832 78.7432 367.828 78.938C367.828 79.1294 367.668 79.2832 367.477 79.2832Z" fill="#C896FA"/>
<path d="M250.745 68.651C250.554 68.651 250.397 68.4972 250.394 68.3058C250.39 68.111 250.544 67.9503 250.738 67.9469L295.481 67.0242C295.666 67.0344 295.836 67.1745 295.84 67.3694C295.843 67.5642 295.69 67.7248 295.495 67.7282L250.752 68.651H250.745Z" fill="#C896FA"/>
</g>
<defs>
<clipPath id="clip0_780_5974">
<rect width="124" height="88" fill="white" transform="translate(243 14)"/>
</clipPath>
</defs>
</svg>
