<svg width="279" height="257" viewBox="0 0 279 257" fill="none" xmlns="http://www.w3.org/2000/svg">
<path d="M266.384 197.657H45.2635C41.9835 197.657 39.3091 194.982 39.3091 191.702V6.2572C39.3091 2.97722 41.9835 0.252319 45.2635 0.252319H221.928" stroke="#E0F3FF" stroke-width="0.504612" stroke-miterlimit="10"/>
<path d="M57.9296 17.9642C59.2116 17.9642 60.2508 16.925 60.2508 15.643C60.2508 14.361 59.2116 13.3218 57.9296 13.3218C56.6476 13.3218 55.6084 14.361 55.6084 15.643C55.6084 16.925 56.6476 17.9642 57.9296 17.9642Z" stroke="#E0F3FF" stroke-width="0.504612" stroke-miterlimit="10"/>
<path d="M72.2607 17.9642C73.5426 17.9642 74.5819 16.925 74.5819 15.643C74.5819 14.361 73.5426 13.3218 72.2607 13.3218C70.9787 13.3218 69.9395 14.361 69.9395 15.643C69.9395 16.925 70.9787 17.9642 72.2607 17.9642Z" stroke="#E0F3FF" stroke-width="0.504612" stroke-miterlimit="10"/>
<path d="M86.5912 17.9642C87.8732 17.9642 88.9124 16.925 88.9124 15.643C88.9124 14.361 87.8732 13.3218 86.5912 13.3218C85.3093 13.3218 84.27 14.361 84.27 15.643C84.27 16.925 85.3093 17.9642 86.5912 17.9642Z" stroke="#E0F3FF" stroke-width="0.504612" stroke-miterlimit="10"/>
<path d="M75.5403 37.4423H108.441C115.405 37.4423 121.107 43.0939 121.107 50.108V78.9214C121.107 85.885 115.455 91.5871 108.441 91.5871H75.5403C68.5766 91.5871 62.8745 85.9355 62.8745 78.9214V50.108C62.8745 43.1444 68.5262 37.4423 75.5403 37.4423Z" fill="white" stroke="#E0F3FF" stroke-width="0.504612" stroke-miterlimit="10"/>
<path d="M101.752 64.8301C104.869 58.8807 102.573 51.531 96.6235 48.4141C90.6741 45.2973 83.3245 47.5935 80.2076 53.5428C77.0907 59.4922 79.3869 66.8419 85.3363 69.9588C91.2857 73.0757 98.6354 70.7795 101.752 64.8301Z" fill="#E0F3FF"/>
<path d="M71.3521 83.3115H88.7612" stroke="#E0F3FF" stroke-width="0.504612" stroke-miterlimit="10"/>
<path d="M71.3521 77.3571H101.629" stroke="#E0F3FF" stroke-width="0.504612" stroke-miterlimit="10"/>
<path d="M104.606 44.1536H113.689" stroke="#E0F3FF" stroke-width="0.504612" stroke-miterlimit="10"/>
<path d="M154.765 37.4423H187.665C194.629 37.4423 200.281 43.0939 200.281 50.108V78.9214C200.281 85.885 194.629 91.5871 187.665 91.5871H154.765C147.801 91.5871 142.149 85.9355 142.149 78.9214V50.108C142.099 43.1444 147.801 37.4423 154.765 37.4423Z" fill="white" stroke="#E0F3FF" stroke-width="0.504612" stroke-miterlimit="10"/>
<path d="M170.256 71.3017C176.945 71.3017 182.367 65.8796 182.367 59.191C182.367 52.5025 176.945 47.0803 170.256 47.0803C163.568 47.0803 158.146 52.5025 158.146 59.191C158.146 65.8796 163.568 71.3017 170.256 71.3017Z" fill="#E0F3FF"/>
<path d="M150.576 83.3115H168.036" stroke="#E0F3FF" stroke-width="0.504612" stroke-miterlimit="10"/>
<path d="M150.576 77.3571H180.853" stroke="#E0F3FF" stroke-width="0.504612" stroke-miterlimit="10"/>
<path d="M183.88 44.1536H192.963" stroke="#E0F3FF" stroke-width="0.504612" stroke-miterlimit="10"/>
<path d="M233.232 37.4423H266.132C273.096 37.4423 278.748 43.0939 278.748 50.108V78.9214C278.748 85.885 273.096 91.5871 266.132 91.5871H233.232C226.268 91.5871 220.616 85.9355 220.616 78.9214V50.108C220.616 43.1444 226.268 37.4423 233.232 37.4423Z" fill="white" stroke="#E0F3FF" stroke-width="0.504612" stroke-miterlimit="10"/>
<path d="M248.723 71.3017C255.412 71.3017 260.834 65.8796 260.834 59.191C260.834 52.5025 255.412 47.0803 248.723 47.0803C242.034 47.0803 236.612 52.5025 236.612 59.191C236.612 65.8796 242.034 71.3017 248.723 71.3017Z" fill="#E0F3FF"/>
<path d="M229.094 83.3115H246.503" stroke="#E0F3FF" stroke-width="0.504612" stroke-miterlimit="10"/>
<path d="M229.094 77.3571H259.371" stroke="#E0F3FF" stroke-width="0.504612" stroke-miterlimit="10"/>
<g opacity="0.46">
<path d="M9.99132 59.8974L10.4455 50.3098L2.37168 55.4569L0 51.3695L8.47748 47.0298L0 42.6397L2.37168 38.5524L10.395 43.7499L9.94086 34.1622H14.6338L14.1796 43.7499L22.2029 38.5524L24.5746 42.6397L16.1476 47.0298L24.6755 51.3695L22.2534 55.4569L14.2301 50.3603L14.6842 59.9479L9.99132 59.8974Z" fill="#C896FA"/>
</g>
<path d="M254.224 158.398L254.678 148.81L246.604 153.957L244.232 149.819L252.71 145.48L244.232 141.09L246.604 137.002L254.627 142.2L254.173 132.612H258.866L258.412 142.2L266.435 137.002L268.807 141.09L260.38 145.48L268.908 149.819L266.486 153.907L258.462 148.81L258.917 158.398H254.224Z" fill="#C896FA"/>
<path d="M157.187 135.488L163.595 141.645L174.192 124.235L176.009 139.778L184.284 131.25L185.192 142.755L197.505 140.635" stroke="#FFE699" stroke-width="1.00922" stroke-miterlimit="10"/>
<path d="M62.3198 83.3619C65.4484 85.0272 68.2742 87.0961 70.7973 89.6191C72.0588 90.8807 73.3204 92.4954 73.1185 94.2616C72.9167 96.0277 71.3019 97.2892 69.4853 97.0874C68.8798 97.0369 68.2742 96.7342 67.8201 96.3809" fill="#342C53"/>
<path d="M52.4289 95.8762C53.2363 94.6651 53.3877 93.2017 52.9335 91.8393C52.6812 90.9815 52.0757 90.2245 51.2683 89.8208C50.3095 89.4172 49.2498 89.4676 48.3415 89.9218C45.9194 91.0319 44.8597 93.9082 45.9699 96.3303C47.08 98.7525 49.9563 99.8122 52.3784 98.702" fill="#E0F3FF"/>
<path d="M92.6973 152.09C92.6973 144.824 98.6012 138.97 105.817 138.97C113.033 138.97 118.937 144.874 118.937 152.09" stroke="#FFE699" stroke-width="1.00922" stroke-miterlimit="10"/>
<path d="M155.774 152.393H89.5688V211.281H155.774V152.393Z" fill="#FFA06D" stroke="#FFE699" stroke-width="0.504612" stroke-miterlimit="10"/>
<path d="M116.767 157.237H101.982V169.852H116.767V157.237Z" fill="white"/>
<path d="M69.5862 91.5366V98.9544L70.9487 100.216C71.1505 100.367 71.1505 100.67 70.9991 100.872C70.9487 100.922 70.8982 100.973 70.8477 100.973L68.4256 102.033C68.4256 102.033 67.265 110.005 64.3382 109.703C62.5721 109.501 60.9069 108.693 59.6453 107.432L56.1635 117.827L59.1407 120.451C60.2004 121.359 60.9573 122.52 61.361 123.832L62.3702 127.061L55.9112 130.795L39.7132 124.639L35.6763 117.474L43.5987 108.239L50.3605 97.8443L54.1955 86.7428L66.5081 87.6006L69.5862 91.5366Z" fill="#E0F3FF"/>
<path d="M69.5354 202.299C69.5354 202.299 89.2153 205.932 90.7291 209.414C92.243 212.896 91.3851 216.882 80.1323 219.506C68.8794 222.13 55.81 217.69 52.1768 216.176C52.1768 216.226 59.9478 201.29 69.5354 202.299Z" fill="#342C53"/>
<path d="M45.8691 103.395C46.9792 103.395 47.5343 102.487 48.1903 101.477L50.3601 97.8442C50.3601 97.8442 46.2728 97.3396 46.5755 94.8166C46.8783 92.2935 50.0069 89.5181 51.7226 91.9403C52.429 92.9495 52.0758 96.2295 53.186 95.624C54.2961 95.0184 54.1447 93.6055 55.5576 93.555C56.9706 93.5046 59.1908 96.0781 61.0579 95.2707C62.925 94.4633 66.0536 90.0228 68.3748 90.5778C69.5859 90.8806 69.6363 92.8486 69.6363 92.8486C69.6363 92.8486 70.9483 91.5871 69.384 89.4677C67.8197 87.3483 62.8745 80.1324 52.3281 81.9994C50.1583 82.4031 48.3921 83.816 46.9792 85.4308C46.1719 86.44 45.5663 87.6006 45.314 88.8622C44.9608 90.4264 44.2039 91.8898 43.0433 93C41.7817 94.3624 40.3184 95.8258 40.3184 97.6929C40.3184 99.4085 41.6303 100.872 42.9928 101.982C43.5983 102.588 44.3553 102.991 45.1626 103.244C45.3645 103.395 45.6168 103.395 45.8691 103.395Z" fill="#342C53"/>
<path d="M89.5688 130.745C89.5688 130.745 99.4088 119.795 104.96 133.218C105.363 134.227 105.868 137.759 106.221 140.585C106.473 142.2 106.827 143.764 107.23 145.328C107.23 146.741 104.606 146.287 103.547 142.452C103.092 141.039 102.588 139.626 101.982 138.264L92.1928 150.122" fill="#E0F3FF"/>
<path d="M18.7715 164.403C18.7715 164.403 0.252208 188.977 12.1106 207.143C23.969 225.309 50.4611 220.515 67.6684 209.919C84.8756 199.322 95.6743 186.202 96.9359 177.321C98.1974 168.439 85.8849 158.902 52.53 183.124L44.759 166.219" fill="#FF6D6D"/>
<path d="M62.3197 127.112L64.2877 155.37L91.4863 128.727L92.3946 153.856L64.5905 174.142C55.2047 181.257 50.9659 164.756 50.9659 164.756C50.9659 164.756 49.2502 169.348 46.9795 169.146C38.9057 169.045 20.1341 169.852 16.8037 160.568C16.0972 158.549 16.0468 156.43 16.1982 154.31C16.2991 152.241 16.6018 150.223 17.056 148.205C18.6708 141.09 35.323 116.717 36.0294 117.02C36.7359 117.423 62.3197 127.112 62.3197 127.112Z" fill="#FFBC99"/>
<path d="M155.824 152.393H132.158V211.281H155.824V152.393Z" fill="#FFBC99" stroke="#FFE699" stroke-width="0.504612" stroke-miterlimit="10"/>
<g clip-path="url(#clip0_188_2970)">
<path d="M91.5869 193.014L152.494 132.107" stroke="#FFE699" stroke-width="0.504612" stroke-miterlimit="10"/>
<path d="M93.8071 195.285L154.764 134.328" stroke="#FFE699" stroke-width="0.504612" stroke-miterlimit="10"/>
<path d="M96.0776 197.505L156.984 136.548" stroke="#FFE699" stroke-width="0.504612" stroke-miterlimit="10"/>
<path d="M98.2983 199.725L159.205 138.819" stroke="#FFE699" stroke-width="0.504612" stroke-miterlimit="10"/>
<path d="M100.519 201.946L161.425 141.039" stroke="#FFE699" stroke-width="0.504612" stroke-miterlimit="10"/>
<path d="M102.739 204.166L163.645 143.259" stroke="#FFE699" stroke-width="0.504612" stroke-miterlimit="10"/>
<path d="M104.959 206.386L165.916 145.479" stroke="#FFE699" stroke-width="0.504612" stroke-miterlimit="10"/>
<path d="M107.179 208.657L168.136 147.7" stroke="#FFE699" stroke-width="0.504612" stroke-miterlimit="10"/>
<path d="M109.45 210.877L170.357 149.971" stroke="#FFE699" stroke-width="0.504612" stroke-miterlimit="10"/>
<path d="M111.67 213.098L172.577 152.191" stroke="#FFE699" stroke-width="0.504612" stroke-miterlimit="10"/>
<path d="M113.891 215.318L174.797 154.411" stroke="#FFE699" stroke-width="0.504612" stroke-miterlimit="10"/>
<path d="M116.111 217.589L177.068 156.631" stroke="#FFE699" stroke-width="0.504612" stroke-miterlimit="10"/>
<path d="M118.382 219.809L179.288 158.902" stroke="#FFE699" stroke-width="0.504612" stroke-miterlimit="10"/>
<path d="M120.602 222.029L181.509 161.122" stroke="#FFE699" stroke-width="0.504612" stroke-miterlimit="10"/>
<path d="M122.822 224.249L183.729 163.343" stroke="#FFE699" stroke-width="0.504612" stroke-miterlimit="10"/>
<path d="M125.042 226.47L185.949 165.563" stroke="#FFE699" stroke-width="0.504612" stroke-miterlimit="10"/>
<path d="M127.263 228.74L188.22 167.783" stroke="#FFE699" stroke-width="0.504612" stroke-miterlimit="10"/>
<path d="M129.534 230.961L190.44 170.004" stroke="#FFE699" stroke-width="0.504612" stroke-miterlimit="10"/>
<path d="M131.754 233.181L192.661 172.274" stroke="#FFE699" stroke-width="0.504612" stroke-miterlimit="10"/>
<path d="M133.974 235.401L194.881 174.495" stroke="#FFE699" stroke-width="0.504612" stroke-miterlimit="10"/>
<path d="M136.194 237.622L197.101 176.715" stroke="#FFE699" stroke-width="0.504612" stroke-miterlimit="10"/>
<path d="M138.415 239.892L199.372 178.935" stroke="#FFE699" stroke-width="0.504612" stroke-miterlimit="10"/>
</g>
<path d="M61.613 95.8763C63.1268 94.7661 65.2966 95.1193 66.3563 96.6332C66.76 97.1883 66.9619 97.8443 67.0123 98.5002C65.9526 98.9544 64.792 99.7113 63.5305 99.0553C62.269 98.5002 61.5121 97.2387 61.613 95.8763Z" fill="white"/>
<path d="M67.0123 98.3488C66.8104 96.3809 65.0947 94.9175 63.1268 95.1193C62.4708 95.1698 61.8652 95.4221 61.3102 95.8258C61.2092 95.9267 61.3102 96.1286 61.4615 96.0276C62.9249 94.9175 65.0443 95.2202 66.1544 96.6836C66.5077 97.1882 66.76 97.7433 66.8104 98.3488C66.76 98.5002 67.0627 98.5002 67.0123 98.3488Z" fill="#342C53"/>
<path d="M65.7512 96.0781C64.8429 96.0781 62.8244 97.3901 62.6226 98.5003C62.8749 98.7526 63.1776 98.9544 63.5309 99.1058C64.641 99.5095 65.3979 99.6609 67.0127 98.5507C66.8613 97.592 66.4576 96.7341 65.7512 96.0781Z" fill="#342C53"/>
<path d="M63.5305 102.689C64.6911 103.647 66.205 104.152 67.7188 104.051C67.8702 104.051 67.8702 103.799 67.7188 103.799C67.0123 103.849 66.2554 103.748 65.5994 103.496C64.893 103.294 64.237 102.941 63.6819 102.487C63.581 102.386 63.3791 102.588 63.5305 102.689Z" fill="#342C53"/>
<path d="M61.7646 93.3533C63.3794 91.9908 65.3474 92.0413 66.7603 93.4542C66.8612 93.5046 66.8612 93.656 66.7603 93.7569C66.7098 93.8074 66.6594 93.8074 66.6089 93.8074C64.8932 93.656 63.5308 93.4037 61.7646 93.3533Z" fill="#342C53"/>
<path opacity="0.21" d="M58.6362 102.739C60.169 102.739 61.4116 101.496 61.4116 99.9636C61.4116 98.4308 60.169 97.1882 58.6362 97.1882C57.1034 97.1882 55.8608 98.4308 55.8608 99.9636C55.8608 101.496 57.1034 102.739 58.6362 102.739Z" fill="#FFE0E0"/>
<path d="M59.6957 107.684L54.7505 103.042C55.8102 106.069 56.8194 109.753 57.8791 112.831" fill="#2D7CB3"/>
<path d="M99.1055 141.746L103.344 136.296" stroke="#2D7CB3" stroke-width="0.504612" stroke-miterlimit="10"/>
<path d="M49.1997 93.0504L50.6631 95.7249" stroke="#2D7CB3" stroke-width="0.378459" stroke-miterlimit="10"/>
<path d="M173.435 174.495H149.769L132.158 152.393H155.824L173.435 174.495Z" fill="#FFE699"/>
<path d="M222.483 168.692H156.278V227.58H222.483V168.692Z" fill="#FFA06D" stroke="#FFE699" stroke-width="0.504612" stroke-miterlimit="10"/>
<path d="M183.477 173.536H168.692V186.151H183.477V173.536Z" fill="white"/>
<path d="M222.534 168.692H198.868V227.58H222.534V168.692Z" fill="#FFBC99" stroke="#FFE699" stroke-width="0.504612" stroke-miterlimit="10"/>
<g clip-path="url(#clip1_188_2970)">
<path d="M158.297 209.313L219.204 148.406" stroke="#FFE699" stroke-width="0.504612" stroke-miterlimit="10"/>
<path d="M160.517 211.584L221.474 150.627" stroke="#FFE699" stroke-width="0.504612" stroke-miterlimit="10"/>
<path d="M162.737 213.804L223.694 152.847" stroke="#FFE699" stroke-width="0.504612" stroke-miterlimit="10"/>
<path d="M165.008 216.024L225.914 155.118" stroke="#FFE699" stroke-width="0.504612" stroke-miterlimit="10"/>
<path d="M167.229 218.245L228.135 157.338" stroke="#FFE699" stroke-width="0.504612" stroke-miterlimit="10"/>
<path d="M169.449 220.465L230.355 159.558" stroke="#FFE699" stroke-width="0.504612" stroke-miterlimit="10"/>
<path d="M171.669 222.736L232.576 161.779" stroke="#FFE699" stroke-width="0.504612" stroke-miterlimit="10"/>
<path d="M173.889 224.956L234.846 163.999" stroke="#FFE699" stroke-width="0.504612" stroke-miterlimit="10"/>
<path d="M176.109 227.176L237.066 166.219" stroke="#FFE699" stroke-width="0.504612" stroke-miterlimit="10"/>
<path d="M178.38 229.397L239.287 168.49" stroke="#FFE699" stroke-width="0.504612" stroke-miterlimit="10"/>
<path d="M180.601 231.617L241.507 170.71" stroke="#FFE699" stroke-width="0.504612" stroke-miterlimit="10"/>
<path d="M182.821 233.888L243.778 172.931" stroke="#FFE699" stroke-width="0.504612" stroke-miterlimit="10"/>
<path d="M185.041 236.108L245.998 175.151" stroke="#FFE699" stroke-width="0.504612" stroke-miterlimit="10"/>
<path d="M187.312 238.328L248.219 177.422" stroke="#FFE699" stroke-width="0.504612" stroke-miterlimit="10"/>
<path d="M189.532 240.549L250.439 179.642" stroke="#FFE699" stroke-width="0.504612" stroke-miterlimit="10"/>
<path d="M191.752 242.769L252.659 181.862" stroke="#FFE699" stroke-width="0.504612" stroke-miterlimit="10"/>
<path d="M193.973 245.04L254.879 184.083" stroke="#FFE699" stroke-width="0.504612" stroke-miterlimit="10"/>
<path d="M196.193 247.26L257.15 186.303" stroke="#FFE699" stroke-width="0.504612" stroke-miterlimit="10"/>
<path d="M198.464 249.48L259.371 188.574" stroke="#FFE699" stroke-width="0.504612" stroke-miterlimit="10"/>
<path d="M200.684 251.7L261.591 190.794" stroke="#FFE699" stroke-width="0.504612" stroke-miterlimit="10"/>
<path d="M202.904 253.921L263.811 193.014" stroke="#FFE699" stroke-width="0.504612" stroke-miterlimit="10"/>
<path d="M205.125 256.192L266.032 195.234" stroke="#FFE699" stroke-width="0.504612" stroke-miterlimit="10"/>
</g>
<path d="M22.4047 74.7835C19.6294 79.2241 19.8312 84.9262 22.8589 89.2154C29.7721 98.6012 46.6766 93.5046 46.5252 81.5453C46.3738 69.3842 28.8638 64.7417 22.4047 74.7835Z" fill="#342C53"/>
<path d="M105.313 136.498C107.987 139.979 109.248 141.039 110.359 141.291C110.964 141.342 111.57 141.14 112.024 140.736L108.895 136.75L103.698 130.089" fill="#E0F3FF"/>
<path d="M103.749 130.089L106.221 141.645L107.029 144.925" stroke="#2D7CB3" stroke-width="0.504612" stroke-miterlimit="10"/>
<path d="M55.9108 117.726C55.9108 117.726 52.5804 115.909 49.5527 116.666" stroke="#2D7CB3" stroke-width="0.378459" stroke-miterlimit="10"/>
<path d="M52.631 183.023L36.4834 194.73" stroke="white" stroke-width="0.504612" stroke-miterlimit="10"/>
<path d="M50.966 164.756L46.5254 135.69" stroke="#FF6D6D" stroke-width="0.504612" stroke-miterlimit="10"/>
<defs>
<clipPath id="clip0_188_2970">
<rect width="24.726" height="59.0396" fill="white" transform="translate(131.704 152.393)"/>
</clipPath>
<clipPath id="clip1_188_2970">
<rect width="23.7168" height="59.0396" fill="white" transform="translate(198.817 168.54)"/>
</clipPath>
</defs>
</svg>
