<svg width="26" height="26" viewBox="0 0 26 26" fill="none" xmlns="http://www.w3.org/2000/svg">
<rect width="26" height="26" rx="7" fill="#F9F8FE"/>
<path d="M18.6666 9.85183L13 13M13 13L7.33331 9.85183M13 13L13 19.3333M19 15.7057V10.2943C19 10.0659 19 9.95165 18.9663 9.84979C18.9366 9.75967 18.8879 9.67695 18.8236 9.60716C18.7509 9.52827 18.651 9.4728 18.4514 9.36186L13.518 6.62112C13.329 6.51608 13.2344 6.46356 13.1343 6.44297C13.0457 6.42475 12.9543 6.42475 12.8657 6.44297C12.7656 6.46356 12.6711 6.51608 12.482 6.62112L7.54865 9.36186C7.34896 9.4728 7.24912 9.52827 7.17642 9.60716C7.11211 9.67695 7.06343 9.75967 7.03366 9.84979C7 9.95166 7 10.0659 7 10.2943V15.7057C7 15.9341 7 16.0483 7.03366 16.1502C7.06343 16.2403 7.11211 16.3231 7.17642 16.3928C7.24912 16.4717 7.34897 16.5272 7.54865 16.6381L12.482 19.3789C12.6711 19.4839 12.7656 19.5364 12.8657 19.557C12.9543 19.5752 13.0457 19.5752 13.1343 19.557C13.2344 19.5364 13.329 19.4839 13.518 19.3789L18.4514 16.6381C18.651 16.5272 18.7509 16.4717 18.8236 16.3928C18.8879 16.3231 18.9366 16.2403 18.9663 16.1502C19 16.0483 19 15.9341 19 15.7057Z" stroke="#C896FA" stroke-width="1.5" stroke-linecap="round" stroke-linejoin="round"/>
<path d="M16 11.3333L10 8" stroke="#C896FA" stroke-width="1.5" stroke-linecap="round" stroke-linejoin="round"/>
</svg>
