<svg width="220" height="84" viewBox="0 0 220 84" fill="none" xmlns="http://www.w3.org/2000/svg">
<g filter="url(#filter0_d_126_967)">
<rect x="20" y="16" width="180" height="44" rx="10" fill="#5F259F" shape-rendering="crispEdges"/>
<path d="M64 46.3334C64.8333 42.1667 70.6666 41.6819 70.6666 36.3334C70.6666 32.6515 67.6819 29.6667 64 29.6667C60.3181 29.6667 57.3333 32.6515 57.3333 36.3334C57.3333 41.6819 63.1666 42.1667 64 46.3334Z" stroke="white" stroke-width="2" stroke-linecap="round" stroke-linejoin="round"/>
<path d="M64 38.8334C65.3807 38.8334 66.5 37.7141 66.5 36.3334C66.5 34.9526 65.3807 33.8334 64 33.8334C62.6193 33.8334 61.5 34.9526 61.5 36.3334C61.5 37.7141 62.6193 38.8334 64 38.8334Z" stroke="white" stroke-width="2" stroke-linecap="round" stroke-linejoin="round"/>
<path d="M88.0284 33.2727L90.2997 40.142H90.3892L92.6562 33.2727H94.3949L91.3182 42H89.3665L86.294 33.2727H88.0284ZM97.6708 42.1278C97.0146 42.1278 96.4478 41.9915 95.9705 41.7188C95.4961 41.4432 95.131 41.054 94.8754 40.5511C94.6197 40.0455 94.4918 39.4503 94.4918 38.7656C94.4918 38.0923 94.6197 37.5014 94.8754 36.9929C95.1339 36.4815 95.4947 36.0838 95.9577 35.7997C96.4208 35.5128 96.9648 35.3693 97.5898 35.3693C97.9933 35.3693 98.3739 35.4347 98.7319 35.5653C99.0927 35.6932 99.4109 35.892 99.6864 36.1619C99.9648 36.4318 100.184 36.7756 100.343 37.1932C100.502 37.608 100.581 38.1023 100.581 38.6761V39.1491H95.2163V38.1094H99.1026C99.0998 37.8139 99.0359 37.5511 98.9109 37.321C98.7859 37.0881 98.6112 36.9048 98.3867 36.7713C98.1651 36.6378 97.9066 36.571 97.6112 36.571C97.2958 36.571 97.0188 36.6477 96.7802 36.8011C96.5415 36.9517 96.3555 37.1506 96.2219 37.3977C96.0913 37.642 96.0245 37.9105 96.0217 38.2031V39.1108C96.0217 39.4915 96.0913 39.8182 96.2305 40.0909C96.3697 40.3608 96.5643 40.5682 96.8143 40.7131C97.0643 40.8551 97.3569 40.9261 97.6921 40.9261C97.9165 40.9261 98.1197 40.8949 98.3015 40.8324C98.4833 40.767 98.641 40.6719 98.7745 40.5469C98.908 40.4219 99.0089 40.267 99.0771 40.0824L100.517 40.2443C100.426 40.625 100.253 40.9574 99.9975 41.2415C99.7447 41.5227 99.4208 41.7415 99.0259 41.8977C98.631 42.0511 98.1793 42.1278 97.6708 42.1278ZM101.886 42V35.4545H103.382V36.5455H103.45C103.57 36.1676 103.774 35.8764 104.064 35.6719C104.357 35.4645 104.69 35.3608 105.065 35.3608C105.151 35.3608 105.246 35.3651 105.351 35.3736C105.459 35.3793 105.548 35.3892 105.619 35.4034V36.8224C105.554 36.7997 105.45 36.7798 105.308 36.7628C105.169 36.7429 105.034 36.733 104.903 36.733C104.622 36.733 104.369 36.794 104.145 36.9162C103.923 37.0355 103.749 37.2017 103.621 37.4148C103.493 37.6278 103.429 37.8736 103.429 38.152V42H101.886ZM113.793 39.2472V35.4545H115.335V42H113.839V40.8366H113.771C113.624 41.2031 113.381 41.5028 113.043 41.7358C112.707 41.9687 112.294 42.0852 111.803 42.0852C111.374 42.0852 110.994 41.9901 110.665 41.7997C110.338 41.6065 110.082 41.3267 109.898 40.9602C109.713 40.5909 109.621 40.1449 109.621 39.6222V35.4545H111.163V39.3835C111.163 39.7983 111.277 40.1278 111.504 40.3722C111.732 40.6165 112.03 40.7386 112.399 40.7386C112.626 40.7386 112.847 40.6832 113.06 40.5724C113.273 40.4616 113.447 40.2969 113.584 40.0781C113.723 39.8565 113.793 39.5795 113.793 39.2472ZM116.99 42V33.2727H118.532V36.5369H118.596C118.676 36.3778 118.788 36.2088 118.933 36.0298C119.078 35.848 119.274 35.6932 119.521 35.5653C119.768 35.4347 120.083 35.3693 120.467 35.3693C120.973 35.3693 121.429 35.4986 121.835 35.7571C122.244 36.0128 122.568 36.392 122.806 36.8949C123.048 37.3949 123.169 38.0085 123.169 38.7358C123.169 39.4545 123.051 40.0653 122.815 40.5682C122.579 41.071 122.258 41.4545 121.852 41.7188C121.446 41.983 120.985 42.1151 120.471 42.1151C120.096 42.1151 119.785 42.0526 119.538 41.9276C119.291 41.8026 119.092 41.652 118.941 41.4759C118.794 41.2969 118.679 41.1278 118.596 40.9688H118.507V42H116.99ZM118.502 38.7273C118.502 39.1506 118.562 39.5213 118.681 39.8395C118.804 40.1577 118.978 40.4062 119.206 40.5852C119.436 40.7614 119.714 40.8494 120.041 40.8494C120.382 40.8494 120.667 40.7585 120.897 40.5767C121.127 40.392 121.301 40.1406 121.417 39.8224C121.537 39.5014 121.596 39.1364 121.596 38.7273C121.596 38.321 121.538 37.9602 121.422 37.6449C121.305 37.3295 121.132 37.0824 120.902 36.9034C120.672 36.7244 120.385 36.6349 120.041 36.6349C119.711 36.6349 119.431 36.7216 119.201 36.8949C118.971 37.0682 118.797 37.3111 118.677 37.6236C118.561 37.9361 118.502 38.304 118.502 38.7273ZM124.48 42V35.4545H126.023V42H124.48ZM125.256 34.5256C125.011 34.5256 124.801 34.4446 124.625 34.2827C124.449 34.1179 124.361 33.9205 124.361 33.6903C124.361 33.4574 124.449 33.2599 124.625 33.098C124.801 32.9332 125.011 32.8509 125.256 32.8509C125.503 32.8509 125.713 32.9332 125.886 33.098C126.063 33.2599 126.151 33.4574 126.151 33.6903C126.151 33.9205 126.063 34.1179 125.886 34.2827C125.713 34.4446 125.503 34.5256 125.256 34.5256ZM130.464 42.1278C129.811 42.1278 129.25 41.9844 128.781 41.6974C128.315 41.4105 127.956 41.0142 127.703 40.5085C127.453 40 127.328 39.4148 127.328 38.7528C127.328 38.0881 127.456 37.5014 127.711 36.9929C127.967 36.4815 128.328 36.0838 128.794 35.7997C129.262 35.5128 129.816 35.3693 130.456 35.3693C130.987 35.3693 131.457 35.4673 131.866 35.6634C132.278 35.8565 132.606 36.1307 132.85 36.4858C133.095 36.8381 133.234 37.25 133.268 37.7216H131.794C131.734 37.4062 131.592 37.1435 131.368 36.9332C131.146 36.7202 130.849 36.6136 130.477 36.6136C130.162 36.6136 129.885 36.6989 129.646 36.8693C129.407 37.0369 129.221 37.2784 129.088 37.5938C128.957 37.9091 128.892 38.2869 128.892 38.7273C128.892 39.1733 128.957 39.5568 129.088 39.8778C129.218 40.196 129.402 40.4418 129.637 40.6151C129.876 40.7855 130.156 40.8707 130.477 40.8707C130.704 40.8707 130.907 40.8281 131.086 40.7429C131.268 40.6548 131.42 40.5284 131.542 40.3636C131.664 40.1989 131.748 39.9986 131.794 39.7628H133.268C133.231 40.2259 133.095 40.6364 132.859 40.9943C132.623 41.3494 132.302 41.6278 131.896 41.8295C131.49 42.0284 131.012 42.1278 130.464 42.1278ZM136.418 42.1321C136.004 42.1321 135.63 42.0582 135.298 41.9105C134.968 41.7599 134.707 41.5384 134.513 41.2457C134.323 40.9531 134.228 40.5923 134.228 40.1634C134.228 39.794 134.296 39.4886 134.433 39.2472C134.569 39.0057 134.755 38.8125 134.991 38.6676C135.227 38.5227 135.492 38.4134 135.788 38.3395C136.086 38.2628 136.394 38.2074 136.712 38.1733C137.096 38.1335 137.407 38.098 137.646 38.0668C137.884 38.0327 138.058 37.9815 138.165 37.9134C138.276 37.8423 138.332 37.733 138.332 37.5852V37.5597C138.332 37.2386 138.237 36.9901 138.046 36.8139C137.856 36.6378 137.582 36.5497 137.224 36.5497C136.846 36.5497 136.546 36.6321 136.325 36.7969C136.106 36.9616 135.958 37.1562 135.881 37.3807L134.441 37.1761C134.555 36.7784 134.742 36.446 135.004 36.179C135.265 35.9091 135.585 35.7074 135.962 35.5739C136.34 35.4375 136.758 35.3693 137.215 35.3693C137.531 35.3693 137.844 35.4062 138.157 35.4801C138.469 35.554 138.755 35.6761 139.013 35.8466C139.272 36.0142 139.479 36.2429 139.636 36.5327C139.795 36.8224 139.874 37.1847 139.874 37.6193V42H138.391V41.1009H138.34C138.246 41.2827 138.114 41.4531 137.944 41.6122C137.776 41.7685 137.565 41.8949 137.309 41.9915C137.056 42.0852 136.759 42.1321 136.418 42.1321ZM136.819 40.9986C137.129 40.9986 137.397 40.9375 137.624 40.8153C137.852 40.6903 138.026 40.5256 138.148 40.321C138.273 40.1165 138.336 39.8935 138.336 39.652V38.8807C138.288 38.9205 138.205 38.9574 138.089 38.9915C137.975 39.0256 137.847 39.0554 137.705 39.081C137.563 39.1065 137.423 39.1293 137.283 39.1491C137.144 39.169 137.023 39.1861 136.921 39.2003C136.691 39.2315 136.485 39.2827 136.303 39.3537C136.121 39.4247 135.978 39.5241 135.873 39.652C135.768 39.777 135.715 39.9389 135.715 40.1378C135.715 40.4219 135.819 40.6364 136.026 40.7812C136.234 40.9261 136.498 40.9986 136.819 40.9986ZM144.281 42.1278C143.627 42.1278 143.066 41.9844 142.597 41.6974C142.131 41.4105 141.772 41.0142 141.519 40.5085C141.269 40 141.144 39.4148 141.144 38.7528C141.144 38.0881 141.272 37.5014 141.528 36.9929C141.783 36.4815 142.144 36.0838 142.61 35.7997C143.079 35.5128 143.633 35.3693 144.272 35.3693C144.803 35.3693 145.273 35.4673 145.683 35.6634C146.094 35.8565 146.423 36.1307 146.667 36.4858C146.911 36.8381 147.05 37.25 147.085 37.7216H145.61C145.55 37.4062 145.408 37.1435 145.184 36.9332C144.962 36.7202 144.665 36.6136 144.293 36.6136C143.978 36.6136 143.701 36.6989 143.462 36.8693C143.224 37.0369 143.038 37.2784 142.904 37.5938C142.773 37.9091 142.708 38.2869 142.708 38.7273C142.708 39.1733 142.773 39.5568 142.904 39.8778C143.035 40.196 143.218 40.4418 143.454 40.6151C143.692 40.7855 143.972 40.8707 144.293 40.8707C144.521 40.8707 144.724 40.8281 144.903 40.7429C145.085 40.6548 145.237 40.5284 145.359 40.3636C145.481 40.1989 145.565 39.9986 145.61 39.7628H147.085C147.048 40.2259 146.911 40.6364 146.675 40.9943C146.44 41.3494 146.119 41.6278 145.712 41.8295C145.306 42.0284 144.829 42.1278 144.281 42.1278ZM148.351 42V35.4545H149.894V42H148.351ZM149.127 34.5256C148.882 34.5256 148.672 34.4446 148.496 34.2827C148.32 34.1179 148.232 33.9205 148.232 33.6903C148.232 33.4574 148.32 33.2599 148.496 33.098C148.672 32.9332 148.882 32.8509 149.127 32.8509C149.374 32.8509 149.584 32.9332 149.757 33.098C149.934 33.2599 150.022 33.4574 150.022 33.6903C150.022 33.9205 149.934 34.1179 149.757 34.2827C149.584 34.4446 149.374 34.5256 149.127 34.5256ZM154.335 42.1278C153.696 42.1278 153.142 41.9872 152.673 41.706C152.205 41.4247 151.841 41.0312 151.582 40.5256C151.327 40.0199 151.199 39.429 151.199 38.7528C151.199 38.0767 151.327 37.4844 151.582 36.9759C151.841 36.4673 152.205 36.0724 152.673 35.7912C153.142 35.5099 153.696 35.3693 154.335 35.3693C154.974 35.3693 155.528 35.5099 155.997 35.7912C156.466 36.0724 156.828 36.4673 157.084 36.9759C157.342 37.4844 157.472 38.0767 157.472 38.7528C157.472 39.429 157.342 40.0199 157.084 40.5256C156.828 41.0312 156.466 41.4247 155.997 41.706C155.528 41.9872 154.974 42.1278 154.335 42.1278ZM154.344 40.892C154.69 40.892 154.98 40.7969 155.213 40.6065C155.446 40.4134 155.619 40.1548 155.733 39.831C155.849 39.5071 155.908 39.1463 155.908 38.7486C155.908 38.348 155.849 37.9858 155.733 37.6619C155.619 37.3352 155.446 37.0753 155.213 36.8821C154.98 36.6889 154.69 36.5923 154.344 36.5923C153.989 36.5923 153.693 36.6889 153.457 36.8821C153.224 37.0753 153.05 37.3352 152.933 37.6619C152.82 37.9858 152.763 38.348 152.763 38.7486C152.763 39.1463 152.82 39.5071 152.933 39.831C153.05 40.1548 153.224 40.4134 153.457 40.6065C153.693 40.7969 153.989 40.892 154.344 40.892ZM153.743 34.5938L154.697 32.6463H156.206L154.898 34.5938H153.743ZM160.324 38.1648V42H158.781V35.4545H160.255V36.5668H160.332C160.483 36.2003 160.723 35.9091 161.052 35.6932C161.385 35.4773 161.795 35.3693 162.284 35.3693C162.735 35.3693 163.129 35.4659 163.464 35.6591C163.802 35.8523 164.064 36.1321 164.248 36.4986C164.436 36.8651 164.528 37.3097 164.525 37.8324V42H162.983V38.071C162.983 37.6335 162.869 37.2912 162.642 37.044C162.417 36.7969 162.106 36.6733 161.708 36.6733C161.439 36.6733 161.199 36.733 160.988 36.8523C160.781 36.9687 160.618 37.1378 160.498 37.3594C160.382 37.581 160.324 37.8494 160.324 38.1648Z" fill="white"/>
</g>
<defs>
<filter id="filter0_d_126_967" x="0" y="0" width="220" height="84" filterUnits="userSpaceOnUse" color-interpolation-filters="sRGB">
<feFlood flood-opacity="0" result="BackgroundImageFix"/>
<feColorMatrix in="SourceAlpha" type="matrix" values="0 0 0 0 0 0 0 0 0 0 0 0 0 0 0 0 0 0 127 0" result="hardAlpha"/>
<feOffset dy="4"/>
<feGaussianBlur stdDeviation="10"/>
<feComposite in2="hardAlpha" operator="out"/>
<feColorMatrix type="matrix" values="0 0 0 0 0.890451 0 0 0 0 0.882708 0 0 0 0 0.929167 0 0 0 1 0"/>
<feBlend mode="normal" in2="BackgroundImageFix" result="effect1_dropShadow_126_967"/>
<feBlend mode="normal" in="SourceGraphic" in2="effect1_dropShadow_126_967" result="shape"/>
</filter>
</defs>
</svg>
