<svg width="159" height="84" viewBox="0 0 159 84" fill="none" xmlns="http://www.w3.org/2000/svg">
<g filter="url(#filter0_d_126_974)">
<rect x="20" y="16" width="119" height="44" rx="10" fill="white" shape-rendering="crispEdges"/>
<path d="M55.208 33C56.022 33.1588 56.77 33.5569 57.3564 34.1433C57.9428 34.7297 58.3409 35.4777 58.4997 36.2917M55.208 29.6667C56.8991 29.8546 58.476 30.6118 59.6799 31.8142C60.8838 33.0166 61.643 34.5925 61.833 36.2834M52.0222 39.5526C51.0208 38.5513 50.2302 37.4191 49.6502 36.211C49.6003 36.1071 49.5754 36.0552 49.5562 35.9894C49.4881 35.7558 49.537 35.4689 49.6787 35.2711C49.7186 35.2154 49.7662 35.1678 49.8614 35.0725C50.1528 34.7812 50.2984 34.6355 50.3937 34.489C50.7528 33.9366 50.7528 33.2245 50.3937 32.672C50.2984 32.5256 50.1528 32.3799 49.8614 32.0886L49.699 31.9262C49.2562 31.4833 49.0347 31.2619 48.7969 31.1416C48.324 30.9024 47.7654 30.9024 47.2924 31.1416C47.0546 31.2619 46.8332 31.4833 46.3903 31.9262L46.259 32.0575C45.8176 32.4989 45.5969 32.7196 45.4284 33.0196C45.2414 33.3525 45.1069 33.8696 45.108 34.2514C45.1091 34.5956 45.1758 34.8307 45.3093 35.3011C46.0268 37.8289 47.3805 40.2142 49.3705 42.2042C51.3605 44.1942 53.7458 45.5479 56.2736 46.2654C56.744 46.3989 56.9792 46.4657 57.3233 46.4667C57.7052 46.4678 58.2222 46.3334 58.5552 46.1464C58.8552 45.9778 59.0759 45.7571 59.5172 45.3158L59.6486 45.1844C60.0914 44.7415 60.3129 44.5201 60.4332 44.2823C60.6724 43.8093 60.6724 43.2508 60.4332 42.7778C60.3129 42.54 60.0914 42.3186 59.6486 41.8757L59.4862 41.7133C59.1948 41.422 59.0492 41.2763 58.9027 41.1811C58.3503 40.8219 57.6381 40.8219 57.0857 41.1811C56.9392 41.2763 56.7936 41.422 56.5022 41.7133C56.407 41.8086 56.3593 41.8562 56.3037 41.8961C56.1058 42.0377 55.8189 42.0866 55.5853 42.0185C55.5196 41.9994 55.4676 41.9744 55.3637 41.9245C54.1557 41.3446 53.0235 40.5539 52.0222 39.5526Z" stroke="#8E37ED" stroke-width="2" stroke-linecap="round" stroke-linejoin="round"/>
<path d="M76.3608 42V33.2727H77.9418V40.6747H81.7855V42H76.3608ZM84.6321 33.2727V42H83.0895V33.2727H84.6321ZM88.1019 42.1321C87.6871 42.1321 87.3136 42.0582 86.9812 41.9105C86.6516 41.7599 86.3903 41.5384 86.1971 41.2457C86.0067 40.9531 85.9116 40.5923 85.9116 40.1634C85.9116 39.794 85.9798 39.4886 86.1161 39.2472C86.2525 39.0057 86.4386 38.8125 86.6744 38.6676C86.9102 38.5227 87.1758 38.4134 87.4712 38.3395C87.7695 38.2628 88.0778 38.2074 88.396 38.1733C88.7795 38.1335 89.0906 38.098 89.3292 38.0668C89.5678 38.0327 89.7411 37.9815 89.8491 37.9134C89.9599 37.8423 90.0153 37.733 90.0153 37.5852V37.5597C90.0153 37.2386 89.9201 36.9901 89.7298 36.8139C89.5394 36.6378 89.2653 36.5497 88.9073 36.5497C88.5295 36.5497 88.2298 36.6321 88.0082 36.7969C87.7894 36.9616 87.6417 37.1562 87.565 37.3807L86.1246 37.1761C86.2383 36.7784 86.4258 36.446 86.6871 36.179C86.9485 35.9091 87.2681 35.7074 87.646 35.5739C88.0238 35.4375 88.4414 35.3693 88.8988 35.3693C89.2141 35.3693 89.5281 35.4062 89.8406 35.4801C90.1531 35.554 90.4386 35.6761 90.6971 35.8466C90.9556 36.0142 91.163 36.2429 91.3192 36.5327C91.4783 36.8224 91.5579 37.1847 91.5579 37.6193V42H90.0749V41.1009H90.0238C89.93 41.2827 89.7979 41.4531 89.6275 41.6122C89.4599 41.7685 89.2482 41.8949 88.9925 41.9915C88.7397 42.0852 88.4428 42.1321 88.1019 42.1321ZM88.5025 40.9986C88.8121 40.9986 89.0806 40.9375 89.3079 40.8153C89.5352 40.6903 89.7099 40.5256 89.832 40.321C89.957 40.1165 90.0195 39.8935 90.0195 39.652V38.8807C89.9712 38.9205 89.8888 38.9574 89.7724 38.9915C89.6587 39.0256 89.5309 39.0554 89.3888 39.081C89.2468 39.1065 89.1062 39.1293 88.967 39.1491C88.8278 39.169 88.707 39.1861 88.6048 39.2003C88.3746 39.2315 88.1687 39.2827 87.9869 39.3537C87.805 39.4247 87.6616 39.5241 87.5565 39.652C87.4513 39.777 87.3988 39.9389 87.3988 40.1378C87.3988 40.4219 87.5025 40.6364 87.7099 40.7812C87.9173 40.9261 88.1815 40.9986 88.5025 40.9986ZM93.109 42V35.4545H94.5835V36.5668H94.6602C94.7965 36.1918 95.0224 35.8991 95.3377 35.6889C95.6531 35.4759 96.0295 35.3693 96.467 35.3693C96.9102 35.3693 97.2837 35.4773 97.5877 35.6932C97.8945 35.9062 98.1104 36.1974 98.2354 36.5668H98.3036C98.4485 36.2031 98.6928 35.9134 99.0366 35.6974C99.3832 35.4787 99.7937 35.3693 100.268 35.3693C100.87 35.3693 101.362 35.5597 101.743 35.9403C102.123 36.321 102.314 36.8764 102.314 37.6065V42H100.767V37.8452C100.767 37.4389 100.659 37.142 100.443 36.9545C100.227 36.7642 99.9627 36.669 99.6502 36.669C99.2781 36.669 98.9869 36.7855 98.7766 37.0185C98.5692 37.2486 98.4656 37.5483 98.4656 37.9176V42H96.9528V37.7812C96.9528 37.4432 96.8505 37.1733 96.646 36.9716C96.4442 36.7699 96.18 36.669 95.8533 36.669C95.6317 36.669 95.43 36.7259 95.2482 36.8395C95.0664 36.9503 94.9215 37.108 94.8136 37.3125C94.7056 37.5142 94.6516 37.75 94.6516 38.0199V42H93.109ZM105.762 42.1321C105.347 42.1321 104.974 42.0582 104.641 41.9105C104.312 41.7599 104.05 41.5384 103.857 41.2457C103.667 40.9531 103.572 40.5923 103.572 40.1634C103.572 39.794 103.64 39.4886 103.776 39.2472C103.913 39.0057 104.099 38.8125 104.335 38.6676C104.57 38.5227 104.836 38.4134 105.131 38.3395C105.43 38.2628 105.738 38.2074 106.056 38.1733C106.44 38.1335 106.751 38.098 106.989 38.0668C107.228 38.0327 107.401 37.9815 107.509 37.9134C107.62 37.8423 107.675 37.733 107.675 37.5852V37.5597C107.675 37.2386 107.58 36.9901 107.39 36.8139C107.2 36.6378 106.925 36.5497 106.567 36.5497C106.19 36.5497 105.89 36.6321 105.668 36.7969C105.45 36.9616 105.302 37.1562 105.225 37.3807L103.785 37.1761C103.898 36.7784 104.086 36.446 104.347 36.179C104.609 35.9091 104.928 35.7074 105.306 35.5739C105.684 35.4375 106.102 35.3693 106.559 35.3693C106.874 35.3693 107.188 35.4062 107.501 35.4801C107.813 35.554 108.099 35.6761 108.357 35.8466C108.616 36.0142 108.823 36.2429 108.979 36.5327C109.138 36.8224 109.218 37.1847 109.218 37.6193V42H107.735V41.1009H107.684C107.59 41.2827 107.458 41.4531 107.288 41.6122C107.12 41.7685 106.908 41.8949 106.653 41.9915C106.4 42.0852 106.103 42.1321 105.762 42.1321ZM106.163 40.9986C106.472 40.9986 106.741 40.9375 106.968 40.8153C107.195 40.6903 107.37 40.5256 107.492 40.321C107.617 40.1165 107.68 39.8935 107.68 39.652V38.8807C107.631 38.9205 107.549 38.9574 107.433 38.9915C107.319 39.0256 107.191 39.0554 107.049 39.081C106.907 39.1065 106.766 39.1293 106.627 39.1491C106.488 39.169 106.367 39.1861 106.265 39.2003C106.035 39.2315 105.829 39.2827 105.647 39.3537C105.465 39.4247 105.322 39.5241 105.217 39.652C105.112 39.777 105.059 39.9389 105.059 40.1378C105.059 40.4219 105.163 40.6364 105.37 40.7812C105.577 40.9261 105.842 40.9986 106.163 40.9986ZM110.769 42V35.4545H112.265V36.5455H112.333C112.452 36.1676 112.657 35.8764 112.947 35.6719C113.239 35.4645 113.573 35.3608 113.948 35.3608C114.033 35.3608 114.129 35.3651 114.234 35.3736C114.342 35.3793 114.431 35.3892 114.502 35.4034V36.8224C114.437 36.7997 114.333 36.7798 114.191 36.7628C114.052 36.7429 113.917 36.733 113.786 36.733C113.505 36.733 113.252 36.794 113.028 36.9162C112.806 37.0355 112.631 37.2017 112.504 37.4148C112.376 37.6278 112.312 37.8736 112.312 38.152V42H110.769Z" fill="#8E37ED"/>
</g>
<defs>
<filter id="filter0_d_126_974" x="0" y="0" width="159" height="84" filterUnits="userSpaceOnUse" color-interpolation-filters="sRGB">
<feFlood flood-opacity="0" result="BackgroundImageFix"/>
<feColorMatrix in="SourceAlpha" type="matrix" values="0 0 0 0 0 0 0 0 0 0 0 0 0 0 0 0 0 0 127 0" result="hardAlpha"/>
<feOffset dy="4"/>
<feGaussianBlur stdDeviation="10"/>
<feComposite in2="hardAlpha" operator="out"/>
<feColorMatrix type="matrix" values="0 0 0 0 0.890451 0 0 0 0 0.882708 0 0 0 0 0.929167 0 0 0 1 0"/>
<feBlend mode="normal" in2="BackgroundImageFix" result="effect1_dropShadow_126_974"/>
<feBlend mode="normal" in="SourceGraphic" in2="effect1_dropShadow_126_974" result="shape"/>
</filter>
</defs>
</svg>
