<svg width="24" height="25" viewBox="0 0 24 25" fill="none" xmlns="http://www.w3.org/2000/svg">
<path d="M8 10H12M8 13.5H15M12 21.5C16.9706 21.5 21 17.4706 21 12.5C21 7.52944 16.9706 3.5 12 3.5C7.02944 3.5 3 7.52944 3 12.5C3 13.6971 3.23374 14.8397 3.65806 15.8845C3.73927 16.0845 3.77988 16.1845 3.798 16.2653C3.81572 16.3443 3.8222 16.4028 3.82221 16.4839C3.82222 16.5667 3.80718 16.6569 3.77711 16.8374L3.18413 20.3952C3.12203 20.7678 3.09098 20.9541 3.14876 21.0888C3.19933 21.2067 3.29328 21.3007 3.41118 21.3512C3.54589 21.409 3.73218 21.378 4.10476 21.3159L7.66265 20.7229C7.84309 20.6928 7.9333 20.6778 8.01613 20.6778C8.09715 20.6778 8.15566 20.6843 8.23472 20.702C8.31554 20.7201 8.41552 20.7607 8.61549 20.8419C9.6603 21.2663 10.8029 21.5 12 21.5Z" stroke="white" stroke-width="2" stroke-linecap="round" stroke-linejoin="round"/>
</svg>
