<svg width="84" height="98" viewBox="0 0 84 98" fill="none" xmlns="http://www.w3.org/2000/svg">
<g clip-path="url(#clip0_240_3758)">
<path d="M73.712 48.4724C75.177 48.669 76.6347 48.9161 78.0838 49.2139V49.4813C76.6434 49.1879 75.1856 48.9436 73.712 48.7499C70.9148 48.3813 68.0975 48.1934 65.2772 48.1905H65.1819C56.1193 48.1978 47.1635 50.1577 38.9236 53.9388C37.2161 54.7193 35.5476 55.5721 33.9167 56.4986C28.5114 59.5686 23.5738 63.3974 19.2539 67.8709C16.3341 70.8947 13.7159 74.1959 11.4398 77.7313C11.1511 78.1779 10.8682 78.6289 10.5926 79.0842C9.4812 80.9097 8.46365 82.7887 7.54137 84.7169C5.56979 88.842 4.05574 93.1709 3.0281 97.627C3.00356 97.7224 2.98191 97.8193 2.96026 97.9161C2.95449 97.9436 2.94727 97.9725 2.9415 98L2.66005 97.9364C2.66005 97.9364 2.66294 97.9233 2.66438 97.9161C2.68603 97.8193 2.70768 97.7239 2.73077 97.627C3.78151 93.0625 5.33453 88.6281 7.36095 84.4061C8.33376 82.3724 9.41192 80.3937 10.5926 78.4757C10.8697 78.0247 11.1526 77.5767 11.4398 77.1329C13.7159 73.6279 16.3254 70.3512 19.2323 67.3506C21.0105 65.5149 22.8955 63.7877 24.88 62.179H24.8815C27.7147 59.8808 30.737 57.8298 33.9167 56.0462C35.2633 55.2888 36.6287 54.5864 38.0143 53.9388C46.5587 49.9308 55.8826 47.8682 65.3176 47.9C68.1249 47.9072 70.9293 48.0995 73.712 48.4724Z" fill="#5F259F"/>
<path d="M43.3156 15.7027C47.6456 15.7027 51.1557 12.1875 51.1557 7.85133C51.1557 3.51516 47.6456 0 43.3156 0C38.9856 0 35.4755 3.51516 35.4755 7.85133C35.4755 12.1875 38.9856 15.7027 43.3156 15.7027Z" fill="#FFA06D"/>
<path d="M28.1607 96.2163C28.4046 97.1211 29.2432 97.6819 29.2432 97.6819C29.2432 97.6819 29.6848 96.7757 29.4395 95.8694C29.1941 94.9632 28.357 94.4038 28.357 94.4038C28.357 94.4038 27.9153 95.3101 28.1607 96.2163Z" fill="#5F259F"/>
<path d="M28.5201 96.0227C29.1912 96.676 29.2735 97.682 29.2735 97.682C29.2735 97.682 28.2675 97.627 27.5964 96.9723C26.9252 96.3175 26.8429 95.313 26.8429 95.313C26.8429 95.313 27.8489 95.3679 28.5201 96.0227Z" fill="#8E37ED"/>
<path d="M78.0838 16.8445V26.1904L73.712 29.1419L67.2892 33.4751L60.152 38.2926L48.9518 32.6845L34.8 25.5992L31.8527 24.1235L28.9054 21.7617L38.0056 13.6242L40.6195 11.287C43.7067 8.52635 47.7004 7.00146 51.8384 7.00146H68.2548C73.6831 7.00146 78.0838 11.4084 78.0838 16.8445Z" fill="#5F259F"/>
<path d="M73.751 21.7197L78.0838 17.0034C85.6598 44.989 86.279 72.0451 78.0838 97.9233H72.5862L72.2903 97.627L64.6263 89.9534L60.1779 85.4988L60.2949 84.6402L60.699 81.6873L61.5866 75.1932L62.5551 68.1079L63.5236 61.0241L64.492 53.9388L65.2772 48.1905L65.3176 47.9L65.4605 46.8535L66.429 39.7682L67.2892 33.475L67.3975 32.6844L68.1105 27.4695L68.4063 25.3043L73.712 21.7616L73.751 21.7197Z" fill="#C896FA"/>
<path d="M28.9055 21.7617H73.712V97.9248H28.9055C24.0126 70.0564 22.7829 44.0467 28.9055 21.7617Z" fill="#EDE1FA"/>
<path d="M54.5519 79.3271H46.2975V97.9249H54.5519V79.3271Z" fill="#C896FA"/>
<path d="M68.1119 68.1094H33.9167V75.1947H68.1119V68.1094Z" fill="#5F259F"/>
<path d="M70.7229 85.0364H56.1439V88.0572H70.7229V85.0364Z" fill="#5F259F"/>
<path d="M44.743 85.0364H30.164V88.0572H44.743V85.0364Z" fill="#5F259F"/>
<path d="M68.1119 53.939H33.9167V61.0242H68.1119V53.939Z" fill="#5F259F"/>
<path d="M68.1119 39.7698H33.9167V46.8551H68.1119V39.7698Z" fill="#5F259F"/>
<path d="M68.1119 25.5991H33.9167V32.6844H68.1119V25.5991Z" fill="#5F259F"/>
<path d="M78.0838 97.6272H0V97.9163H78.0838V97.6272Z" fill="#5F259F"/>
<path d="M51.0749 6.72402L68.9995 5.84667C74.1262 5.59518 78.5832 9.33872 79.2298 14.438L81.4035 31.589L73.7668 21.7286L73.7509 21.7199L50.8988 9.85039L50.4456 9.61479C49.0586 8.89499 49.5147 6.80063 51.0749 6.72402Z" fill="#5F259F"/>
<path d="M60.1866 12.6226H45.6076V15.6434H60.1866V12.6226Z" fill="#EDE1FA"/>
<path d="M54.5576 77.4075H47.774C43.05 58.9369 43.05 40.8219 47.774 23.061H54.5576C58.8761 41.4882 59.0305 59.6148 54.5576 77.4075Z" fill="#EDE1FA"/>
</g>
<defs>
<clipPath id="clip0_240_3758">
<rect width="84" height="98" fill="white"/>
</clipPath>
</defs>
</svg>
