<svg width="22" height="20" viewBox="0 0 22 20" fill="none" xmlns="http://www.w3.org/2000/svg">
<path d="M1.26387 10.7132C1.12769 10.4975 1.05959 10.3897 1.02147 10.2234C0.992842 10.0985 0.992842 9.9015 1.02147 9.77658C1.05959 9.61028 1.12769 9.50246 1.26387 9.28682C2.38928 7.50484 5.73915 3 10.8442 3C15.9492 3 19.299 7.50484 20.4244 9.28682C20.5606 9.50246 20.6287 9.61028 20.6668 9.77658C20.6955 9.9015 20.6955 10.0985 20.6668 10.2234C20.6287 10.3897 20.5606 10.4975 20.4244 10.7132C19.299 12.4952 15.9492 17 10.8442 17C5.73915 17 2.38928 12.4952 1.26387 10.7132Z" stroke="#FFA06D" stroke-width="2" stroke-linecap="round" stroke-linejoin="round"/>
<path d="M10.8442 13C12.501 13 13.8442 11.6569 13.8442 10C13.8442 8.34315 12.501 7 10.8442 7C9.1873 7 7.84415 8.34315 7.84415 10C7.84415 11.6569 9.1873 13 10.8442 13Z" stroke="#FFA06D" stroke-width="2" stroke-linecap="round" stroke-linejoin="round"/>
</svg>
