<svg width="670" height="83" viewBox="0 0 670 83" fill="none" xmlns="http://www.w3.org/2000/svg">
<rect width="670" height="83" rx="20" fill="white"/>
<path d="M23.5795 55.2102V54.2727H30.125V55.2102H27.3807V63H26.3239V55.2102H23.5795ZM30.94 63V56.4545H31.9116V57.4432H31.9798C32.0991 57.1193 32.315 56.8565 32.6275 56.6548C32.94 56.4531 33.2923 56.3523 33.6843 56.3523C33.7582 56.3523 33.8505 56.3537 33.9613 56.3565C34.0721 56.3594 34.1559 56.3636 34.2127 56.3693V57.392C34.1786 57.3835 34.1005 57.3707 33.9783 57.3537C33.859 57.3338 33.7326 57.3239 33.5991 57.3239C33.2809 57.3239 32.9968 57.3906 32.7468 57.5241C32.4996 57.6548 32.3036 57.8366 32.1587 58.0696C32.0167 58.2997 31.9457 58.5625 31.9457 58.858V63H30.94ZM37.331 63.1534C36.9162 63.1534 36.5398 63.0753 36.2017 62.919C35.8636 62.7599 35.5952 62.5312 35.3963 62.233C35.1974 61.9318 35.098 61.5682 35.098 61.142C35.098 60.767 35.1719 60.4631 35.3196 60.2301C35.4673 59.9943 35.6648 59.8097 35.9119 59.6761C36.1591 59.5426 36.4318 59.4432 36.7301 59.3778C37.0313 59.3097 37.3338 59.2557 37.6378 59.2159C38.0355 59.1648 38.358 59.1264 38.6051 59.1009C38.8551 59.0724 39.0369 59.0256 39.1506 58.9602C39.267 58.8949 39.3253 58.7812 39.3253 58.6193V58.5852C39.3253 58.1648 39.2102 57.8381 38.9801 57.6051C38.7528 57.3722 38.4077 57.2557 37.9446 57.2557C37.4645 57.2557 37.0881 57.3608 36.8153 57.571C36.5426 57.7812 36.3509 58.0057 36.2401 58.2443L35.2855 57.9034C35.456 57.5057 35.6832 57.196 35.9673 56.9744C36.2543 56.75 36.5668 56.5937 36.9048 56.5057C37.2457 56.4148 37.581 56.3693 37.9105 56.3693C38.1207 56.3693 38.3622 56.3949 38.6349 56.446C38.9105 56.4943 39.1761 56.5952 39.4318 56.7486C39.6903 56.902 39.9048 57.1335 40.0753 57.4432C40.2457 57.7528 40.331 58.1676 40.331 58.6875V63H39.3253V62.1136H39.2741C39.206 62.2557 39.0923 62.4077 38.9332 62.5696C38.7741 62.7315 38.5625 62.8693 38.2983 62.983C38.0341 63.0966 37.7116 63.1534 37.331 63.1534ZM37.4844 62.25C37.8821 62.25 38.2173 62.1719 38.4901 62.0156C38.7656 61.8594 38.973 61.6577 39.1122 61.4105C39.2543 61.1634 39.3253 60.9034 39.3253 60.6307V59.7102C39.2827 59.7614 39.1889 59.8082 39.044 59.8509C38.902 59.8906 38.7372 59.9261 38.5497 59.9574C38.3651 59.9858 38.1847 60.0114 38.0085 60.0341C37.8352 60.054 37.6946 60.071 37.5866 60.0852C37.3253 60.1193 37.081 60.1747 36.8537 60.2514C36.6293 60.3253 36.4474 60.4375 36.3082 60.5881C36.1719 60.7358 36.1037 60.9375 36.1037 61.1932C36.1037 61.5426 36.233 61.8068 36.4915 61.9858C36.7528 62.1619 37.0838 62.25 37.4844 62.25ZM44.8256 63.1364C44.212 63.1364 43.6836 62.9915 43.2404 62.7017C42.7972 62.4119 42.4563 62.0128 42.2177 61.5043C41.979 60.9957 41.8597 60.4148 41.8597 59.7614C41.8597 59.0966 41.9819 58.5099 42.2262 58.0014C42.4734 57.4901 42.8171 57.0909 43.2575 56.804C43.7006 56.5142 44.2177 56.3693 44.8086 56.3693C45.2688 56.3693 45.6836 56.4545 46.0529 56.625C46.4222 56.7955 46.7248 57.0341 46.9606 57.3409C47.1964 57.6477 47.3427 58.0057 47.3995 58.4148H46.3938C46.3171 58.1165 46.1467 57.8523 45.8825 57.6222C45.6211 57.3892 45.2688 57.2727 44.8256 57.2727C44.4336 57.2727 44.0898 57.375 43.7944 57.5795C43.5018 57.7812 43.2731 58.0668 43.1083 58.4361C42.9464 58.8026 42.8654 59.233 42.8654 59.7273C42.8654 60.233 42.945 60.6733 43.104 61.0483C43.266 61.4233 43.4933 61.7145 43.7859 61.9219C44.0813 62.1293 44.4279 62.233 44.8256 62.233C45.087 62.233 45.3242 62.1875 45.5373 62.0966C45.7504 62.0057 45.9308 61.875 46.0785 61.7045C46.2262 61.5341 46.3313 61.3295 46.3938 61.0909H47.3995C47.3427 61.4773 47.2021 61.8253 46.9776 62.1349C46.756 62.4418 46.462 62.6861 46.0955 62.8679C45.7319 63.0469 45.3086 63.1364 44.8256 63.1364ZM49.8072 60.6136L49.7901 59.3693H49.9947L52.8583 56.4545H54.1026L51.0515 59.5398H50.9663L49.8072 60.6136ZM48.8697 63V54.2727H49.8754V63H48.8697ZM53.0288 63L50.4719 59.7614L51.1879 59.0625L54.3072 63H53.0288ZM55.397 63V56.4545H56.4027V63H55.397ZM55.9084 55.3636C55.7124 55.3636 55.5433 55.2969 55.4013 55.1634C55.2621 55.0298 55.1925 54.8693 55.1925 54.6818C55.1925 54.4943 55.2621 54.3338 55.4013 54.2003C55.5433 54.0668 55.7124 54 55.9084 54C56.1044 54 56.272 54.0668 56.4112 54.2003C56.5533 54.3338 56.6243 54.4943 56.6243 54.6818C56.6243 54.8693 56.5533 55.0298 56.4112 55.1634C56.272 55.2969 56.1044 55.3636 55.9084 55.3636ZM59.2504 59.0625V63H58.2447V56.4545H59.2163V57.4773H59.3015C59.4549 57.1449 59.6879 56.8778 60.0004 56.6761C60.3129 56.4716 60.7163 56.3693 61.2106 56.3693C61.6538 56.3693 62.0415 56.4602 62.3739 56.642C62.7063 56.821 62.9648 57.0938 63.1495 57.4602C63.3342 57.8239 63.4265 58.2841 63.4265 58.8409V63H62.4208V58.9091C62.4208 58.3949 62.2873 57.9943 62.0202 57.7074C61.7532 57.4176 61.3867 57.2727 60.9208 57.2727C60.5998 57.2727 60.3129 57.3423 60.06 57.4815C59.81 57.6207 59.6126 57.8239 59.4677 58.0909C59.3228 58.358 59.2504 58.6818 59.2504 59.0625ZM67.9062 65.5909C67.4205 65.5909 67.0028 65.5284 66.6534 65.4034C66.304 65.2812 66.0128 65.1193 65.7798 64.9176C65.5497 64.7188 65.3665 64.5057 65.2301 64.2784L66.0312 63.7159C66.1222 63.8352 66.2372 63.9716 66.3764 64.125C66.5156 64.2812 66.706 64.4162 66.9474 64.5298C67.1918 64.6463 67.5114 64.7045 67.9062 64.7045C68.4347 64.7045 68.8707 64.5767 69.2145 64.321C69.5582 64.0653 69.7301 63.6648 69.7301 63.1193V61.7898H69.6449C69.571 61.9091 69.4659 62.0568 69.3295 62.233C69.196 62.4062 69.0028 62.5611 68.75 62.6974C68.5 62.831 68.1619 62.8977 67.7358 62.8977C67.2074 62.8977 66.733 62.7727 66.3125 62.5227C65.8949 62.2727 65.5639 61.9091 65.3196 61.4318C65.0781 60.9545 64.9574 60.375 64.9574 59.6932C64.9574 59.0227 65.0753 58.4389 65.3111 57.9418C65.5469 57.4418 65.875 57.0554 66.2955 56.7827C66.7159 56.5071 67.2017 56.3693 67.7528 56.3693C68.179 56.3693 68.517 56.4403 68.767 56.5824C69.0199 56.7216 69.2131 56.8807 69.3466 57.0597C69.483 57.2358 69.5881 57.3807 69.6619 57.4943H69.7642V56.4545H70.7358V63.1875C70.7358 63.75 70.608 64.2074 70.3523 64.5597C70.0994 64.9148 69.7585 65.1747 69.3295 65.3395C68.9034 65.5071 68.429 65.5909 67.9062 65.5909ZM67.8722 61.9943C68.2756 61.9943 68.6165 61.902 68.8949 61.7173C69.1733 61.5327 69.3849 61.267 69.5298 60.9205C69.6747 60.5739 69.7472 60.1591 69.7472 59.6761C69.7472 59.2045 69.6761 58.7884 69.5341 58.4276C69.392 58.0668 69.1818 57.7841 68.9034 57.5795C68.625 57.375 68.2813 57.2727 67.8722 57.2727C67.446 57.2727 67.0909 57.3807 66.8068 57.5966C66.5256 57.8125 66.3139 58.1023 66.1719 58.4659C66.0327 58.8295 65.9631 59.233 65.9631 59.6761C65.9631 60.1307 66.0341 60.5327 66.1761 60.8821C66.321 61.2287 66.5341 61.5014 66.8153 61.7003C67.0994 61.8963 67.4517 61.9943 67.8722 61.9943ZM73.3097 63.0682C73.0994 63.0682 72.919 62.9929 72.7685 62.8423C72.6179 62.6918 72.5426 62.5114 72.5426 62.3011C72.5426 62.0909 72.6179 61.9105 72.7685 61.7599C72.919 61.6094 73.0994 61.5341 73.3097 61.5341C73.5199 61.5341 73.7003 61.6094 73.8509 61.7599C74.0014 61.9105 74.0767 62.0909 74.0767 62.3011C74.0767 62.4403 74.0412 62.5682 73.9702 62.6847C73.902 62.8011 73.8097 62.8949 73.6932 62.9659C73.5795 63.0341 73.4517 63.0682 73.3097 63.0682ZM73.3097 58.2102C73.0994 58.2102 72.919 58.1349 72.7685 57.9844C72.6179 57.8338 72.5426 57.6534 72.5426 57.4432C72.5426 57.233 72.6179 57.0526 72.7685 56.902C72.919 56.7514 73.0994 56.6761 73.3097 56.6761C73.5199 56.6761 73.7003 56.7514 73.8509 56.902C74.0014 57.0526 74.0767 57.233 74.0767 57.4432C74.0767 57.5824 74.0412 57.7102 73.9702 57.8267C73.902 57.9432 73.8097 58.0369 73.6932 58.108C73.5795 58.1761 73.4517 58.2102 73.3097 58.2102ZM82.2138 63.1193C81.5803 63.1193 81.0178 63.0128 80.5263 62.7997C80.0376 62.5866 79.6541 62.2955 79.3757 61.9261C79.1001 61.554 78.9638 61.1321 78.9666 60.6605C78.9638 60.294 79.0433 59.9574 79.2053 59.6506C79.3672 59.3438 79.5859 59.0881 79.8615 58.8835C80.1399 58.6761 80.4496 58.544 80.7905 58.4872V58.4276C80.3416 58.3281 79.978 58.0994 79.6996 57.7415C79.424 57.3807 79.2876 56.9645 79.2905 56.4929C79.2876 56.044 79.4126 55.6435 79.6655 55.2912C79.9183 54.9389 80.2649 54.6619 80.7053 54.4602C81.1456 54.2557 81.6484 54.1534 82.2138 54.1534C82.7734 54.1534 83.272 54.2557 83.7095 54.4602C84.1499 54.6619 84.4964 54.9389 84.7493 55.2912C85.005 55.6435 85.1328 56.044 85.1328 56.4929C85.1328 56.9645 84.9922 57.3807 84.7109 57.7415C84.4325 58.0994 84.0732 58.3281 83.6328 58.4276V58.4872C83.9737 58.544 84.2805 58.6761 84.5533 58.8835C84.8288 59.0881 85.0476 59.3438 85.2095 59.6506C85.3743 59.9574 85.4567 60.294 85.4567 60.6605C85.4567 61.1321 85.3175 61.554 85.0391 61.9261C84.7607 62.2955 84.3771 62.5866 83.8885 62.7997C83.4027 63.0128 82.8445 63.1193 82.2138 63.1193ZM82.2138 61.9006C82.5405 61.9006 82.8246 61.8452 83.0661 61.7344C83.3075 61.6207 83.495 61.4616 83.6286 61.2571C83.7621 61.0526 83.8303 60.8168 83.8331 60.5497C83.8303 60.2713 83.7578 60.0256 83.6158 59.8125C83.4766 59.5966 83.2848 59.4276 83.0405 59.3054C82.799 59.1832 82.5234 59.1222 82.2138 59.1222C81.9013 59.1222 81.6229 59.1832 81.3786 59.3054C81.1342 59.4276 80.9411 59.5966 80.799 59.8125C80.6598 60.0256 80.5916 60.2713 80.5945 60.5497C80.5916 60.8168 80.657 61.0526 80.7905 61.2571C80.924 61.4588 81.1115 61.6165 81.353 61.7301C81.5973 61.8437 81.8842 61.9006 82.2138 61.9006ZM82.2138 57.9247C82.4808 57.9247 82.7166 57.8707 82.9212 57.7628C83.1286 57.6548 83.2919 57.5043 83.4112 57.3111C83.5305 57.1179 83.5916 56.8949 83.5945 56.642C83.5916 56.392 83.532 56.1733 83.4155 55.9858C83.299 55.7955 83.1371 55.6491 82.9297 55.5469C82.7223 55.4418 82.4837 55.3892 82.2138 55.3892C81.9382 55.3892 81.6953 55.4418 81.4851 55.5469C81.2777 55.6491 81.1158 55.7955 80.9993 55.9858C80.8857 56.1733 80.8303 56.392 80.8331 56.642C80.8303 56.8949 80.8871 57.1179 81.0036 57.3111C81.1229 57.5014 81.2862 57.652 81.4936 57.7628C81.7038 57.8707 81.9439 57.9247 82.2138 57.9247ZM89.9599 63.1193C89.3263 63.1193 88.7638 63.0128 88.2724 62.7997C87.7837 62.5866 87.4002 62.2955 87.1218 61.9261C86.8462 61.554 86.7099 61.1321 86.7127 60.6605C86.7099 60.294 86.7894 59.9574 86.9513 59.6506C87.1133 59.3438 87.332 59.0881 87.6076 58.8835C87.886 58.6761 88.1957 58.544 88.5366 58.4872V58.4276C88.0877 58.3281 87.7241 58.0994 87.4457 57.7415C87.1701 57.3807 87.0337 56.9645 87.0366 56.4929C87.0337 56.044 87.1587 55.6435 87.4116 55.2912C87.6644 54.9389 88.011 54.6619 88.4513 54.4602C88.8917 54.2557 89.3945 54.1534 89.9599 54.1534C90.5195 54.1534 91.0181 54.2557 91.4556 54.4602C91.896 54.6619 92.2425 54.9389 92.4954 55.2912C92.7511 55.6435 92.8789 56.044 92.8789 56.4929C92.8789 56.9645 92.7383 57.3807 92.457 57.7415C92.1786 58.0994 91.8192 58.3281 91.3789 58.4276V58.4872C91.7198 58.544 92.0266 58.6761 92.2994 58.8835C92.5749 59.0881 92.7937 59.3438 92.9556 59.6506C93.1204 59.9574 93.2028 60.294 93.2028 60.6605C93.2028 61.1321 93.0636 61.554 92.7852 61.9261C92.5067 62.2955 92.1232 62.5866 91.6346 62.7997C91.1488 63.0128 90.5906 63.1193 89.9599 63.1193ZM89.9599 61.9006C90.2866 61.9006 90.5707 61.8452 90.8121 61.7344C91.0536 61.6207 91.2411 61.4616 91.3746 61.2571C91.5082 61.0526 91.5763 60.8168 91.5792 60.5497C91.5763 60.2713 91.5039 60.0256 91.3619 59.8125C91.2227 59.5966 91.0309 59.4276 90.7866 59.3054C90.5451 59.1832 90.2695 59.1222 89.9599 59.1222C89.6474 59.1222 89.369 59.1832 89.1246 59.3054C88.8803 59.4276 88.6871 59.5966 88.5451 59.8125C88.4059 60.0256 88.3377 60.2713 88.3406 60.5497C88.3377 60.8168 88.4031 61.0526 88.5366 61.2571C88.6701 61.4588 88.8576 61.6165 89.0991 61.7301C89.3434 61.8437 89.6303 61.9006 89.9599 61.9006ZM89.9599 57.9247C90.2269 57.9247 90.4627 57.8707 90.6673 57.7628C90.8746 57.6548 91.038 57.5043 91.1573 57.3111C91.2766 57.1179 91.3377 56.8949 91.3406 56.642C91.3377 56.392 91.2781 56.1733 91.1616 55.9858C91.0451 55.7955 90.8832 55.6491 90.6758 55.5469C90.4684 55.4418 90.2298 55.3892 89.9599 55.3892C89.6843 55.3892 89.4414 55.4418 89.2312 55.5469C89.0238 55.6491 88.8619 55.7955 88.7454 55.9858C88.6317 56.1733 88.5763 56.392 88.5792 56.642C88.5763 56.8949 88.6332 57.1179 88.7496 57.3111C88.869 57.5014 89.0323 57.652 89.2397 57.7628C89.4499 57.8707 89.69 57.9247 89.9599 57.9247ZM94.9233 63L98.6349 55.6534V55.5938H94.3267V54.2727H100.271V55.6236L96.5639 63H94.9233ZM101.647 63V61.858L104.676 58.8878C104.966 58.5952 105.208 58.3352 105.401 58.108C105.594 57.8807 105.739 57.6605 105.836 57.4474C105.932 57.2344 105.98 57.0071 105.98 56.7656C105.98 56.4901 105.918 56.2543 105.793 56.0582C105.668 55.8594 105.496 55.706 105.277 55.598C105.059 55.4901 104.81 55.4361 104.532 55.4361C104.245 55.4361 103.993 55.4957 103.777 55.6151C103.561 55.7315 103.394 55.8977 103.275 56.1136C103.158 56.3295 103.1 56.5866 103.1 56.8849H101.596C101.596 56.331 101.722 55.8494 101.975 55.4403C102.228 55.0312 102.576 54.7145 103.019 54.4901C103.465 54.2656 103.976 54.1534 104.553 54.1534C105.138 54.1534 105.652 54.2628 106.096 54.4815C106.539 54.7003 106.882 55 107.127 55.3807C107.374 55.7614 107.498 56.196 107.498 56.6847C107.498 57.0114 107.435 57.3324 107.31 57.6477C107.185 57.9631 106.965 58.3125 106.65 58.696C106.337 59.0795 105.898 59.544 105.333 60.0895L103.828 61.6193V61.679H107.63V63H101.647ZM112.296 63.1193C111.878 63.1165 111.471 63.044 111.073 62.902C110.675 62.7571 110.317 62.5227 109.999 62.1989C109.681 61.8722 109.428 61.4389 109.24 60.8991C109.053 60.3565 108.961 59.6847 108.963 58.8835C108.963 58.1364 109.043 57.4702 109.202 56.8849C109.361 56.2997 109.59 55.8054 109.888 55.402C110.186 54.9957 110.546 54.6861 110.966 54.473C111.39 54.2599 111.863 54.1534 112.385 54.1534C112.934 54.1534 113.419 54.2614 113.843 54.4773C114.269 54.6932 114.613 54.9886 114.874 55.3636C115.135 55.7358 115.297 56.1562 115.36 56.625H113.804C113.725 56.2898 113.561 56.0227 113.314 55.8239C113.07 55.6222 112.76 55.5213 112.385 55.5213C111.78 55.5213 111.314 55.7841 110.988 56.3097C110.664 56.8352 110.5 57.5568 110.498 58.4744H110.557C110.696 58.2244 110.877 58.0099 111.098 57.831C111.32 57.652 111.57 57.5142 111.848 57.4176C112.13 57.3182 112.426 57.2685 112.739 57.2685C113.25 57.2685 113.709 57.3906 114.115 57.6349C114.525 57.8793 114.848 58.2159 115.087 58.6449C115.326 59.071 115.444 59.5597 115.441 60.1108C115.444 60.6847 115.313 61.2003 115.049 61.6577C114.784 62.1122 114.417 62.4702 113.945 62.7315C113.473 62.9929 112.924 63.1222 112.296 63.1193ZM112.287 61.8409C112.597 61.8409 112.874 61.7656 113.118 61.6151C113.363 61.4645 113.556 61.2614 113.698 61.0057C113.84 60.75 113.909 60.4631 113.907 60.1449C113.909 59.8324 113.841 59.5497 113.702 59.2969C113.566 59.044 113.377 58.8437 113.135 58.696C112.894 58.5483 112.618 58.4744 112.309 58.4744C112.078 58.4744 111.864 58.5185 111.665 58.6065C111.466 58.6946 111.293 58.8168 111.145 58.973C110.998 59.1264 110.881 59.3054 110.796 59.5099C110.713 59.7116 110.671 59.9276 110.668 60.1577C110.671 60.4616 110.742 60.7415 110.881 60.9972C111.02 61.2528 111.212 61.4574 111.456 61.6108C111.701 61.7642 111.978 61.8409 112.287 61.8409ZM119.915 63.1193C119.347 63.1193 118.838 63.0128 118.39 62.7997C117.941 62.5838 117.584 62.2884 117.32 61.9134C117.059 61.5384 116.919 61.1094 116.902 60.6264H118.436C118.465 60.9844 118.62 61.277 118.901 61.5043C119.182 61.7287 119.52 61.8409 119.915 61.8409C120.225 61.8409 120.5 61.7699 120.742 61.6278C120.983 61.4858 121.174 61.2884 121.313 61.0355C121.452 60.7827 121.52 60.4943 121.517 60.1705C121.52 59.8409 121.451 59.5483 121.309 59.2926C121.167 59.0369 120.972 58.8366 120.725 58.6918C120.478 58.544 120.194 58.4702 119.873 58.4702C119.611 58.4673 119.354 58.5156 119.101 58.6151C118.848 58.7145 118.648 58.8452 118.5 59.0071L117.073 58.7727L117.529 54.2727H122.591V55.5938H118.837L118.586 57.9077H118.637C118.799 57.7173 119.027 57.5597 119.323 57.4347C119.618 57.3068 119.942 57.2429 120.294 57.2429C120.823 57.2429 121.294 57.3679 121.709 57.6179C122.124 57.8651 122.451 58.206 122.689 58.6406C122.928 59.0753 123.047 59.5724 123.047 60.1321C123.047 60.7088 122.914 61.223 122.647 61.6747C122.382 62.1236 122.015 62.4773 121.543 62.7358C121.074 62.9915 120.532 63.1193 119.915 63.1193ZM124.317 61.3807V60.1236L128.02 54.2727H129.069V56.0625H128.429L125.936 60.0128V60.081H131.105V61.3807H124.317ZM128.48 63V60.9972L128.498 60.4347V54.2727H129.989V63H128.48ZM132.467 63V61.858L135.497 58.8878C135.787 58.5952 136.028 58.3352 136.221 58.108C136.414 57.8807 136.559 57.6605 136.656 57.4474C136.752 57.2344 136.801 57.0071 136.801 56.7656C136.801 56.4901 136.738 56.2543 136.613 56.0582C136.488 55.8594 136.316 55.706 136.098 55.598C135.879 55.4901 135.63 55.4361 135.352 55.4361C135.065 55.4361 134.814 55.4957 134.598 55.6151C134.382 55.7315 134.214 55.8977 134.095 56.1136C133.978 56.3295 133.92 56.5866 133.92 56.8849H132.416C132.416 56.331 132.542 55.8494 132.795 55.4403C133.048 55.0312 133.396 54.7145 133.839 54.4901C134.285 54.2656 134.797 54.1534 135.373 54.1534C135.958 54.1534 136.473 54.2628 136.916 54.4815C137.359 54.7003 137.703 55 137.947 55.3807C138.194 55.7614 138.318 56.196 138.318 56.6847C138.318 57.0114 138.255 57.3324 138.13 57.6477C138.005 57.9631 137.785 58.3125 137.47 58.696C137.157 59.0795 136.718 59.544 136.153 60.0895L134.649 61.6193V61.679H138.45V63H132.467ZM143.146 63.1662C142.444 63.1662 141.842 62.9886 141.339 62.6335C140.839 62.2756 140.454 61.7599 140.184 61.0866C139.917 60.4105 139.784 59.5966 139.784 58.6449C139.787 57.6932 139.922 56.8835 140.189 56.2159C140.458 55.5455 140.843 55.0341 141.343 54.6818C141.846 54.3295 142.447 54.1534 143.146 54.1534C143.845 54.1534 144.446 54.3295 144.949 54.6818C145.451 55.0341 145.836 55.5455 146.103 56.2159C146.373 56.8864 146.508 57.696 146.508 58.6449C146.508 59.5994 146.373 60.4148 146.103 61.0909C145.836 61.7642 145.451 62.2784 144.949 62.6335C144.449 62.9886 143.848 63.1662 143.146 63.1662ZM143.146 61.8324C143.691 61.8324 144.122 61.5639 144.437 61.027C144.755 60.4872 144.914 59.6932 144.914 58.6449C144.914 57.9517 144.842 57.3693 144.697 56.8977C144.552 56.4261 144.348 56.071 144.083 55.8324C143.819 55.5909 143.507 55.4702 143.146 55.4702C142.603 55.4702 142.174 55.7401 141.859 56.2798C141.544 56.8168 141.385 57.6051 141.382 58.6449C141.379 59.3409 141.449 59.9261 141.591 60.4006C141.735 60.875 141.94 61.233 142.204 61.4744C142.468 61.7131 142.782 61.8324 143.146 61.8324ZM151.026 63.1193C150.393 63.1193 149.83 63.0128 149.339 62.7997C148.85 62.5866 148.467 62.2955 148.188 61.9261C147.913 61.554 147.776 61.1321 147.779 60.6605C147.776 60.294 147.856 59.9574 148.018 59.6506C148.18 59.3438 148.398 59.0881 148.674 58.8835C148.952 58.6761 149.262 58.544 149.603 58.4872V58.4276C149.154 58.3281 148.79 58.0994 148.512 57.7415C148.237 57.3807 148.1 56.9645 148.103 56.4929C148.1 56.044 148.225 55.6435 148.478 55.2912C148.731 54.9389 149.077 54.6619 149.518 54.4602C149.958 54.2557 150.461 54.1534 151.026 54.1534C151.586 54.1534 152.085 54.2557 152.522 54.4602C152.962 54.6619 153.309 54.9389 153.562 55.2912C153.817 55.6435 153.945 56.044 153.945 56.4929C153.945 56.9645 153.805 57.3807 153.523 57.7415C153.245 58.0994 152.886 58.3281 152.445 58.4276V58.4872C152.786 58.544 153.093 58.6761 153.366 58.8835C153.641 59.0881 153.86 59.3438 154.022 59.6506C154.187 59.9574 154.269 60.294 154.269 60.6605C154.269 61.1321 154.13 61.554 153.852 61.9261C153.573 62.2955 153.19 62.5866 152.701 62.7997C152.215 63.0128 151.657 63.1193 151.026 63.1193ZM151.026 61.9006C151.353 61.9006 151.637 61.8452 151.879 61.7344C152.12 61.6207 152.308 61.4616 152.441 61.2571C152.575 61.0526 152.643 60.8168 152.646 60.5497C152.643 60.2713 152.57 60.0256 152.428 59.8125C152.289 59.5966 152.097 59.4276 151.853 59.3054C151.612 59.1832 151.336 59.1222 151.026 59.1222C150.714 59.1222 150.435 59.1832 150.191 59.3054C149.947 59.4276 149.754 59.5966 149.612 59.8125C149.472 60.0256 149.404 60.2713 149.407 60.5497C149.404 60.8168 149.469 61.0526 149.603 61.2571C149.737 61.4588 149.924 61.6165 150.165 61.7301C150.41 61.8437 150.697 61.9006 151.026 61.9006ZM151.026 57.9247C151.293 57.9247 151.529 57.8707 151.734 57.7628C151.941 57.6548 152.104 57.5043 152.224 57.3111C152.343 57.1179 152.404 56.8949 152.407 56.642C152.404 56.392 152.344 56.1733 152.228 55.9858C152.112 55.7955 151.95 55.6491 151.742 55.5469C151.535 55.4418 151.296 55.3892 151.026 55.3892C150.751 55.3892 150.508 55.4418 150.298 55.5469C150.09 55.6491 149.928 55.7955 149.812 55.9858C149.698 56.1733 149.643 56.392 149.646 56.642C149.643 56.8949 149.7 57.1179 149.816 57.3111C149.935 57.5014 150.099 57.652 150.306 57.7628C150.516 57.8707 150.756 57.9247 151.026 57.9247ZM159.22 54.2727V63H157.639V55.8111H157.588L155.547 57.1151V55.6662L157.716 54.2727H159.22ZM161.755 63L165.467 55.6534V55.5938H161.159V54.2727H167.103V55.6236L163.396 63H161.755ZM171.396 63.1193C170.827 63.1193 170.319 63.0128 169.87 62.7997C169.421 62.5838 169.065 62.2884 168.8 61.9134C168.539 61.5384 168.4 61.1094 168.383 60.6264H169.917C169.945 60.9844 170.1 61.277 170.381 61.5043C170.663 61.7287 171.001 61.8409 171.396 61.8409C171.705 61.8409 171.981 61.7699 172.222 61.6278C172.464 61.4858 172.654 61.2884 172.793 61.0355C172.933 60.7827 173.001 60.4943 172.998 60.1705C173.001 59.8409 172.931 59.5483 172.789 59.2926C172.647 59.0369 172.452 58.8366 172.205 58.6918C171.958 58.544 171.674 58.4702 171.353 58.4702C171.092 58.4673 170.835 58.5156 170.582 58.6151C170.329 58.7145 170.129 58.8452 169.981 59.0071L168.553 58.7727L169.009 54.2727H174.072V55.5938H170.317L170.066 57.9077H170.117C170.279 57.7173 170.508 57.5597 170.803 57.4347C171.099 57.3068 171.423 57.2429 171.775 57.2429C172.303 57.2429 172.775 57.3679 173.19 57.6179C173.604 57.8651 173.931 58.206 174.17 58.6406C174.408 59.0753 174.528 59.5724 174.528 60.1321C174.528 60.7088 174.394 61.223 174.127 61.6747C173.863 62.1236 173.495 62.4773 173.023 62.7358C172.555 62.9915 172.012 63.1193 171.396 63.1193ZM175.955 63V61.858L178.985 58.8878C179.275 58.5952 179.516 58.3352 179.71 58.108C179.903 57.8807 180.048 57.6605 180.144 57.4474C180.241 57.2344 180.289 57.0071 180.289 56.7656C180.289 56.4901 180.227 56.2543 180.102 56.0582C179.977 55.8594 179.805 55.706 179.586 55.598C179.367 55.4901 179.119 55.4361 178.84 55.4361C178.553 55.4361 178.302 55.4957 178.086 55.6151C177.87 55.7315 177.702 55.8977 177.583 56.1136C177.467 56.3295 177.408 56.5866 177.408 56.8849H175.904C175.904 56.331 176.031 55.8494 176.283 55.4403C176.536 55.0312 176.884 54.7145 177.327 54.4901C177.773 54.2656 178.285 54.1534 178.862 54.1534C179.447 54.1534 179.961 54.2628 180.404 54.4815C180.847 54.7003 181.191 55 181.435 55.3807C181.683 55.7614 181.806 56.196 181.806 56.6847C181.806 57.0114 181.744 57.3324 181.619 57.6477C181.494 57.9631 181.273 58.3125 180.958 58.696C180.646 59.0795 180.207 59.544 179.641 60.0895L178.137 61.6193V61.679H181.938V63H175.955ZM183.728 63L187.44 55.6534V55.5938H183.131V54.2727H189.076V55.6236L185.369 63H183.728ZM193.378 63.1193C192.744 63.1193 192.182 63.0128 191.69 62.7997C191.202 62.5866 190.818 62.2955 190.54 61.9261C190.264 61.554 190.128 61.1321 190.131 60.6605C190.128 60.294 190.207 59.9574 190.369 59.6506C190.531 59.3438 190.75 59.0881 191.026 58.8835C191.304 58.6761 191.614 58.544 191.955 58.4872V58.4276C191.506 58.3281 191.142 58.0994 190.864 57.7415C190.588 57.3807 190.452 56.9645 190.455 56.4929C190.452 56.044 190.577 55.6435 190.83 55.2912C191.082 54.9389 191.429 54.6619 191.869 54.4602C192.31 54.2557 192.813 54.1534 193.378 54.1534C193.938 54.1534 194.436 54.2557 194.874 54.4602C195.314 54.6619 195.661 54.9389 195.913 55.2912C196.169 55.6435 196.297 56.044 196.297 56.4929C196.297 56.9645 196.156 57.3807 195.875 57.7415C195.597 58.0994 195.237 58.3281 194.797 58.4276V58.4872C195.138 58.544 195.445 58.6761 195.717 58.8835C195.993 59.0881 196.212 59.3438 196.374 59.6506C196.538 59.9574 196.621 60.294 196.621 60.6605C196.621 61.1321 196.482 61.554 196.203 61.9261C195.925 62.2955 195.541 62.5866 195.053 62.7997C194.567 63.0128 194.009 63.1193 193.378 63.1193ZM193.378 61.9006C193.705 61.9006 193.989 61.8452 194.23 61.7344C194.472 61.6207 194.659 61.4616 194.793 61.2571C194.926 61.0526 194.994 60.8168 194.997 60.5497C194.994 60.2713 194.922 60.0256 194.78 59.8125C194.641 59.5966 194.449 59.4276 194.205 59.3054C193.963 59.1832 193.688 59.1222 193.378 59.1222C193.065 59.1222 192.787 59.1832 192.543 59.3054C192.298 59.4276 192.105 59.5966 191.963 59.8125C191.824 60.0256 191.756 60.2713 191.759 60.5497C191.756 60.8168 191.821 61.0526 191.955 61.2571C192.088 61.4588 192.276 61.6165 192.517 61.7301C192.761 61.8437 193.048 61.9006 193.378 61.9006ZM193.378 57.9247C193.645 57.9247 193.881 57.8707 194.085 57.7628C194.293 57.6548 194.456 57.5043 194.575 57.3111C194.695 57.1179 194.756 56.8949 194.759 56.642C194.756 56.392 194.696 56.1733 194.58 55.9858C194.463 55.7955 194.301 55.6491 194.094 55.5469C193.886 55.4418 193.648 55.3892 193.378 55.3892C193.102 55.3892 192.859 55.4418 192.649 55.5469C192.442 55.6491 192.28 55.7955 192.163 55.9858C192.05 56.1733 191.994 56.392 191.997 56.642C191.994 56.8949 192.051 57.1179 192.168 57.3111C192.287 57.5014 192.45 57.652 192.658 57.7628C192.868 57.8707 193.108 57.9247 193.378 57.9247ZM198.022 63V61.858L201.051 58.8878C201.341 58.5952 201.583 58.3352 201.776 58.108C201.969 57.8807 202.114 57.6605 202.211 57.4474C202.307 57.2344 202.355 57.0071 202.355 56.7656C202.355 56.4901 202.293 56.2543 202.168 56.0582C202.043 55.8594 201.871 55.706 201.652 55.598C201.434 55.4901 201.185 55.4361 200.907 55.4361C200.62 55.4361 200.368 55.4957 200.152 55.6151C199.936 55.7315 199.769 55.8977 199.65 56.1136C199.533 56.3295 199.475 56.5866 199.475 56.8849H197.971C197.971 56.331 198.097 55.8494 198.35 55.4403C198.603 55.0312 198.951 54.7145 199.394 54.4901C199.84 54.2656 200.351 54.1534 200.928 54.1534C201.513 54.1534 202.027 54.2628 202.471 54.4815C202.914 54.7003 203.257 55 203.502 55.3807C203.749 55.7614 203.873 56.196 203.873 56.6847C203.873 57.0114 203.81 57.3324 203.685 57.6477C203.56 57.9631 203.34 58.3125 203.025 58.696C202.712 59.0795 202.273 59.544 201.708 60.0895L200.203 61.6193V61.679H204.005V63H198.022ZM205.794 63L209.506 55.6534V55.5938H205.198V54.2727H211.142V55.6236L207.435 63H205.794ZM215.526 63.1193C215.109 63.1165 214.701 63.044 214.303 62.902C213.906 62.7571 213.548 62.5227 213.229 62.1989C212.911 61.8722 212.658 61.4389 212.471 60.8991C212.283 60.3565 212.191 59.6847 212.194 58.8835C212.194 58.1364 212.273 57.4702 212.433 56.8849C212.592 56.2997 212.82 55.8054 213.119 55.402C213.417 54.9957 213.776 54.6861 214.197 54.473C214.62 54.2599 215.093 54.1534 215.616 54.1534C216.164 54.1534 216.65 54.2614 217.073 54.4773C217.499 54.6932 217.843 54.9886 218.104 55.3636C218.366 55.7358 218.528 56.1562 218.59 56.625H217.035C216.955 56.2898 216.792 56.0227 216.545 55.8239C216.3 55.6222 215.991 55.5213 215.616 55.5213C215.011 55.5213 214.545 55.7841 214.218 56.3097C213.894 56.8352 213.731 57.5568 213.728 58.4744H213.788C213.927 58.2244 214.107 58.0099 214.329 57.831C214.55 57.652 214.8 57.5142 215.079 57.4176C215.36 57.3182 215.657 57.2685 215.969 57.2685C216.481 57.2685 216.94 57.3906 217.346 57.6349C217.755 57.8793 218.079 58.2159 218.317 58.6449C218.556 59.071 218.674 59.5597 218.671 60.1108C218.674 60.6847 218.543 61.2003 218.279 61.6577C218.015 62.1122 217.647 62.4702 217.175 62.7315C216.704 62.9929 216.154 63.1222 215.526 63.1193ZM215.518 61.8409C215.827 61.8409 216.104 61.7656 216.349 61.6151C216.593 61.4645 216.786 61.2614 216.928 61.0057C217.07 60.75 217.14 60.4631 217.137 60.1449C217.14 59.8324 217.072 59.5497 216.933 59.2969C216.796 59.044 216.607 58.8437 216.366 58.696C216.124 58.5483 215.849 58.4744 215.539 58.4744C215.309 58.4744 215.094 58.5185 214.896 58.6065C214.697 58.6946 214.523 58.8168 214.376 58.973C214.228 59.1264 214.112 59.3054 214.026 59.5099C213.944 59.7116 213.901 59.9276 213.898 60.1577C213.901 60.4616 213.972 60.7415 214.112 60.9972C214.251 61.2528 214.442 61.4574 214.687 61.6108C214.931 61.7642 215.208 61.8409 215.518 61.8409ZM223.146 63.1193C222.577 63.1193 222.069 63.0128 221.62 62.7997C221.171 62.5838 220.815 62.2884 220.55 61.9134C220.289 61.5384 220.15 61.1094 220.133 60.6264H221.667C221.695 60.9844 221.85 61.277 222.131 61.5043C222.413 61.7287 222.751 61.8409 223.146 61.8409C223.455 61.8409 223.731 61.7699 223.972 61.6278C224.214 61.4858 224.404 61.2884 224.543 61.0355C224.683 60.7827 224.751 60.4943 224.748 60.1705C224.751 59.8409 224.681 59.5483 224.539 59.2926C224.397 59.0369 224.202 58.8366 223.955 58.6918C223.708 58.544 223.424 58.4702 223.103 58.4702C222.842 58.4673 222.585 58.5156 222.332 58.6151C222.079 58.7145 221.879 58.8452 221.731 59.0071L220.303 58.7727L220.759 54.2727H225.822V55.5938H222.067L221.816 57.9077H221.867C222.029 57.7173 222.258 57.5597 222.553 57.4347C222.849 57.3068 223.173 57.2429 223.525 57.2429C224.053 57.2429 224.525 57.3679 224.94 57.6179C225.354 57.8651 225.681 58.206 225.92 58.6406C226.158 59.0753 226.278 59.5724 226.278 60.1321C226.278 60.7088 226.144 61.223 225.877 61.6747C225.613 62.1236 225.245 62.4773 224.773 62.7358C224.305 62.9915 223.762 63.1193 223.146 63.1193ZM230.837 63.1193C230.224 63.1193 229.678 63.0142 229.201 62.804C228.727 62.5937 228.352 62.3011 228.076 61.9261C227.8 61.5511 227.654 61.1179 227.637 60.6264H229.239C229.254 60.8622 229.332 61.0682 229.474 61.2443C229.616 61.4176 229.805 61.5526 230.04 61.6491C230.276 61.7457 230.54 61.794 230.833 61.794C231.146 61.794 231.423 61.7401 231.664 61.6321C231.906 61.5213 232.094 61.3679 232.231 61.1719C232.367 60.9759 232.434 60.75 232.431 60.4943C232.434 60.2301 232.366 59.9972 232.227 59.7955C232.087 59.5937 231.886 59.4361 231.621 59.3224C231.36 59.2088 231.045 59.152 230.675 59.152H229.904V57.9332H230.675C230.979 57.9332 231.245 57.8807 231.472 57.7756C231.702 57.6705 231.883 57.5227 232.013 57.3324C232.144 57.1392 232.208 56.9162 232.205 56.6634C232.208 56.4162 232.153 56.2017 232.039 56.0199C231.928 55.8352 231.771 55.6918 231.566 55.5895C231.364 55.4872 231.127 55.4361 230.854 55.4361C230.587 55.4361 230.34 55.4844 230.113 55.581C229.886 55.6776 229.702 55.8153 229.563 55.9943C229.424 56.1705 229.35 56.3807 229.342 56.625H227.82C227.832 56.1364 227.972 55.7074 228.242 55.3381C228.515 54.9659 228.879 54.6761 229.333 54.4688C229.788 54.2585 230.298 54.1534 230.863 54.1534C231.445 54.1534 231.951 54.2628 232.38 54.4815C232.812 54.6974 233.146 54.9886 233.381 55.3551C233.617 55.7216 233.735 56.1264 233.735 56.5696C233.738 57.0611 233.593 57.473 233.3 57.8054C233.011 58.1378 232.63 58.3551 232.158 58.4574V58.5256C232.772 58.6108 233.242 58.8381 233.569 59.2074C233.898 59.5739 234.062 60.0298 234.059 60.5753C234.059 61.0639 233.92 61.5014 233.641 61.8878C233.366 62.2713 232.985 62.5724 232.499 62.7912C232.016 63.0099 231.462 63.1193 230.837 63.1193ZM235.841 63L239.553 55.6534V55.5938H235.245V54.2727H241.189V55.6236L237.482 63H235.841ZM245.477 54.1534C245.895 54.1562 246.301 54.2301 246.696 54.375C247.094 54.517 247.452 54.75 247.77 55.0739C248.088 55.3949 248.341 55.8253 248.528 56.3651C248.716 56.9048 248.81 57.5724 248.81 58.3679C248.813 59.1179 248.733 59.7884 248.571 60.3793C248.412 60.9673 248.183 61.4645 247.885 61.8707C247.587 62.277 247.227 62.5866 246.807 62.7997C246.386 63.0128 245.913 63.1193 245.388 63.1193C244.837 63.1193 244.348 63.0114 243.922 62.7955C243.499 62.5795 243.156 62.2841 242.895 61.9091C242.634 61.5341 242.473 61.1051 242.413 60.6222H243.969C244.048 60.9687 244.21 61.2443 244.455 61.4489C244.702 61.6506 245.013 61.7514 245.388 61.7514C245.993 61.7514 246.459 61.4886 246.786 60.9631C247.112 60.4375 247.276 59.7074 247.276 58.7727H247.216C247.077 59.0227 246.896 59.2386 246.675 59.4205C246.453 59.5994 246.202 59.7372 245.92 59.8338C245.642 59.9304 245.347 59.9787 245.034 59.9787C244.523 59.9787 244.063 59.8565 243.653 59.6122C243.247 59.3679 242.925 59.0327 242.686 58.6065C242.45 58.1804 242.331 57.6932 242.328 57.1449C242.328 56.5767 242.459 56.0668 242.72 55.6151C242.984 55.1605 243.352 54.8026 243.824 54.5412C244.295 54.277 244.847 54.1477 245.477 54.1534ZM245.482 55.4318C245.175 55.4318 244.898 55.5071 244.651 55.6577C244.406 55.8054 244.213 56.0071 244.071 56.2628C243.932 56.5156 243.862 56.7983 243.862 57.1108C243.865 57.4205 243.935 57.7017 244.071 57.9545C244.21 58.2074 244.399 58.4077 244.638 58.5554C244.879 58.7031 245.155 58.777 245.464 58.777C245.695 58.777 245.909 58.733 246.108 58.6449C246.307 58.5568 246.48 58.4347 246.628 58.2784C246.778 58.1193 246.895 57.9389 246.977 57.7372C247.063 57.5355 247.104 57.3224 247.101 57.098C247.101 56.7997 247.03 56.5241 246.888 56.2713C246.749 56.0185 246.557 55.8153 246.312 55.6619C246.071 55.5085 245.794 55.4318 245.482 55.4318ZM253.259 54.1534C253.676 54.1562 254.082 54.2301 254.477 54.375C254.875 54.517 255.233 54.75 255.551 55.0739C255.869 55.3949 256.122 55.8253 256.31 56.3651C256.497 56.9048 256.591 57.5724 256.591 58.3679C256.594 59.1179 256.514 59.7884 256.352 60.3793C256.193 60.9673 255.964 61.4645 255.666 61.8707C255.368 62.277 255.009 62.5866 254.588 62.7997C254.168 63.0128 253.695 63.1193 253.169 63.1193C252.618 63.1193 252.129 63.0114 251.703 62.7955C251.28 62.5795 250.938 62.2841 250.676 61.9091C250.415 61.5341 250.254 61.1051 250.195 60.6222H251.75C251.83 60.9687 251.991 61.2443 252.236 61.4489C252.483 61.6506 252.794 61.7514 253.169 61.7514C253.774 61.7514 254.24 61.4886 254.567 60.9631C254.893 60.4375 255.057 59.7074 255.057 58.7727H254.997C254.858 59.0227 254.678 59.2386 254.456 59.4205C254.234 59.5994 253.983 59.7372 253.702 59.8338C253.423 59.9304 253.128 59.9787 252.815 59.9787C252.304 59.9787 251.844 59.8565 251.435 59.6122C251.028 59.3679 250.706 59.0327 250.467 58.6065C250.232 58.1804 250.112 57.6932 250.109 57.1449C250.109 56.5767 250.24 56.0668 250.501 55.6151C250.766 55.1605 251.134 54.8026 251.605 54.5412C252.077 54.277 252.628 54.1477 253.259 54.1534ZM253.263 55.4318C252.956 55.4318 252.679 55.5071 252.432 55.6577C252.188 55.8054 251.994 56.0071 251.852 56.2628C251.713 56.5156 251.643 56.7983 251.643 57.1108C251.646 57.4205 251.716 57.7017 251.852 57.9545C251.991 58.2074 252.18 58.4077 252.419 58.5554C252.661 58.7031 252.936 58.777 253.246 58.777C253.476 58.777 253.69 58.733 253.889 58.6449C254.088 58.5568 254.261 58.4347 254.409 58.2784C254.56 58.1193 254.676 57.9389 254.759 57.7372C254.844 57.5355 254.885 57.3224 254.882 57.098C254.882 56.7997 254.811 56.5241 254.669 56.2713C254.53 56.0185 254.338 55.8153 254.094 55.6619C253.852 55.5085 253.575 55.4318 253.263 55.4318ZM258.095 63L261.807 55.6534V55.5938H257.499V54.2727H263.443V55.6236L259.736 63H258.095ZM267.827 63.1193C267.409 63.1165 267.002 63.044 266.604 62.902C266.206 62.7571 265.848 62.5227 265.53 62.1989C265.212 61.8722 264.959 61.4389 264.772 60.8991C264.584 60.3565 264.492 59.6847 264.495 58.8835C264.495 58.1364 264.574 57.4702 264.733 56.8849C264.892 56.2997 265.121 55.8054 265.419 55.402C265.718 54.9957 266.077 54.6861 266.498 54.473C266.921 54.2599 267.394 54.1534 267.917 54.1534C268.465 54.1534 268.951 54.2614 269.374 54.4773C269.8 54.6932 270.144 54.9886 270.405 55.3636C270.667 55.7358 270.828 56.1562 270.891 56.625H269.336C269.256 56.2898 269.093 56.0227 268.846 55.8239C268.601 55.6222 268.292 55.5213 267.917 55.5213C267.311 55.5213 266.846 55.7841 266.519 56.3097C266.195 56.8352 266.032 57.5568 266.029 58.4744H266.088C266.228 58.2244 266.408 58.0099 266.63 57.831C266.851 57.652 267.101 57.5142 267.38 57.4176C267.661 57.3182 267.958 57.2685 268.27 57.2685C268.782 57.2685 269.24 57.3906 269.647 57.6349C270.056 57.8793 270.38 58.2159 270.618 58.6449C270.857 59.071 270.975 59.5597 270.972 60.1108C270.975 60.6847 270.844 61.2003 270.58 61.6577C270.316 62.1122 269.948 62.4702 269.476 62.7315C269.005 62.9929 268.455 63.1222 267.827 63.1193ZM267.819 61.8409C268.128 61.8409 268.405 61.7656 268.65 61.6151C268.894 61.4645 269.087 61.2614 269.229 61.0057C269.371 60.75 269.441 60.4631 269.438 60.1449C269.441 59.8324 269.373 59.5497 269.233 59.2969C269.097 59.044 268.908 58.8437 268.667 58.696C268.425 58.5483 268.15 58.4744 267.84 58.4744C267.61 58.4744 267.395 58.5185 267.196 58.6065C266.998 58.6946 266.824 58.8168 266.676 58.973C266.529 59.1264 266.412 59.3054 266.327 59.5099C266.245 59.7116 266.202 59.9276 266.199 60.1577C266.202 60.4616 266.273 60.7415 266.412 60.9972C266.551 61.2528 266.743 61.4574 266.988 61.6108C267.232 61.7642 267.509 61.8409 267.819 61.8409ZM275.446 63.1193C274.878 63.1193 274.37 63.0128 273.921 62.7997C273.472 62.5838 273.115 62.2884 272.851 61.9134C272.59 61.5384 272.451 61.1094 272.434 60.6264H273.968C273.996 60.9844 274.151 61.277 274.432 61.5043C274.713 61.7287 275.051 61.8409 275.446 61.8409C275.756 61.8409 276.032 61.7699 276.273 61.6278C276.515 61.4858 276.705 61.2884 276.844 61.0355C276.983 60.7827 277.051 60.4943 277.049 60.1705C277.051 59.8409 276.982 59.5483 276.84 59.2926C276.698 59.0369 276.503 58.8366 276.256 58.6918C276.009 58.544 275.725 58.4702 275.404 58.4702C275.142 58.4673 274.885 58.5156 274.632 58.6151C274.38 58.7145 274.179 58.8452 274.032 59.0071L272.604 58.7727L273.06 54.2727H278.123V55.5938H274.368L274.117 57.9077H274.168C274.33 57.7173 274.559 57.5597 274.854 57.4347C275.15 57.3068 275.473 57.2429 275.826 57.2429C276.354 57.2429 276.826 57.3679 277.24 57.6179C277.655 57.8651 277.982 58.206 278.221 58.6406C278.459 59.0753 278.578 59.5724 278.578 60.1321C278.578 60.7088 278.445 61.223 278.178 61.6747C277.914 62.1236 277.546 62.4773 277.074 62.7358C276.605 62.9915 276.063 63.1193 275.446 63.1193ZM280.006 63V61.858L283.036 58.8878C283.326 58.5952 283.567 58.3352 283.76 58.108C283.953 57.8807 284.098 57.6605 284.195 57.4474C284.292 57.2344 284.34 57.0071 284.34 56.7656C284.34 56.4901 284.277 56.2543 284.152 56.0582C284.027 55.8594 283.855 55.706 283.637 55.598C283.418 55.4901 283.169 55.4361 282.891 55.4361C282.604 55.4361 282.353 55.4957 282.137 55.6151C281.921 55.7315 281.753 55.8977 281.634 56.1136C281.517 56.3295 281.459 56.5866 281.459 56.8849H279.955C279.955 56.331 280.081 55.8494 280.334 55.4403C280.587 55.0312 280.935 54.7145 281.378 54.4901C281.824 54.2656 282.336 54.1534 282.912 54.1534C283.498 54.1534 284.012 54.2628 284.455 54.4815C284.898 54.7003 285.242 55 285.486 55.3807C285.733 55.7614 285.857 56.196 285.857 56.6847C285.857 57.0114 285.794 57.3324 285.669 57.6477C285.544 57.9631 285.324 58.3125 285.009 58.696C284.696 59.0795 284.257 59.544 283.692 60.0895L282.188 61.6193V61.679H285.989V63H280.006ZM287.114 61.3807V60.1236L290.817 54.2727H291.865V56.0625H291.226L288.733 60.0128V60.081H293.902V61.3807H287.114ZM291.277 63V60.9972L291.294 60.4347V54.2727H292.786V63H291.277ZM295.583 63L299.295 55.6534V55.5938H294.987V54.2727H300.931V55.6236L297.224 63H295.583ZM305.233 63.1193C304.6 63.1193 304.037 63.0128 303.546 62.7997C303.057 62.5866 302.674 62.2955 302.395 61.9261C302.12 61.554 301.983 61.1321 301.986 60.6605C301.983 60.294 302.063 59.9574 302.225 59.6506C302.387 59.3438 302.605 59.0881 302.881 58.8835C303.159 58.6761 303.469 58.544 303.81 58.4872V58.4276C303.361 58.3281 302.998 58.0994 302.719 57.7415C302.444 57.3807 302.307 56.9645 302.31 56.4929C302.307 56.044 302.432 55.6435 302.685 55.2912C302.938 54.9389 303.284 54.6619 303.725 54.4602C304.165 54.2557 304.668 54.1534 305.233 54.1534C305.793 54.1534 306.292 54.2557 306.729 54.4602C307.169 54.6619 307.516 54.9389 307.769 55.2912C308.025 55.6435 308.152 56.044 308.152 56.4929C308.152 56.9645 308.012 57.3807 307.73 57.7415C307.452 58.0994 307.093 58.3281 306.652 58.4276V58.4872C306.993 58.544 307.3 58.6761 307.573 58.8835C307.848 59.0881 308.067 59.3438 308.229 59.6506C308.394 59.9574 308.476 60.294 308.476 60.6605C308.476 61.1321 308.337 61.554 308.059 61.9261C307.78 62.2955 307.397 62.5866 306.908 62.7997C306.422 63.0128 305.864 63.1193 305.233 63.1193ZM305.233 61.9006C305.56 61.9006 305.844 61.8452 306.086 61.7344C306.327 61.6207 306.515 61.4616 306.648 61.2571C306.782 61.0526 306.85 60.8168 306.853 60.5497C306.85 60.2713 306.777 60.0256 306.635 59.8125C306.496 59.5966 306.304 59.4276 306.06 59.3054C305.819 59.1832 305.543 59.1222 305.233 59.1222C304.921 59.1222 304.642 59.1832 304.398 59.3054C304.154 59.4276 303.961 59.5966 303.819 59.8125C303.679 60.0256 303.611 60.2713 303.614 60.5497C303.611 60.8168 303.676 61.0526 303.81 61.2571C303.944 61.4588 304.131 61.6165 304.373 61.7301C304.617 61.8437 304.904 61.9006 305.233 61.9006ZM305.233 57.9247C305.5 57.9247 305.736 57.8707 305.941 57.7628C306.148 57.6548 306.311 57.5043 306.431 57.3111C306.55 57.1179 306.611 56.8949 306.614 56.642C306.611 56.392 306.551 56.1733 306.435 55.9858C306.319 55.7955 306.157 55.6491 305.949 55.5469C305.742 55.4418 305.503 55.3892 305.233 55.3892C304.958 55.3892 304.715 55.4418 304.505 55.5469C304.297 55.6491 304.135 55.7955 304.019 55.9858C303.905 56.1733 303.85 56.392 303.853 56.642C303.85 56.8949 303.907 57.1179 304.023 57.3111C304.142 57.5014 304.306 57.652 304.513 57.7628C304.723 57.8707 304.963 57.9247 305.233 57.9247Z" fill="#757380"/>
<path d="M29.5376 25.6172C29.4912 25.183 29.2957 24.8449 28.951 24.603C28.6096 24.361 28.1655 24.2401 27.6186 24.2401C27.2341 24.2401 26.9044 24.2981 26.6293 24.4141C26.3542 24.5301 26.1437 24.6875 25.9979 24.8864C25.852 25.0852 25.7775 25.3123 25.7741 25.5675C25.7741 25.7796 25.8222 25.9635 25.9183 26.1193C26.0178 26.2751 26.152 26.4077 26.321 26.517C26.4901 26.6231 26.6773 26.7126 26.8828 26.7855C27.0883 26.8584 27.2955 26.9197 27.5043 26.9695L28.4588 27.2081C28.8433 27.2976 29.2128 27.4186 29.5675 27.571C29.9254 27.7235 30.2453 27.9157 30.527 28.1477C30.812 28.3797 31.0374 28.6598 31.2031 28.9879C31.3688 29.3161 31.4517 29.7005 31.4517 30.1413C31.4517 30.7379 31.2992 31.2633 30.9943 31.7173C30.6894 32.1681 30.2486 32.5211 29.6719 32.7763C29.0985 33.0282 28.4041 33.1541 27.5888 33.1541C26.7966 33.1541 26.1089 33.0315 25.5256 32.7862C24.9455 32.541 24.4915 32.183 24.1634 31.7124C23.8385 31.2417 23.6629 30.6683 23.6364 29.9922H25.451C25.4775 30.3468 25.5869 30.6418 25.7791 30.8771C25.9714 31.1125 26.2216 31.2881 26.5298 31.4041C26.8414 31.5201 27.1894 31.5781 27.5739 31.5781C27.9749 31.5781 28.3262 31.5185 28.6278 31.3991C28.9328 31.2765 29.1714 31.1075 29.3438 30.892C29.5161 30.6733 29.6039 30.4181 29.6072 30.1264C29.6039 29.8613 29.526 29.6425 29.3736 29.4702C29.2211 29.2945 29.0073 29.1487 28.7322 29.0327C28.4605 28.9134 28.1423 28.8073 27.7777 28.7145L26.6193 28.4162C25.7808 28.2008 25.1179 27.8743 24.6307 27.4368C24.1468 26.996 23.9048 26.411 23.9048 25.6818C23.9048 25.0819 24.0672 24.5566 24.392 24.1058C24.7202 23.6551 25.166 23.3054 25.7294 23.0568C26.2929 22.8049 26.9309 22.679 27.6435 22.679C28.366 22.679 28.9991 22.8049 29.5426 23.0568C30.0895 23.3054 30.5187 23.6518 30.8303 24.0959C31.1418 24.5367 31.3026 25.0438 31.3125 25.6172H29.5376ZM36.3475 33.1491C35.6017 33.1491 34.9554 32.9851 34.4086 32.657C33.8617 32.3288 33.4374 31.8698 33.1358 31.2798C32.8375 30.6899 32.6884 30.0005 32.6884 29.2116C32.6884 28.4228 32.8375 27.7318 33.1358 27.1385C33.4374 26.5452 33.8617 26.0845 34.4086 25.7564C34.9554 25.4283 35.6017 25.2642 36.3475 25.2642C37.0932 25.2642 37.7395 25.4283 38.2864 25.7564C38.8333 26.0845 39.2559 26.5452 39.5542 27.1385C39.8558 27.7318 40.0066 28.4228 40.0066 29.2116C40.0066 30.0005 39.8558 30.6899 39.5542 31.2798C39.2559 31.8698 38.8333 32.3288 38.2864 32.657C37.7395 32.9851 37.0932 33.1491 36.3475 33.1491ZM36.3574 31.7074C36.7618 31.7074 37.0998 31.5964 37.3716 31.3743C37.6434 31.1489 37.8456 30.8473 37.9782 30.4695C38.1141 30.0916 38.182 29.6707 38.182 29.2067C38.182 28.7393 38.1141 28.3168 37.9782 27.9389C37.8456 27.5578 37.6434 27.2545 37.3716 27.0291C37.0998 26.8037 36.7618 26.6911 36.3574 26.6911C35.9431 26.6911 35.5984 26.8037 35.3233 27.0291C35.0516 27.2545 34.8477 27.5578 34.7118 27.9389C34.5792 28.3168 34.513 28.7393 34.513 29.2067C34.513 29.6707 34.5792 30.0916 34.7118 30.4695C34.8477 30.8473 35.0516 31.1489 35.3233 31.3743C35.5984 31.5964 35.9431 31.7074 36.3574 31.7074ZM41.5341 35.8636V25.3636H43.304V26.6264H43.4084C43.5012 26.4408 43.6321 26.2436 43.8011 26.0348C43.9702 25.8227 44.1989 25.642 44.4872 25.4929C44.7756 25.3404 45.1435 25.2642 45.5909 25.2642C46.1809 25.2642 46.7128 25.415 47.1868 25.7166C47.6641 26.0149 48.0419 26.4574 48.3203 27.044C48.602 27.6274 48.7429 28.3433 48.7429 29.1918C48.7429 30.0303 48.6054 30.7429 48.3303 31.3295C48.0552 31.9162 47.6806 32.3636 47.2067 32.6719C46.7327 32.9801 46.1958 33.1342 45.5959 33.1342C45.1584 33.1342 44.7955 33.0613 44.5071 32.9155C44.2188 32.7696 43.9867 32.594 43.8111 32.3885C43.6387 32.1797 43.5045 31.9825 43.4084 31.7969H43.3338V35.8636H41.5341ZM43.299 29.1818C43.299 29.6757 43.3686 30.1082 43.5078 30.4794C43.6503 30.8506 43.8542 31.1406 44.1193 31.3494C44.3878 31.5549 44.7126 31.6577 45.0938 31.6577C45.4915 31.6577 45.8246 31.5516 46.093 31.3395C46.3615 31.1241 46.5637 30.8307 46.6996 30.4595C46.8388 30.085 46.9084 29.6591 46.9084 29.1818C46.9084 28.7079 46.8404 28.2869 46.7045 27.919C46.5687 27.5511 46.3665 27.2628 46.098 27.054C45.8295 26.8452 45.4948 26.7408 45.0938 26.7408C44.7093 26.7408 44.3828 26.8419 44.1143 27.044C43.8459 27.2462 43.642 27.5296 43.5028 27.8942C43.367 28.2588 43.299 28.688 43.299 29.1818ZM53.6151 33.1491C52.8693 33.1491 52.223 32.9851 51.6761 32.657C51.1293 32.3288 50.705 31.8698 50.4034 31.2798C50.1051 30.6899 49.956 30.0005 49.956 29.2116C49.956 28.4228 50.1051 27.7318 50.4034 27.1385C50.705 26.5452 51.1293 26.0845 51.6761 25.7564C52.223 25.4283 52.8693 25.2642 53.6151 25.2642C54.3608 25.2642 55.0071 25.4283 55.554 25.7564C56.1009 26.0845 56.5234 26.5452 56.8217 27.1385C57.1233 27.7318 57.2741 28.4228 57.2741 29.2116C57.2741 30.0005 57.1233 30.6899 56.8217 31.2798C56.5234 31.8698 56.1009 32.3288 55.554 32.657C55.0071 32.9851 54.3608 33.1491 53.6151 33.1491ZM53.625 31.7074C54.0294 31.7074 54.3674 31.5964 54.6392 31.3743C54.911 31.1489 55.1132 30.8473 55.2457 30.4695C55.3816 30.0916 55.4496 29.6707 55.4496 29.2067C55.4496 28.7393 55.3816 28.3168 55.2457 27.9389C55.1132 27.5578 54.911 27.2545 54.6392 27.0291C54.3674 26.8037 54.0294 26.6911 53.625 26.6911C53.2107 26.6911 52.866 26.8037 52.5909 27.0291C52.3191 27.2545 52.1153 27.5578 51.9794 27.9389C51.8468 28.3168 51.7805 28.7393 51.7805 29.2067C51.7805 29.6707 51.8468 30.0916 51.9794 30.4695C52.1153 30.8473 52.3191 31.1489 52.5909 31.3743C52.866 31.5964 53.2107 31.7074 53.625 31.7074ZM58.8017 33V25.3636H60.5467V26.6364H60.6262C60.7654 26.1955 61.0041 25.8558 61.3422 25.6172C61.6835 25.3752 62.073 25.2543 62.5105 25.2543C62.6099 25.2543 62.7209 25.2592 62.8436 25.2692C62.9695 25.2758 63.0739 25.2874 63.1568 25.304V26.9595C63.0806 26.933 62.9596 26.9098 62.7939 26.8899C62.6315 26.8667 62.474 26.8551 62.3216 26.8551C61.9934 26.8551 61.6984 26.9264 61.4366 27.0689C61.1781 27.2081 60.9743 27.402 60.8251 27.6506C60.676 27.8991 60.6014 28.1858 60.6014 28.5107V33H58.8017ZM68.5758 25.3636V26.7557H64.1859V25.3636H68.5758ZM65.2697 23.5341H67.0694V30.7031C67.0694 30.9451 67.1059 31.1307 67.1788 31.2599C67.255 31.3859 67.3545 31.4721 67.4771 31.5185C67.5997 31.5649 67.7356 31.5881 67.8848 31.5881C67.9975 31.5881 68.1002 31.5798 68.193 31.5632C68.2891 31.5466 68.362 31.5317 68.4118 31.5185L68.715 32.9254C68.6189 32.9586 68.4814 32.995 68.3024 33.0348C68.1267 33.0746 67.9113 33.0978 67.6561 33.1044C67.2053 33.1177 66.7993 33.0497 66.438 32.9006C66.0768 32.7481 65.7901 32.5128 65.5779 32.1946C65.3691 31.8764 65.2664 31.4787 65.2697 31.0014V23.5341ZM73.3796 33.1491C72.614 33.1491 71.9528 32.9901 71.396 32.6719C70.8424 32.3504 70.4165 31.8963 70.1183 31.3097C69.82 30.7197 69.6708 30.0253 69.6708 29.2266C69.6708 28.4411 69.82 27.7517 70.1183 27.1584C70.4199 26.5618 70.8408 26.0978 71.381 25.7663C71.9213 25.4316 72.556 25.2642 73.2852 25.2642C73.7558 25.2642 74.1999 25.3404 74.6175 25.4929C75.0385 25.642 75.4097 25.8741 75.7312 26.1889C76.056 26.5038 76.3112 26.9048 76.4968 27.392C76.6824 27.8759 76.7752 28.4527 76.7752 29.1222V29.674H70.516V28.4609H75.0501C75.0468 28.1162 74.9722 27.8097 74.8263 27.5412C74.6805 27.2694 74.4767 27.0556 74.2148 26.8999C73.9563 26.7441 73.6547 26.6662 73.31 26.6662C72.9421 26.6662 72.619 26.7557 72.3406 26.9347C72.0621 27.1103 71.8451 27.3423 71.6893 27.6307C71.5368 27.9157 71.4589 28.2289 71.4556 28.5703V29.6293C71.4556 30.0734 71.5368 30.4545 71.6992 30.7727C71.8616 31.0876 72.0887 31.3295 72.3803 31.4986C72.672 31.6643 73.0134 31.7472 73.4045 31.7472C73.6663 31.7472 73.9033 31.7107 74.1154 31.6378C74.3275 31.5616 74.5115 31.4505 74.6673 31.3047C74.823 31.1589 74.9407 30.9782 75.0202 30.7628L76.7006 30.9517C76.5946 31.3958 76.3924 31.7836 76.0941 32.1151C75.7991 32.4432 75.4213 32.6984 74.9606 32.8807C74.4999 33.0597 73.9729 33.1491 73.3796 33.1491ZM81.7704 33V25.3636H83.4906V26.6612H83.5801C83.7392 26.2237 84.0027 25.8823 84.3706 25.6371C84.7385 25.3885 85.1776 25.2642 85.688 25.2642C86.2051 25.2642 86.6409 25.3902 86.9956 25.642C87.3535 25.8906 87.6054 26.2304 87.7512 26.6612H87.8308C87.9998 26.237 88.2849 25.8989 88.6859 25.647C89.0903 25.3918 89.5692 25.2642 90.1227 25.2642C90.8253 25.2642 91.3987 25.4863 91.8429 25.9304C92.287 26.3745 92.5091 27.0225 92.5091 27.8743V33H90.7044V28.1527C90.7044 27.6787 90.5784 27.3324 90.3265 27.1136C90.0746 26.8916 89.7664 26.7805 89.4018 26.7805C88.9676 26.7805 88.6279 26.9164 88.3826 27.1882C88.1407 27.4567 88.0197 27.8063 88.0197 28.2372V33H86.2548V28.0781C86.2548 27.6837 86.1355 27.3688 85.8968 27.1335C85.6615 26.8982 85.3533 26.7805 84.9721 26.7805C84.7136 26.7805 84.4783 26.8468 84.2662 26.9794C84.054 27.1087 83.885 27.2926 83.7591 27.5312C83.6331 27.7666 83.5701 28.0417 83.5701 28.3565V33H81.7704ZM97.6658 33.1491C96.9201 33.1491 96.2738 32.9851 95.7269 32.657C95.18 32.3288 94.7558 31.8698 94.4542 31.2798C94.1559 30.6899 94.0067 30.0005 94.0067 29.2116C94.0067 28.4228 94.1559 27.7318 94.4542 27.1385C94.7558 26.5452 95.18 26.0845 95.7269 25.7564C96.2738 25.4283 96.9201 25.2642 97.6658 25.2642C98.4116 25.2642 99.0579 25.4283 99.6048 25.7564C100.152 26.0845 100.574 26.5452 100.873 27.1385C101.174 27.7318 101.325 28.4228 101.325 29.2116C101.325 30.0005 101.174 30.6899 100.873 31.2798C100.574 31.8698 100.152 32.3288 99.6048 32.657C99.0579 32.9851 98.4116 33.1491 97.6658 33.1491ZM97.6758 31.7074C98.0801 31.7074 98.4182 31.5964 98.69 31.3743C98.9618 31.1489 99.1639 30.8473 99.2965 30.4695C99.4324 30.0916 99.5004 29.6707 99.5004 29.2067C99.5004 28.7393 99.4324 28.3168 99.2965 27.9389C99.1639 27.5578 98.9618 27.2545 98.69 27.0291C98.4182 26.8037 98.0801 26.6911 97.6758 26.6911C97.2615 26.6911 96.9168 26.8037 96.6417 27.0291C96.3699 27.2545 96.1661 27.5578 96.0302 27.9389C95.8976 28.3168 95.8313 28.7393 95.8313 29.2067C95.8313 29.6707 95.8976 30.0916 96.0302 30.4695C96.1661 30.8473 96.3699 31.1489 96.6417 31.3743C96.9168 31.5964 97.2615 31.7074 97.6758 31.7074ZM106.666 25.3636V26.7557H102.276V25.3636H106.666ZM103.36 23.5341H105.159V30.7031C105.159 30.9451 105.196 31.1307 105.269 31.2599C105.345 31.3859 105.444 31.4721 105.567 31.5185C105.69 31.5649 105.825 31.5881 105.975 31.5881C106.087 31.5881 106.19 31.5798 106.283 31.5632C106.379 31.5466 106.452 31.5317 106.502 31.5185L106.805 32.9254C106.709 32.9586 106.571 32.995 106.392 33.0348C106.217 33.0746 106.001 33.0978 105.746 33.1044C105.295 33.1177 104.889 33.0497 104.528 32.9006C104.167 32.7481 103.88 32.5128 103.668 32.1946C103.459 31.8764 103.356 31.4787 103.36 31.0014V23.5341ZM111.42 33.1491C110.674 33.1491 110.028 32.9851 109.481 32.657C108.934 32.3288 108.51 31.8698 108.208 31.2798C107.91 30.6899 107.761 30.0005 107.761 29.2116C107.761 28.4228 107.91 27.7318 108.208 27.1385C108.51 26.5452 108.934 26.0845 109.481 25.7564C110.028 25.4283 110.674 25.2642 111.42 25.2642C112.165 25.2642 112.812 25.4283 113.359 25.7564C113.906 26.0845 114.328 26.5452 114.626 27.1385C114.928 27.7318 115.079 28.4228 115.079 29.2116C115.079 30.0005 114.928 30.6899 114.626 31.2798C114.328 31.8698 113.906 32.3288 113.359 32.657C112.812 32.9851 112.165 33.1491 111.42 33.1491ZM111.43 31.7074C111.834 31.7074 112.172 31.5964 112.444 31.3743C112.716 31.1489 112.918 30.8473 113.05 30.4695C113.186 30.0916 113.254 29.6707 113.254 29.2067C113.254 28.7393 113.186 28.3168 113.05 27.9389C112.918 27.5578 112.716 27.2545 112.444 27.0291C112.172 26.8037 111.834 26.6911 111.43 26.6911C111.015 26.6911 110.671 26.8037 110.396 27.0291C110.124 27.2545 109.92 27.5578 109.784 27.9389C109.652 28.3168 109.585 28.7393 109.585 29.2067C109.585 29.6707 109.652 30.0916 109.784 30.4695C109.92 30.8473 110.124 31.1489 110.396 31.3743C110.671 31.5964 111.015 31.7074 111.43 31.7074ZM116.606 33V25.3636H118.351V26.6364H118.431C118.57 26.1955 118.809 25.8558 119.147 25.6172C119.488 25.3752 119.878 25.2543 120.315 25.2543C120.415 25.2543 120.526 25.2592 120.648 25.2692C120.774 25.2758 120.879 25.2874 120.961 25.304V26.9595C120.885 26.933 120.764 26.9098 120.599 26.8899C120.436 26.8667 120.279 26.8551 120.126 26.8551C119.798 26.8551 119.503 26.9264 119.241 27.0689C118.983 27.2081 118.779 27.402 118.63 27.6506C118.481 27.8991 118.406 28.1858 118.406 28.5107V33H116.606ZM126.748 35.8636C126.503 35.8636 126.276 35.8438 126.067 35.804C125.862 35.7675 125.698 35.7244 125.575 35.6747L125.993 34.2727C126.255 34.349 126.488 34.3854 126.694 34.3821C126.899 34.3788 127.08 34.3142 127.236 34.1882C127.395 34.0656 127.529 33.8601 127.638 33.5717L127.792 33.1591L125.023 25.3636H126.932L128.692 31.1307H128.772L130.537 25.3636H132.451L129.393 33.9247C129.251 34.3291 129.062 34.6754 128.827 34.9638C128.591 35.2554 128.303 35.4775 127.961 35.63C127.623 35.7857 127.219 35.8636 126.748 35.8636ZM140.5 33.1491C139.738 33.1491 139.083 32.9818 138.536 32.647C137.992 32.3123 137.573 31.8499 137.278 31.2599C136.987 30.6667 136.841 29.9839 136.841 29.2116C136.841 28.4361 136.99 27.7517 137.288 27.1584C137.586 26.5618 138.007 26.0978 138.551 25.7663C139.098 25.4316 139.744 25.2642 140.49 25.2642C141.11 25.2642 141.658 25.3786 142.135 25.6072C142.616 25.8326 142.999 26.1525 143.284 26.5668C143.569 26.9777 143.731 27.4583 143.771 28.0085H142.051C141.981 27.6406 141.816 27.334 141.554 27.0888C141.295 26.8402 140.949 26.7159 140.515 26.7159C140.147 26.7159 139.824 26.8153 139.545 27.0142C139.267 27.2098 139.05 27.4915 138.894 27.8594C138.742 28.2273 138.665 28.6681 138.665 29.1818C138.665 29.7022 138.742 30.1496 138.894 30.5241C139.046 30.8954 139.26 31.1821 139.535 31.3842C139.814 31.5831 140.14 31.6825 140.515 31.6825C140.78 31.6825 141.017 31.6328 141.226 31.5334C141.438 31.4306 141.615 31.2831 141.758 31.0909C141.9 30.8987 141.998 30.665 142.051 30.3899H143.771C143.728 30.9302 143.569 31.4091 143.294 31.8267C143.019 32.241 142.644 32.5658 142.17 32.8011C141.696 33.0331 141.14 33.1491 140.5 33.1491ZM147.446 33.1541C146.962 33.1541 146.527 33.0679 146.139 32.8956C145.754 32.7199 145.449 32.4614 145.224 32.12C145.002 31.7786 144.891 31.3577 144.891 30.8572C144.891 30.4264 144.971 30.0701 145.13 29.7884C145.289 29.5066 145.506 29.2812 145.781 29.1122C146.056 28.9432 146.366 28.8156 146.711 28.7294C147.059 28.6399 147.418 28.5753 147.789 28.5355C148.237 28.4891 148.6 28.4477 148.878 28.4112C149.157 28.3714 149.359 28.3118 149.485 28.2322C149.614 28.1494 149.679 28.0218 149.679 27.8494V27.8196C149.679 27.4451 149.568 27.1551 149.346 26.9496C149.123 26.7441 148.804 26.6413 148.386 26.6413C147.945 26.6413 147.596 26.7375 147.337 26.9297C147.082 27.1219 146.909 27.349 146.82 27.6108L145.14 27.3722C145.272 26.9081 145.491 26.5204 145.796 26.2088C146.101 25.8939 146.474 25.6586 146.914 25.5028C147.355 25.3438 147.842 25.2642 148.376 25.2642C148.744 25.2642 149.11 25.3073 149.475 25.3935C149.839 25.4796 150.172 25.6222 150.474 25.821C150.776 26.0166 151.018 26.2834 151.2 26.6214C151.386 26.9595 151.478 27.3821 151.478 27.8892V33H149.748V31.951H149.689C149.579 32.1631 149.425 32.362 149.226 32.5476C149.031 32.7299 148.784 32.8774 148.485 32.9901C148.19 33.0994 147.844 33.1541 147.446 33.1541ZM147.914 31.8317C148.275 31.8317 148.588 31.7604 148.853 31.6179C149.118 31.4721 149.322 31.2798 149.465 31.0412C149.611 30.8026 149.684 30.5424 149.684 30.2607V29.3608C149.627 29.4072 149.531 29.4503 149.395 29.4901C149.263 29.5298 149.114 29.5646 148.948 29.5945C148.782 29.6243 148.618 29.6508 148.456 29.674C148.293 29.6972 148.152 29.7171 148.033 29.7337C147.765 29.7701 147.524 29.8298 147.312 29.9126C147.1 29.9955 146.933 30.1115 146.81 30.2607C146.687 30.4065 146.626 30.5954 146.626 30.8274C146.626 31.1589 146.747 31.4091 146.989 31.5781C147.231 31.7472 147.539 31.8317 147.914 31.8317ZM153.288 25.3636H155.088V33.4375C155.088 33.9877 154.983 34.4418 154.775 34.7997C154.566 35.1577 154.264 35.4245 153.87 35.6001C153.475 35.7758 152.996 35.8636 152.433 35.8636C152.367 35.8636 152.305 35.862 152.249 35.8587C152.193 35.8587 152.131 35.857 152.065 35.8537V34.3871C152.115 34.3904 152.159 34.392 152.199 34.392C152.239 34.3954 152.28 34.397 152.324 34.397C152.668 34.397 152.915 34.3125 153.064 34.1435C153.213 33.9777 153.288 33.7341 153.288 33.4126V25.3636ZM154.183 24.2798C153.895 24.2798 153.648 24.1854 153.442 23.9964C153.24 23.8042 153.139 23.5739 153.139 23.3054C153.139 23.0336 153.24 22.8033 153.442 22.6143C153.648 22.4221 153.895 22.326 154.183 22.326C154.468 22.326 154.712 22.4221 154.914 22.6143C155.119 22.8033 155.222 23.0336 155.222 23.3054C155.222 23.5739 155.119 23.8042 154.914 23.9964C154.712 24.1854 154.468 24.2798 154.183 24.2798ZM159.136 33.1541C158.652 33.1541 158.216 33.0679 157.828 32.8956C157.444 32.7199 157.139 32.4614 156.914 32.12C156.691 31.7786 156.58 31.3577 156.58 30.8572C156.58 30.4264 156.66 30.0701 156.819 29.7884C156.978 29.5066 157.195 29.2812 157.47 29.1122C157.745 28.9432 158.055 28.8156 158.4 28.7294C158.748 28.6399 159.108 28.5753 159.479 28.5355C159.926 28.4891 160.289 28.4477 160.568 28.4112C160.846 28.3714 161.048 28.3118 161.174 28.2322C161.303 28.1494 161.368 28.0218 161.368 27.8494V27.8196C161.368 27.4451 161.257 27.1551 161.035 26.9496C160.813 26.7441 160.493 26.6413 160.075 26.6413C159.635 26.6413 159.285 26.7375 159.026 26.9297C158.771 27.1219 158.599 27.349 158.509 27.6108L156.829 27.3722C156.962 26.9081 157.18 26.5204 157.485 26.2088C157.79 25.8939 158.163 25.6586 158.604 25.5028C159.045 25.3438 159.532 25.2642 160.066 25.2642C160.433 25.2642 160.8 25.3073 161.164 25.3935C161.529 25.4796 161.862 25.6222 162.164 25.821C162.465 26.0166 162.707 26.2834 162.889 26.6214C163.075 26.9595 163.168 27.3821 163.168 27.8892V33H161.438V31.951H161.378C161.269 32.1631 161.115 32.362 160.916 32.5476C160.72 32.7299 160.473 32.8774 160.175 32.9901C159.88 33.0994 159.534 33.1541 159.136 33.1541ZM159.603 31.8317C159.964 31.8317 160.278 31.7604 160.543 31.6179C160.808 31.4721 161.012 31.2798 161.154 31.0412C161.3 30.8026 161.373 30.5424 161.373 30.2607V29.3608C161.317 29.4072 161.221 29.4503 161.085 29.4901C160.952 29.5298 160.803 29.5646 160.637 29.5945C160.472 29.6243 160.307 29.6508 160.145 29.674C159.983 29.6972 159.842 29.7171 159.722 29.7337C159.454 29.7701 159.214 29.8298 159.002 29.9126C158.789 29.9955 158.622 30.1115 158.499 30.2607C158.377 30.4065 158.316 30.5954 158.316 30.8274C158.316 31.1589 158.436 31.4091 158.678 31.5781C158.92 31.7472 159.229 31.8317 159.603 31.8317ZM168.53 33V22.8182H170.374V27.1286H175.092V22.8182H176.942V33H175.092V28.6747H170.374V33H168.53ZM182.199 33.1491C181.453 33.1491 180.807 32.9851 180.26 32.657C179.713 32.3288 179.289 31.8698 178.987 31.2798C178.689 30.6899 178.54 30.0005 178.54 29.2116C178.54 28.4228 178.689 27.7318 178.987 27.1385C179.289 26.5452 179.713 26.0845 180.26 25.7564C180.807 25.4283 181.453 25.2642 182.199 25.2642C182.945 25.2642 183.591 25.4283 184.138 25.7564C184.685 26.0845 185.107 26.5452 185.406 27.1385C185.707 27.7318 185.858 28.4228 185.858 29.2116C185.858 30.0005 185.707 30.6899 185.406 31.2798C185.107 31.8698 184.685 32.3288 184.138 32.657C183.591 32.9851 182.945 33.1491 182.199 33.1491ZM182.209 31.7074C182.613 31.7074 182.951 31.5964 183.223 31.3743C183.495 31.1489 183.697 30.8473 183.83 30.4695C183.966 30.0916 184.034 29.6707 184.034 29.2067C184.034 28.7393 183.966 28.3168 183.83 27.9389C183.697 27.5578 183.495 27.2545 183.223 27.0291C182.951 26.8037 182.613 26.6911 182.209 26.6911C181.795 26.6911 181.45 26.8037 181.175 27.0291C180.903 27.2545 180.699 27.5578 180.563 27.9389C180.431 28.3168 180.365 28.7393 180.365 29.2067C180.365 29.6707 180.431 30.0916 180.563 30.4695C180.699 30.8473 180.903 31.1489 181.175 31.3743C181.45 31.5964 181.795 31.7074 182.209 31.7074ZM189.185 28.5256V33H187.386V25.3636H189.106V26.6612H189.195C189.371 26.2337 189.651 25.8939 190.036 25.642C190.423 25.3902 190.902 25.2642 191.472 25.2642C191.999 25.2642 192.458 25.3769 192.849 25.6023C193.244 25.8277 193.549 26.1541 193.764 26.5817C193.983 27.0092 194.091 27.5279 194.087 28.1378V33H192.288V28.4162C192.288 27.9058 192.155 27.5064 191.89 27.218C191.628 26.9297 191.265 26.7855 190.801 26.7855C190.486 26.7855 190.206 26.8551 189.961 26.9943C189.719 27.1302 189.528 27.3274 189.389 27.5859C189.253 27.8445 189.185 28.1577 189.185 28.5256ZM198.751 33.1342C198.151 33.1342 197.614 32.9801 197.14 32.6719C196.666 32.3636 196.291 31.9162 196.016 31.3295C195.741 30.7429 195.604 30.0303 195.604 29.1918C195.604 28.3433 195.743 27.6274 196.021 27.044C196.303 26.4574 196.683 26.0149 197.16 25.7166C197.637 25.415 198.169 25.2642 198.756 25.2642C199.203 25.2642 199.571 25.3404 199.859 25.4929C200.148 25.642 200.376 25.8227 200.545 26.0348C200.714 26.2436 200.845 26.4408 200.938 26.6264H201.013V22.8182H202.817V33H201.048V31.7969H200.938C200.845 31.9825 200.711 32.1797 200.536 32.3885C200.36 32.594 200.128 32.7696 199.839 32.9155C199.551 33.0613 199.188 33.1342 198.751 33.1342ZM199.253 31.6577C199.634 31.6577 199.959 31.5549 200.227 31.3494C200.496 31.1406 200.7 30.8506 200.839 30.4794C200.978 30.1082 201.048 29.6757 201.048 29.1818C201.048 28.688 200.978 28.2588 200.839 27.8942C200.703 27.5296 200.501 27.2462 200.232 27.044C199.967 26.8419 199.641 26.7408 199.253 26.7408C198.852 26.7408 198.517 26.8452 198.249 27.054C197.98 27.2628 197.778 27.5511 197.642 27.919C197.506 28.2869 197.438 28.7079 197.438 29.1818C197.438 29.6591 197.506 30.085 197.642 30.4595C197.781 30.8307 197.985 31.1241 198.254 31.3395C198.525 31.5516 198.858 31.6577 199.253 31.6577ZM206.933 33.1541C206.449 33.1541 206.013 33.0679 205.625 32.8956C205.241 32.7199 204.936 32.4614 204.71 32.12C204.488 31.7786 204.377 31.3577 204.377 30.8572C204.377 30.4264 204.457 30.0701 204.616 29.7884C204.775 29.5066 204.992 29.2812 205.267 29.1122C205.542 28.9432 205.852 28.8156 206.197 28.7294C206.545 28.6399 206.905 28.5753 207.276 28.5355C207.723 28.4891 208.086 28.4477 208.365 28.4112C208.643 28.3714 208.845 28.3118 208.971 28.2322C209.1 28.1494 209.165 28.0218 209.165 27.8494V27.8196C209.165 27.4451 209.054 27.1551 208.832 26.9496C208.61 26.7441 208.29 26.6413 207.872 26.6413C207.432 26.6413 207.082 26.7375 206.823 26.9297C206.568 27.1219 206.396 27.349 206.306 27.6108L204.626 27.3722C204.758 26.9081 204.977 26.5204 205.282 26.2088C205.587 25.8939 205.96 25.6586 206.401 25.5028C206.842 25.3438 207.329 25.2642 207.862 25.2642C208.23 25.2642 208.597 25.3073 208.961 25.3935C209.326 25.4796 209.659 25.6222 209.96 25.821C210.262 26.0166 210.504 26.2834 210.686 26.6214C210.872 26.9595 210.965 27.3821 210.965 27.8892V33H209.235V31.951H209.175C209.066 32.1631 208.911 32.362 208.713 32.5476C208.517 32.7299 208.27 32.8774 207.972 32.9901C207.677 33.0994 207.33 33.1541 206.933 33.1541ZM207.4 31.8317C207.761 31.8317 208.075 31.7604 208.34 31.6179C208.605 31.4721 208.809 31.2798 208.951 31.0412C209.097 30.8026 209.17 30.5424 209.17 30.2607V29.3608C209.114 29.4072 209.017 29.4503 208.882 29.4901C208.749 29.5298 208.6 29.5646 208.434 29.5945C208.268 29.6243 208.104 29.6508 207.942 29.674C207.78 29.6972 207.639 29.7171 207.519 29.7337C207.251 29.7701 207.011 29.8298 206.798 29.9126C206.586 29.9955 206.419 30.1115 206.296 30.2607C206.174 30.4065 206.112 30.5954 206.112 30.8274C206.112 31.1589 206.233 31.4091 206.475 31.5781C206.717 31.7472 207.026 31.8317 207.4 31.8317Z" fill="#5F259F"/>
<rect x="541" y="21" width="109" height="42" rx="10" fill="#F9F8FE"/>
<path d="M567.333 42L571 45.6667M571 45.6667L574.667 42M571 45.6667V37.2334C571 35.9585 571 35.3211 570.496 34.6075C570.16 34.1333 569.195 33.5481 568.619 33.4701C567.753 33.3527 567.424 33.5243 566.766 33.8675C563.835 35.3967 561.833 38.4647 561.833 42C561.833 47.0626 565.938 51.1667 571 51.1667C576.063 51.1667 580.167 47.0626 580.167 42C580.167 38.6071 578.323 35.6446 575.583 34.0597" stroke="#B8B4C8" stroke-width="2" stroke-linecap="round" stroke-linejoin="round"/>
<g clip-path="url(#clip0_188_2883)">
<path d="M625.5 37.4166V35.7666C625.5 34.7399 625.5 34.2265 625.3 33.8343C625.125 33.4894 624.844 33.2089 624.499 33.0331C624.107 32.8333 623.594 32.8333 622.567 32.8333H617.433C616.407 32.8333 615.893 32.8333 615.501 33.0331C615.156 33.2089 614.876 33.4894 614.7 33.8343C614.5 34.2265 614.5 34.7399 614.5 35.7666V37.4166M614.5 47.5C613.648 47.5 613.221 47.5 612.872 47.4063C611.923 47.152 611.181 46.4107 610.927 45.4617C610.833 45.112 610.833 44.6858 610.833 43.8333V41.8166C610.833 40.2765 610.833 39.5064 611.133 38.9182C611.397 38.4007 611.818 37.98 612.335 37.7164C612.923 37.4166 613.693 37.4166 615.233 37.4166H624.767C626.307 37.4166 627.077 37.4166 627.665 37.7164C628.183 37.98 628.603 38.4007 628.867 38.9182C629.167 39.5064 629.167 40.2765 629.167 41.8166V43.8333C629.167 44.6858 629.167 45.112 629.073 45.4617C628.819 46.4107 628.078 47.152 627.129 47.4063C626.779 47.5 626.353 47.5 625.5 47.5M622.75 40.625H625.5M617.433 51.1666H622.567C623.594 51.1666 624.107 51.1666 624.499 50.9668C624.844 50.7911 625.125 50.5106 625.3 50.1656C625.5 49.7735 625.5 49.2601 625.5 48.2333V46.7666C625.5 45.7399 625.5 45.2265 625.3 44.8343C625.125 44.4894 624.844 44.2089 624.499 44.0331C624.107 43.8333 623.594 43.8333 622.567 43.8333H617.433C616.407 43.8333 615.893 43.8333 615.501 44.0331C615.156 44.2089 614.876 44.4894 614.7 44.8343C614.5 45.2265 614.5 45.7399 614.5 46.7666V48.2333C614.5 49.2601 614.5 49.7735 614.7 50.1656C614.876 50.5106 615.156 50.7911 615.501 50.9668C615.893 51.1666 616.407 51.1666 617.433 51.1666Z" stroke="#B8B4C8" stroke-width="2" stroke-linecap="round" stroke-linejoin="round"/>
</g>
<defs>
<clipPath id="clip0_188_2883">
<rect width="22" height="22" fill="white" transform="translate(609 31)"/>
</clipPath>
</defs>
</svg>
