<svg width="393" height="280" viewBox="0 0 393 280" fill="none" xmlns="http://www.w3.org/2000/svg">
<g clip-path="url(#clip0_165_1812)">
<path d="M109.17 260.352H323.895" stroke="#FFE699" stroke-miterlimit="10"/>
<path d="M0 261.437L161.707 260.352V33.4375H323.232V260.352H393" stroke="#FFE699" stroke-miterlimit="10"/>
<path d="M153.995 69.2978C155.019 69.0567 155.983 68.6348 156.887 68.0322C155.983 67.4897 155.019 67.0678 153.995 66.7665C152.971 66.4651 152.127 65.6816 151.826 64.5968C151.585 63.5722 151.163 62.6079 150.561 61.7039C150.018 62.6079 149.597 63.5722 149.295 64.5968C148.994 65.6214 148.211 66.4651 147.126 66.7665C146.102 67.0076 145.078 67.4295 144.174 68.0322C145.078 68.5746 146.042 68.9965 147.126 69.2978C148.151 69.5992 148.994 70.3827 149.295 71.4675C149.536 72.4921 149.958 73.4564 150.561 74.3605C151.103 73.4564 151.525 72.4921 151.826 71.4675C152.127 70.3827 152.91 69.5389 153.995 69.2978V69.2978Z" fill="#FFBC99"/>
<path d="M157.911 80.0259C158.776 80.0259 159.477 79.3243 159.477 78.4588C159.477 77.5934 158.776 76.8918 157.911 76.8918C157.046 76.8918 156.344 77.5934 156.344 78.4588C156.344 79.3243 157.046 80.0259 157.911 80.0259Z" fill="#FFBC99"/>
<path d="M294.012 60.2695H194V100.65H294.012V60.2695Z" fill="#C2D9F0"/>
<g clip-path="url(#clip1_165_1812)">
<path d="M169.539 89.3678L258.767 0.108643" stroke="white" stroke-width="0.5" stroke-miterlimit="10"/>
<path d="M172.853 92.6224L262.08 3.36328" stroke="white" stroke-width="0.5" stroke-miterlimit="10"/>
<path d="M176.106 95.8768L265.334 6.61768" stroke="white" stroke-width="0.5" stroke-miterlimit="10"/>
<path d="M179.359 99.1917L268.587 9.87231" stroke="white" stroke-width="0.5" stroke-miterlimit="10"/>
<path d="M182.613 102.446L271.841 13.187" stroke="white" stroke-width="0.5" stroke-miterlimit="10"/>
<path d="M185.866 105.701L275.154 16.4417" stroke="white" stroke-width="0.5" stroke-miterlimit="10"/>
<path d="M189.18 108.955L278.408 19.6963" stroke="white" stroke-width="0.5" stroke-miterlimit="10"/>
<path d="M192.433 112.21L281.661 22.9507" stroke="white" stroke-width="0.5" stroke-miterlimit="10"/>
<path d="M195.687 115.525L284.915 26.2053" stroke="white" stroke-width="0.5" stroke-miterlimit="10"/>
<path d="M198.94 118.779L288.228 29.5203" stroke="white" stroke-width="0.5" stroke-miterlimit="10"/>
<path d="M202.194 122.034L291.482 32.7747" stroke="white" stroke-width="0.5" stroke-miterlimit="10"/>
<path d="M205.507 125.349L294.735 36.0293" stroke="white" stroke-width="0.5" stroke-miterlimit="10"/>
<path d="M208.761 128.603L297.988 39.344" stroke="white" stroke-width="0.5" stroke-miterlimit="10"/>
<path d="M212.014 131.858L301.242 42.5986" stroke="white" stroke-width="0.5" stroke-miterlimit="10"/>
<path d="M215.328 135.112L304.555 45.8533" stroke="white" stroke-width="0.5" stroke-miterlimit="10"/>
<path d="M218.581 138.367L307.809 49.1077" stroke="white" stroke-width="0.5" stroke-miterlimit="10"/>
<path d="M221.834 141.682L311.062 52.3623" stroke="white" stroke-width="0.5" stroke-miterlimit="10"/>
<path d="M225.088 144.936L314.316 55.677" stroke="white" stroke-width="0.5" stroke-miterlimit="10"/>
<path d="M228.341 148.191L317.629 58.9316" stroke="white" stroke-width="0.5" stroke-miterlimit="10"/>
<path d="M231.655 151.445L320.883 62.1863" stroke="white" stroke-width="0.5" stroke-miterlimit="10"/>
<path d="M234.908 154.76L324.136 65.4407" stroke="white" stroke-width="0.5" stroke-miterlimit="10"/>
<path d="M238.162 158.015L327.39 68.7556" stroke="white" stroke-width="0.5" stroke-miterlimit="10"/>
<path d="M258.767 158.015L169.539 68.7556" stroke="white" stroke-width="0.5" stroke-miterlimit="10"/>
<path d="M262.08 154.76L172.853 65.4407" stroke="white" stroke-width="0.5" stroke-miterlimit="10"/>
<path d="M265.334 151.445L176.106 62.1863" stroke="white" stroke-width="0.5" stroke-miterlimit="10"/>
<path d="M268.587 148.191L179.359 58.9316" stroke="white" stroke-width="0.5" stroke-miterlimit="10"/>
<path d="M271.841 144.936L182.613 55.677" stroke="white" stroke-width="0.5" stroke-miterlimit="10"/>
<path d="M275.154 141.682L185.866 52.3623" stroke="white" stroke-width="0.5" stroke-miterlimit="10"/>
<path d="M278.408 138.367L189.18 49.1077" stroke="white" stroke-width="0.5" stroke-miterlimit="10"/>
<path d="M281.661 135.112L192.433 45.8533" stroke="white" stroke-width="0.5" stroke-miterlimit="10"/>
<path d="M284.915 131.858L195.687 42.5986" stroke="white" stroke-width="0.5" stroke-miterlimit="10"/>
<path d="M288.228 128.603L198.94 39.344" stroke="white" stroke-width="0.5" stroke-miterlimit="10"/>
<path d="M291.482 125.349L202.194 36.0293" stroke="white" stroke-width="0.5" stroke-miterlimit="10"/>
<path d="M294.735 122.034L205.507 32.7747" stroke="white" stroke-width="0.5" stroke-miterlimit="10"/>
<path d="M297.988 118.779L208.761 29.5203" stroke="white" stroke-width="0.5" stroke-miterlimit="10"/>
<path d="M301.242 115.525L212.014 26.2053" stroke="white" stroke-width="0.5" stroke-miterlimit="10"/>
<path d="M304.555 112.21L215.328 22.9507" stroke="white" stroke-width="0.5" stroke-miterlimit="10"/>
<path d="M307.809 108.955L218.581 19.6963" stroke="white" stroke-width="0.5" stroke-miterlimit="10"/>
<path d="M311.062 105.701L221.834 16.4417" stroke="white" stroke-width="0.5" stroke-miterlimit="10"/>
<path d="M314.316 102.446L225.088 13.187" stroke="white" stroke-width="0.5" stroke-miterlimit="10"/>
<path d="M317.629 99.1917L228.341 9.87231" stroke="white" stroke-width="0.5" stroke-miterlimit="10"/>
<path d="M320.883 95.8768L231.655 6.61768" stroke="white" stroke-width="0.5" stroke-miterlimit="10"/>
<path d="M324.136 92.6224L234.908 3.36328" stroke="white" stroke-width="0.5" stroke-miterlimit="10"/>
<path d="M327.39 89.3678L238.162 0.108643" stroke="white" stroke-width="0.5" stroke-miterlimit="10"/>
</g>
<path d="M158.031 129.567C155.501 129.326 153.151 128.121 151.464 126.252C149.356 126.494 146.524 125.107 146.946 122.757L159.417 125.228L167.731 125.107L168.515 135.293L154.417 136.619L153.754 126.554" fill="#E0F3FF"/>
<path d="M156.766 127.578L144.054 126.253C143.451 126.192 142.909 126.614 142.789 127.217C142.728 127.578 142.909 127.94 143.15 128.181C143.391 128.362 143.692 128.483 143.994 128.543C148.572 129.266 153.091 130.11 157.67 131.074" fill="#E0F3FF"/>
<path d="M156.284 130.11L143.572 128.784C142.969 128.724 142.427 129.145 142.307 129.748C142.246 130.11 142.427 130.471 142.668 130.712C142.909 130.893 143.21 131.014 143.512 131.074C148.09 131.797 152.609 132.641 157.188 133.605" fill="#E0F3FF"/>
<path d="M157.429 132.581L143.15 131.074C143.03 131.556 143.15 133.184 144.656 133.545C149.115 134.51 153.633 135.112 158.152 135.353" fill="#E0F3FF"/>
<path d="M157.79 136.257C155.441 136.317 153.151 136.8 150.982 137.704C150.802 137.824 150.561 137.884 150.38 137.884C150.139 137.884 149.958 137.764 149.898 137.583C149.838 137.342 150.018 137.161 150.139 136.98C151.223 135.835 152.489 134.931 153.935 134.208" fill="#E0F3FF"/>
<path d="M297.928 56.2795H189.3V104.977H297.928V56.2795Z" stroke="#C2D9F0" stroke-miterlimit="10"/>
<path d="M198.097 96.5398C195.747 95.5152 194.662 92.8031 195.687 90.4526C195.928 89.9101 196.289 89.3677 196.711 88.9458L197.735 87.9815C198.277 87.5596 198.699 86.9569 199 86.3542C199.543 84.727 198.217 82.6778 197.916 81.0505C197.615 79.1822 197.795 77.3138 198.518 75.566C200.266 71.2869 204.844 68.2131 208.941 66.3448C213.58 64.2353 218.762 63.7532 223.702 64.9586C226.715 65.7421 229.667 67.2488 231.474 69.8404C232.498 71.4074 233.041 73.2155 233.041 75.1441C233.041 77.3741 232.016 78.5192 231.293 80.4478C231.052 81.0505 231.052 81.7738 231.354 82.3765C231.775 83.2202 232.739 83.5216 233.643 83.8229L238.102 85.2694C240.511 86.0529 241.837 88.6445 241.054 91.1155C240.813 91.7785 240.511 92.3812 240.029 92.8634C238.644 94.3098 237.017 95.5152 235.27 96.4795C231.595 98.4684 227.438 99.4327 223.341 100.277C220.569 100.879 207.375 100.518 198.097 96.5398V96.5398Z" fill="#342C53"/>
<path d="M209.785 106.122L211.05 89.0661L209.544 89.1264C206.833 89.3072 204.483 87.1978 204.242 84.4857L203.7 76.7109C203.7 75.8671 203.82 75.0234 203.941 74.2399C204.724 69.9005 207.254 67.3089 211.11 66.1035C214.665 65.0186 219.063 64.657 223.1 66.887C231.896 71.7085 225.389 80.5079 221.413 83.9432L224.546 96.5998L211.17 114.922L209.785 106.122V106.122Z" fill="#FFBC99"/>
<path d="M221.955 85.9322C221.473 84.4255 221.232 82.6777 220.81 81.1709C221.895 80.8093 222.859 80.2066 223.642 79.3628C224.425 78.5191 224.726 77.374 224.425 76.2288C224.064 75.144 222.979 74.4208 221.834 74.481C221.232 74.5413 220.69 74.7221 220.268 75.0837C219.726 75.5056 219.846 75.9275 219.485 76.4096C219.364 76.6507 219.063 76.8315 218.762 76.8315C218.46 76.7713 218.159 76.5905 218.039 76.3494C217.918 76.048 217.858 75.7467 217.798 75.4453C217.496 73.8783 216.894 72.4319 215.99 71.1662C211.893 65.4406 203.76 68.9965 203.338 73.8181C204.001 70.8649 205.808 68.3335 208.459 66.8871C211.05 65.5009 213.942 64.7776 216.894 64.7174C219.605 64.5968 222.497 64.8379 224.847 66.1638C228.341 68.1527 230.149 72.4921 229.606 76.4699C229.064 80.508 225.389 83.8831 221.955 85.9322Z" fill="#342C53"/>
<path d="M210.146 142.766L202.555 147.407L194.723 147.889L189.421 146.985C189.421 146.985 187.433 149.275 196.169 152.409C196.651 152.59 196.831 153.072 196.711 153.555C196.651 153.796 196.41 153.976 196.169 154.097L188.879 156.869L184.36 158.497C183.697 158.738 183.396 159.461 183.637 160.064C183.757 160.305 183.878 160.546 184.119 160.666L191.831 159.099L205.748 156.327L212.315 153.314" fill="#FFBC99"/>
<path d="M283.228 232.869L290.216 234.015C291.12 234.135 291.964 234.557 292.566 235.22C293.47 236.184 293.771 237.57 293.349 238.836L284.071 267.585L281.36 266.681L282.444 253.662L278.89 245.044L283.228 232.869V232.869Z" fill="#FFBC99"/>
<path d="M291.843 245.405C291.843 245.405 283.408 245.285 280.336 250.649L280.637 258.363L279.733 263.667C279.372 265.294 279.673 267.042 280.697 268.428L282.384 270.779C282.264 270.779 284.854 269.573 291.843 245.405V245.405Z" fill="#FF6D6D"/>
<path d="M293.733 235.233L282.215 270.842L284.909 271.714L296.427 236.105L293.733 235.233Z" fill="#FF6D6D"/>
<path d="M275.937 263.787C277.203 264.209 278.588 263.727 279.372 262.703C281.059 260.533 279.793 255.832 276.6 257.278C274.13 258.363 272.865 262.642 275.937 263.787V263.787Z" fill="#C2D9F0"/>
<path opacity="0.21" d="M210.929 89.0662L216.472 87.8608C214.605 90.1511 212.436 92.5619 210.568 94.8521" fill="#5F259F"/>
<path d="M210.568 96.6602L203.459 97.3231C200.687 97.8053 198.338 100.035 196.952 102.506L185.324 122.757H165.201L167.189 137.101L191.65 136.137C194.241 136.016 196.651 134.63 197.976 132.34L211.713 108.714" fill="#99D6FF"/>
<path d="M213.159 136.8L207.556 261.859L239.186 263.787L231.414 135.655L213.159 136.8Z" fill="#5F259F"/>
<path d="M223.341 156.448L222.316 212.679L274.672 256.073L283.95 232.026L249.669 201.77L247.801 162.896L249.609 155.905C249.97 154.519 249.91 153.073 249.368 151.747L242.68 134.51L222.377 135.835L223.341 156.448Z" fill="#5F259F"/>
<path d="M208.7 104.917L205.206 112.451C204.121 114.862 204.664 117.694 206.592 119.502L211.713 124.264L212.737 132.46C212.677 133.183 213.219 136.8 213.219 136.8L242.921 135.534L226.956 95.8164L224.485 95.9369L212.918 111.908L210.628 96.7204" fill="#99D6FF"/>
<path d="M226.895 95.7561L236.414 99.312C238.342 100.035 239.849 101.602 240.451 103.531L250.392 134.148C251.356 137.041 250.031 140.235 247.259 141.621L213.46 160.727L206.049 144.333L211.532 141.742L233.523 129.447L226.052 110.1" fill="#99D6FF"/>
<path d="M215.93 76.4699C214.364 74.7221 211.713 74.6016 209.965 76.2288C209.363 76.7713 208.941 77.4342 208.76 78.2177C211.291 79.0012 214.062 78.3383 215.93 76.4699Z" fill="white"/>
<path d="M208.76 78.1576C209.423 75.9276 211.713 74.6017 213.942 75.2646C214.725 75.5057 215.388 75.9276 215.93 76.47" stroke="#342C53" stroke-miterlimit="10"/>
<path d="M206.531 78.2178L205.628 79.4232C205.387 79.7245 205.447 80.2067 205.808 80.4477C205.869 80.508 205.929 80.508 205.929 80.508C206.29 80.6888 206.652 80.8094 207.013 80.9299" stroke="#342C53" stroke-miterlimit="10"/>
<path d="M212.857 77.2535C212.918 76.5302 212.737 75.807 212.315 75.144C212.134 75.144 211.954 75.2043 211.773 75.2043C210.267 75.5659 209.122 76.711 208.7 78.1575C209.905 78.5794 211.231 78.6397 212.496 78.3383C212.737 77.9767 212.857 77.6151 212.857 77.2535V77.2535Z" fill="#342C53"/>
<path d="M214.846 72.8538C213.279 71.4676 210.869 71.5881 209.484 73.1551L209.423 73.2154C211.351 73.0949 212.978 72.9743 214.846 72.8538Z" fill="#342C53" stroke="#342C53" stroke-width="0.25" stroke-linejoin="round"/>
<path d="M207.627 84.6519C209.555 84.3505 210.037 83.4465 211.362 82L206 82.4219V84.6519H207.627V84.6519Z" fill="white"/>
<path d="M208.7 104.917L205.206 112.451C204.121 114.862 204.664 117.694 206.592 119.502L211.713 124.264L213.219 136.86" stroke="#2D7CB3" stroke-miterlimit="10"/>
<path d="M203.639 78.3985C203.88 78.1574 204.061 77.8561 204.121 77.4945C204.182 77.0123 204.061 76.4699 203.76 76.1083C203.76 75.8672 203.76 75.6864 203.82 75.4453C204.483 75.9275 204.784 76.7712 204.664 77.615C204.543 78.2177 204.182 78.6999 203.639 79.0012C203.579 78.8204 203.639 78.6396 203.639 78.3985V78.3985Z" fill="#342C53"/>
<path d="M237.258 231.784L227.739 217.199L237.258 225.034V231.784Z" fill="#342C53"/>
<path d="M223.341 156.448L222.316 212.619" stroke="#342C53" stroke-miterlimit="10"/>
<path d="M6.62732 254.446L161.707 253.421" stroke="#FFE699" stroke-miterlimit="10"/>
<path d="M211.652 141.742L233.643 129.447L226.233 110.1" stroke="#2D7CB3" stroke-miterlimit="10"/>
<path d="M229.426 151.747L247.681 147.467L245.753 142.465L229.426 151.747Z" fill="#342C53"/>
<path d="M233.824 263.305L234.908 269.694C235.089 270.598 234.969 271.502 234.487 272.285C233.824 273.431 232.619 274.154 231.293 274.154H201.109V271.321L213.821 268.368L220.991 262.703L233.824 263.305V263.305Z" fill="#FFBC99"/>
<path d="M224.606 274.757C224.606 274.757 222.136 266.68 216.051 265.415L208.821 268.067L203.459 268.85C201.772 268.971 200.266 269.875 199.241 271.201L197.494 273.491C197.554 273.431 199.482 275.54 224.606 274.757V274.757Z" fill="#FF6D6D"/>
<path d="M202.254 265.294C202.254 266.62 203.097 267.826 204.362 268.248C206.893 269.152 211.05 266.56 208.7 263.908C206.893 261.919 202.374 261.979 202.254 265.294Z" fill="#C2D9F0"/>
<path d="M86.8781 262.884L87.7216 271.984L102.061 275.118C103.687 275.48 105.013 276.625 105.615 278.192L106.218 279.759L70.5508 279.277C69.1048 279.217 67.9601 278.011 68.0203 276.504V276.384L68.8036 262.823" fill="#FFE699"/>
<path d="M71.2136 108.172L64.2248 131.496C63.1403 135.172 64.7068 139.03 67.9602 140.536L86.7577 146.081L89.7701 133.425L80.8533 129.326L87.2397 113.053L71.2136 108.172V108.172Z" fill="#FFE699"/>
<path d="M120.135 263.245L120.979 272.225L135.318 275.359C136.945 275.721 138.27 276.866 138.872 278.433L139.475 280L103.748 279.458C102.302 279.397 101.157 278.192 101.217 276.685V276.565L102 263.607" fill="#FFE699"/>
<path d="M68.4421 111.607L74.5875 94.6712C76.0937 90.5729 79.9496 87.8608 84.3477 87.8005L112.604 87.7402C117.364 87.7402 121.521 90.9345 122.726 95.5753L125.136 111.547L108.507 114.078L112.363 134.509L79.2266 131.797L79.8893 115.283L68.4421 111.607V111.607Z" fill="#FF6D6D"/>
<path d="M92.1198 87.8609L94.831 77.6151L90.6738 72.0703L109.05 60.4985L114.532 76.8316C114.894 77.9164 114.291 79.0615 113.267 79.4232C113.026 79.4834 112.845 79.5437 112.604 79.5437L107.845 79.4834L109.17 87.8609" fill="#FFE699"/>
<path d="M90.3123 73.336L86.2756 68.3939C85.3719 67.1282 85.2514 65.5612 85.9744 64.175L89.2278 57.7262C90.5533 55.0743 93.3849 53.5073 96.3371 53.869L104.832 54.773C106.278 54.8935 107.543 55.8578 108.146 57.1838L109.23 59.7754" fill="#5F259F"/>
<path d="M101.097 72.0703L96.3973 74.6619L97.4216 70.6841L101.097 72.0703Z" fill="#FFBC99"/>
<path d="M110.435 66.8872L113.628 68.3939C114.05 68.5748 114.231 69.1172 114.05 69.5391C113.99 69.5993 113.99 69.6596 113.93 69.7199L112.303 71.6485" fill="#FFE699"/>
<path d="M108.628 60.0767L119.955 57.9673" stroke="#5F259F" stroke-miterlimit="10"/>
<path d="M107.905 60.2574C105.374 62.0052 102.964 63.8133 100.434 65.5611C101.097 66.4048 102.121 66.887 103.205 66.8267C104.35 66.7062 105.314 65.983 105.856 65.0186C108.929 66.7665 112.966 67.1281 115.255 64.0543C116.34 62.6079 116.701 60.7395 116.279 58.9917L107.905 60.2574V60.2574Z" fill="#342C53"/>
<path d="M90.6738 72.0701L89.5291 76.289C91.457 77.6149 93.9272 77.5547 95.7949 76.1082C97.5421 74.722 97.8433 69.8402 96.9396 67.791" fill="#342C53"/>
<path d="M102.543 68.213C102.061 66.5255 100.434 65.3803 98.6868 65.5009C96.9998 65.6817 95.6141 67.55 96.0359 69.1773C96.3371 70.2019 97.1203 70.9854 98.0843 71.4073C99.0483 71.8292 100.073 72.01 101.157 72.0703" fill="#FFE699"/>
<path d="M108.146 71.0457C109.411 72.1908 111.098 72.6729 112.725 72.3113" stroke="#5F259F" stroke-linecap="round" stroke-linejoin="round"/>
<path d="M107.784 79.4835L103.567 78.7603L108.327 82.4367" fill="#FFBC99"/>
<path d="M105.435 114.138L103.386 100.578" stroke="#E44E85" stroke-miterlimit="10"/>
<path d="M79.2868 131.918L73.5632 158.075L70.4906 206.833L64.2247 263.004L89.8303 262.884L98.0241 176.035L103.145 190.922L98.506 264.149L121.34 263.305L128.389 202.674C129.654 192.911 128.69 183.026 125.678 173.685L112.785 134.088L79.2868 131.918V131.918Z" fill="#E0F3FF"/>
<path d="M112.303 138.969L78.0819 136.8L79.2869 131.918L112.604 134.027L112.303 138.969Z" fill="#5F259F"/>
<path d="M103.145 190.922L90.6737 154.278L84.8899 153.916" stroke="#5F259F" stroke-miterlimit="10"/>
<path opacity="0.46" d="M103.687 149.818L117.605 188.21L110.977 263.366" stroke="#77C8FF" stroke-miterlimit="10"/>
<path d="M297.928 167.055C302.154 167.055 305.58 163.628 305.58 159.401C305.58 155.174 302.154 151.747 297.928 151.747C293.702 151.747 290.277 155.174 290.277 159.401C290.277 163.628 293.702 167.055 297.928 167.055Z" fill="#FFE699"/>
<path d="M152.549 154.76H126.763V164.042H152.549V154.76Z" stroke="#FFE699" stroke-miterlimit="10"/>
<path d="M354.08 49.0472H121.159L143.21 13.428L374.022 14.5128L354.08 49.0472Z" fill="#C896FA"/>
<path d="M124.232 45.6119C128.088 47.2392 129.474 50.8553 135.498 50.8553C143.271 50.8553 143.271 44.8284 151.043 44.8284C158.815 44.8284 158.815 50.8553 166.587 50.8553C174.359 50.8553 174.359 44.8284 182.131 44.8284C189.903 44.8284 189.903 50.8553 197.675 50.8553C205.447 50.8553 205.447 44.8284 213.219 44.8284C220.991 44.8284 220.991 50.8553 228.763 50.8553C236.535 50.8553 236.535 44.8284 244.307 44.8284C252.079 44.8284 252.079 50.8553 259.851 50.8553C267.623 50.8553 267.623 44.8284 275.395 44.8284C283.167 44.8284 283.167 50.8553 290.939 50.8553C298.711 50.8553 298.711 44.8284 306.483 44.8284C314.255 44.8284 314.255 50.8553 322.027 50.8553C329.799 50.8553 329.799 44.8284 337.571 44.8284C345.343 44.8284 345.343 50.8553 353.116 50.8553" stroke="#FFE699" stroke-miterlimit="10"/>
<path d="M134.294 28.6763C138.149 30.3036 139.535 33.9198 145.5 33.9198C153.272 33.9198 153.272 27.8928 161.044 27.8928C168.816 27.8928 168.816 33.9198 176.588 33.9198C184.36 33.9198 184.36 27.8928 192.132 27.8928C199.904 27.8928 199.904 33.9198 207.676 33.9198C215.448 33.9198 215.448 27.8928 223.22 27.8928C230.992 27.8928 230.992 33.9198 238.764 33.9198C246.536 33.9198 246.536 27.8928 254.308 27.8928C262.08 27.8928 262.08 33.9198 269.852 33.9198C277.624 33.9198 277.624 27.8928 285.396 27.8928C293.168 27.8928 293.168 33.9198 300.941 33.9198C308.713 33.9198 308.713 27.8928 316.485 27.8928C324.257 27.8928 324.257 33.9198 332.029 33.9198C339.801 33.9198 339.801 27.8928 347.573 27.8928C355.345 27.8928 355.345 33.9198 363.117 33.9198" stroke="#FFE699" stroke-miterlimit="10"/>
<path d="M144.295 11.7405C148.151 13.3678 149.536 16.984 155.561 16.984C163.333 16.984 163.333 10.957 171.105 10.957C178.877 10.957 178.877 16.984 186.649 16.984C194.421 16.984 194.421 10.957 202.193 10.957C209.966 10.957 209.965 16.984 217.738 16.984C225.51 16.984 225.51 10.957 233.221 10.957C240.933 10.957 240.993 16.984 248.765 16.984C256.537 16.984 256.537 10.957 264.31 10.957C272.082 10.957 272.082 16.984 279.854 16.984C287.626 16.984 287.626 10.957 295.398 10.957C303.17 10.957 303.17 16.984 310.942 16.984C318.714 16.984 318.714 10.957 326.486 10.957C334.258 10.957 334.258 16.984 342.03 16.984C349.802 16.984 349.802 10.957 357.574 10.957C365.346 10.957 365.346 16.984 373.118 16.984" stroke="#FFE699" stroke-miterlimit="10"/>
<path d="M216.894 59.8958C216.774 60.8601 217.195 61.8244 217.979 62.4271C220.509 64.6571 227.438 66.646 226.112 61.0409C225.208 57.4248 217.798 55.4961 216.894 59.8958Z" fill="#342C53"/>
<path opacity="0.46" d="M152.127 126.554C153.212 128.844 155.441 130.411 157.971 130.652" stroke="#5F259F" stroke-width="0.75" stroke-miterlimit="10"/>
<path opacity="0.46" d="M143.632 128.603L153.754 129.507" stroke="#5F259F" stroke-width="0.75" stroke-miterlimit="10"/>
<path opacity="0.46" d="M143.331 131.134L154.176 132.219" stroke="#5F259F" stroke-width="0.75" stroke-miterlimit="10"/>
<path d="M180.866 97.6245H122.967V134.931H180.866V97.6245Z" fill="#FFBC99" stroke="#FFA06D" stroke-miterlimit="10"/>
<path d="M146.765 98.2876H133.812V112.933H146.765V98.2876Z" fill="white"/>
<path d="M180.926 97.6245H160.2V134.931H180.926V97.6245Z" fill="#FFBC99" stroke="#FFA06D" stroke-miterlimit="10"/>
<g clip-path="url(#clip2_165_1812)">
<path d="M124.714 133.184L178.034 79.9053" stroke="#FFA06D" stroke-miterlimit="10"/>
<path d="M126.642 135.172L179.962 81.834" stroke="#FFA06D" stroke-miterlimit="10"/>
<path d="M128.63 137.101L181.89 83.8228" stroke="#FFA06D" stroke-miterlimit="10"/>
<path d="M130.558 139.09L183.878 85.7515" stroke="#FFA06D" stroke-miterlimit="10"/>
<path d="M132.486 141.018L185.806 87.6799" stroke="#FFA06D" stroke-miterlimit="10"/>
<path d="M134.474 142.947L187.734 89.6689" stroke="#FFA06D" stroke-miterlimit="10"/>
<path d="M136.402 144.936L189.722 91.5977" stroke="#FFA06D" stroke-miterlimit="10"/>
<path d="M138.391 146.865L191.65 93.5261" stroke="#FFA06D" stroke-miterlimit="10"/>
<path d="M140.318 148.793L193.638 95.5151" stroke="#FFA06D" stroke-miterlimit="10"/>
<path d="M142.246 150.782L195.566 97.4436" stroke="#FFA06D" stroke-miterlimit="10"/>
<path d="M144.235 152.711L197.494 99.4326" stroke="#FFA06D" stroke-miterlimit="10"/>
<path d="M146.162 154.7L199.482 101.361" stroke="#FFA06D" stroke-miterlimit="10"/>
<path d="M148.151 156.628L201.41 103.29" stroke="#FFA06D" stroke-miterlimit="10"/>
<path d="M150.079 158.557L203.398 105.279" stroke="#FFA06D" stroke-miterlimit="10"/>
<path d="M152.007 160.546L205.326 107.207" stroke="#FFA06D" stroke-miterlimit="10"/>
<path d="M153.995 162.475L207.254 109.196" stroke="#FFA06D" stroke-miterlimit="10"/>
<path d="M155.923 164.463L209.243 111.125" stroke="#FFA06D" stroke-miterlimit="10"/>
<path d="M157.851 166.392L211.17 113.053" stroke="#FFA06D" stroke-miterlimit="10"/>
<path d="M159.839 168.321L213.159 115.042" stroke="#FFA06D" stroke-miterlimit="10"/>
<path d="M161.767 170.309L215.087 116.971" stroke="#FFA06D" stroke-miterlimit="10"/>
<path d="M163.755 172.238L217.015 118.96" stroke="#FFA06D" stroke-miterlimit="10"/>
<path d="M165.683 174.167L219.003 120.888" stroke="#FFA06D" stroke-miterlimit="10"/>
</g>
<path d="M107.543 113.596L111.761 144.394C112.182 147.528 114.713 149.938 117.846 150.36C119.954 150.601 159.839 139.572 159.839 139.572L172.551 137.583C172.732 135.956 171.587 134.509 170.021 134.329L154.537 134.208L152.79 127.578C152.368 125.891 150.922 124.625 149.175 124.384L149.416 134.69L124.774 134.992L122.846 110.341" fill="#FFE699"/>
<path d="M103.748 67.2488C104.772 65.8626 106.7 65.5613 108.086 66.5256C108.628 66.8872 108.989 67.4899 109.23 68.0926C107.242 68.9364 105.254 68.3939 103.748 67.2488V67.2488Z" fill="white"/>
<path d="M107.686 69.4709C108.617 69.4605 109.363 68.5617 109.35 67.4633C109.338 66.365 108.573 65.483 107.641 65.4934C106.71 65.5038 105.964 66.4026 105.977 67.501C105.989 68.5993 106.754 69.4813 107.686 69.4709Z" fill="#342C53"/>
</g>
<defs>
<clipPath id="clip0_165_1812">
<rect width="393" height="280" fill="white"/>
</clipPath>
<clipPath id="clip1_165_1812">
<rect width="99.4098" height="40.3806" fill="white" transform="translate(194 60.2695)"/>
</clipPath>
<clipPath id="clip2_165_1812">
<rect width="20.4844" height="36.7644" fill="white" transform="translate(160.261 97.6365)"/>
</clipPath>
</defs>
</svg>
