<svg width="254" height="280" viewBox="0 0 254 280" fill="none" xmlns="http://www.w3.org/2000/svg">
<g clip-path="url(#clip0_165_2428)">
<path d="M19.3186 249.373L33.1984 171.533H94.7226L107.979 249.373H19.3186Z" fill="#E0F3FF"/>
<path d="M49.5706 170.853C49.5706 163.092 55.8589 156.803 63.6203 156.803C71.3816 156.803 77.67 163.092 77.67 170.853" fill="white"/>
<path d="M49.5706 170.853C49.5706 163.092 55.8589 156.803 63.6203 156.803C71.3816 156.803 77.67 163.092 77.67 170.853" stroke="#B9C6E4" stroke-width="0.566522" stroke-miterlimit="10"/>
<path d="M66.7361 267.671L75.3472 219.291H113.587L121.859 267.671H66.7361Z" fill="white" stroke="#FF6D6D" stroke-width="0.566522" stroke-miterlimit="10"/>
<path d="M85.5447 218.837C85.5447 214.022 89.4537 210.113 94.2691 210.113C99.0845 210.113 102.994 214.022 102.994 218.837" stroke="#FF6D6D" stroke-width="0.566522" stroke-miterlimit="10"/>
<path d="M73.5347 211.699C74.5544 211.416 75.5742 211.019 76.4806 210.453C75.5742 209.886 74.5544 209.433 73.5347 209.207C72.4583 208.923 71.6652 208.074 71.3819 207.054C71.0987 205.977 70.7021 205.014 70.1356 204.108C69.5691 205.014 69.1158 206.034 68.8892 207.054C68.606 208.13 67.7562 208.923 66.7364 209.207C65.6601 209.49 64.697 209.886 63.7905 210.453C64.697 211.019 65.7167 211.473 66.7364 211.699C67.8128 211.983 68.606 212.832 68.8892 213.909C69.1725 214.928 69.5691 215.948 70.1356 216.855C70.7021 215.948 71.1553 214.928 71.3819 213.909C71.6085 212.832 72.4583 211.983 73.5347 211.699Z" fill="white"/>
<path d="M54.4996 225.862C55.2818 225.862 55.9159 225.228 55.9159 224.446C55.9159 223.664 55.2818 223.03 54.4996 223.03C53.7174 223.03 53.0833 223.664 53.0833 224.446C53.0833 225.228 53.7174 225.862 54.4996 225.862Z" fill="white"/>
<path d="M52.1767 212.322H2.32275V255.605H52.1767V212.322Z" fill="#FFA06D"/>
<path opacity="0.37" d="M2.32275 221.16L52.1767 224.049V219.291H2.32275V221.16Z" fill="#FFE699"/>
<path d="M34.6145 219.291C34.6145 223.256 31.442 226.429 27.4763 226.429C23.5107 226.429 20.3381 223.256 20.3381 219.291" fill="white"/>
<path d="M53.8197 210.339H0.283447V219.29H53.8197V210.339Z" fill="white" stroke="#FFA06D" stroke-width="0.566522" stroke-miterlimit="10"/>
<path d="M42.3759 239.912H12.5769V244.954H42.3759V239.912Z" fill="white"/>
<path d="M96.3655 83.3821H106.563" stroke="#B9C6E4" stroke-width="0.566522" stroke-miterlimit="10"/>
<path d="M57.0488 21.0644C58.1818 20.7812 59.2582 20.3279 60.2213 19.7048C59.2582 19.0816 58.1818 18.6284 57.0488 18.3451C55.9157 18.0619 55.0093 17.1554 54.726 16.0224C54.4428 14.8893 53.9896 13.8129 53.3664 12.8499C52.7432 13.8129 52.29 14.8893 52.0067 16.0224C51.7235 17.1554 50.817 18.0619 49.684 18.3451C48.551 18.6284 47.4746 19.0816 46.5115 19.7048C47.4746 20.3279 48.551 20.7812 49.684 21.0644C50.817 21.3477 51.7235 22.2541 52.0067 23.3872C52.29 24.5202 52.7432 25.5966 53.3664 26.5597C53.9896 25.5966 54.4428 24.5202 54.726 23.3872C55.0093 22.2541 55.9157 21.4043 57.0488 21.0644Z" fill="#FFE699"/>
<path d="M223.606 161.166C225.609 161.166 227.232 159.542 227.232 157.54C227.232 155.537 225.609 153.914 223.606 153.914C221.604 153.914 219.98 155.537 219.98 157.54C219.98 159.542 221.604 161.166 223.606 161.166Z" stroke="#342C53" stroke-width="1.13304" stroke-miterlimit="10"/>
<path d="M71.7215 56.302L65.2065 61.4573" stroke="#342C53" stroke-width="0.424891" stroke-miterlimit="10"/>
<path d="M122.482 12.5667C122.482 12.5667 121.859 30.8653 123.445 33.8679C124.748 36.5305 127.751 37.8902 130.583 37.1537L130.98 47.0112C130.98 47.0112 139.987 59.4746 150.695 45.7648L149.335 29.3923C149.335 29.3923 151.714 30.9786 154.377 26.3331C157.04 21.6876 154.434 15.2293 149.732 19.5349L148.769 20.4413L148.485 13.8696L122.482 12.5667V12.5667Z" fill="#E0F3FF"/>
<path d="M120.726 13.02C120.726 13.02 120.046 8.99773 122.312 5.99517C124.578 2.9926 135.909 -0.97305 142.084 1.29304C148.259 3.55912 148.655 11.1505 148.769 14.1531L120.726 13.02V13.02Z" fill="#B9C6E4" stroke="#2D7CB3" stroke-width="0.566522" stroke-miterlimit="10"/>
<path d="M138.628 254.302H120.896V273.393H138.628V254.302Z" fill="#E0F3FF"/>
<path d="M188.595 254.302H170.863V273.393H188.595V254.302Z" fill="#E0F3FF"/>
<path opacity="0.46" d="M107.129 53.9793C107.129 53.9793 111.945 47.2377 117.61 44.6317L130.753 41.0059L130.923 45.5948C130.923 45.5948 141.234 53.4128 150.298 44.6883V40.5527C150.298 40.5527 169.616 46.4446 176.471 52.563C181.117 56.6986 188.538 78.0565 188.538 78.0565L169.05 82.6453L121.122 82.8719V123.661H115.967L114.947 82.9286" fill="#FF6D6D"/>
<path d="M88.4338 101.624L98.7445 117.487C100.784 120.602 104.183 122.472 107.922 122.472C110.925 122.472 113.757 121.282 115.797 119.13L117.326 81.6258L114.947 82.9288L110.415 63.3271L88.4338 101.624V101.624Z" fill="#E0F3FF"/>
<path d="M63.1673 51.9967L74.6677 100.151C75.4608 103.55 78.9166 105.703 82.3157 104.853C82.4857 104.797 82.6557 104.74 82.8256 104.683L112.115 95.0524C115.287 94.0326 117.1 90.6901 116.307 87.461L104.41 39.8732C103.56 36.474 100.105 34.3779 96.7054 35.2277C96.5921 35.2843 96.4788 35.2843 96.3655 35.341L67.4729 44.4053C64.3004 45.4251 62.4308 48.7109 63.1673 51.9967V51.9967Z" fill="white" stroke="#FFE699" stroke-width="0.566522" stroke-miterlimit="10"/>
<path d="M101.294 64.7434L79.5396 73.4679L75.8005 59.0782L97.2717 50.2405L101.294 64.7434Z" stroke="#FF6D6D" stroke-width="0.566522" stroke-miterlimit="10"/>
<path d="M101.351 71.2017L82.5989 78.6231L82.259 77.2635L100.954 69.842L101.351 71.2017Z" fill="#B9C6E4"/>
<path d="M99.7081 76.3003L86.2816 81.569L85.9417 80.1527L99.3682 74.884L99.7081 76.3003Z" fill="#B9C6E4"/>
<path d="M76.197 68.1426L73.1944 73.4679L71.2116 86.1013L67.9824 72.7881L76.197 68.1426Z" fill="#2D7CB3"/>
<path d="M71.2118 86.1012C70.6453 85.5347 67.3028 81.7956 64.8101 79.0197C62.9973 77.0368 61.8642 74.4875 61.6376 71.8248L60.9578 64.46C60.7312 61.9107 61.9775 59.4747 64.187 58.2283L71.0985 54.3193C72.0616 53.8094 73.2513 54.0927 73.7612 55.0558C73.8178 55.1124 73.8178 55.2257 73.8745 55.2824L73.9878 55.5657C74.271 56.2455 74.1577 56.982 73.7045 57.4918L71.7217 59.9845L75.3474 58.0584C76.3672 57.6618 77.4436 58.115 77.8968 59.1347L78.0101 59.3614C78.35 60.0978 78.1234 61.0043 77.5002 61.5708L72.005 66.2729L73.5912 65.4798C74.5543 65.0266 75.744 65.4231 76.1972 66.3862C76.5938 67.236 76.3105 68.2557 75.574 68.7656C73.9311 69.9553 71.3818 71.9381 71.2685 72.1647C71.1552 72.5613 69.7955 80.266 69.7955 80.266L71.2118 86.1012V86.1012Z" fill="#E0F3FF"/>
<path d="M108.206 96.3552L111.945 104.003" stroke="#342C53" stroke-width="0.424891" stroke-miterlimit="10"/>
<path d="M121.519 127.174L117.327 259.174H139.705L146.446 167.397L169.617 259.174H190.975L167.861 127.231L121.519 127.174Z" fill="#342C53"/>
<path d="M139.818 269.314C139.818 269.314 125.938 272.487 123.728 266.198C121.519 259.91 121.349 260.25 118.913 259.967L118.233 263.536L106.789 269.314L91.55 275.546V278.662H139.761V269.314H139.818Z" fill="#2D7CB3"/>
<path d="M181.967 82.8718H121.179V127.174H181.967V82.8718Z" fill="#FFA06D" stroke="#FFE699" stroke-width="0.566522" stroke-miterlimit="10"/>
<path d="M145.143 83.2119H132.396V97.6582H145.143V83.2119Z" fill="white"/>
<g clip-path="url(#clip1_165_2428)">
<path d="M122.255 120.376L196.583 46.0483" stroke="#FFE699" stroke-width="0.566522" stroke-miterlimit="10"/>
<path d="M124.975 123.095L199.359 48.7676" stroke="#FFE699" stroke-width="0.566522" stroke-miterlimit="10"/>
<path d="M127.694 125.814L202.078 51.4868" stroke="#FFE699" stroke-width="0.566522" stroke-miterlimit="10"/>
<path d="M130.413 128.534L204.797 54.2061" stroke="#FFE699" stroke-width="0.566522" stroke-miterlimit="10"/>
<path d="M133.132 131.253L207.517 56.9255" stroke="#FFE699" stroke-width="0.566522" stroke-miterlimit="10"/>
<path d="M135.852 133.972L210.236 59.6448" stroke="#FFE699" stroke-width="0.566522" stroke-miterlimit="10"/>
<path d="M138.571 136.692L212.955 62.364" stroke="#FFE699" stroke-width="0.566522" stroke-miterlimit="10"/>
<path d="M141.291 139.468L215.675 65.0835" stroke="#FFE699" stroke-width="0.566522" stroke-miterlimit="10"/>
<path d="M144.01 142.187L218.394 67.8027" stroke="#FFE699" stroke-width="0.566522" stroke-miterlimit="10"/>
<path d="M146.729 144.85L221.114 70.522" stroke="#FFE699" stroke-width="0.566522" stroke-miterlimit="10"/>
<path d="M149.505 147.626L223.833 73.2412" stroke="#FFE699" stroke-width="0.566522" stroke-miterlimit="10"/>
<path d="M152.224 150.345L226.552 75.9607" stroke="#FFE699" stroke-width="0.566522" stroke-miterlimit="10"/>
<path d="M154.944 153.064L229.272 78.6799" stroke="#FFE699" stroke-width="0.566522" stroke-miterlimit="10"/>
<path d="M157.663 155.783L231.99 81.3992" stroke="#FFE699" stroke-width="0.566522" stroke-miterlimit="10"/>
<path d="M160.382 158.503L234.71 84.1184" stroke="#FFE699" stroke-width="0.566522" stroke-miterlimit="10"/>
<path d="M163.102 161.222L237.429 86.8945" stroke="#FFE699" stroke-width="0.566522" stroke-miterlimit="10"/>
<path d="M165.821 163.941L240.148 89.6138" stroke="#FFE699" stroke-width="0.566522" stroke-miterlimit="10"/>
<path d="M168.541 166.661L242.868 92.333" stroke="#FFE699" stroke-width="0.566522" stroke-miterlimit="10"/>
<path d="M171.259 169.38L245.587 95.0525" stroke="#FFE699" stroke-width="0.566522" stroke-miterlimit="10"/>
<path d="M173.979 172.099L248.363 97.7717" stroke="#FFE699" stroke-width="0.566522" stroke-miterlimit="10"/>
</g>
<path d="M181.91 82.8718H157.606V127.174H181.91V82.8718Z" stroke="#FFE699" stroke-width="0.566522" stroke-miterlimit="10"/>
<path d="M186.102 78.623L192.844 119.979C193.524 124.851 191.144 129.61 186.839 132.046C181.91 134.822 176.188 138.051 176.075 138.221C175.905 138.561 168.313 134.199 165.934 127.174H174.035L178.001 121.679L169.107 82.6454L186.102 78.623V78.623Z" fill="#E0F3FF"/>
<path d="M122.199 17.1556H111.945C111.945 17.1556 111.831 13.0767 120.952 13.0767L122.425 13.1333L122.199 17.1556Z" fill="#342C53"/>
<path d="M191.937 270.561C190.804 268.125 188.822 261.496 188.822 261.496H170.636C170.636 261.496 168.653 268.181 167.52 270.561C166.387 272.94 166.671 276.906 166.671 276.906C172.676 280.588 189.728 279.568 192.844 276.906C192.844 276.906 193.071 272.997 191.937 270.561V270.561Z" fill="#2D7CB3"/>
<path d="M162.932 82.0789L160.269 57.6619" stroke="#FF6D6D" stroke-width="0.566522" stroke-miterlimit="10"/>
<path d="M148.825 20.4413L148.542 14.0963C148.542 13.9263 140.158 13.6997 139.251 13.6431C139.308 15.3993 140.044 17.0988 141.234 18.4018C142.197 19.2516 143.387 19.9315 144.577 20.3847L146.786 21.3478C147.976 21.8576 148.146 21.631 148.825 20.4413Z" fill="#2D7CB3"/>
<path d="M149.108 25.4835L153.244 22.4243" stroke="#342C53" stroke-width="0.566522" stroke-linecap="round" stroke-linejoin="round"/>
<path d="M126.391 29.619C128.77 30.0155 131.206 29.3924 133.132 27.9194C133.359 27.7495 133.019 27.4662 132.849 27.6361C131.036 29.0525 128.77 29.619 126.561 29.2224C126.221 29.1658 126.108 29.5623 126.391 29.619Z" fill="#342C53"/>
<g clip-path="url(#clip2_165_2428)">
<path d="M115.23 21.2912C116.76 19.0251 119.819 18.4586 122.029 19.9316C122.879 20.4981 123.502 21.2912 123.898 22.2543C120.782 23.7839 117.383 23.8972 115.23 21.2912Z" fill="white"/>
</g>
<path d="M130.583 37.494L136.702 34.7747L130.753 41.3463L130.583 37.494Z" fill="#342C53"/>
<path d="M129.507 13.3033L122.482 13.1333C122.482 13.19 122.482 13.2466 122.425 13.2466C121.462 13.6998 120.556 14.3796 119.876 15.2294C119.196 16.2492 119.026 17.5522 119.423 18.6852C119.989 19.8749 121.009 20.668 122.312 20.9513C122.369 20.9513 122.312 19.1384 122.312 18.9685C122.425 18.1753 122.595 17.3822 123.389 17.1556C124.182 16.929 125.031 17.2123 125.825 17.2689C128.204 17.3256 128.94 15.2294 129.62 13.4166C129.62 13.4166 129.564 13.3033 129.507 13.3033V13.3033Z" fill="#2D7CB3"/>
<path d="M136.532 21.4611C135.002 19.4216 132.169 18.9684 130.13 20.498C129.337 21.0646 128.77 21.8577 128.487 22.7641C131.376 24.0105 134.266 23.1607 136.532 21.4611V21.4611Z" fill="white"/>
<path d="M126.391 23.1041C126.051 23.6706 125.881 24.3505 125.994 25.0303C126.108 25.5968 126.504 25.9934 127.014 26.1633C127.297 26.22 127.411 25.8234 127.127 25.7668C126.731 25.6535 126.448 25.3136 126.391 24.917C126.391 24.3505 126.504 23.8406 126.788 23.3307C126.844 23.2174 126.788 23.1041 126.731 23.0475C126.561 22.9908 126.448 22.9908 126.391 23.1041Z" fill="#342C53"/>
<path d="M136.702 17.7788C134.945 16.8158 132.793 16.8724 131.036 17.8355C132.906 17.7788 134.832 17.7788 136.702 17.7788Z" fill="#342C53"/>
<path d="M136.815 17.5521C134.946 16.589 132.736 16.589 130.923 17.6087C130.81 17.6654 130.81 17.7787 130.867 17.892C130.923 17.9486 130.98 18.0053 131.037 18.0053C132.906 18.0053 134.832 18.0053 136.702 17.9486C136.815 17.9486 136.872 17.8353 136.872 17.722C136.872 17.6087 136.758 17.5521 136.702 17.5521C134.832 17.5521 132.906 17.6087 131.037 17.6087L131.15 18.0053C132.849 17.0988 134.889 17.0422 136.588 17.9486C136.872 18.0619 137.042 17.722 136.815 17.5521Z" fill="#342C53"/>
<path d="M133.246 23.1041C133.246 22.4809 133.076 21.8578 132.679 21.3479C132.169 20.7247 131.433 20.3281 130.583 20.2148C129.563 20.7814 128.827 21.6878 128.43 22.7642C129.96 23.3874 131.66 23.5573 133.246 23.1041Z" fill="#342C53"/>
<path d="M74.0446 64.8567L65.8867 71.3717" stroke="#342C53" stroke-width="0.424891" stroke-miterlimit="10"/>
<path d="M146.446 167.397L138.741 142.074" stroke="white" stroke-width="0.566522" stroke-miterlimit="10"/>
<path d="M159.59 132.046L168.824 142.357" stroke="white" stroke-width="0.566522" stroke-miterlimit="10"/>
<path d="M148.656 10.6973H141.801V13.6998H148.656V10.6973Z" stroke="white" stroke-width="0.566522" stroke-miterlimit="10"/>
<path d="M72.4013 59.4182L64.2434 65.9332" stroke="#342C53" stroke-width="0.424891" stroke-miterlimit="10"/>
<path d="M166.67 82.7024L172.392 123.605L165.877 127.174H173.978L177.944 121.679L169.05 82.6458L166.67 82.7024Z" fill="#FFE699"/>
<path d="M149.335 29.3924L146.446 28.9958L149.505 31.6018L149.335 29.3924Z" fill="#342C53"/>
<path d="M140.271 146.946H134.265" stroke="white" stroke-width="0.566522" stroke-miterlimit="10"/>
<path opacity="0.21" d="M137.325 29.5059C139.045 29.5059 140.44 28.1109 140.44 26.39C140.44 24.6692 139.045 23.2742 137.325 23.2742C135.604 23.2742 134.209 24.6692 134.209 26.39C134.209 28.1109 135.604 29.5059 137.325 29.5059Z" fill="#FF6D6D"/>
<path d="M117.326 81.5689L118.289 59.4179L116.533 56.302" stroke="#FF6D6D" stroke-width="0.566522" stroke-miterlimit="10"/>
<path opacity="0.43" d="M169.56 84.7981L187.179 85.1947L186.102 78.623L169.05 82.6454L169.56 84.7981Z" fill="#2D7CB3"/>
<path d="M71.4948 28.6561C72.6212 28.6561 73.5343 27.743 73.5343 26.6166C73.5343 25.4903 72.6212 24.5771 71.4948 24.5771C70.3684 24.5771 69.4553 25.4903 69.4553 26.6166C69.4553 27.743 70.3684 28.6561 71.4948 28.6561Z" fill="#FFE699"/>
<path d="M120.442 13.02C122.085 13.0767 123.728 13.4732 125.258 14.0964C126.787 14.7196 128.034 15.8526 129.507 16.5891C130.526 17.1556 131.603 17.4955 132.736 17.6088C133.756 17.6088 134.719 17.3822 135.569 16.8724C136.475 16.4192 140.724 13.9831 140.95 13.8132L120.442 13.02V13.02Z" fill="#B9C6E4" stroke="#2D7CB3" stroke-width="0.566522" stroke-miterlimit="10"/>
<path opacity="0.32" d="M207.007 54.9426C208.933 54.4327 210.803 53.6396 212.502 52.6199C210.803 51.5435 208.933 50.7503 207.007 50.2405C205.024 49.7306 203.495 48.201 202.985 46.2182C202.475 44.292 201.738 42.4225 200.662 40.7229C199.586 42.4225 198.793 44.292 198.339 46.2182C197.829 48.201 196.3 49.7306 194.317 50.2405C192.391 50.7503 190.521 51.5435 188.822 52.5632C190.521 53.6396 192.391 54.4327 194.317 54.8859C196.3 55.3958 197.829 56.9254 198.339 58.9082C198.849 60.8344 199.642 62.7039 200.662 64.4035C201.738 62.7039 202.532 60.8344 203.041 58.9082C203.551 56.9821 205.024 55.4525 207.007 54.9426V54.9426Z" fill="#FFA06D"/>
<path opacity="0.32" d="M86.3377 134.256C88.2639 133.746 90.1334 132.953 91.833 131.933C90.1334 130.856 88.2639 130.063 86.3377 129.553C84.3549 129.044 82.8253 127.514 82.3154 125.531C81.8055 123.605 81.069 121.735 79.9926 120.036C78.9163 121.735 78.1231 123.605 77.6699 125.531C77.16 127.514 75.6304 129.044 73.6476 129.553C71.7214 130.063 69.8519 130.856 68.1523 131.876C69.8519 132.953 71.7214 133.746 73.6476 134.199C75.6304 134.709 77.16 136.238 77.6699 138.221C78.1798 140.147 78.9729 142.017 79.9926 143.716C81.069 142.017 81.8622 140.147 82.372 138.221C82.8819 136.295 84.3549 134.765 86.3377 134.256Z" fill="#FFA06D"/>
</g>
<defs>
<clipPath id="clip0_165_2428">
<rect width="254" height="278.961" fill="white" transform="translate(0 0.341309)"/>
</clipPath>
<clipPath id="clip1_165_2428">
<rect width="16.4291" height="44.7552" fill="white" transform="translate(157.493 82.4868)"/>
</clipPath>
<clipPath id="clip2_165_2428">
<rect width="2" height="4" fill="white" transform="translate(122 19)"/>
</clipPath>
</defs>
</svg>
