<svg width="319" height="293" viewBox="0 0 319 293" fill="none" xmlns="http://www.w3.org/2000/svg">
<g clip-path="url(#clip0_165_2123)">
<path d="M304.59 225.773H52.0152C48.2686 225.773 45.2137 222.718 45.2137 218.971V7.14715C45.2137 3.4006 48.2686 0.288086 52.0152 0.288086H253.81" stroke="#E0F3FF" stroke-width="0.576392" stroke-miterlimit="10"/>
<path d="M66.4827 20.5196C67.947 20.5196 69.1341 19.3325 69.1341 17.8682C69.1341 16.4039 67.947 15.2168 66.4827 15.2168C65.0184 15.2168 63.8313 16.4039 63.8313 17.8682C63.8313 19.3325 65.0184 20.5196 66.4827 20.5196Z" stroke="#E0F3FF" stroke-width="0.576392" stroke-miterlimit="10"/>
<path d="M82.8523 20.5196C84.3167 20.5196 85.5037 19.3325 85.5037 17.8682C85.5037 16.4039 84.3167 15.2168 82.8523 15.2168C81.388 15.2168 80.2009 16.4039 80.2009 17.8682C80.2009 19.3325 81.388 20.5196 82.8523 20.5196Z" stroke="#E0F3FF" stroke-width="0.576392" stroke-miterlimit="10"/>
<path d="M99.2218 20.5196C100.686 20.5196 101.873 19.3325 101.873 17.8682C101.873 16.4039 100.686 15.2168 99.2218 15.2168C97.7575 15.2168 96.5704 16.4039 96.5704 17.8682C96.5704 19.3325 97.7575 20.5196 99.2218 20.5196Z" stroke="#E0F3FF" stroke-width="0.576392" stroke-miterlimit="10"/>
<path d="M86.599 42.7683H124.18C132.134 42.7683 138.647 49.2239 138.647 57.2357V90.1477C138.647 98.1019 132.192 104.615 124.18 104.615H86.599C78.6448 104.615 72.1316 98.1596 72.1316 90.1477V57.2357C72.1316 49.2815 78.5872 42.7683 86.599 42.7683V42.7683Z" fill="white" stroke="#E0F3FF" stroke-width="0.576392" stroke-miterlimit="10"/>
<path d="M116.539 74.052C120.1 67.2563 117.477 58.8612 110.681 55.3009C103.885 51.7407 95.4903 54.3635 91.93 61.1592C88.3698 67.9549 90.9926 76.35 97.7883 79.9103C104.584 83.4705 112.979 80.8477 116.539 74.052Z" fill="#E0F3FF"/>
<path d="M81.8147 95.1624H101.7" stroke="#E0F3FF" stroke-width="0.576392" stroke-miterlimit="10"/>
<path d="M81.8147 88.3608H116.398" stroke="#E0F3FF" stroke-width="0.576392" stroke-miterlimit="10"/>
<path d="M119.799 50.4343H130.174" stroke="#E0F3FF" stroke-width="0.576392" stroke-miterlimit="10"/>
<path d="M177.092 42.7683H214.673C222.627 42.7683 229.083 49.2239 229.083 57.2357V90.1477C229.083 98.1019 222.627 104.615 214.673 104.615H177.092C169.138 104.615 162.683 98.1596 162.683 90.1477V57.2357C162.625 49.2815 169.138 42.7683 177.092 42.7683V42.7683Z" fill="white" stroke="#E0F3FF" stroke-width="0.576392" stroke-miterlimit="10"/>
<path d="M194.788 81.4441C202.427 81.4441 208.621 75.2507 208.621 67.6107C208.621 59.9708 202.427 53.7773 194.788 53.7773C187.148 53.7773 180.954 59.9708 180.954 67.6107C180.954 75.2507 187.148 81.4441 194.788 81.4441Z" fill="#E0F3FF"/>
<path d="M172.308 95.1624H192.252" stroke="#E0F3FF" stroke-width="0.576392" stroke-miterlimit="10"/>
<path d="M172.308 88.3608H206.892" stroke="#E0F3FF" stroke-width="0.576392" stroke-miterlimit="10"/>
<path d="M210.35 50.4343H220.725" stroke="#E0F3FF" stroke-width="0.576392" stroke-miterlimit="10"/>
<path d="M266.721 42.7683H304.302C312.256 42.7683 318.712 49.2239 318.712 57.2357V90.1477C318.712 98.1019 312.256 104.615 304.302 104.615H266.721C258.767 104.615 252.311 98.1596 252.311 90.1477V57.2357C252.311 49.2815 258.767 42.7683 266.721 42.7683V42.7683Z" fill="white" stroke="#E0F3FF" stroke-width="0.576392" stroke-miterlimit="10"/>
<path d="M284.416 81.4441C292.056 81.4441 298.25 75.2507 298.25 67.6107C298.25 59.9708 292.056 53.7773 284.416 53.7773C276.776 53.7773 270.583 59.9708 270.583 67.6107C270.583 75.2507 276.776 81.4441 284.416 81.4441Z" fill="#E0F3FF"/>
<path d="M261.995 95.1624H281.88" stroke="#E0F3FF" stroke-width="0.576392" stroke-miterlimit="10"/>
<path d="M261.995 88.3608H296.578" stroke="#E0F3FF" stroke-width="0.576392" stroke-miterlimit="10"/>
<g opacity="0.46">
<path d="M11.7255 68.4177L12.2443 57.4663L3.02203 63.3455L0.312988 58.6767L9.99637 53.7197L0.312988 48.7051L3.02203 44.0363L12.1867 49.9732L11.6679 39.0217H17.0284L16.5096 49.9732L25.6742 44.0363L28.3833 48.7051L18.7575 53.7197L28.4985 58.6767L25.7319 63.3455L16.5672 57.5239L17.086 68.4754L11.7255 68.4177V68.4177Z" fill="#C896FA"/>
</g>
<path d="M290.699 180.929L291.218 169.978L281.996 175.857L279.287 171.131L288.97 166.174L279.287 161.159L281.996 156.49L291.16 162.427L290.642 151.476H296.002L295.483 162.427L304.648 156.49L307.357 161.159L297.731 166.174L307.472 171.131L304.705 175.8L295.541 169.978L296.06 180.929H290.699Z" fill="#C896FA"/>
<path d="M179.859 154.761L187.179 161.793L199.284 141.908L201.359 159.661L210.811 149.92L211.849 163.061L225.913 160.64" stroke="#FFE699" stroke-width="1.15278" stroke-miterlimit="10"/>
<path d="M71.4974 95.22C75.0711 97.1221 78.2989 99.4853 81.1808 102.367C82.6218 103.808 84.0628 105.653 83.8322 107.67C83.6017 109.687 81.7572 111.128 79.6822 110.898C78.9905 110.84 78.2989 110.494 77.7801 110.091" fill="#342C53"/>
<path d="M60.2 109.514C61.1223 108.131 61.2952 106.459 60.7764 104.903C60.4882 103.923 59.7966 103.059 58.8743 102.598C57.7792 102.136 56.5688 102.194 55.5313 102.713C52.7646 103.981 51.5541 107.266 52.8222 110.033C54.0903 112.8 57.3757 114.01 60.1424 112.742" fill="#E0F3FF"/>
<path d="M106.196 173.724C106.196 165.424 112.94 158.738 121.182 158.738C129.425 158.738 136.168 165.482 136.168 173.724" stroke="#FFE699" stroke-width="1.15278" stroke-miterlimit="10"/>
<path d="M178.245 174.07H102.623V241.335H178.245V174.07Z" fill="#FFA06D" stroke="#FFE699" stroke-width="0.576392" stroke-miterlimit="10"/>
<path d="M133.69 179.604H116.802V194.013H133.69V179.604Z" fill="white"/>
<path d="M79.7974 104.558V113.03L81.3536 114.471C81.5842 114.644 81.5842 114.99 81.4113 115.221C81.3536 115.278 81.296 115.336 81.2384 115.336L78.4717 116.546C78.4717 116.546 77.146 125.653 73.8029 125.308C71.7855 125.077 69.8834 124.155 68.4425 122.714L64.4654 134.588L67.8661 137.585C69.0765 138.622 69.9411 139.948 70.4022 141.447L71.555 145.135L64.1772 149.401L45.675 142.369L41.0638 134.184L50.1132 123.636L57.8368 111.762L62.2174 99.0818L76.2814 100.062L79.7974 104.558V104.558Z" fill="#E0F3FF"/>
<path d="M79.7396 231.075C79.7396 231.075 102.219 235.225 103.948 239.203C105.677 243.18 104.697 247.733 91.8438 250.73C78.9903 253.728 64.0618 248.655 59.9117 246.926C59.9117 246.984 68.7882 229.923 79.7396 231.075Z" fill="#342C53"/>
<path d="M52.707 118.103C53.9751 118.103 54.6091 117.065 55.3584 115.912L57.8369 111.762C57.8369 111.762 53.1681 111.186 53.514 108.304C53.8598 105.422 57.4334 102.252 59.3932 105.019C60.2001 106.171 59.7966 109.918 61.0647 109.226C62.3328 108.535 62.1598 106.921 63.7737 106.863C65.3876 106.805 67.9238 109.745 70.0564 108.823C72.189 107.9 75.7627 102.828 78.4141 103.462C79.7974 103.808 79.8551 106.056 79.8551 106.056C79.8551 106.056 81.3537 104.615 79.5669 102.194C77.78 99.7734 72.1314 91.531 60.0848 93.6636C57.6063 94.1247 55.589 95.7386 53.9751 97.5831C53.0528 98.7359 52.3612 100.062 52.073 101.503C51.6695 103.289 50.8049 104.961 49.4792 106.229C48.0382 107.785 46.3667 109.457 46.3667 111.589C46.3667 113.549 47.8653 115.221 49.4216 116.489C50.1132 117.18 50.9778 117.642 51.9001 117.93C52.1306 118.103 52.4188 118.103 52.707 118.103V118.103Z" fill="#342C53"/>
<path d="M102.623 149.343C102.623 149.343 113.862 136.835 120.203 152.167C120.664 153.32 121.24 157.355 121.643 160.583C121.932 162.427 122.335 164.214 122.796 166.001C122.796 167.615 119.799 167.096 118.589 162.715C118.07 161.102 117.493 159.488 116.802 157.931L105.62 171.477" fill="#E0F3FF"/>
<path d="M21.7547 187.788C21.7547 187.788 0.601086 215.859 14.1463 236.609C27.6915 257.359 57.9521 251.883 77.607 239.779C97.262 227.675 109.597 212.688 111.038 202.544C112.479 192.399 98.4148 181.506 60.3153 209.172L51.4388 189.863" fill="#FF6D6D"/>
<path d="M71.4975 145.193L73.7454 177.471L104.813 147.038L105.85 175.742L74.0912 198.913C63.3703 207.04 58.5286 188.192 58.5286 188.192C58.5286 188.192 56.5689 193.437 53.9751 193.207C44.7529 193.091 23.3111 194.014 19.5069 183.408C18.7 181.102 18.6423 178.681 18.8153 176.261C18.9305 173.897 19.2764 171.592 19.7951 169.286C21.6396 161.159 40.6605 133.319 41.4674 133.665C42.2744 134.126 71.4975 145.193 71.4975 145.193V145.193Z" fill="#FFBC99"/>
<path d="M178.303 174.07H151.27V241.335H178.303V174.07Z" fill="#FFBC99" stroke="#FFE699" stroke-width="0.576392" stroke-miterlimit="10"/>
<g clip-path="url(#clip1_165_2123)">
<path d="M104.928 220.47L174.499 150.899" stroke="#FFE699" stroke-width="0.576392" stroke-miterlimit="10"/>
<path d="M107.464 223.063L177.092 153.435" stroke="#FFE699" stroke-width="0.576392" stroke-miterlimit="10"/>
<path d="M110.058 225.6L179.628 155.971" stroke="#FFE699" stroke-width="0.576392" stroke-miterlimit="10"/>
<path d="M112.594 228.136L182.165 158.565" stroke="#FFE699" stroke-width="0.576392" stroke-miterlimit="10"/>
<path d="M115.13 230.672L184.701 161.101" stroke="#FFE699" stroke-width="0.576392" stroke-miterlimit="10"/>
<path d="M117.666 233.208L187.237 163.637" stroke="#FFE699" stroke-width="0.576392" stroke-miterlimit="10"/>
<path d="M120.203 235.744L189.831 166.174" stroke="#FFE699" stroke-width="0.576392" stroke-miterlimit="10"/>
<path d="M122.739 238.338L192.367 168.71" stroke="#FFE699" stroke-width="0.576392" stroke-miterlimit="10"/>
<path d="M125.333 240.874L194.903 171.303" stroke="#FFE699" stroke-width="0.576392" stroke-miterlimit="10"/>
<path d="M127.869 243.41L197.439 173.84" stroke="#FFE699" stroke-width="0.576392" stroke-miterlimit="10"/>
<path d="M130.405 245.946L199.975 176.376" stroke="#FFE699" stroke-width="0.576392" stroke-miterlimit="10"/>
<path d="M132.941 248.54L202.569 178.912" stroke="#FFE699" stroke-width="0.576392" stroke-miterlimit="10"/>
<path d="M135.535 251.076L205.105 181.506" stroke="#FFE699" stroke-width="0.576392" stroke-miterlimit="10"/>
<path d="M138.071 253.612L207.641 184.042" stroke="#FFE699" stroke-width="0.576392" stroke-miterlimit="10"/>
<path d="M140.607 256.148L210.177 186.578" stroke="#FFE699" stroke-width="0.576392" stroke-miterlimit="10"/>
<path d="M143.143 258.684L212.714 189.114" stroke="#FFE699" stroke-width="0.576392" stroke-miterlimit="10"/>
<path d="M145.679 261.278L215.307 191.65" stroke="#FFE699" stroke-width="0.576392" stroke-miterlimit="10"/>
<path d="M148.273 263.814L217.843 194.186" stroke="#FFE699" stroke-width="0.576392" stroke-miterlimit="10"/>
<path d="M150.809 266.351L220.38 196.78" stroke="#FFE699" stroke-width="0.576392" stroke-miterlimit="10"/>
<path d="M153.345 268.886L222.916 199.316" stroke="#FFE699" stroke-width="0.576392" stroke-miterlimit="10"/>
<path d="M155.881 271.423L225.452 201.852" stroke="#FFE699" stroke-width="0.576392" stroke-miterlimit="10"/>
<path d="M158.417 274.017L228.045 204.388" stroke="#FFE699" stroke-width="0.576392" stroke-miterlimit="10"/>
</g>
<path d="M70.6904 109.515C72.4196 108.246 74.8981 108.65 76.1085 110.379C76.5696 111.013 76.8002 111.762 76.8578 112.512C75.6474 113.031 74.3217 113.895 72.8807 113.146C71.4397 112.512 70.5752 111.071 70.6904 109.515V109.515Z" fill="white"/>
<path d="M76.8577 112.339C76.6272 110.091 74.6674 108.419 72.4195 108.65C71.6702 108.708 70.9785 108.996 70.3445 109.457C70.2292 109.572 70.3445 109.803 70.5174 109.687C72.189 108.419 74.6098 108.765 75.8779 110.437C76.2813 111.013 76.5695 111.647 76.6272 112.339C76.5695 112.512 76.9154 112.512 76.8577 112.339V112.339Z" fill="#342C53"/>
<path d="M75.4169 109.745C74.3794 109.745 72.0738 111.243 71.8433 112.512C72.1315 112.8 72.4773 113.03 72.8808 113.203C74.1488 113.664 75.0134 113.837 76.8579 112.569C76.685 111.474 76.2238 110.494 75.4169 109.745Z" fill="#342C53"/>
<path d="M72.8808 117.296C74.2065 118.391 75.9357 118.967 77.6648 118.852C77.8377 118.852 77.8377 118.564 77.6648 118.564C76.8579 118.621 75.9933 118.506 75.244 118.218C74.437 117.987 73.6877 117.584 73.0537 117.065C72.9384 116.95 72.7079 117.18 72.8808 117.296V117.296Z" fill="#342C53"/>
<path d="M70.8634 106.633C72.7079 105.076 74.9558 105.134 76.5697 106.748C76.685 106.805 76.685 106.978 76.5697 107.094C76.512 107.151 76.4544 107.151 76.3968 107.151C74.437 106.978 72.8808 106.69 70.8634 106.633V106.633Z" fill="#342C53"/>
<path opacity="0.21" d="M67.2898 117.353C69.0406 117.353 70.4599 115.934 70.4599 114.183C70.4599 112.432 69.0406 111.013 67.2898 111.013C65.539 111.013 64.1196 112.432 64.1196 114.183C64.1196 115.934 65.539 117.353 67.2898 117.353Z" fill="#FFE0E0"/>
<path d="M68.5001 123.002L62.8514 117.699C64.0619 121.158 65.2146 125.365 66.4251 128.881" fill="#2D7CB3"/>
<path d="M113.516 161.908L118.358 155.683" stroke="#2D7CB3" stroke-width="0.576392" stroke-miterlimit="10"/>
<path d="M56.5112 106.287L58.1828 109.341" stroke="#2D7CB3" stroke-width="0.432294" stroke-miterlimit="10"/>
<path d="M198.419 199.316H171.386L151.27 174.07H178.303L198.419 199.316Z" fill="#FFE699"/>
<path d="M254.444 192.688H178.822V259.953H254.444V192.688Z" fill="#FFA06D" stroke="#FFE699" stroke-width="0.576392" stroke-miterlimit="10"/>
<path d="M209.889 198.221H193.001V212.631H209.889V198.221Z" fill="white"/>
<path d="M254.502 192.688H227.469V259.953H254.502V192.688Z" fill="#FFBC99" stroke="#FFE699" stroke-width="0.576392" stroke-miterlimit="10"/>
<g clip-path="url(#clip2_165_2123)">
<path d="M181.127 239.087L250.697 169.517" stroke="#FFE699" stroke-width="0.576392" stroke-miterlimit="10"/>
<path d="M183.663 241.681L253.291 172.053" stroke="#FFE699" stroke-width="0.576392" stroke-miterlimit="10"/>
<path d="M186.199 244.217L255.828 174.589" stroke="#FFE699" stroke-width="0.576392" stroke-miterlimit="10"/>
<path d="M188.793 246.753L258.363 177.183" stroke="#FFE699" stroke-width="0.576392" stroke-miterlimit="10"/>
<path d="M191.329 249.289L260.9 179.719" stroke="#FFE699" stroke-width="0.576392" stroke-miterlimit="10"/>
<path d="M193.865 251.826L263.436 182.255" stroke="#FFE699" stroke-width="0.576392" stroke-miterlimit="10"/>
<path d="M196.401 254.419L265.972 184.791" stroke="#FFE699" stroke-width="0.576392" stroke-miterlimit="10"/>
<path d="M198.938 256.956L268.566 187.327" stroke="#FFE699" stroke-width="0.576392" stroke-miterlimit="10"/>
<path d="M201.474 259.492L271.102 189.864" stroke="#FFE699" stroke-width="0.576392" stroke-miterlimit="10"/>
<path d="M204.067 262.028L273.638 192.457" stroke="#FFE699" stroke-width="0.576392" stroke-miterlimit="10"/>
<path d="M206.604 264.564L276.174 194.993" stroke="#FFE699" stroke-width="0.576392" stroke-miterlimit="10"/>
<path d="M209.14 267.158L278.768 197.53" stroke="#FFE699" stroke-width="0.576392" stroke-miterlimit="10"/>
<path d="M211.676 269.694L281.304 200.066" stroke="#FFE699" stroke-width="0.576392" stroke-miterlimit="10"/>
<path d="M214.27 272.23L283.84 202.659" stroke="#FFE699" stroke-width="0.576392" stroke-miterlimit="10"/>
<path d="M216.806 274.766L286.376 205.195" stroke="#FFE699" stroke-width="0.576392" stroke-miterlimit="10"/>
<path d="M219.342 277.302L288.912 207.731" stroke="#FFE699" stroke-width="0.576392" stroke-miterlimit="10"/>
<path d="M221.878 279.896L291.448 210.268" stroke="#FFE699" stroke-width="0.576392" stroke-miterlimit="10"/>
<path d="M224.414 282.432L294.042 212.804" stroke="#FFE699" stroke-width="0.576392" stroke-miterlimit="10"/>
<path d="M227.008 284.968L296.578 215.398" stroke="#FFE699" stroke-width="0.576392" stroke-miterlimit="10"/>
<path d="M229.544 287.504L299.114 217.934" stroke="#FFE699" stroke-width="0.576392" stroke-miterlimit="10"/>
<path d="M232.08 290.04L301.651 220.47" stroke="#FFE699" stroke-width="0.576392" stroke-miterlimit="10"/>
<path d="M234.616 292.634L304.187 223.006" stroke="#FFE699" stroke-width="0.576392" stroke-miterlimit="10"/>
</g>
<path d="M25.9048 85.4212C22.7346 90.4934 22.9652 97.0067 26.4235 101.906C34.3201 112.627 53.6292 106.805 53.4563 93.1448C53.2834 79.2538 33.2826 73.951 25.9048 85.4212V85.4212Z" fill="#342C53"/>
<path d="M120.606 155.914C123.661 159.891 125.102 161.101 126.37 161.39C127.062 161.447 127.753 161.217 128.272 160.756L124.698 156.202L118.761 148.594" fill="#E0F3FF"/>
<path d="M118.819 148.594L121.644 161.793L122.566 165.54" stroke="#2D7CB3" stroke-width="0.576392" stroke-miterlimit="10"/>
<path d="M64.1771 134.472C64.1771 134.472 60.3729 132.397 56.9146 133.262" stroke="#2D7CB3" stroke-width="0.432294" stroke-miterlimit="10"/>
<path d="M60.4306 209.057L41.9861 222.429" stroke="white" stroke-width="0.576392" stroke-miterlimit="10"/>
<path d="M58.5285 188.192L53.4563 154.992" stroke="#FF6D6D" stroke-width="0.576392" stroke-miterlimit="10"/>
</g>
<defs>
<clipPath id="clip0_165_2123">
<rect width="318.687" height="292.836" fill="white" transform="translate(0.312988)"/>
</clipPath>
<clipPath id="clip1_165_2123">
<rect width="28.2432" height="67.4378" fill="white" transform="translate(150.751 174.07)"/>
</clipPath>
<clipPath id="clip2_165_2123">
<rect width="27.0904" height="67.4378" fill="white" transform="translate(227.411 192.515)"/>
</clipPath>
</defs>
</svg>
