<svg width="24" height="25" viewBox="0 0 24 25" fill="none" xmlns="http://www.w3.org/2000/svg">
<path d="M9 11L11 13L15.5 8.5M20 21.5V8.3C20 6.61984 20 5.77976 19.673 5.13803C19.3854 4.57354 18.9265 4.1146 18.362 3.82698C17.7202 3.5 16.8802 3.5 15.2 3.5H8.8C7.11984 3.5 6.27976 3.5 5.63803 3.82698C5.07354 4.1146 4.6146 4.57354 4.32698 5.13803C4 5.77976 4 6.61984 4 8.3V21.5L6.75 19.5L9.25 21.5L12 19.5L14.75 21.5L17.25 19.5L20 21.5Z" stroke="#8E37ED" stroke-width="2" stroke-linecap="round" stroke-linejoin="round"/>
</svg>
