<svg width="21" height="20" viewBox="0 0 21 20" fill="none" xmlns="http://www.w3.org/2000/svg">
<path fill-rule="evenodd" clip-rule="evenodd" d="M16.7004 3.79295C15.8914 2.9836 14.9304 2.34225 13.8726 1.90582C12.8147 1.46939 11.681 1.2465 10.5367 1.24998C5.73438 1.24998 1.825 5.13982 1.82305 9.92185C1.82092 11.4446 2.2223 12.9406 2.98633 14.2578L1.75 18.75L6.36914 17.5441C7.64774 18.2368 9.07903 18.5993 10.5332 18.5988H10.5367C15.3387 18.5988 19.2477 14.7086 19.25 9.92693C19.2529 8.78653 19.029 7.65693 18.5913 6.60386C18.1536 5.5508 17.5108 4.59529 16.7004 3.79295ZM10.5367 17.1351H10.5336C9.23726 17.1355 7.96449 16.7886 6.84766 16.1304L6.5832 15.9742L3.84219 16.6898L4.57383 14.0301L4.40156 13.7566C3.67671 12.609 3.29267 11.2792 3.29414 9.92185C3.29414 5.94803 6.54453 2.71482 10.5395 2.71482C12.4559 2.7114 14.2951 3.46933 15.6528 4.8219C17.0104 6.17448 17.7752 8.01092 17.7789 9.92732C17.7773 13.9015 14.5285 17.1351 10.5367 17.1351ZM14.509 11.7371C14.2914 11.6285 13.2199 11.1043 13.0215 11.032C12.823 10.9597 12.6766 10.9234 12.5316 11.1406C12.3867 11.3578 11.9691 11.8437 11.8422 11.9902C11.7152 12.1367 11.5883 12.1527 11.3707 12.0441C11.1531 11.9355 10.4512 11.707 9.61953 10.9687C8.97227 10.3941 8.53555 9.68475 8.40859 9.46795C8.28164 9.25115 8.39492 9.13357 8.50391 9.02576C8.60195 8.9285 8.72148 8.77264 8.83047 8.64607C8.93945 8.51951 8.97578 8.42889 9.04805 8.28435C9.12031 8.13982 9.08437 8.01326 9.03008 7.90506C8.97578 7.79685 8.54023 6.73006 8.35898 6.29607C8.18203 5.87342 8.00273 5.93084 7.86914 5.9242C7.74219 5.91795 7.5957 5.91639 7.45156 5.91639C7.34137 5.91925 7.23295 5.94481 7.13308 5.99145C7.03321 6.03809 6.94402 6.10483 6.87109 6.18748C6.67148 6.40467 6.10898 6.92967 6.10898 7.99529C6.10898 9.06092 6.89023 10.0922 6.99805 10.2367C7.10586 10.3812 8.5332 12.5699 10.7172 13.5086C11.1227 13.6822 11.5371 13.8345 11.9586 13.9648C12.4801 14.1297 12.9547 14.1066 13.3297 14.0508C13.748 13.9887 14.6188 13.5265 14.7996 13.0203C14.9805 12.514 14.9809 12.0804 14.9266 11.9902C14.8723 11.9 14.727 11.8453 14.509 11.7371Z" fill="#2DB33E"/>
</svg>
