<svg width="24" height="25" viewBox="0 0 24 25" fill="none" xmlns="http://www.w3.org/2000/svg">
<path d="M12 16.5C13.6569 16.5 15 15.1568 15 13.5C15 11.8431 13.6569 10.5 12 10.5C10.3431 10.5 9 11.8431 9 13.5C9 15.1568 10.3431 16.5 12 16.5Z" stroke="#8E37ED" stroke-width="2" stroke-linecap="round" stroke-linejoin="round"/>
<path d="M3 11.0651C3 10.4907 3 10.2035 3.07403 9.93905C3.1396 9.70478 3.24737 9.48444 3.39203 9.28886C3.55534 9.06806 3.78202 8.89175 4.23539 8.53912L11.0177 3.264C11.369 2.99075 11.5447 2.85412 11.7387 2.8016C11.9098 2.75526 12.0902 2.75526 12.2613 2.8016C12.4553 2.85412 12.631 2.99075 12.9823 3.264L19.7646 8.53913C20.218 8.89175 20.4447 9.06806 20.608 9.28886C20.7526 9.48444 20.8604 9.70478 20.926 9.93905C21 10.2035 21 10.4907 21 11.0651V18.3C21 19.4201 21 19.9801 20.782 20.408C20.5903 20.7843 20.2843 21.0903 19.908 21.282C19.4802 21.5 18.9201 21.5 17.8 21.5H6.2C5.07989 21.5 4.51984 21.5 4.09202 21.282C3.71569 21.0903 3.40973 20.7843 3.21799 20.408C3 19.9801 3 19.4201 3 18.3V11.0651Z" stroke="#8E37ED" stroke-width="2" stroke-linecap="round" stroke-linejoin="round"/>
</svg>
