<svg width="250" height="34" viewBox="0 0 250 34" fill="none" xmlns="http://www.w3.org/2000/svg">
<path d="M8.42045 15.6364C8.42045 16.5568 8.25426 17.3523 7.92188 18.0227C7.58949 18.6932 7.13352 19.2102 6.55398 19.5739C5.97443 19.9375 5.3125 20.1193 4.56818 20.1193C3.82386 20.1193 3.16193 19.9375 2.58239 19.5739C2.00284 19.2102 1.54688 18.6932 1.21449 18.0227C0.882102 17.3523 0.715909 16.5568 0.715909 15.6364C0.715909 14.7159 0.882102 13.9205 1.21449 13.25C1.54688 12.5795 2.00284 12.0625 2.58239 11.6989C3.16193 11.3352 3.82386 11.1534 4.56818 11.1534C5.3125 11.1534 5.97443 11.3352 6.55398 11.6989C7.13352 12.0625 7.58949 12.5795 7.92188 13.25C8.25426 13.9205 8.42045 14.7159 8.42045 15.6364ZM7.39773 15.6364C7.39773 14.8807 7.27131 14.2429 7.01847 13.723C6.76847 13.2031 6.42898 12.8097 6 12.5426C5.57386 12.2756 5.09659 12.142 4.56818 12.142C4.03977 12.142 3.56108 12.2756 3.1321 12.5426C2.70597 12.8097 2.36648 13.2031 2.11364 13.723C1.86364 14.2429 1.73864 14.8807 1.73864 15.6364C1.73864 16.392 1.86364 17.0298 2.11364 17.5497C2.36648 18.0696 2.70597 18.4631 3.1321 18.7301C3.56108 18.9972 4.03977 19.1307 4.56818 19.1307C5.09659 19.1307 5.57386 18.9972 6 18.7301C6.42898 18.4631 6.76847 18.0696 7.01847 17.5497C7.27131 17.0298 7.39773 16.392 7.39773 15.6364ZM10.0611 20V13.4545H11.0327V14.4432H11.1009C11.2202 14.1193 11.4361 13.8565 11.7486 13.6548C12.0611 13.4531 12.4134 13.3523 12.8054 13.3523C12.8793 13.3523 12.9716 13.3537 13.0824 13.3565C13.1932 13.3594 13.277 13.3636 13.3338 13.3693V14.392C13.2997 14.3835 13.2216 14.3707 13.0994 14.3537C12.9801 14.3338 12.8537 14.3239 12.7202 14.3239C12.402 14.3239 12.1179 14.3906 11.8679 14.5241C11.6207 14.6548 11.4247 14.8366 11.2798 15.0696C11.1378 15.2997 11.0668 15.5625 11.0668 15.858V20H10.0611ZM16.7983 20.1364C16.2528 20.1364 15.7713 19.9986 15.3537 19.723C14.9361 19.4446 14.6094 19.0526 14.3736 18.5469C14.1378 18.0384 14.0199 17.4375 14.0199 16.7443C14.0199 16.0568 14.1378 15.4602 14.3736 14.9545C14.6094 14.4489 14.9375 14.0582 15.358 13.7827C15.7784 13.5071 16.2642 13.3693 16.8153 13.3693C17.2415 13.3693 17.5781 13.4403 17.8253 13.5824C18.0753 13.7216 18.2656 13.8807 18.3963 14.0597C18.5298 14.2358 18.6335 14.3807 18.7074 14.4943H18.7926V11.2727H19.7983V20H18.8267V18.9943H18.7074C18.6335 19.1136 18.5284 19.2642 18.392 19.446C18.2557 19.625 18.0611 19.7855 17.8082 19.9276C17.5554 20.0668 17.2188 20.1364 16.7983 20.1364ZM16.9347 19.233C17.3381 19.233 17.679 19.1278 17.9574 18.9176C18.2358 18.7045 18.4474 18.4105 18.5923 18.0355C18.7372 17.6577 18.8097 17.2216 18.8097 16.7273C18.8097 16.2386 18.7386 15.8111 18.5966 15.4446C18.4545 15.0753 18.2443 14.7884 17.9659 14.5838C17.6875 14.3764 17.3438 14.2727 16.9347 14.2727C16.5085 14.2727 16.1534 14.3821 15.8693 14.6009C15.5881 14.8168 15.3764 15.1108 15.2344 15.483C15.0952 15.8523 15.0256 16.267 15.0256 16.7273C15.0256 17.1932 15.0966 17.6165 15.2386 17.9972C15.3835 18.375 15.5966 18.6761 15.8778 18.9006C16.1619 19.1222 16.5142 19.233 16.9347 19.233ZM24.5241 20.1364C23.8935 20.1364 23.3494 19.9972 22.892 19.7188C22.4375 19.4375 22.0866 19.0455 21.8395 18.5426C21.5952 18.0369 21.473 17.4489 21.473 16.7784C21.473 16.108 21.5952 15.517 21.8395 15.0057C22.0866 14.4915 22.4304 14.0909 22.8707 13.804C23.3139 13.5142 23.831 13.3693 24.4219 13.3693C24.7628 13.3693 25.0994 13.4261 25.4318 13.5398C25.7642 13.6534 26.0668 13.8381 26.3395 14.0938C26.6122 14.3466 26.8295 14.6818 26.9915 15.0994C27.1534 15.517 27.2344 16.0312 27.2344 16.642V17.0682H22.1889V16.1989H26.2116C26.2116 15.8295 26.1378 15.5 25.9901 15.2102C25.8452 14.9205 25.6378 14.6918 25.3679 14.5241C25.1009 14.3565 24.7855 14.2727 24.4219 14.2727C24.0213 14.2727 23.6747 14.3722 23.3821 14.571C23.0923 14.767 22.8693 15.0227 22.7131 15.3381C22.5568 15.6534 22.4787 15.9915 22.4787 16.3523V16.9318C22.4787 17.4261 22.5639 17.8452 22.7344 18.1889C22.9077 18.5298 23.1477 18.7898 23.4545 18.9688C23.7614 19.1449 24.1179 19.233 24.5241 19.233C24.7884 19.233 25.027 19.196 25.2401 19.1222C25.456 19.0455 25.642 18.9318 25.7983 18.7812C25.9545 18.6278 26.0753 18.4375 26.1605 18.2102L27.1321 18.483C27.0298 18.8125 26.858 19.1023 26.6165 19.3523C26.375 19.5994 26.0767 19.7926 25.7216 19.9318C25.3665 20.0682 24.9673 20.1364 24.5241 20.1364ZM29.7699 16.0625V20H28.7642V13.4545H29.7358V14.4773H29.821C29.9744 14.1449 30.2074 13.8778 30.5199 13.6761C30.8324 13.4716 31.2358 13.3693 31.7301 13.3693C32.1733 13.3693 32.5611 13.4602 32.8935 13.642C33.2259 13.821 33.4844 14.0938 33.669 14.4602C33.8537 14.8239 33.946 15.2841 33.946 15.8409V20H32.9403V15.9091C32.9403 15.3949 32.8068 14.9943 32.5398 14.7074C32.2727 14.4176 31.9063 14.2727 31.4403 14.2727C31.1193 14.2727 30.8324 14.3423 30.5795 14.4815C30.3295 14.6207 30.1321 14.8239 29.9872 15.0909C29.8423 15.358 29.7699 15.6818 29.7699 16.0625ZM37.7099 20.1534C37.2951 20.1534 36.9187 20.0753 36.5806 19.919C36.2425 19.7599 35.9741 19.5312 35.7752 19.233C35.5763 18.9318 35.4769 18.5682 35.4769 18.142C35.4769 17.767 35.5508 17.4631 35.6985 17.2301C35.8462 16.9943 36.0437 16.8097 36.2908 16.6761C36.538 16.5426 36.8107 16.4432 37.109 16.3778C37.4102 16.3097 37.7127 16.2557 38.0167 16.2159C38.4144 16.1648 38.7369 16.1264 38.984 16.1009C39.234 16.0724 39.4158 16.0256 39.5295 15.9602C39.646 15.8949 39.7042 15.7812 39.7042 15.6193V15.5852C39.7042 15.1648 39.5891 14.8381 39.359 14.6051C39.1317 14.3722 38.7866 14.2557 38.3235 14.2557C37.8434 14.2557 37.467 14.3608 37.1942 14.571C36.9215 14.7812 36.7298 15.0057 36.619 15.2443L35.6644 14.9034C35.8349 14.5057 36.0621 14.196 36.3462 13.9744C36.6332 13.75 36.9457 13.5937 37.2837 13.5057C37.6246 13.4148 37.9599 13.3693 38.2894 13.3693C38.4996 13.3693 38.7411 13.3949 39.0138 13.446C39.2894 13.4943 39.555 13.5952 39.8107 13.7486C40.0692 13.902 40.2837 14.1335 40.4542 14.4432C40.6246 14.7528 40.7099 15.1676 40.7099 15.6875V20H39.7042V19.1136H39.6531C39.5849 19.2557 39.4712 19.4077 39.3121 19.5696C39.1531 19.7315 38.9414 19.8693 38.6772 19.983C38.413 20.0966 38.0906 20.1534 37.7099 20.1534ZM37.8633 19.25C38.261 19.25 38.5962 19.1719 38.869 19.0156C39.1445 18.8594 39.3519 18.6577 39.4911 18.4105C39.6332 18.1634 39.7042 17.9034 39.7042 17.6307V16.7102C39.6616 16.7614 39.5678 16.8082 39.4229 16.8509C39.2809 16.8906 39.1161 16.9261 38.9286 16.9574C38.744 16.9858 38.5636 17.0114 38.3874 17.0341C38.2141 17.054 38.0735 17.071 37.9656 17.0852C37.7042 17.1193 37.4599 17.1747 37.2326 17.2514C37.0082 17.3253 36.8263 17.4375 36.6871 17.5881C36.5508 17.7358 36.4826 17.9375 36.4826 18.1932C36.4826 18.5426 36.6119 18.8068 36.8704 18.9858C37.1317 19.1619 37.4627 19.25 37.8633 19.25ZM42.5455 20V13.4545H43.517V14.4432H43.5852C43.7045 14.1193 43.9205 13.8565 44.233 13.6548C44.5455 13.4531 44.8977 13.3523 45.2898 13.3523C45.3636 13.3523 45.456 13.3537 45.5668 13.3565C45.6776 13.3594 45.7614 13.3636 45.8182 13.3693V14.392C45.7841 14.3835 45.706 14.3707 45.5838 14.3537C45.4645 14.3338 45.3381 14.3239 45.2045 14.3239C44.8864 14.3239 44.6023 14.3906 44.3523 14.5241C44.1051 14.6548 43.9091 14.8366 43.7642 15.0696C43.6222 15.2997 43.5511 15.5625 43.5511 15.858V20H42.5455ZM50.3853 22.4545V13.4545H51.3569V14.4943H51.4762C51.5501 14.3807 51.6523 14.2358 51.783 14.0597C51.9165 13.8807 52.1069 13.7216 52.354 13.5824C52.604 13.4403 52.9421 13.3693 53.3683 13.3693C53.9194 13.3693 54.4052 13.5071 54.8256 13.7827C55.2461 14.0582 55.5742 14.4489 55.81 14.9545C56.0458 15.4602 56.1637 16.0568 56.1637 16.7443C56.1637 17.4375 56.0458 18.0384 55.81 18.5469C55.5742 19.0526 55.2475 19.4446 54.8299 19.723C54.4123 19.9986 53.9308 20.1364 53.3853 20.1364C52.9648 20.1364 52.6282 20.0668 52.3754 19.9276C52.1225 19.7855 51.9279 19.625 51.7915 19.446C51.6552 19.2642 51.5501 19.1136 51.4762 18.9943H51.391V22.4545H50.3853ZM51.3739 16.7273C51.3739 17.2216 51.4464 17.6577 51.5913 18.0355C51.7362 18.4105 51.9478 18.7045 52.2262 18.9176C52.5046 19.1278 52.8455 19.233 53.2489 19.233C53.6694 19.233 54.0202 19.1222 54.3015 18.9006C54.5856 18.6761 54.7987 18.375 54.9407 17.9972C55.0856 17.6165 55.158 17.1932 55.158 16.7273C55.158 16.267 55.087 15.8523 54.945 15.483C54.8058 15.1108 54.5941 14.8168 54.31 14.6009C54.0288 14.3821 53.6751 14.2727 53.2489 14.2727C52.8398 14.2727 52.4961 14.3764 52.2177 14.5838C51.9393 14.7884 51.729 15.0753 51.587 15.4446C51.445 15.8111 51.3739 16.2386 51.3739 16.7273ZM60.3569 20.1364C59.766 20.1364 59.2475 19.9957 58.8015 19.7145C58.3583 19.4332 58.0117 19.0398 57.7617 18.5341C57.5146 18.0284 57.391 17.4375 57.391 16.7614C57.391 16.0795 57.5146 15.4844 57.7617 14.9759C58.0117 14.4673 58.3583 14.0724 58.8015 13.7912C59.2475 13.5099 59.766 13.3693 60.3569 13.3693C60.9478 13.3693 61.4648 13.5099 61.908 13.7912C62.354 14.0724 62.7006 14.4673 62.9478 14.9759C63.1978 15.4844 63.3228 16.0795 63.3228 16.7614C63.3228 17.4375 63.1978 18.0284 62.9478 18.5341C62.7006 19.0398 62.354 19.4332 61.908 19.7145C61.4648 19.9957 60.9478 20.1364 60.3569 20.1364ZM60.3569 19.233C60.8058 19.233 61.1751 19.1179 61.4648 18.8878C61.7546 18.6577 61.9691 18.3551 62.1083 17.9801C62.2475 17.6051 62.3171 17.1989 62.3171 16.7614C62.3171 16.3239 62.2475 15.9162 62.1083 15.5384C61.9691 15.1605 61.7546 14.8551 61.4648 14.6222C61.1751 14.3892 60.8058 14.2727 60.3569 14.2727C59.908 14.2727 59.5387 14.3892 59.2489 14.6222C58.9592 14.8551 58.7447 15.1605 58.6055 15.5384C58.4663 15.9162 58.3967 16.3239 58.3967 16.7614C58.3967 17.1989 58.4663 17.6051 58.6055 17.9801C58.7447 18.3551 58.9592 18.6577 59.2489 18.8878C59.5387 19.1179 59.908 19.233 60.3569 19.233ZM64.858 20V13.4545H65.8295V14.4432H65.8977C66.017 14.1193 66.233 13.8565 66.5455 13.6548C66.858 13.4531 67.2102 13.3523 67.6023 13.3523C67.6761 13.3523 67.7685 13.3537 67.8793 13.3565C67.9901 13.3594 68.0739 13.3636 68.1307 13.3693V14.392C68.0966 14.3835 68.0185 14.3707 67.8963 14.3537C67.777 14.3338 67.6506 14.3239 67.517 14.3239C67.1989 14.3239 66.9148 14.3906 66.6648 14.5241C66.4176 14.6548 66.2216 14.8366 66.0767 15.0696C65.9347 15.2997 65.8636 15.5625 65.8636 15.858V20H64.858Z" fill="#757380"/>
<rect x="80.5" y="0.5" width="169" height="33" rx="9.5" fill="white"/>
<path d="M97.0568 12.2727H98.3182L101.284 19.517H101.386L104.352 12.2727H105.614V21H104.625V14.3693H104.54L101.812 21H100.858L98.1307 14.3693H98.0455V21H97.0568V12.2727ZM109.522 21.1534C109.108 21.1534 108.731 21.0753 108.393 20.919C108.055 20.7599 107.787 20.5312 107.588 20.233C107.389 19.9318 107.289 19.5682 107.289 19.142C107.289 18.767 107.363 18.4631 107.511 18.2301C107.659 17.9943 107.856 17.8097 108.103 17.6761C108.35 17.5426 108.623 17.4432 108.922 17.3778C109.223 17.3097 109.525 17.2557 109.829 17.2159C110.227 17.1648 110.549 17.1264 110.797 17.1009C111.047 17.0724 111.228 17.0256 111.342 16.9602C111.458 16.8949 111.517 16.7812 111.517 16.6193V16.5852C111.517 16.1648 111.402 15.8381 111.172 15.6051C110.944 15.3722 110.599 15.2557 110.136 15.2557C109.656 15.2557 109.279 15.3608 109.007 15.571C108.734 15.7812 108.542 16.0057 108.431 16.2443L107.477 15.9034C107.647 15.5057 107.875 15.196 108.159 14.9744C108.446 14.75 108.758 14.5937 109.096 14.5057C109.437 14.4148 109.772 14.3693 110.102 14.3693C110.312 14.3693 110.554 14.3949 110.826 14.446C111.102 14.4943 111.368 14.5952 111.623 14.7486C111.882 14.902 112.096 15.1335 112.267 15.4432C112.437 15.7528 112.522 16.1676 112.522 16.6875V21H111.517V20.1136H111.466C111.397 20.2557 111.284 20.4077 111.125 20.5696C110.966 20.7315 110.754 20.8693 110.49 20.983C110.225 21.0966 109.903 21.1534 109.522 21.1534ZM109.676 20.25C110.074 20.25 110.409 20.1719 110.681 20.0156C110.957 19.8594 111.164 19.6577 111.304 19.4105C111.446 19.1634 111.517 18.9034 111.517 18.6307V17.7102C111.474 17.7614 111.38 17.8082 111.235 17.8509C111.093 17.8906 110.929 17.9261 110.741 17.9574C110.556 17.9858 110.376 18.0114 110.2 18.0341C110.027 18.054 109.886 18.071 109.778 18.0852C109.517 18.1193 109.272 18.1747 109.045 18.2514C108.821 18.3253 108.639 18.4375 108.5 18.5881C108.363 18.7358 108.295 18.9375 108.295 19.1932C108.295 19.5426 108.424 19.8068 108.683 19.9858C108.944 20.1619 109.275 20.25 109.676 20.25ZM109.71 13.5682L110.75 11.5909H111.926L110.596 13.5682H109.71ZM118.994 15.9205L118.091 16.1761C118.034 16.0256 117.95 15.8793 117.839 15.7372C117.732 15.5923 117.584 15.473 117.396 15.3793C117.209 15.2855 116.969 15.2386 116.676 15.2386C116.276 15.2386 115.942 15.331 115.675 15.5156C115.411 15.6974 115.278 15.929 115.278 16.2102C115.278 16.4602 115.369 16.6577 115.551 16.8026C115.733 16.9474 116.017 17.0682 116.403 17.1648L117.375 17.4034C117.96 17.5455 118.396 17.7628 118.683 18.0554C118.97 18.3452 119.114 18.7187 119.114 19.1761C119.114 19.5511 119.006 19.8864 118.79 20.1818C118.577 20.4773 118.278 20.7102 117.895 20.8807C117.511 21.0511 117.065 21.1364 116.557 21.1364C115.889 21.1364 115.337 20.9915 114.899 20.7017C114.462 20.4119 114.185 19.9886 114.068 19.4318L115.023 19.1932C115.114 19.5455 115.286 19.8097 115.538 19.9858C115.794 20.1619 116.128 20.25 116.54 20.25C117.009 20.25 117.381 20.1506 117.656 19.9517C117.935 19.75 118.074 19.5085 118.074 19.2273C118.074 19 117.994 18.8097 117.835 18.6562C117.676 18.5 117.432 18.3835 117.102 18.3068L116.011 18.0511C115.412 17.9091 114.972 17.6889 114.69 17.3906C114.412 17.0895 114.273 16.7131 114.273 16.2614C114.273 15.892 114.376 15.5653 114.584 15.2812C114.794 14.9972 115.08 14.7741 115.44 14.6122C115.804 14.4503 116.216 14.3693 116.676 14.3693C117.324 14.3693 117.832 14.5114 118.202 14.7955C118.574 15.0795 118.838 15.4545 118.994 15.9205ZM124.002 21V14.4545H124.974V15.4432H125.042C125.162 15.1193 125.377 14.8565 125.69 14.6548C126.002 14.4531 126.355 14.3523 126.747 14.3523C126.821 14.3523 126.913 14.3537 127.024 14.3565C127.135 14.3594 127.218 14.3636 127.275 14.3693V15.392C127.241 15.3835 127.163 15.3707 127.041 15.3537C126.922 15.3338 126.795 15.3239 126.662 15.3239C126.343 15.3239 126.059 15.3906 125.809 15.5241C125.562 15.6548 125.366 15.8366 125.221 16.0696C125.079 16.2997 125.008 16.5625 125.008 16.858V21H124.002ZM131.012 21.1364C130.382 21.1364 129.838 20.9972 129.38 20.7188C128.926 20.4375 128.575 20.0455 128.328 19.5426C128.083 19.0369 127.961 18.4489 127.961 17.7784C127.961 17.108 128.083 16.517 128.328 16.0057C128.575 15.4915 128.919 15.0909 129.359 14.804C129.802 14.5142 130.319 14.3693 130.91 14.3693C131.251 14.3693 131.588 14.4261 131.92 14.5398C132.252 14.6534 132.555 14.8381 132.828 15.0938C133.1 15.3466 133.318 15.6818 133.48 16.0994C133.642 16.517 133.723 17.0312 133.723 17.642V18.0682H128.677V17.1989H132.7C132.7 16.8295 132.626 16.5 132.478 16.2102C132.333 15.9205 132.126 15.6918 131.856 15.5241C131.589 15.3565 131.274 15.2727 130.91 15.2727C130.51 15.2727 130.163 15.3722 129.87 15.571C129.581 15.767 129.358 16.0227 129.201 16.3381C129.045 16.6534 128.967 16.9915 128.967 17.3523V17.9318C128.967 18.4261 129.052 18.8452 129.223 19.1889C129.396 19.5298 129.636 19.7898 129.943 19.9688C130.25 20.1449 130.606 20.233 131.012 20.233C131.277 20.233 131.515 20.196 131.728 20.1222C131.944 20.0455 132.13 19.9318 132.287 19.7812C132.443 19.6278 132.564 19.4375 132.649 19.2102L133.62 19.483C133.518 19.8125 133.346 20.1023 133.105 20.3523C132.863 20.5994 132.565 20.7926 132.21 20.9318C131.855 21.0682 131.456 21.1364 131.012 21.1364ZM137.912 21.1364C137.298 21.1364 136.77 20.9915 136.326 20.7017C135.883 20.4119 135.542 20.0128 135.304 19.5043C135.065 18.9957 134.946 18.4148 134.946 17.7614C134.946 17.0966 135.068 16.5099 135.312 16.0014C135.559 15.4901 135.903 15.0909 136.343 14.804C136.787 14.5142 137.304 14.3693 137.895 14.3693C138.355 14.3693 138.77 14.4545 139.139 14.625C139.508 14.7955 139.811 15.0341 140.047 15.3409C140.282 15.6477 140.429 16.0057 140.485 16.4148H139.48C139.403 16.1165 139.233 15.8523 138.968 15.6222C138.707 15.3892 138.355 15.2727 137.912 15.2727C137.52 15.2727 137.176 15.375 136.88 15.5795C136.588 15.7812 136.359 16.0668 136.194 16.4361C136.032 16.8026 135.951 17.233 135.951 17.7273C135.951 18.233 136.031 18.6733 136.19 19.0483C136.352 19.4233 136.579 19.7145 136.872 19.9219C137.167 20.1293 137.514 20.233 137.912 20.233C138.173 20.233 138.41 20.1875 138.623 20.0966C138.836 20.0057 139.017 19.875 139.164 19.7045C139.312 19.5341 139.417 19.3295 139.48 19.0909H140.485C140.429 19.4773 140.288 19.8253 140.064 20.1349C139.842 20.4418 139.548 20.6861 139.181 20.8679C138.818 21.0469 138.395 21.1364 137.912 21.1364ZM141.956 21V14.4545H142.961V21H141.956ZM142.467 13.3636C142.271 13.3636 142.102 13.2969 141.96 13.1634C141.821 13.0298 141.751 12.8693 141.751 12.6818C141.751 12.4943 141.821 12.3338 141.96 12.2003C142.102 12.0668 142.271 12 142.467 12C142.663 12 142.831 12.0668 142.97 12.2003C143.112 12.3338 143.183 12.4943 143.183 12.6818C143.183 12.8693 143.112 13.0298 142.97 13.1634C142.831 13.2969 142.663 13.3636 142.467 13.3636ZM147.548 21.1364C146.917 21.1364 146.373 20.9972 145.915 20.7188C145.461 20.4375 145.11 20.0455 144.863 19.5426C144.619 19.0369 144.496 18.4489 144.496 17.7784C144.496 17.108 144.619 16.517 144.863 16.0057C145.11 15.4915 145.454 15.0909 145.894 14.804C146.337 14.5142 146.854 14.3693 147.445 14.3693C147.786 14.3693 148.123 14.4261 148.455 14.5398C148.788 14.6534 149.09 14.8381 149.363 15.0938C149.636 15.3466 149.853 15.6818 150.015 16.0994C150.177 16.517 150.258 17.0312 150.258 17.642V18.0682H145.212V17.1989H149.235C149.235 16.8295 149.161 16.5 149.013 16.2102C148.869 15.9205 148.661 15.6918 148.391 15.5241C148.124 15.3565 147.809 15.2727 147.445 15.2727C147.045 15.2727 146.698 15.3722 146.406 15.571C146.116 15.767 145.893 16.0227 145.737 16.3381C145.58 16.6534 145.502 16.9915 145.502 17.3523V17.9318C145.502 18.4261 145.587 18.8452 145.758 19.1889C145.931 19.5298 146.171 19.7898 146.478 19.9688C146.785 20.1449 147.141 20.233 147.548 20.233C147.812 20.233 148.05 20.196 148.263 20.1222C148.479 20.0455 148.665 19.9318 148.822 19.7812C148.978 19.6278 149.099 19.4375 149.184 19.2102L150.156 19.483C150.053 19.8125 149.881 20.1023 149.64 20.3523C149.398 20.5994 149.1 20.7926 148.745 20.9318C148.39 21.0682 147.991 21.1364 147.548 21.1364ZM152.793 17.0625V21H151.788V14.4545H152.759V15.4773H152.844C152.998 15.1449 153.231 14.8778 153.543 14.6761C153.856 14.4716 154.259 14.3693 154.754 14.3693C155.197 14.3693 155.585 14.4602 155.917 14.642C156.249 14.821 156.508 15.0938 156.692 15.4602C156.877 15.8239 156.969 16.2841 156.969 16.8409V21H155.964V16.9091C155.964 16.3949 155.83 15.9943 155.563 15.7074C155.296 15.4176 154.93 15.2727 154.464 15.2727C154.143 15.2727 153.856 15.3423 153.603 15.4815C153.353 15.6207 153.156 15.8239 153.011 16.0909C152.866 16.358 152.793 16.6818 152.793 17.0625ZM161.654 14.4545V15.3068H158.262V14.4545H161.654ZM159.25 12.8864H160.256V19.125C160.256 19.4091 160.297 19.6222 160.38 19.7642C160.465 19.9034 160.573 19.9972 160.703 20.0455C160.837 20.0909 160.978 20.1136 161.125 20.1136C161.236 20.1136 161.327 20.108 161.398 20.0966C161.469 20.0824 161.526 20.071 161.569 20.0625L161.773 20.9659C161.705 20.9915 161.61 21.017 161.488 21.0426C161.365 21.071 161.211 21.0852 161.023 21.0852C160.739 21.0852 160.461 21.0241 160.188 20.902C159.918 20.7798 159.694 20.5938 159.515 20.3438C159.338 20.0938 159.25 19.7784 159.25 19.3977V12.8864ZM165.841 21.1364C165.21 21.1364 164.666 20.9972 164.208 20.7188C163.754 20.4375 163.403 20.0455 163.156 19.5426C162.912 19.0369 162.789 18.4489 162.789 17.7784C162.789 17.108 162.912 16.517 163.156 16.0057C163.403 15.4915 163.747 15.0909 164.187 14.804C164.63 14.5142 165.147 14.3693 165.738 14.3693C166.079 14.3693 166.416 14.4261 166.748 14.5398C167.081 14.6534 167.383 14.8381 167.656 15.0938C167.929 15.3466 168.146 15.6818 168.308 16.0994C168.47 16.517 168.551 17.0312 168.551 17.642V18.0682H163.505V17.1989H167.528C167.528 16.8295 167.454 16.5 167.306 16.2102C167.162 15.9205 166.954 15.6918 166.684 15.5241C166.417 15.3565 166.102 15.2727 165.738 15.2727C165.338 15.2727 164.991 15.3722 164.699 15.571C164.409 15.767 164.186 16.0227 164.029 16.3381C163.873 16.6534 163.795 16.9915 163.795 17.3523V17.9318C163.795 18.4261 163.88 18.8452 164.051 19.1889C164.224 19.5298 164.464 19.7898 164.771 19.9688C165.078 20.1449 165.434 20.233 165.841 20.233C166.105 20.233 166.343 20.196 166.556 20.1222C166.772 20.0455 166.958 19.9318 167.115 19.7812C167.271 19.6278 167.392 19.4375 167.477 19.2102L168.449 19.483C168.346 19.8125 168.174 20.1023 167.933 20.3523C167.691 20.5994 167.393 20.7926 167.038 20.9318C166.683 21.0682 166.284 21.1364 165.841 21.1364ZM174.717 15.9205L173.814 16.1761C173.757 16.0256 173.673 15.8793 173.562 15.7372C173.454 15.5923 173.306 15.473 173.119 15.3793C172.931 15.2855 172.691 15.2386 172.399 15.2386C171.998 15.2386 171.664 15.331 171.397 15.5156C171.133 15.6974 171.001 15.929 171.001 16.2102C171.001 16.4602 171.092 16.6577 171.274 16.8026C171.456 16.9474 171.74 17.0682 172.126 17.1648L173.098 17.4034C173.683 17.5455 174.119 17.7628 174.406 18.0554C174.693 18.3452 174.836 18.7187 174.836 19.1761C174.836 19.5511 174.728 19.8864 174.512 20.1818C174.299 20.4773 174.001 20.7102 173.618 20.8807C173.234 21.0511 172.788 21.1364 172.279 21.1364C171.612 21.1364 171.059 20.9915 170.622 20.7017C170.184 20.4119 169.907 19.9886 169.791 19.4318L170.745 19.1932C170.836 19.5455 171.008 19.8097 171.261 19.9858C171.517 20.1619 171.85 20.25 172.262 20.25C172.731 20.25 173.103 20.1506 173.379 19.9517C173.657 19.75 173.797 19.5085 173.797 19.2273C173.797 19 173.717 18.8097 173.558 18.6562C173.399 18.5 173.154 18.3835 172.825 18.3068L171.734 18.0511C171.135 17.9091 170.694 17.6889 170.413 17.3906C170.135 17.0895 169.995 16.7131 169.995 16.2614C169.995 15.892 170.099 15.5653 170.306 15.2812C170.517 14.9972 170.802 14.7741 171.163 14.6122C171.527 14.4503 171.939 14.3693 172.399 14.3693C173.047 14.3693 173.555 14.5114 173.924 14.7955C174.297 15.0795 174.561 15.4545 174.717 15.9205Z" fill="#8D8A99"/>
<path d="M221.25 14.875L225.5 19.125L229.75 14.875" stroke="#757380" stroke-width="2" stroke-linecap="round" stroke-linejoin="round"/>
<rect x="80.5" y="0.5" width="169" height="33" rx="9.5" stroke="#EDE1FA"/>
</svg>
