<svg width="710" height="123" viewBox="0 0 710 123" fill="none" xmlns="http://www.w3.org/2000/svg">
<g filter="url(#filter0_d_387_4394)">
<rect x="20" y="16" width="670" height="83" rx="20" fill="white"/>
<path d="M140.58 71.2102V70.2727H147.125V71.2102H144.381V79H143.324V71.2102H140.58ZM147.94 79V72.4545H148.912V73.4432H148.98C149.099 73.1193 149.315 72.8565 149.627 72.6548C149.94 72.4531 150.292 72.3523 150.684 72.3523C150.758 72.3523 150.85 72.3537 150.961 72.3565C151.072 72.3594 151.156 72.3636 151.213 72.3693V73.392C151.179 73.3835 151.1 73.3707 150.978 73.3537C150.859 73.3338 150.733 73.3239 150.599 73.3239C150.281 73.3239 149.997 73.3906 149.747 73.5241C149.5 73.6548 149.304 73.8366 149.159 74.0696C149.017 74.2997 148.946 74.5625 148.946 74.858V79H147.94ZM154.331 79.1534C153.916 79.1534 153.54 79.0753 153.202 78.919C152.864 78.7599 152.595 78.5312 152.396 78.233C152.197 77.9318 152.098 77.5682 152.098 77.142C152.098 76.767 152.172 76.4631 152.32 76.2301C152.467 75.9943 152.665 75.8097 152.912 75.6761C153.159 75.5426 153.432 75.4432 153.73 75.3778C154.031 75.3097 154.334 75.2557 154.638 75.2159C155.036 75.1648 155.358 75.1264 155.605 75.1009C155.855 75.0724 156.037 75.0256 156.151 74.9602C156.267 74.8949 156.325 74.7812 156.325 74.6193V74.5852C156.325 74.1648 156.21 73.8381 155.98 73.6051C155.753 73.3722 155.408 73.2557 154.945 73.2557C154.464 73.2557 154.088 73.3608 153.815 73.571C153.543 73.7812 153.351 74.0057 153.24 74.2443L152.286 73.9034C152.456 73.5057 152.683 73.196 152.967 72.9744C153.254 72.75 153.567 72.5937 153.905 72.5057C154.246 72.4148 154.581 72.3693 154.911 72.3693C155.121 72.3693 155.362 72.3949 155.635 72.446C155.911 72.4943 156.176 72.5952 156.432 72.7486C156.69 72.902 156.905 73.1335 157.075 73.4432C157.246 73.7528 157.331 74.1676 157.331 74.6875V79H156.325V78.1136H156.274C156.206 78.2557 156.092 78.4077 155.933 78.5696C155.774 78.7315 155.563 78.8693 155.298 78.983C155.034 79.0966 154.712 79.1534 154.331 79.1534ZM154.484 78.25C154.882 78.25 155.217 78.1719 155.49 78.0156C155.766 77.8594 155.973 77.6577 156.112 77.4105C156.254 77.1634 156.325 76.9034 156.325 76.6307V75.7102C156.283 75.7614 156.189 75.8082 156.044 75.8509C155.902 75.8906 155.737 75.9261 155.55 75.9574C155.365 75.9858 155.185 76.0114 155.009 76.0341C154.835 76.054 154.695 76.071 154.587 76.0852C154.325 76.1193 154.081 76.1747 153.854 76.2514C153.629 76.3253 153.447 76.4375 153.308 76.5881C153.172 76.7358 153.104 76.9375 153.104 77.1932C153.104 77.5426 153.233 77.8068 153.491 77.9858C153.753 78.1619 154.084 78.25 154.484 78.25ZM161.826 79.1364C161.212 79.1364 160.684 78.9915 160.24 78.7017C159.797 78.4119 159.456 78.0128 159.218 77.5043C158.979 76.9957 158.86 76.4148 158.86 75.7614C158.86 75.0966 158.982 74.5099 159.226 74.0014C159.473 73.4901 159.817 73.0909 160.257 72.804C160.701 72.5142 161.218 72.3693 161.809 72.3693C162.269 72.3693 162.684 72.4545 163.053 72.625C163.422 72.7955 163.725 73.0341 163.961 73.3409C164.196 73.6477 164.343 74.0057 164.4 74.4148H163.394C163.317 74.1165 163.147 73.8523 162.882 73.6222C162.621 73.3892 162.269 73.2727 161.826 73.2727C161.434 73.2727 161.09 73.375 160.794 73.5795C160.502 73.7812 160.273 74.0668 160.108 74.4361C159.946 74.8026 159.865 75.233 159.865 75.7273C159.865 76.233 159.945 76.6733 160.104 77.0483C160.266 77.4233 160.493 77.7145 160.786 77.9219C161.081 78.1293 161.428 78.233 161.826 78.233C162.087 78.233 162.324 78.1875 162.537 78.0966C162.75 78.0057 162.931 77.875 163.078 77.7045C163.226 77.5341 163.331 77.3295 163.394 77.0909H164.4C164.343 77.4773 164.202 77.8253 163.978 78.1349C163.756 78.4418 163.462 78.6861 163.096 78.8679C162.732 79.0469 162.309 79.1364 161.826 79.1364ZM166.807 76.6136L166.79 75.3693H166.995L169.858 72.4545H171.103L168.051 75.5398H167.966L166.807 76.6136ZM165.87 79V70.2727H166.875V79H165.87ZM170.029 79L167.472 75.7614L168.188 75.0625L171.307 79H170.029ZM172.397 79V72.4545H173.403V79H172.397ZM172.908 71.3636C172.712 71.3636 172.543 71.2969 172.401 71.1634C172.262 71.0298 172.192 70.8693 172.192 70.6818C172.192 70.4943 172.262 70.3338 172.401 70.2003C172.543 70.0668 172.712 70 172.908 70C173.104 70 173.272 70.0668 173.411 70.2003C173.553 70.3338 173.624 70.4943 173.624 70.6818C173.624 70.8693 173.553 71.0298 173.411 71.1634C173.272 71.2969 173.104 71.3636 172.908 71.3636ZM176.25 75.0625V79H175.245V72.4545H176.216V73.4773H176.301C176.455 73.1449 176.688 72.8778 177 72.6761C177.313 72.4716 177.716 72.3693 178.211 72.3693C178.654 72.3693 179.042 72.4602 179.374 72.642C179.706 72.821 179.965 73.0938 180.15 73.4602C180.334 73.8239 180.426 74.2841 180.426 74.8409V79H179.421V74.9091C179.421 74.3949 179.287 73.9943 179.02 73.7074C178.753 73.4176 178.387 73.2727 177.921 73.2727C177.6 73.2727 177.313 73.3423 177.06 73.4815C176.81 73.6207 176.613 73.8239 176.468 74.0909C176.323 74.358 176.25 74.6818 176.25 75.0625ZM184.906 81.5909C184.42 81.5909 184.003 81.5284 183.653 81.4034C183.304 81.2812 183.013 81.1193 182.78 80.9176C182.55 80.7188 182.366 80.5057 182.23 80.2784L183.031 79.7159C183.122 79.8352 183.237 79.9716 183.376 80.125C183.516 80.2812 183.706 80.4162 183.947 80.5298C184.192 80.6463 184.511 80.7045 184.906 80.7045C185.435 80.7045 185.871 80.5767 186.214 80.321C186.558 80.0653 186.73 79.6648 186.73 79.1193V77.7898H186.645C186.571 77.9091 186.466 78.0568 186.33 78.233C186.196 78.4062 186.003 78.5611 185.75 78.6974C185.5 78.831 185.162 78.8977 184.736 78.8977C184.207 78.8977 183.733 78.7727 183.312 78.5227C182.895 78.2727 182.564 77.9091 182.32 77.4318C182.078 76.9545 181.957 76.375 181.957 75.6932C181.957 75.0227 182.075 74.4389 182.311 73.9418C182.547 73.4418 182.875 73.0554 183.295 72.7827C183.716 72.5071 184.202 72.3693 184.753 72.3693C185.179 72.3693 185.517 72.4403 185.767 72.5824C186.02 72.7216 186.213 72.8807 186.347 73.0597C186.483 73.2358 186.588 73.3807 186.662 73.4943H186.764V72.4545H187.736V79.1875C187.736 79.75 187.608 80.2074 187.352 80.5597C187.099 80.9148 186.759 81.1747 186.33 81.3395C185.903 81.5071 185.429 81.5909 184.906 81.5909ZM184.872 77.9943C185.276 77.9943 185.616 77.902 185.895 77.7173C186.173 77.5327 186.385 77.267 186.53 76.9205C186.675 76.5739 186.747 76.1591 186.747 75.6761C186.747 75.2045 186.676 74.7884 186.534 74.4276C186.392 74.0668 186.182 73.7841 185.903 73.5795C185.625 73.375 185.281 73.2727 184.872 73.2727C184.446 73.2727 184.091 73.3807 183.807 73.5966C183.526 73.8125 183.314 74.1023 183.172 74.4659C183.033 74.8295 182.963 75.233 182.963 75.6761C182.963 76.1307 183.034 76.5327 183.176 76.8821C183.321 77.2287 183.534 77.5014 183.815 77.7003C184.099 77.8963 184.452 77.9943 184.872 77.9943ZM190.31 79.0682C190.099 79.0682 189.919 78.9929 189.768 78.8423C189.618 78.6918 189.543 78.5114 189.543 78.3011C189.543 78.0909 189.618 77.9105 189.768 77.7599C189.919 77.6094 190.099 77.5341 190.31 77.5341C190.52 77.5341 190.7 77.6094 190.851 77.7599C191.001 77.9105 191.077 78.0909 191.077 78.3011C191.077 78.4403 191.041 78.5682 190.97 78.6847C190.902 78.8011 190.81 78.8949 190.693 78.9659C190.58 79.0341 190.452 79.0682 190.31 79.0682ZM190.31 74.2102C190.099 74.2102 189.919 74.1349 189.768 73.9844C189.618 73.8338 189.543 73.6534 189.543 73.4432C189.543 73.233 189.618 73.0526 189.768 72.902C189.919 72.7514 190.099 72.6761 190.31 72.6761C190.52 72.6761 190.7 72.7514 190.851 72.902C191.001 73.0526 191.077 73.233 191.077 73.4432C191.077 73.5824 191.041 73.7102 190.97 73.8267C190.902 73.9432 190.81 74.0369 190.693 74.108C190.58 74.1761 190.452 74.2102 190.31 74.2102ZM199.214 79.1193C198.58 79.1193 198.018 79.0128 197.526 78.7997C197.038 78.5866 196.654 78.2955 196.376 77.9261C196.1 77.554 195.964 77.1321 195.967 76.6605C195.964 76.294 196.043 75.9574 196.205 75.6506C196.367 75.3438 196.586 75.0881 196.862 74.8835C197.14 74.6761 197.45 74.544 197.79 74.4872V74.4276C197.342 74.3281 196.978 74.0994 196.7 73.7415C196.424 73.3807 196.288 72.9645 196.29 72.4929C196.288 72.044 196.413 71.6435 196.665 71.2912C196.918 70.9389 197.265 70.6619 197.705 70.4602C198.146 70.2557 198.648 70.1534 199.214 70.1534C199.773 70.1534 200.272 70.2557 200.71 70.4602C201.15 70.6619 201.496 70.9389 201.749 71.2912C202.005 71.6435 202.133 72.044 202.133 72.4929C202.133 72.9645 201.992 73.3807 201.711 73.7415C201.433 74.0994 201.073 74.3281 200.633 74.4276V74.4872C200.974 74.544 201.281 74.6761 201.553 74.8835C201.829 75.0881 202.048 75.3438 202.21 75.6506C202.374 75.9574 202.457 76.294 202.457 76.6605C202.457 77.1321 202.317 77.554 202.039 77.9261C201.761 78.2955 201.377 78.5866 200.888 78.7997C200.403 79.0128 199.844 79.1193 199.214 79.1193ZM199.214 77.9006C199.54 77.9006 199.825 77.8452 200.066 77.7344C200.308 77.6207 200.495 77.4616 200.629 77.2571C200.762 77.0526 200.83 76.8168 200.833 76.5497C200.83 76.2713 200.758 76.0256 200.616 75.8125C200.477 75.5966 200.285 75.4276 200.04 75.3054C199.799 75.1832 199.523 75.1222 199.214 75.1222C198.901 75.1222 198.623 75.1832 198.379 75.3054C198.134 75.4276 197.941 75.5966 197.799 75.8125C197.66 76.0256 197.592 76.2713 197.594 76.5497C197.592 76.8168 197.657 77.0526 197.79 77.2571C197.924 77.4588 198.112 77.6165 198.353 77.7301C198.597 77.8437 198.884 77.9006 199.214 77.9006ZM199.214 73.9247C199.481 73.9247 199.717 73.8707 199.921 73.7628C200.129 73.6548 200.292 73.5043 200.411 73.3111C200.531 73.1179 200.592 72.8949 200.594 72.642C200.592 72.392 200.532 72.1733 200.415 71.9858C200.299 71.7955 200.137 71.6491 199.93 71.5469C199.722 71.4418 199.484 71.3892 199.214 71.3892C198.938 71.3892 198.695 71.4418 198.485 71.5469C198.278 71.6491 198.116 71.7955 197.999 71.9858C197.886 72.1733 197.83 72.392 197.833 72.642C197.83 72.8949 197.887 73.1179 198.004 73.3111C198.123 73.5014 198.286 73.652 198.494 73.7628C198.704 73.8707 198.944 73.9247 199.214 73.9247ZM206.96 79.1193C206.326 79.1193 205.764 79.0128 205.272 78.7997C204.784 78.5866 204.4 78.2955 204.122 77.9261C203.846 77.554 203.71 77.1321 203.713 76.6605C203.71 76.294 203.789 75.9574 203.951 75.6506C204.113 75.3438 204.332 75.0881 204.608 74.8835C204.886 74.6761 205.196 74.544 205.537 74.4872V74.4276C205.088 74.3281 204.724 74.0994 204.446 73.7415C204.17 73.3807 204.034 72.9645 204.037 72.4929C204.034 72.044 204.159 71.6435 204.412 71.2912C204.664 70.9389 205.011 70.6619 205.451 70.4602C205.892 70.2557 206.395 70.1534 206.96 70.1534C207.52 70.1534 208.018 70.2557 208.456 70.4602C208.896 70.6619 209.243 70.9389 209.495 71.2912C209.751 71.6435 209.879 72.044 209.879 72.4929C209.879 72.9645 209.738 73.3807 209.457 73.7415C209.179 74.0994 208.819 74.3281 208.379 74.4276V74.4872C208.72 74.544 209.027 74.6761 209.299 74.8835C209.575 75.0881 209.794 75.3438 209.956 75.6506C210.12 75.9574 210.203 76.294 210.203 76.6605C210.203 77.1321 210.064 77.554 209.785 77.9261C209.507 78.2955 209.123 78.5866 208.635 78.7997C208.149 79.0128 207.591 79.1193 206.96 79.1193ZM206.96 77.9006C207.287 77.9006 207.571 77.8452 207.812 77.7344C208.054 77.6207 208.241 77.4616 208.375 77.2571C208.508 77.0526 208.576 76.8168 208.579 76.5497C208.576 76.2713 208.504 76.0256 208.362 75.8125C208.223 75.5966 208.031 75.4276 207.787 75.3054C207.545 75.1832 207.27 75.1222 206.96 75.1222C206.647 75.1222 206.369 75.1832 206.125 75.3054C205.88 75.4276 205.687 75.5966 205.545 75.8125C205.406 76.0256 205.338 76.2713 205.341 76.5497C205.338 76.8168 205.403 77.0526 205.537 77.2571C205.67 77.4588 205.858 77.6165 206.099 77.7301C206.343 77.8437 206.63 77.9006 206.96 77.9006ZM206.96 73.9247C207.227 73.9247 207.463 73.8707 207.667 73.7628C207.875 73.6548 208.038 73.5043 208.157 73.3111C208.277 73.1179 208.338 72.8949 208.341 72.642C208.338 72.392 208.278 72.1733 208.162 71.9858C208.045 71.7955 207.883 71.6491 207.676 71.5469C207.468 71.4418 207.23 71.3892 206.96 71.3892C206.684 71.3892 206.441 71.4418 206.231 71.5469C206.024 71.6491 205.862 71.7955 205.745 71.9858C205.632 72.1733 205.576 72.392 205.579 72.642C205.576 72.8949 205.633 73.1179 205.75 73.3111C205.869 73.5014 206.032 73.652 206.24 73.7628C206.45 73.8707 206.69 73.9247 206.96 73.9247ZM211.923 79L215.635 71.6534V71.5938H211.327V70.2727H217.271V71.6236L213.564 79H211.923ZM218.647 79V77.858L221.676 74.8878C221.966 74.5952 222.208 74.3352 222.401 74.108C222.594 73.8807 222.739 73.6605 222.836 73.4474C222.932 73.2344 222.98 73.0071 222.98 72.7656C222.98 72.4901 222.918 72.2543 222.793 72.0582C222.668 71.8594 222.496 71.706 222.277 71.598C222.059 71.4901 221.81 71.4361 221.532 71.4361C221.245 71.4361 220.993 71.4957 220.777 71.6151C220.561 71.7315 220.394 71.8977 220.275 72.1136C220.158 72.3295 220.1 72.5866 220.1 72.8849H218.596C218.596 72.331 218.722 71.8494 218.975 71.4403C219.228 71.0312 219.576 70.7145 220.019 70.4901C220.465 70.2656 220.976 70.1534 221.553 70.1534C222.138 70.1534 222.652 70.2628 223.096 70.4815C223.539 70.7003 223.882 71 224.127 71.3807C224.374 71.7614 224.498 72.196 224.498 72.6847C224.498 73.0114 224.435 73.3324 224.31 73.6477C224.185 73.9631 223.965 74.3125 223.65 74.696C223.337 75.0795 222.898 75.544 222.333 76.0895L220.828 77.6193V77.679H224.63V79H218.647ZM229.296 79.1193C228.878 79.1165 228.471 79.044 228.073 78.902C227.675 78.7571 227.317 78.5227 226.999 78.1989C226.681 77.8722 226.428 77.4389 226.24 76.8991C226.053 76.3565 225.961 75.6847 225.963 74.8835C225.963 74.1364 226.043 73.4702 226.202 72.8849C226.361 72.2997 226.59 71.8054 226.888 71.402C227.186 70.9957 227.546 70.6861 227.966 70.473C228.39 70.2599 228.863 70.1534 229.385 70.1534C229.934 70.1534 230.419 70.2614 230.843 70.4773C231.269 70.6932 231.613 70.9886 231.874 71.3636C232.135 71.7358 232.297 72.1562 232.36 72.625H230.804C230.725 72.2898 230.561 72.0227 230.314 71.8239C230.07 71.6222 229.76 71.5213 229.385 71.5213C228.78 71.5213 228.314 71.7841 227.988 72.3097C227.664 72.8352 227.5 73.5568 227.498 74.4744H227.557C227.696 74.2244 227.877 74.0099 228.098 73.831C228.32 73.652 228.57 73.5142 228.848 73.4176C229.13 73.3182 229.426 73.2685 229.739 73.2685C230.25 73.2685 230.709 73.3906 231.115 73.6349C231.525 73.8793 231.848 74.2159 232.087 74.6449C232.326 75.071 232.444 75.5597 232.441 76.1108C232.444 76.6847 232.313 77.2003 232.049 77.6577C231.784 78.1122 231.417 78.4702 230.945 78.7315C230.473 78.9929 229.924 79.1222 229.296 79.1193ZM229.287 77.8409C229.597 77.8409 229.874 77.7656 230.118 77.6151C230.363 77.4645 230.556 77.2614 230.698 77.0057C230.84 76.75 230.909 76.4631 230.907 76.1449C230.909 75.8324 230.841 75.5497 230.702 75.2969C230.566 75.044 230.377 74.8437 230.135 74.696C229.894 74.5483 229.618 74.4744 229.309 74.4744C229.078 74.4744 228.864 74.5185 228.665 74.6065C228.466 74.6946 228.293 74.8168 228.145 74.973C227.998 75.1264 227.881 75.3054 227.796 75.5099C227.713 75.7116 227.671 75.9276 227.668 76.1577C227.671 76.4616 227.742 76.7415 227.881 76.9972C228.02 77.2528 228.212 77.4574 228.456 77.6108C228.701 77.7642 228.978 77.8409 229.287 77.8409ZM236.915 79.1193C236.347 79.1193 235.838 79.0128 235.39 78.7997C234.941 78.5838 234.584 78.2884 234.32 77.9134C234.059 77.5384 233.919 77.1094 233.902 76.6264H235.436C235.465 76.9844 235.62 77.277 235.901 77.5043C236.182 77.7287 236.52 77.8409 236.915 77.8409C237.225 77.8409 237.5 77.7699 237.742 77.6278C237.983 77.4858 238.174 77.2884 238.313 77.0355C238.452 76.7827 238.52 76.4943 238.517 76.1705C238.52 75.8409 238.451 75.5483 238.309 75.2926C238.167 75.0369 237.972 74.8366 237.725 74.6918C237.478 74.544 237.194 74.4702 236.873 74.4702C236.611 74.4673 236.354 74.5156 236.101 74.6151C235.848 74.7145 235.648 74.8452 235.5 75.0071L234.073 74.7727L234.529 70.2727H239.591V71.5938H235.837L235.586 73.9077H235.637C235.799 73.7173 236.027 73.5597 236.323 73.4347C236.618 73.3068 236.942 73.2429 237.294 73.2429C237.823 73.2429 238.294 73.3679 238.709 73.6179C239.124 73.8651 239.451 74.206 239.689 74.6406C239.928 75.0753 240.047 75.5724 240.047 76.1321C240.047 76.7088 239.914 77.223 239.647 77.6747C239.382 78.1236 239.015 78.4773 238.543 78.7358C238.074 78.9915 237.532 79.1193 236.915 79.1193ZM241.317 77.3807V76.1236L245.02 70.2727H246.069V72.0625H245.429L242.936 76.0128V76.081H248.105V77.3807H241.317ZM245.48 79V76.9972L245.498 76.4347V70.2727H246.989V79H245.48ZM249.467 79V77.858L252.497 74.8878C252.787 74.5952 253.028 74.3352 253.221 74.108C253.414 73.8807 253.559 73.6605 253.656 73.4474C253.752 73.2344 253.801 73.0071 253.801 72.7656C253.801 72.4901 253.738 72.2543 253.613 72.0582C253.488 71.8594 253.316 71.706 253.098 71.598C252.879 71.4901 252.63 71.4361 252.352 71.4361C252.065 71.4361 251.814 71.4957 251.598 71.6151C251.382 71.7315 251.214 71.8977 251.095 72.1136C250.978 72.3295 250.92 72.5866 250.92 72.8849H249.416C249.416 72.331 249.542 71.8494 249.795 71.4403C250.048 71.0312 250.396 70.7145 250.839 70.4901C251.285 70.2656 251.797 70.1534 252.373 70.1534C252.958 70.1534 253.473 70.2628 253.916 70.4815C254.359 70.7003 254.703 71 254.947 71.3807C255.194 71.7614 255.318 72.196 255.318 72.6847C255.318 73.0114 255.255 73.3324 255.13 73.6477C255.005 73.9631 254.785 74.3125 254.47 74.696C254.157 75.0795 253.718 75.544 253.153 76.0895L251.649 77.6193V77.679H255.45V79H249.467ZM260.146 79.1662C259.444 79.1662 258.842 78.9886 258.339 78.6335C257.839 78.2756 257.454 77.7599 257.184 77.0866C256.917 76.4105 256.784 75.5966 256.784 74.6449C256.787 73.6932 256.922 72.8835 257.189 72.2159C257.458 71.5455 257.843 71.0341 258.343 70.6818C258.846 70.3295 259.447 70.1534 260.146 70.1534C260.845 70.1534 261.446 70.3295 261.949 70.6818C262.451 71.0341 262.836 71.5455 263.103 72.2159C263.373 72.8864 263.508 73.696 263.508 74.6449C263.508 75.5994 263.373 76.4148 263.103 77.0909C262.836 77.7642 262.451 78.2784 261.949 78.6335C261.449 78.9886 260.848 79.1662 260.146 79.1662ZM260.146 77.8324C260.691 77.8324 261.122 77.5639 261.437 77.027C261.755 76.4872 261.914 75.6932 261.914 74.6449C261.914 73.9517 261.842 73.3693 261.697 72.8977C261.552 72.4261 261.348 72.071 261.083 71.8324C260.819 71.5909 260.507 71.4702 260.146 71.4702C259.603 71.4702 259.174 71.7401 258.859 72.2798C258.544 72.8168 258.385 73.6051 258.382 74.6449C258.379 75.3409 258.449 75.9261 258.591 76.4006C258.735 76.875 258.94 77.233 259.204 77.4744C259.468 77.7131 259.782 77.8324 260.146 77.8324ZM268.026 79.1193C267.393 79.1193 266.83 79.0128 266.339 78.7997C265.85 78.5866 265.467 78.2955 265.188 77.9261C264.913 77.554 264.776 77.1321 264.779 76.6605C264.776 76.294 264.856 75.9574 265.018 75.6506C265.18 75.3438 265.398 75.0881 265.674 74.8835C265.952 74.6761 266.262 74.544 266.603 74.4872V74.4276C266.154 74.3281 265.79 74.0994 265.512 73.7415C265.237 73.3807 265.1 72.9645 265.103 72.4929C265.1 72.044 265.225 71.6435 265.478 71.2912C265.731 70.9389 266.077 70.6619 266.518 70.4602C266.958 70.2557 267.461 70.1534 268.026 70.1534C268.586 70.1534 269.085 70.2557 269.522 70.4602C269.962 70.6619 270.309 70.9389 270.562 71.2912C270.817 71.6435 270.945 72.044 270.945 72.4929C270.945 72.9645 270.805 73.3807 270.523 73.7415C270.245 74.0994 269.886 74.3281 269.445 74.4276V74.4872C269.786 74.544 270.093 74.6761 270.366 74.8835C270.641 75.0881 270.86 75.3438 271.022 75.6506C271.187 75.9574 271.269 76.294 271.269 76.6605C271.269 77.1321 271.13 77.554 270.852 77.9261C270.573 78.2955 270.19 78.5866 269.701 78.7997C269.215 79.0128 268.657 79.1193 268.026 79.1193ZM268.026 77.9006C268.353 77.9006 268.637 77.8452 268.879 77.7344C269.12 77.6207 269.308 77.4616 269.441 77.2571C269.575 77.0526 269.643 76.8168 269.646 76.5497C269.643 76.2713 269.57 76.0256 269.428 75.8125C269.289 75.5966 269.097 75.4276 268.853 75.3054C268.612 75.1832 268.336 75.1222 268.026 75.1222C267.714 75.1222 267.435 75.1832 267.191 75.3054C266.947 75.4276 266.754 75.5966 266.612 75.8125C266.472 76.0256 266.404 76.2713 266.407 76.5497C266.404 76.8168 266.469 77.0526 266.603 77.2571C266.737 77.4588 266.924 77.6165 267.165 77.7301C267.41 77.8437 267.697 77.9006 268.026 77.9006ZM268.026 73.9247C268.293 73.9247 268.529 73.8707 268.734 73.7628C268.941 73.6548 269.104 73.5043 269.224 73.3111C269.343 73.1179 269.404 72.8949 269.407 72.642C269.404 72.392 269.344 72.1733 269.228 71.9858C269.112 71.7955 268.95 71.6491 268.742 71.5469C268.535 71.4418 268.296 71.3892 268.026 71.3892C267.751 71.3892 267.508 71.4418 267.298 71.5469C267.09 71.6491 266.928 71.7955 266.812 71.9858C266.698 72.1733 266.643 72.392 266.646 72.642C266.643 72.8949 266.7 73.1179 266.816 73.3111C266.935 73.5014 267.099 73.652 267.306 73.7628C267.516 73.8707 267.756 73.9247 268.026 73.9247ZM276.22 70.2727V79H274.639V71.8111H274.588L272.547 73.1151V71.6662L274.716 70.2727H276.22ZM278.755 79L282.467 71.6534V71.5938H278.159V70.2727H284.103V71.6236L280.396 79H278.755ZM288.396 79.1193C287.827 79.1193 287.319 79.0128 286.87 78.7997C286.421 78.5838 286.065 78.2884 285.8 77.9134C285.539 77.5384 285.4 77.1094 285.383 76.6264H286.917C286.945 76.9844 287.1 77.277 287.381 77.5043C287.663 77.7287 288.001 77.8409 288.396 77.8409C288.705 77.8409 288.981 77.7699 289.222 77.6278C289.464 77.4858 289.654 77.2884 289.793 77.0355C289.933 76.7827 290.001 76.4943 289.998 76.1705C290.001 75.8409 289.931 75.5483 289.789 75.2926C289.647 75.0369 289.452 74.8366 289.205 74.6918C288.958 74.544 288.674 74.4702 288.353 74.4702C288.092 74.4673 287.835 74.5156 287.582 74.6151C287.329 74.7145 287.129 74.8452 286.981 75.0071L285.553 74.7727L286.009 70.2727H291.072V71.5938H287.317L287.066 73.9077H287.117C287.279 73.7173 287.508 73.5597 287.803 73.4347C288.099 73.3068 288.423 73.2429 288.775 73.2429C289.303 73.2429 289.775 73.3679 290.19 73.6179C290.604 73.8651 290.931 74.206 291.17 74.6406C291.408 75.0753 291.528 75.5724 291.528 76.1321C291.528 76.7088 291.394 77.223 291.127 77.6747C290.863 78.1236 290.495 78.4773 290.023 78.7358C289.555 78.9915 289.012 79.1193 288.396 79.1193ZM292.955 79V77.858L295.985 74.8878C296.275 74.5952 296.516 74.3352 296.71 74.108C296.903 73.8807 297.048 73.6605 297.144 73.4474C297.241 73.2344 297.289 73.0071 297.289 72.7656C297.289 72.4901 297.227 72.2543 297.102 72.0582C296.977 71.8594 296.805 71.706 296.586 71.598C296.367 71.4901 296.119 71.4361 295.84 71.4361C295.553 71.4361 295.302 71.4957 295.086 71.6151C294.87 71.7315 294.702 71.8977 294.583 72.1136C294.467 72.3295 294.408 72.5866 294.408 72.8849H292.904C292.904 72.331 293.031 71.8494 293.283 71.4403C293.536 71.0312 293.884 70.7145 294.327 70.4901C294.773 70.2656 295.285 70.1534 295.862 70.1534C296.447 70.1534 296.961 70.2628 297.404 70.4815C297.847 70.7003 298.191 71 298.435 71.3807C298.683 71.7614 298.806 72.196 298.806 72.6847C298.806 73.0114 298.744 73.3324 298.619 73.6477C298.494 73.9631 298.273 74.3125 297.958 74.696C297.646 75.0795 297.207 75.544 296.641 76.0895L295.137 77.6193V77.679H298.938V79H292.955ZM300.728 79L304.44 71.6534V71.5938H300.131V70.2727H306.076V71.6236L302.369 79H300.728ZM310.378 79.1193C309.744 79.1193 309.182 79.0128 308.69 78.7997C308.202 78.5866 307.818 78.2955 307.54 77.9261C307.264 77.554 307.128 77.1321 307.131 76.6605C307.128 76.294 307.207 75.9574 307.369 75.6506C307.531 75.3438 307.75 75.0881 308.026 74.8835C308.304 74.6761 308.614 74.544 308.955 74.4872V74.4276C308.506 74.3281 308.142 74.0994 307.864 73.7415C307.588 73.3807 307.452 72.9645 307.455 72.4929C307.452 72.044 307.577 71.6435 307.83 71.2912C308.082 70.9389 308.429 70.6619 308.869 70.4602C309.31 70.2557 309.813 70.1534 310.378 70.1534C310.938 70.1534 311.436 70.2557 311.874 70.4602C312.314 70.6619 312.661 70.9389 312.913 71.2912C313.169 71.6435 313.297 72.044 313.297 72.4929C313.297 72.9645 313.156 73.3807 312.875 73.7415C312.597 74.0994 312.237 74.3281 311.797 74.4276V74.4872C312.138 74.544 312.445 74.6761 312.717 74.8835C312.993 75.0881 313.212 75.3438 313.374 75.6506C313.538 75.9574 313.621 76.294 313.621 76.6605C313.621 77.1321 313.482 77.554 313.203 77.9261C312.925 78.2955 312.541 78.5866 312.053 78.7997C311.567 79.0128 311.009 79.1193 310.378 79.1193ZM310.378 77.9006C310.705 77.9006 310.989 77.8452 311.23 77.7344C311.472 77.6207 311.659 77.4616 311.793 77.2571C311.926 77.0526 311.994 76.8168 311.997 76.5497C311.994 76.2713 311.922 76.0256 311.78 75.8125C311.641 75.5966 311.449 75.4276 311.205 75.3054C310.963 75.1832 310.688 75.1222 310.378 75.1222C310.065 75.1222 309.787 75.1832 309.543 75.3054C309.298 75.4276 309.105 75.5966 308.963 75.8125C308.824 76.0256 308.756 76.2713 308.759 76.5497C308.756 76.8168 308.821 77.0526 308.955 77.2571C309.088 77.4588 309.276 77.6165 309.517 77.7301C309.761 77.8437 310.048 77.9006 310.378 77.9006ZM310.378 73.9247C310.645 73.9247 310.881 73.8707 311.085 73.7628C311.293 73.6548 311.456 73.5043 311.575 73.3111C311.695 73.1179 311.756 72.8949 311.759 72.642C311.756 72.392 311.696 72.1733 311.58 71.9858C311.463 71.7955 311.301 71.6491 311.094 71.5469C310.886 71.4418 310.648 71.3892 310.378 71.3892C310.102 71.3892 309.859 71.4418 309.649 71.5469C309.442 71.6491 309.28 71.7955 309.163 71.9858C309.05 72.1733 308.994 72.392 308.997 72.642C308.994 72.8949 309.051 73.1179 309.168 73.3111C309.287 73.5014 309.45 73.652 309.658 73.7628C309.868 73.8707 310.108 73.9247 310.378 73.9247ZM315.022 79V77.858L318.051 74.8878C318.341 74.5952 318.583 74.3352 318.776 74.108C318.969 73.8807 319.114 73.6605 319.211 73.4474C319.307 73.2344 319.355 73.0071 319.355 72.7656C319.355 72.4901 319.293 72.2543 319.168 72.0582C319.043 71.8594 318.871 71.706 318.652 71.598C318.434 71.4901 318.185 71.4361 317.907 71.4361C317.62 71.4361 317.368 71.4957 317.152 71.6151C316.936 71.7315 316.769 71.8977 316.65 72.1136C316.533 72.3295 316.475 72.5866 316.475 72.8849H314.971C314.971 72.331 315.097 71.8494 315.35 71.4403C315.603 71.0312 315.951 70.7145 316.394 70.4901C316.84 70.2656 317.351 70.1534 317.928 70.1534C318.513 70.1534 319.027 70.2628 319.471 70.4815C319.914 70.7003 320.257 71 320.502 71.3807C320.749 71.7614 320.873 72.196 320.873 72.6847C320.873 73.0114 320.81 73.3324 320.685 73.6477C320.56 73.9631 320.34 74.3125 320.025 74.696C319.712 75.0795 319.273 75.544 318.708 76.0895L317.203 77.6193V77.679H321.005V79H315.022ZM322.794 79L326.506 71.6534V71.5938H322.198V70.2727H328.142V71.6236L324.435 79H322.794ZM332.526 79.1193C332.109 79.1165 331.701 79.044 331.303 78.902C330.906 78.7571 330.548 78.5227 330.229 78.1989C329.911 77.8722 329.658 77.4389 329.471 76.8991C329.283 76.3565 329.191 75.6847 329.194 74.8835C329.194 74.1364 329.273 73.4702 329.433 72.8849C329.592 72.2997 329.82 71.8054 330.119 71.402C330.417 70.9957 330.776 70.6861 331.197 70.473C331.62 70.2599 332.093 70.1534 332.616 70.1534C333.164 70.1534 333.65 70.2614 334.073 70.4773C334.499 70.6932 334.843 70.9886 335.104 71.3636C335.366 71.7358 335.528 72.1562 335.59 72.625H334.035C333.955 72.2898 333.792 72.0227 333.545 71.8239C333.3 71.6222 332.991 71.5213 332.616 71.5213C332.011 71.5213 331.545 71.7841 331.218 72.3097C330.894 72.8352 330.731 73.5568 330.728 74.4744H330.788C330.927 74.2244 331.107 74.0099 331.329 73.831C331.55 73.652 331.8 73.5142 332.079 73.4176C332.36 73.3182 332.657 73.2685 332.969 73.2685C333.481 73.2685 333.94 73.3906 334.346 73.6349C334.755 73.8793 335.079 74.2159 335.317 74.6449C335.556 75.071 335.674 75.5597 335.671 76.1108C335.674 76.6847 335.543 77.2003 335.279 77.6577C335.015 78.1122 334.647 78.4702 334.175 78.7315C333.704 78.9929 333.154 79.1222 332.526 79.1193ZM332.518 77.8409C332.827 77.8409 333.104 77.7656 333.349 77.6151C333.593 77.4645 333.786 77.2614 333.928 77.0057C334.07 76.75 334.14 76.4631 334.137 76.1449C334.14 75.8324 334.072 75.5497 333.933 75.2969C333.796 75.044 333.607 74.8437 333.366 74.696C333.124 74.5483 332.849 74.4744 332.539 74.4744C332.309 74.4744 332.094 74.5185 331.896 74.6065C331.697 74.6946 331.523 74.8168 331.376 74.973C331.228 75.1264 331.112 75.3054 331.026 75.5099C330.944 75.7116 330.901 75.9276 330.898 76.1577C330.901 76.4616 330.972 76.7415 331.112 76.9972C331.251 77.2528 331.442 77.4574 331.687 77.6108C331.931 77.7642 332.208 77.8409 332.518 77.8409ZM340.146 79.1193C339.577 79.1193 339.069 79.0128 338.62 78.7997C338.171 78.5838 337.815 78.2884 337.55 77.9134C337.289 77.5384 337.15 77.1094 337.133 76.6264H338.667C338.695 76.9844 338.85 77.277 339.131 77.5043C339.413 77.7287 339.751 77.8409 340.146 77.8409C340.455 77.8409 340.731 77.7699 340.972 77.6278C341.214 77.4858 341.404 77.2884 341.543 77.0355C341.683 76.7827 341.751 76.4943 341.748 76.1705C341.751 75.8409 341.681 75.5483 341.539 75.2926C341.397 75.0369 341.202 74.8366 340.955 74.6918C340.708 74.544 340.424 74.4702 340.103 74.4702C339.842 74.4673 339.585 74.5156 339.332 74.6151C339.079 74.7145 338.879 74.8452 338.731 75.0071L337.303 74.7727L337.759 70.2727H342.822V71.5938H339.067L338.816 73.9077H338.867C339.029 73.7173 339.258 73.5597 339.553 73.4347C339.849 73.3068 340.173 73.2429 340.525 73.2429C341.053 73.2429 341.525 73.3679 341.94 73.6179C342.354 73.8651 342.681 74.206 342.92 74.6406C343.158 75.0753 343.278 75.5724 343.278 76.1321C343.278 76.7088 343.144 77.223 342.877 77.6747C342.613 78.1236 342.245 78.4773 341.773 78.7358C341.305 78.9915 340.762 79.1193 340.146 79.1193ZM347.837 79.1193C347.224 79.1193 346.678 79.0142 346.201 78.804C345.727 78.5937 345.352 78.3011 345.076 77.9261C344.8 77.5511 344.654 77.1179 344.637 76.6264H346.239C346.254 76.8622 346.332 77.0682 346.474 77.2443C346.616 77.4176 346.805 77.5526 347.04 77.6491C347.276 77.7457 347.54 77.794 347.833 77.794C348.146 77.794 348.423 77.7401 348.664 77.6321C348.906 77.5213 349.094 77.3679 349.231 77.1719C349.367 76.9759 349.434 76.75 349.431 76.4943C349.434 76.2301 349.366 75.9972 349.227 75.7955C349.087 75.5937 348.886 75.4361 348.621 75.3224C348.36 75.2088 348.045 75.152 347.675 75.152H346.904V73.9332H347.675C347.979 73.9332 348.245 73.8807 348.472 73.7756C348.702 73.6705 348.883 73.5227 349.013 73.3324C349.144 73.1392 349.208 72.9162 349.205 72.6634C349.208 72.4162 349.153 72.2017 349.039 72.0199C348.928 71.8352 348.771 71.6918 348.566 71.5895C348.364 71.4872 348.127 71.4361 347.854 71.4361C347.587 71.4361 347.34 71.4844 347.113 71.581C346.886 71.6776 346.702 71.8153 346.563 71.9943C346.424 72.1705 346.35 72.3807 346.342 72.625H344.82C344.832 72.1364 344.972 71.7074 345.242 71.3381C345.515 70.9659 345.879 70.6761 346.333 70.4688C346.788 70.2585 347.298 70.1534 347.863 70.1534C348.445 70.1534 348.951 70.2628 349.38 70.4815C349.812 70.6974 350.146 70.9886 350.381 71.3551C350.617 71.7216 350.735 72.1264 350.735 72.5696C350.738 73.0611 350.593 73.473 350.3 73.8054C350.011 74.1378 349.63 74.3551 349.158 74.4574V74.5256C349.772 74.6108 350.242 74.8381 350.569 75.2074C350.898 75.5739 351.062 76.0298 351.059 76.5753C351.059 77.0639 350.92 77.5014 350.641 77.8878C350.366 78.2713 349.985 78.5724 349.499 78.7912C349.016 79.0099 348.462 79.1193 347.837 79.1193ZM352.841 79L356.553 71.6534V71.5938H352.245V70.2727H358.189V71.6236L354.482 79H352.841ZM362.477 70.1534C362.895 70.1562 363.301 70.2301 363.696 70.375C364.094 70.517 364.452 70.75 364.77 71.0739C365.088 71.3949 365.341 71.8253 365.528 72.3651C365.716 72.9048 365.81 73.5724 365.81 74.3679C365.813 75.1179 365.733 75.7884 365.571 76.3793C365.412 76.9673 365.183 77.4645 364.885 77.8707C364.587 78.277 364.227 78.5866 363.807 78.7997C363.386 79.0128 362.913 79.1193 362.388 79.1193C361.837 79.1193 361.348 79.0114 360.922 78.7955C360.499 78.5795 360.156 78.2841 359.895 77.9091C359.634 77.5341 359.473 77.1051 359.413 76.6222H360.969C361.048 76.9687 361.21 77.2443 361.455 77.4489C361.702 77.6506 362.013 77.7514 362.388 77.7514C362.993 77.7514 363.459 77.4886 363.786 76.9631C364.112 76.4375 364.276 75.7074 364.276 74.7727H364.216C364.077 75.0227 363.896 75.2386 363.675 75.4205C363.453 75.5994 363.202 75.7372 362.92 75.8338C362.642 75.9304 362.347 75.9787 362.034 75.9787C361.523 75.9787 361.063 75.8565 360.653 75.6122C360.247 75.3679 359.925 75.0327 359.686 74.6065C359.45 74.1804 359.331 73.6932 359.328 73.1449C359.328 72.5767 359.459 72.0668 359.72 71.6151C359.984 71.1605 360.352 70.8026 360.824 70.5412C361.295 70.277 361.847 70.1477 362.477 70.1534ZM362.482 71.4318C362.175 71.4318 361.898 71.5071 361.651 71.6577C361.406 71.8054 361.213 72.0071 361.071 72.2628C360.932 72.5156 360.862 72.7983 360.862 73.1108C360.865 73.4205 360.935 73.7017 361.071 73.9545C361.21 74.2074 361.399 74.4077 361.638 74.5554C361.879 74.7031 362.155 74.777 362.464 74.777C362.695 74.777 362.909 74.733 363.108 74.6449C363.307 74.5568 363.48 74.4347 363.628 74.2784C363.778 74.1193 363.895 73.9389 363.977 73.7372C364.063 73.5355 364.104 73.3224 364.101 73.098C364.101 72.7997 364.03 72.5241 363.888 72.2713C363.749 72.0185 363.557 71.8153 363.312 71.6619C363.071 71.5085 362.794 71.4318 362.482 71.4318ZM370.259 70.1534C370.676 70.1562 371.082 70.2301 371.477 70.375C371.875 70.517 372.233 70.75 372.551 71.0739C372.869 71.3949 373.122 71.8253 373.31 72.3651C373.497 72.9048 373.591 73.5724 373.591 74.3679C373.594 75.1179 373.514 75.7884 373.352 76.3793C373.193 76.9673 372.964 77.4645 372.666 77.8707C372.368 78.277 372.009 78.5866 371.588 78.7997C371.168 79.0128 370.695 79.1193 370.169 79.1193C369.618 79.1193 369.129 79.0114 368.703 78.7955C368.28 78.5795 367.938 78.2841 367.676 77.9091C367.415 77.5341 367.254 77.1051 367.195 76.6222H368.75C368.83 76.9687 368.991 77.2443 369.236 77.4489C369.483 77.6506 369.794 77.7514 370.169 77.7514C370.774 77.7514 371.24 77.4886 371.567 76.9631C371.893 76.4375 372.057 75.7074 372.057 74.7727H371.997C371.858 75.0227 371.678 75.2386 371.456 75.4205C371.234 75.5994 370.983 75.7372 370.702 75.8338C370.423 75.9304 370.128 75.9787 369.815 75.9787C369.304 75.9787 368.844 75.8565 368.435 75.6122C368.028 75.3679 367.706 75.0327 367.467 74.6065C367.232 74.1804 367.112 73.6932 367.109 73.1449C367.109 72.5767 367.24 72.0668 367.501 71.6151C367.766 71.1605 368.134 70.8026 368.605 70.5412C369.077 70.277 369.628 70.1477 370.259 70.1534ZM370.263 71.4318C369.956 71.4318 369.679 71.5071 369.432 71.6577C369.188 71.8054 368.994 72.0071 368.852 72.2628C368.713 72.5156 368.643 72.7983 368.643 73.1108C368.646 73.4205 368.716 73.7017 368.852 73.9545C368.991 74.2074 369.18 74.4077 369.419 74.5554C369.661 74.7031 369.936 74.777 370.246 74.777C370.476 74.777 370.69 74.733 370.889 74.6449C371.088 74.5568 371.261 74.4347 371.409 74.2784C371.56 74.1193 371.676 73.9389 371.759 73.7372C371.844 73.5355 371.885 73.3224 371.882 73.098C371.882 72.7997 371.811 72.5241 371.669 72.2713C371.53 72.0185 371.338 71.8153 371.094 71.6619C370.852 71.5085 370.575 71.4318 370.263 71.4318ZM375.095 79L378.807 71.6534V71.5938H374.499V70.2727H380.443V71.6236L376.736 79H375.095ZM384.827 79.1193C384.409 79.1165 384.002 79.044 383.604 78.902C383.206 78.7571 382.848 78.5227 382.53 78.1989C382.212 77.8722 381.959 77.4389 381.772 76.8991C381.584 76.3565 381.492 75.6847 381.495 74.8835C381.495 74.1364 381.574 73.4702 381.733 72.8849C381.892 72.2997 382.121 71.8054 382.419 71.402C382.718 70.9957 383.077 70.6861 383.498 70.473C383.921 70.2599 384.394 70.1534 384.917 70.1534C385.465 70.1534 385.951 70.2614 386.374 70.4773C386.8 70.6932 387.144 70.9886 387.405 71.3636C387.667 71.7358 387.828 72.1562 387.891 72.625H386.336C386.256 72.2898 386.093 72.0227 385.846 71.8239C385.601 71.6222 385.292 71.5213 384.917 71.5213C384.311 71.5213 383.846 71.7841 383.519 72.3097C383.195 72.8352 383.032 73.5568 383.029 74.4744H383.088C383.228 74.2244 383.408 74.0099 383.63 73.831C383.851 73.652 384.101 73.5142 384.38 73.4176C384.661 73.3182 384.958 73.2685 385.27 73.2685C385.782 73.2685 386.24 73.3906 386.647 73.6349C387.056 73.8793 387.38 74.2159 387.618 74.6449C387.857 75.071 387.975 75.5597 387.972 76.1108C387.975 76.6847 387.844 77.2003 387.58 77.6577C387.316 78.1122 386.948 78.4702 386.476 78.7315C386.005 78.9929 385.455 79.1222 384.827 79.1193ZM384.819 77.8409C385.128 77.8409 385.405 77.7656 385.65 77.6151C385.894 77.4645 386.087 77.2614 386.229 77.0057C386.371 76.75 386.441 76.4631 386.438 76.1449C386.441 75.8324 386.373 75.5497 386.233 75.2969C386.097 75.044 385.908 74.8437 385.667 74.696C385.425 74.5483 385.15 74.4744 384.84 74.4744C384.61 74.4744 384.395 74.5185 384.196 74.6065C383.998 74.6946 383.824 74.8168 383.676 74.973C383.529 75.1264 383.412 75.3054 383.327 75.5099C383.245 75.7116 383.202 75.9276 383.199 76.1577C383.202 76.4616 383.273 76.7415 383.412 76.9972C383.551 77.2528 383.743 77.4574 383.988 77.6108C384.232 77.7642 384.509 77.8409 384.819 77.8409ZM392.446 79.1193C391.878 79.1193 391.37 79.0128 390.921 78.7997C390.472 78.5838 390.115 78.2884 389.851 77.9134C389.59 77.5384 389.451 77.1094 389.434 76.6264H390.968C390.996 76.9844 391.151 77.277 391.432 77.5043C391.713 77.7287 392.051 77.8409 392.446 77.8409C392.756 77.8409 393.032 77.7699 393.273 77.6278C393.515 77.4858 393.705 77.2884 393.844 77.0355C393.983 76.7827 394.051 76.4943 394.049 76.1705C394.051 75.8409 393.982 75.5483 393.84 75.2926C393.698 75.0369 393.503 74.8366 393.256 74.6918C393.009 74.544 392.725 74.4702 392.404 74.4702C392.142 74.4673 391.885 74.5156 391.632 74.6151C391.38 74.7145 391.179 74.8452 391.032 75.0071L389.604 74.7727L390.06 70.2727H395.123V71.5938H391.368L391.117 73.9077H391.168C391.33 73.7173 391.559 73.5597 391.854 73.4347C392.15 73.3068 392.473 73.2429 392.826 73.2429C393.354 73.2429 393.826 73.3679 394.24 73.6179C394.655 73.8651 394.982 74.206 395.221 74.6406C395.459 75.0753 395.578 75.5724 395.578 76.1321C395.578 76.7088 395.445 77.223 395.178 77.6747C394.914 78.1236 394.546 78.4773 394.074 78.7358C393.605 78.9915 393.063 79.1193 392.446 79.1193ZM397.006 79V77.858L400.036 74.8878C400.326 74.5952 400.567 74.3352 400.76 74.108C400.953 73.8807 401.098 73.6605 401.195 73.4474C401.292 73.2344 401.34 73.0071 401.34 72.7656C401.34 72.4901 401.277 72.2543 401.152 72.0582C401.027 71.8594 400.855 71.706 400.637 71.598C400.418 71.4901 400.169 71.4361 399.891 71.4361C399.604 71.4361 399.353 71.4957 399.137 71.6151C398.921 71.7315 398.753 71.8977 398.634 72.1136C398.517 72.3295 398.459 72.5866 398.459 72.8849H396.955C396.955 72.331 397.081 71.8494 397.334 71.4403C397.587 71.0312 397.935 70.7145 398.378 70.4901C398.824 70.2656 399.336 70.1534 399.912 70.1534C400.498 70.1534 401.012 70.2628 401.455 70.4815C401.898 70.7003 402.242 71 402.486 71.3807C402.733 71.7614 402.857 72.196 402.857 72.6847C402.857 73.0114 402.794 73.3324 402.669 73.6477C402.544 73.9631 402.324 74.3125 402.009 74.696C401.696 75.0795 401.257 75.544 400.692 76.0895L399.188 77.6193V77.679H402.989V79H397.006ZM404.114 77.3807V76.1236L407.817 70.2727H408.865V72.0625H408.226L405.733 76.0128V76.081H410.902V77.3807H404.114ZM408.277 79V76.9972L408.294 76.4347V70.2727H409.786V79H408.277ZM412.583 79L416.295 71.6534V71.5938H411.987V70.2727H417.931V71.6236L414.224 79H412.583ZM422.233 79.1193C421.6 79.1193 421.037 79.0128 420.546 78.7997C420.057 78.5866 419.674 78.2955 419.395 77.9261C419.12 77.554 418.983 77.1321 418.986 76.6605C418.983 76.294 419.063 75.9574 419.225 75.6506C419.387 75.3438 419.605 75.0881 419.881 74.8835C420.159 74.6761 420.469 74.544 420.81 74.4872V74.4276C420.361 74.3281 419.998 74.0994 419.719 73.7415C419.444 73.3807 419.307 72.9645 419.31 72.4929C419.307 72.044 419.432 71.6435 419.685 71.2912C419.938 70.9389 420.284 70.6619 420.725 70.4602C421.165 70.2557 421.668 70.1534 422.233 70.1534C422.793 70.1534 423.292 70.2557 423.729 70.4602C424.169 70.6619 424.516 70.9389 424.769 71.2912C425.025 71.6435 425.152 72.044 425.152 72.4929C425.152 72.9645 425.012 73.3807 424.73 73.7415C424.452 74.0994 424.093 74.3281 423.652 74.4276V74.4872C423.993 74.544 424.3 74.6761 424.573 74.8835C424.848 75.0881 425.067 75.3438 425.229 75.6506C425.394 75.9574 425.476 76.294 425.476 76.6605C425.476 77.1321 425.337 77.554 425.059 77.9261C424.78 78.2955 424.397 78.5866 423.908 78.7997C423.422 79.0128 422.864 79.1193 422.233 79.1193ZM422.233 77.9006C422.56 77.9006 422.844 77.8452 423.086 77.7344C423.327 77.6207 423.515 77.4616 423.648 77.2571C423.782 77.0526 423.85 76.8168 423.853 76.5497C423.85 76.2713 423.777 76.0256 423.635 75.8125C423.496 75.5966 423.304 75.4276 423.06 75.3054C422.819 75.1832 422.543 75.1222 422.233 75.1222C421.921 75.1222 421.642 75.1832 421.398 75.3054C421.154 75.4276 420.961 75.5966 420.819 75.8125C420.679 76.0256 420.611 76.2713 420.614 76.5497C420.611 76.8168 420.676 77.0526 420.81 77.2571C420.944 77.4588 421.131 77.6165 421.373 77.7301C421.617 77.8437 421.904 77.9006 422.233 77.9006ZM422.233 73.9247C422.5 73.9247 422.736 73.8707 422.941 73.7628C423.148 73.6548 423.311 73.5043 423.431 73.3111C423.55 73.1179 423.611 72.8949 423.614 72.642C423.611 72.392 423.551 72.1733 423.435 71.9858C423.319 71.7955 423.157 71.6491 422.949 71.5469C422.742 71.4418 422.503 71.3892 422.233 71.3892C421.958 71.3892 421.715 71.4418 421.505 71.5469C421.297 71.6491 421.135 71.7955 421.019 71.9858C420.905 72.1733 420.85 72.392 420.853 72.642C420.85 72.8949 420.907 73.1179 421.023 73.3111C421.142 73.5014 421.306 73.652 421.513 73.7628C421.723 73.8707 421.963 73.9247 422.233 73.9247Z" fill="#757380"/>
<path d="M186.538 41.6172C186.491 41.183 186.296 40.8449 185.951 40.603C185.61 40.361 185.165 40.2401 184.619 40.2401C184.234 40.2401 183.904 40.2981 183.629 40.4141C183.354 40.5301 183.144 40.6875 182.998 40.8864C182.852 41.0852 182.777 41.3123 182.774 41.5675C182.774 41.7796 182.822 41.9635 182.918 42.1193C183.018 42.2751 183.152 42.4077 183.321 42.517C183.49 42.6231 183.677 42.7126 183.883 42.7855C184.088 42.8584 184.295 42.9197 184.504 42.9695L185.459 43.2081C185.843 43.2976 186.213 43.4186 186.567 43.571C186.925 43.7235 187.245 43.9157 187.527 44.1477C187.812 44.3797 188.037 44.6598 188.203 44.9879C188.369 45.3161 188.452 45.7005 188.452 46.1413C188.452 46.7379 188.299 47.2633 187.994 47.7173C187.689 48.1681 187.249 48.5211 186.672 48.7763C186.098 49.0282 185.404 49.1541 184.589 49.1541C183.797 49.1541 183.109 49.0315 182.526 48.7862C181.946 48.541 181.491 48.183 181.163 47.7124C180.839 47.2417 180.663 46.6683 180.636 45.9922H182.451C182.478 46.3468 182.587 46.6418 182.779 46.8771C182.971 47.1125 183.222 47.2881 183.53 47.4041C183.841 47.5201 184.189 47.5781 184.574 47.5781C184.975 47.5781 185.326 47.5185 185.628 47.3991C185.933 47.2765 186.171 47.1075 186.344 46.892C186.516 46.6733 186.604 46.4181 186.607 46.1264C186.604 45.8613 186.526 45.6425 186.374 45.4702C186.221 45.2945 186.007 45.1487 185.732 45.0327C185.46 44.9134 185.142 44.8073 184.778 44.7145L183.619 44.4162C182.781 44.2008 182.118 43.8743 181.631 43.4368C181.147 42.996 180.905 42.411 180.905 41.6818C180.905 41.0819 181.067 40.5566 181.392 40.1058C181.72 39.6551 182.166 39.3054 182.729 39.0568C183.293 38.8049 183.931 38.679 184.643 38.679C185.366 38.679 185.999 38.8049 186.543 39.0568C187.089 39.3054 187.519 39.6518 187.83 40.0959C188.142 40.5367 188.303 41.0438 188.312 41.6172H186.538ZM193.347 49.1491C192.602 49.1491 191.955 48.9851 191.409 48.657C190.862 48.3288 190.437 47.8698 190.136 47.2798C189.838 46.6899 189.688 46.0005 189.688 45.2116C189.688 44.4228 189.838 43.7318 190.136 43.1385C190.437 42.5452 190.862 42.0845 191.409 41.7564C191.955 41.4283 192.602 41.2642 193.347 41.2642C194.093 41.2642 194.74 41.4283 195.286 41.7564C195.833 42.0845 196.256 42.5452 196.554 43.1385C196.856 43.7318 197.007 44.4228 197.007 45.2116C197.007 46.0005 196.856 46.6899 196.554 47.2798C196.256 47.8698 195.833 48.3288 195.286 48.657C194.74 48.9851 194.093 49.1491 193.347 49.1491ZM193.357 47.7074C193.762 47.7074 194.1 47.5964 194.372 47.3743C194.643 47.1489 194.846 46.8473 194.978 46.4695C195.114 46.0916 195.182 45.6707 195.182 45.2067C195.182 44.7393 195.114 44.3168 194.978 43.9389C194.846 43.5578 194.643 43.2545 194.372 43.0291C194.1 42.8037 193.762 42.6911 193.357 42.6911C192.943 42.6911 192.598 42.8037 192.323 43.0291C192.052 43.2545 191.848 43.5578 191.712 43.9389C191.579 44.3168 191.513 44.7393 191.513 45.2067C191.513 45.6707 191.579 46.0916 191.712 46.4695C191.848 46.8473 192.052 47.1489 192.323 47.3743C192.598 47.5964 192.943 47.7074 193.357 47.7074ZM198.534 51.8636V41.3636H200.304V42.6264H200.408C200.501 42.4408 200.632 42.2436 200.801 42.0348C200.97 41.8227 201.199 41.642 201.487 41.4929C201.776 41.3404 202.143 41.2642 202.591 41.2642C203.181 41.2642 203.713 41.415 204.187 41.7166C204.664 42.0149 205.042 42.4574 205.32 43.044C205.602 43.6274 205.743 44.3433 205.743 45.1918C205.743 46.0303 205.605 46.7429 205.33 47.3295C205.055 47.9162 204.681 48.3636 204.207 48.6719C203.733 48.9801 203.196 49.1342 202.596 49.1342C202.158 49.1342 201.795 49.0613 201.507 48.9155C201.219 48.7696 200.987 48.594 200.811 48.3885C200.639 48.1797 200.504 47.9825 200.408 47.7969H200.334V51.8636H198.534ZM200.299 45.1818C200.299 45.6757 200.369 46.1082 200.508 46.4794C200.65 46.8506 200.854 47.1406 201.119 47.3494C201.388 47.5549 201.713 47.6577 202.094 47.6577C202.491 47.6577 202.825 47.5516 203.093 47.3395C203.362 47.1241 203.564 46.8307 203.7 46.4595C203.839 46.085 203.908 45.6591 203.908 45.1818C203.908 44.7079 203.84 44.2869 203.705 43.919C203.569 43.5511 203.366 43.2628 203.098 43.054C202.83 42.8452 202.495 42.7408 202.094 42.7408C201.709 42.7408 201.383 42.8419 201.114 43.044C200.846 43.2462 200.642 43.5296 200.503 43.8942C200.367 44.2588 200.299 44.688 200.299 45.1818ZM210.615 49.1491C209.869 49.1491 209.223 48.9851 208.676 48.657C208.129 48.3288 207.705 47.8698 207.403 47.2798C207.105 46.6899 206.956 46.0005 206.956 45.2116C206.956 44.4228 207.105 43.7318 207.403 43.1385C207.705 42.5452 208.129 42.0845 208.676 41.7564C209.223 41.4283 209.869 41.2642 210.615 41.2642C211.361 41.2642 212.007 41.4283 212.554 41.7564C213.101 42.0845 213.523 42.5452 213.822 43.1385C214.123 43.7318 214.274 44.4228 214.274 45.2116C214.274 46.0005 214.123 46.6899 213.822 47.2798C213.523 47.8698 213.101 48.3288 212.554 48.657C212.007 48.9851 211.361 49.1491 210.615 49.1491ZM210.625 47.7074C211.029 47.7074 211.367 47.5964 211.639 47.3743C211.911 47.1489 212.113 46.8473 212.246 46.4695C212.382 46.0916 212.45 45.6707 212.45 45.2067C212.45 44.7393 212.382 44.3168 212.246 43.9389C212.113 43.5578 211.911 43.2545 211.639 43.0291C211.367 42.8037 211.029 42.6911 210.625 42.6911C210.211 42.6911 209.866 42.8037 209.591 43.0291C209.319 43.2545 209.115 43.5578 208.979 43.9389C208.847 44.3168 208.781 44.7393 208.781 45.2067C208.781 45.6707 208.847 46.0916 208.979 46.4695C209.115 46.8473 209.319 47.1489 209.591 47.3743C209.866 47.5964 210.211 47.7074 210.625 47.7074ZM215.802 49V41.3636H217.547V42.6364H217.626C217.765 42.1955 218.004 41.8558 218.342 41.6172C218.684 41.3752 219.073 41.2543 219.51 41.2543C219.61 41.2543 219.721 41.2592 219.844 41.2692C219.97 41.2758 220.074 41.2874 220.157 41.304V42.9595C220.081 42.933 219.96 42.9098 219.794 42.8899C219.631 42.8667 219.474 42.8551 219.322 42.8551C218.993 42.8551 218.698 42.9264 218.437 43.0689C218.178 43.2081 217.974 43.402 217.825 43.6506C217.676 43.8991 217.601 44.1858 217.601 44.5107V49H215.802ZM225.576 41.3636V42.7557H221.186V41.3636H225.576ZM222.27 39.5341H224.069V46.7031C224.069 46.9451 224.106 47.1307 224.179 47.2599C224.255 47.3859 224.354 47.4721 224.477 47.5185C224.6 47.5649 224.736 47.5881 224.885 47.5881C224.997 47.5881 225.1 47.5798 225.193 47.5632C225.289 47.5466 225.362 47.5317 225.412 47.5185L225.715 48.9254C225.619 48.9586 225.481 48.995 225.302 49.0348C225.127 49.0746 224.911 49.0978 224.656 49.1044C224.205 49.1177 223.799 49.0497 223.438 48.9006C223.077 48.7481 222.79 48.5128 222.578 48.1946C222.369 47.8764 222.266 47.4787 222.27 47.0014V39.5341ZM230.38 49.1491C229.614 49.1491 228.953 48.9901 228.396 48.6719C227.842 48.3504 227.417 47.8963 227.118 47.3097C226.82 46.7197 226.671 46.0253 226.671 45.2266C226.671 44.4411 226.82 43.7517 227.118 43.1584C227.42 42.5618 227.841 42.0978 228.381 41.7663C228.921 41.4316 229.556 41.2642 230.285 41.2642C230.756 41.2642 231.2 41.3404 231.618 41.4929C232.038 41.642 232.41 41.8741 232.731 42.1889C233.056 42.5038 233.311 42.9048 233.497 43.392C233.682 43.8759 233.775 44.4527 233.775 45.1222V45.674H227.516V44.4609H232.05C232.047 44.1162 231.972 43.8097 231.826 43.5412C231.681 43.2694 231.477 43.0556 231.215 42.8999C230.956 42.7441 230.655 42.6662 230.31 42.6662C229.942 42.6662 229.619 42.7557 229.341 42.9347C229.062 43.1103 228.845 43.3423 228.689 43.6307C228.537 43.9157 228.459 44.2289 228.456 44.5703V45.6293C228.456 46.0734 228.537 46.4545 228.699 46.7727C228.862 47.0876 229.089 47.3295 229.38 47.4986C229.672 47.6643 230.013 47.7472 230.404 47.7472C230.666 47.7472 230.903 47.7107 231.115 47.6378C231.328 47.5616 231.511 47.4505 231.667 47.3047C231.823 47.1589 231.941 46.9782 232.02 46.7628L233.701 46.9517C233.595 47.3958 233.392 47.7836 233.094 48.1151C232.799 48.4432 232.421 48.6984 231.961 48.8807C231.5 49.0597 230.973 49.1491 230.38 49.1491ZM238.77 49V41.3636H240.491V42.6612H240.58C240.739 42.2237 241.003 41.8823 241.371 41.6371C241.738 41.3885 242.178 41.2642 242.688 41.2642C243.205 41.2642 243.641 41.3902 243.996 41.642C244.354 41.8906 244.605 42.2304 244.751 42.6612H244.831C245 42.237 245.285 41.8989 245.686 41.647C246.09 41.3918 246.569 41.2642 247.123 41.2642C247.825 41.2642 248.399 41.4863 248.843 41.9304C249.287 42.3745 249.509 43.0225 249.509 43.8743V49H247.704V44.1527C247.704 43.6787 247.578 43.3324 247.327 43.1136C247.075 42.8916 246.766 42.7805 246.402 42.7805C245.968 42.7805 245.628 42.9164 245.383 43.1882C245.141 43.4567 245.02 43.8063 245.02 44.2372V49H243.255V44.0781C243.255 43.6837 243.135 43.3688 242.897 43.1335C242.662 42.8982 242.353 42.7805 241.972 42.7805C241.714 42.7805 241.478 42.8468 241.266 42.9794C241.054 43.1087 240.885 43.2926 240.759 43.5312C240.633 43.7666 240.57 44.0417 240.57 44.3565V49H238.77ZM254.666 49.1491C253.92 49.1491 253.274 48.9851 252.727 48.657C252.18 48.3288 251.756 47.8698 251.454 47.2798C251.156 46.6899 251.007 46.0005 251.007 45.2116C251.007 44.4228 251.156 43.7318 251.454 43.1385C251.756 42.5452 252.18 42.0845 252.727 41.7564C253.274 41.4283 253.92 41.2642 254.666 41.2642C255.412 41.2642 256.058 41.4283 256.605 41.7564C257.152 42.0845 257.574 42.5452 257.873 43.1385C258.174 43.7318 258.325 44.4228 258.325 45.2116C258.325 46.0005 258.174 46.6899 257.873 47.2798C257.574 47.8698 257.152 48.3288 256.605 48.657C256.058 48.9851 255.412 49.1491 254.666 49.1491ZM254.676 47.7074C255.08 47.7074 255.418 47.5964 255.69 47.3743C255.962 47.1489 256.164 46.8473 256.297 46.4695C256.432 46.0916 256.5 45.6707 256.5 45.2067C256.5 44.7393 256.432 44.3168 256.297 43.9389C256.164 43.5578 255.962 43.2545 255.69 43.0291C255.418 42.8037 255.08 42.6911 254.676 42.6911C254.261 42.6911 253.917 42.8037 253.642 43.0291C253.37 43.2545 253.166 43.5578 253.03 43.9389C252.898 44.3168 252.831 44.7393 252.831 45.2067C252.831 45.6707 252.898 46.0916 253.03 46.4695C253.166 46.8473 253.37 47.1489 253.642 47.3743C253.917 47.5964 254.261 47.7074 254.676 47.7074ZM263.666 41.3636V42.7557H259.276V41.3636H263.666ZM260.36 39.5341H262.159V46.7031C262.159 46.9451 262.196 47.1307 262.269 47.2599C262.345 47.3859 262.444 47.4721 262.567 47.5185C262.69 47.5649 262.825 47.5881 262.975 47.5881C263.087 47.5881 263.19 47.5798 263.283 47.5632C263.379 47.5466 263.452 47.5317 263.502 47.5185L263.805 48.9254C263.709 48.9586 263.571 48.995 263.392 49.0348C263.217 49.0746 263.001 49.0978 262.746 49.1044C262.295 49.1177 261.889 49.0497 261.528 48.9006C261.167 48.7481 260.88 48.5128 260.668 48.1946C260.459 47.8764 260.356 47.4787 260.36 47.0014V39.5341ZM268.42 49.1491C267.674 49.1491 267.028 48.9851 266.481 48.657C265.934 48.3288 265.51 47.8698 265.208 47.2798C264.91 46.6899 264.761 46.0005 264.761 45.2116C264.761 44.4228 264.91 43.7318 265.208 43.1385C265.51 42.5452 265.934 42.0845 266.481 41.7564C267.028 41.4283 267.674 41.2642 268.42 41.2642C269.165 41.2642 269.812 41.4283 270.359 41.7564C270.906 42.0845 271.328 42.5452 271.626 43.1385C271.928 43.7318 272.079 44.4228 272.079 45.2116C272.079 46.0005 271.928 46.6899 271.626 47.2798C271.328 47.8698 270.906 48.3288 270.359 48.657C269.812 48.9851 269.165 49.1491 268.42 49.1491ZM268.43 47.7074C268.834 47.7074 269.172 47.5964 269.444 47.3743C269.716 47.1489 269.918 46.8473 270.05 46.4695C270.186 46.0916 270.254 45.6707 270.254 45.2067C270.254 44.7393 270.186 44.3168 270.05 43.9389C269.918 43.5578 269.716 43.2545 269.444 43.0291C269.172 42.8037 268.834 42.6911 268.43 42.6911C268.015 42.6911 267.671 42.8037 267.396 43.0291C267.124 43.2545 266.92 43.5578 266.784 43.9389C266.652 44.3168 266.585 44.7393 266.585 45.2067C266.585 45.6707 266.652 46.0916 266.784 46.4695C266.92 46.8473 267.124 47.1489 267.396 47.3743C267.671 47.5964 268.015 47.7074 268.43 47.7074ZM273.606 49V41.3636H275.351V42.6364H275.431C275.57 42.1955 275.809 41.8558 276.147 41.6172C276.488 41.3752 276.878 41.2543 277.315 41.2543C277.415 41.2543 277.526 41.2592 277.648 41.2692C277.774 41.2758 277.879 41.2874 277.961 41.304V42.9595C277.885 42.933 277.764 42.9098 277.599 42.8899C277.436 42.8667 277.279 42.8551 277.126 42.8551C276.798 42.8551 276.503 42.9264 276.241 43.0689C275.983 43.2081 275.779 43.402 275.63 43.6506C275.481 43.8991 275.406 44.1858 275.406 44.5107V49H273.606ZM283.748 51.8636C283.503 51.8636 283.276 51.8438 283.067 51.804C282.862 51.7675 282.698 51.7244 282.575 51.6747L282.993 50.2727C283.255 50.349 283.488 50.3854 283.694 50.3821C283.899 50.3788 284.08 50.3142 284.236 50.1882C284.395 50.0656 284.529 49.8601 284.638 49.5717L284.792 49.1591L282.023 41.3636H283.932L285.692 47.1307H285.772L287.537 41.3636H289.451L286.393 49.9247C286.251 50.3291 286.062 50.6754 285.827 50.9638C285.591 51.2554 285.303 51.4775 284.961 51.63C284.623 51.7857 284.219 51.8636 283.748 51.8636ZM297.5 49.1491C296.738 49.1491 296.083 48.9818 295.536 48.647C294.992 48.3123 294.573 47.8499 294.278 47.2599C293.987 46.6667 293.841 45.9839 293.841 45.2116C293.841 44.4361 293.99 43.7517 294.288 43.1584C294.586 42.5618 295.007 42.0978 295.551 41.7663C296.098 41.4316 296.744 41.2642 297.49 41.2642C298.11 41.2642 298.658 41.3786 299.135 41.6072C299.616 41.8326 299.999 42.1525 300.284 42.5668C300.569 42.9777 300.731 43.4583 300.771 44.0085H299.051C298.981 43.6406 298.816 43.334 298.554 43.0888C298.295 42.8402 297.949 42.7159 297.515 42.7159C297.147 42.7159 296.824 42.8153 296.545 43.0142C296.267 43.2098 296.05 43.4915 295.894 43.8594C295.742 44.2273 295.665 44.6681 295.665 45.1818C295.665 45.7022 295.742 46.1496 295.894 46.5241C296.046 46.8954 296.26 47.1821 296.535 47.3842C296.814 47.5831 297.14 47.6825 297.515 47.6825C297.78 47.6825 298.017 47.6328 298.226 47.5334C298.438 47.4306 298.615 47.2831 298.758 47.0909C298.9 46.8987 298.998 46.665 299.051 46.3899H300.771C300.728 46.9302 300.569 47.4091 300.294 47.8267C300.019 48.241 299.644 48.5658 299.17 48.8011C298.696 49.0331 298.14 49.1491 297.5 49.1491ZM304.446 49.1541C303.962 49.1541 303.527 49.0679 303.139 48.8956C302.754 48.7199 302.449 48.4614 302.224 48.12C302.002 47.7786 301.891 47.3577 301.891 46.8572C301.891 46.4264 301.971 46.0701 302.13 45.7884C302.289 45.5066 302.506 45.2812 302.781 45.1122C303.056 44.9432 303.366 44.8156 303.711 44.7294C304.059 44.6399 304.418 44.5753 304.789 44.5355C305.237 44.4891 305.6 44.4477 305.878 44.4112C306.157 44.3714 306.359 44.3118 306.485 44.2322C306.614 44.1494 306.679 44.0218 306.679 43.8494V43.8196C306.679 43.4451 306.568 43.1551 306.346 42.9496C306.123 42.7441 305.804 42.6413 305.386 42.6413C304.945 42.6413 304.596 42.7375 304.337 42.9297C304.082 43.1219 303.909 43.349 303.82 43.6108L302.14 43.3722C302.272 42.9081 302.491 42.5204 302.796 42.2088C303.101 41.8939 303.474 41.6586 303.914 41.5028C304.355 41.3438 304.842 41.2642 305.376 41.2642C305.744 41.2642 306.11 41.3073 306.475 41.3935C306.839 41.4796 307.172 41.6222 307.474 41.821C307.776 42.0166 308.018 42.2834 308.2 42.6214C308.386 42.9595 308.478 43.3821 308.478 43.8892V49H306.748V47.951H306.689C306.579 48.1631 306.425 48.362 306.226 48.5476C306.031 48.7299 305.784 48.8774 305.485 48.9901C305.19 49.0994 304.844 49.1541 304.446 49.1541ZM304.914 47.8317C305.275 47.8317 305.588 47.7604 305.853 47.6179C306.118 47.4721 306.322 47.2798 306.465 47.0412C306.611 46.8026 306.684 46.5424 306.684 46.2607V45.3608C306.627 45.4072 306.531 45.4503 306.395 45.4901C306.263 45.5298 306.114 45.5646 305.948 45.5945C305.782 45.6243 305.618 45.6508 305.456 45.674C305.293 45.6972 305.152 45.7171 305.033 45.7337C304.765 45.7701 304.524 45.8298 304.312 45.9126C304.1 45.9955 303.933 46.1115 303.81 46.2607C303.687 46.4065 303.626 46.5954 303.626 46.8274C303.626 47.1589 303.747 47.4091 303.989 47.5781C304.231 47.7472 304.539 47.8317 304.914 47.8317ZM310.288 41.3636H312.088V49.4375C312.088 49.9877 311.983 50.4418 311.775 50.7997C311.566 51.1577 311.264 51.4245 310.87 51.6001C310.475 51.7758 309.996 51.8636 309.433 51.8636C309.367 51.8636 309.305 51.862 309.249 51.8587C309.193 51.8587 309.131 51.857 309.065 51.8537V50.3871C309.115 50.3904 309.159 50.392 309.199 50.392C309.239 50.3954 309.28 50.397 309.324 50.397C309.668 50.397 309.915 50.3125 310.064 50.1435C310.213 49.9777 310.288 49.7341 310.288 49.4126V41.3636ZM311.183 40.2798C310.895 40.2798 310.648 40.1854 310.442 39.9964C310.24 39.8042 310.139 39.5739 310.139 39.3054C310.139 39.0336 310.24 38.8033 310.442 38.6143C310.648 38.4221 310.895 38.326 311.183 38.326C311.468 38.326 311.712 38.4221 311.914 38.6143C312.119 38.8033 312.222 39.0336 312.222 39.3054C312.222 39.5739 312.119 39.8042 311.914 39.9964C311.712 40.1854 311.468 40.2798 311.183 40.2798ZM316.136 49.1541C315.652 49.1541 315.216 49.0679 314.828 48.8956C314.444 48.7199 314.139 48.4614 313.914 48.12C313.691 47.7786 313.58 47.3577 313.58 46.8572C313.58 46.4264 313.66 46.0701 313.819 45.7884C313.978 45.5066 314.195 45.2812 314.47 45.1122C314.745 44.9432 315.055 44.8156 315.4 44.7294C315.748 44.6399 316.108 44.5753 316.479 44.5355C316.926 44.4891 317.289 44.4477 317.568 44.4112C317.846 44.3714 318.048 44.3118 318.174 44.2322C318.303 44.1494 318.368 44.0218 318.368 43.8494V43.8196C318.368 43.4451 318.257 43.1551 318.035 42.9496C317.813 42.7441 317.493 42.6413 317.075 42.6413C316.635 42.6413 316.285 42.7375 316.026 42.9297C315.771 43.1219 315.599 43.349 315.509 43.6108L313.829 43.3722C313.962 42.9081 314.18 42.5204 314.485 42.2088C314.79 41.8939 315.163 41.6586 315.604 41.5028C316.045 41.3438 316.532 41.2642 317.066 41.2642C317.433 41.2642 317.8 41.3073 318.164 41.3935C318.529 41.4796 318.862 41.6222 319.164 41.821C319.465 42.0166 319.707 42.2834 319.889 42.6214C320.075 42.9595 320.168 43.3821 320.168 43.8892V49H318.438V47.951H318.378C318.269 48.1631 318.115 48.362 317.916 48.5476C317.72 48.7299 317.473 48.8774 317.175 48.9901C316.88 49.0994 316.534 49.1541 316.136 49.1541ZM316.603 47.8317C316.964 47.8317 317.278 47.7604 317.543 47.6179C317.808 47.4721 318.012 47.2798 318.154 47.0412C318.3 46.8026 318.373 46.5424 318.373 46.2607V45.3608C318.317 45.4072 318.221 45.4503 318.085 45.4901C317.952 45.5298 317.803 45.5646 317.637 45.5945C317.472 45.6243 317.307 45.6508 317.145 45.674C316.983 45.6972 316.842 45.7171 316.722 45.7337C316.454 45.7701 316.214 45.8298 316.002 45.9126C315.789 45.9955 315.622 46.1115 315.499 46.2607C315.377 46.4065 315.316 46.5954 315.316 46.8274C315.316 47.1589 315.436 47.4091 315.678 47.5781C315.92 47.7472 316.229 47.8317 316.603 47.8317ZM325.53 49V38.8182H327.374V43.1286H332.092V38.8182H333.942V49H332.092V44.6747H327.374V49H325.53ZM339.199 49.1491C338.453 49.1491 337.807 48.9851 337.26 48.657C336.713 48.3288 336.289 47.8698 335.987 47.2798C335.689 46.6899 335.54 46.0005 335.54 45.2116C335.54 44.4228 335.689 43.7318 335.987 43.1385C336.289 42.5452 336.713 42.0845 337.26 41.7564C337.807 41.4283 338.453 41.2642 339.199 41.2642C339.945 41.2642 340.591 41.4283 341.138 41.7564C341.685 42.0845 342.107 42.5452 342.406 43.1385C342.707 43.7318 342.858 44.4228 342.858 45.2116C342.858 46.0005 342.707 46.6899 342.406 47.2798C342.107 47.8698 341.685 48.3288 341.138 48.657C340.591 48.9851 339.945 49.1491 339.199 49.1491ZM339.209 47.7074C339.613 47.7074 339.951 47.5964 340.223 47.3743C340.495 47.1489 340.697 46.8473 340.83 46.4695C340.966 46.0916 341.034 45.6707 341.034 45.2067C341.034 44.7393 340.966 44.3168 340.83 43.9389C340.697 43.5578 340.495 43.2545 340.223 43.0291C339.951 42.8037 339.613 42.6911 339.209 42.6911C338.795 42.6911 338.45 42.8037 338.175 43.0291C337.903 43.2545 337.699 43.5578 337.563 43.9389C337.431 44.3168 337.365 44.7393 337.365 45.2067C337.365 45.6707 337.431 46.0916 337.563 46.4695C337.699 46.8473 337.903 47.1489 338.175 47.3743C338.45 47.5964 338.795 47.7074 339.209 47.7074ZM346.185 44.5256V49H344.386V41.3636H346.106V42.6612H346.195C346.371 42.2337 346.651 41.8939 347.036 41.642C347.423 41.3902 347.902 41.2642 348.472 41.2642C348.999 41.2642 349.458 41.3769 349.849 41.6023C350.244 41.8277 350.549 42.1541 350.764 42.5817C350.983 43.0092 351.091 43.5279 351.087 44.1378V49H349.288V44.4162C349.288 43.9058 349.155 43.5064 348.89 43.218C348.628 42.9297 348.265 42.7855 347.801 42.7855C347.486 42.7855 347.206 42.8551 346.961 42.9943C346.719 43.1302 346.528 43.3274 346.389 43.5859C346.253 43.8445 346.185 44.1577 346.185 44.5256ZM355.751 49.1342C355.151 49.1342 354.614 48.9801 354.14 48.6719C353.666 48.3636 353.291 47.9162 353.016 47.3295C352.741 46.7429 352.604 46.0303 352.604 45.1918C352.604 44.3433 352.743 43.6274 353.021 43.044C353.303 42.4574 353.683 42.0149 354.16 41.7166C354.637 41.415 355.169 41.2642 355.756 41.2642C356.203 41.2642 356.571 41.3404 356.859 41.4929C357.148 41.642 357.376 41.8227 357.545 42.0348C357.714 42.2436 357.845 42.4408 357.938 42.6264H358.013V38.8182H359.817V49H358.048V47.7969H357.938C357.845 47.9825 357.711 48.1797 357.536 48.3885C357.36 48.594 357.128 48.7696 356.839 48.9155C356.551 49.0613 356.188 49.1342 355.751 49.1342ZM356.253 47.6577C356.634 47.6577 356.959 47.5549 357.227 47.3494C357.496 47.1406 357.7 46.8506 357.839 46.4794C357.978 46.1082 358.048 45.6757 358.048 45.1818C358.048 44.688 357.978 44.2588 357.839 43.8942C357.703 43.5296 357.501 43.2462 357.232 43.044C356.967 42.8419 356.641 42.7408 356.253 42.7408C355.852 42.7408 355.517 42.8452 355.249 43.054C354.98 43.2628 354.778 43.5511 354.642 43.919C354.506 44.2869 354.438 44.7079 354.438 45.1818C354.438 45.6591 354.506 46.085 354.642 46.4595C354.781 46.8307 354.985 47.1241 355.254 47.3395C355.525 47.5516 355.858 47.6577 356.253 47.6577ZM363.933 49.1541C363.449 49.1541 363.013 49.0679 362.625 48.8956C362.241 48.7199 361.936 48.4614 361.71 48.12C361.488 47.7786 361.377 47.3577 361.377 46.8572C361.377 46.4264 361.457 46.0701 361.616 45.7884C361.775 45.5066 361.992 45.2812 362.267 45.1122C362.542 44.9432 362.852 44.8156 363.197 44.7294C363.545 44.6399 363.905 44.5753 364.276 44.5355C364.723 44.4891 365.086 44.4477 365.365 44.4112C365.643 44.3714 365.845 44.3118 365.971 44.2322C366.1 44.1494 366.165 44.0218 366.165 43.8494V43.8196C366.165 43.4451 366.054 43.1551 365.832 42.9496C365.61 42.7441 365.29 42.6413 364.872 42.6413C364.432 42.6413 364.082 42.7375 363.823 42.9297C363.568 43.1219 363.396 43.349 363.306 43.6108L361.626 43.3722C361.758 42.9081 361.977 42.5204 362.282 42.2088C362.587 41.8939 362.96 41.6586 363.401 41.5028C363.842 41.3438 364.329 41.2642 364.862 41.2642C365.23 41.2642 365.597 41.3073 365.961 41.3935C366.326 41.4796 366.659 41.6222 366.96 41.821C367.262 42.0166 367.504 42.2834 367.686 42.6214C367.872 42.9595 367.965 43.3821 367.965 43.8892V49H366.235V47.951H366.175C366.066 48.1631 365.911 48.362 365.713 48.5476C365.517 48.7299 365.27 48.8774 364.972 48.9901C364.677 49.0994 364.33 49.1541 363.933 49.1541ZM364.4 47.8317C364.761 47.8317 365.075 47.7604 365.34 47.6179C365.605 47.4721 365.809 47.2798 365.951 47.0412C366.097 46.8026 366.17 46.5424 366.17 46.2607V45.3608C366.114 45.4072 366.017 45.4503 365.882 45.4901C365.749 45.5298 365.6 45.5646 365.434 45.5945C365.268 45.6243 365.104 45.6508 364.942 45.674C364.78 45.6972 364.639 45.7171 364.519 45.7337C364.251 45.7701 364.011 45.8298 363.798 45.9126C363.586 45.9955 363.419 46.1115 363.296 46.2607C363.174 46.4065 363.112 46.5954 363.112 46.8274C363.112 47.1589 363.233 47.4091 363.475 47.5781C363.717 47.7472 364.026 47.8317 364.4 47.8317Z" fill="#5F259F"/>
<rect x="140" y="31" width="26" height="26" rx="7" fill="#F9F8FE"/>
<path d="M158.667 40.8518L153 44M153 44L147.333 40.8518M153 44L153 50.3333M159 46.7057V41.2943C159 41.0659 159 40.9517 158.966 40.8498C158.937 40.7597 158.888 40.677 158.824 40.6072C158.751 40.5283 158.651 40.4728 158.451 40.3619L153.518 37.6211C153.329 37.5161 153.234 37.4636 153.134 37.443C153.046 37.4248 152.954 37.4248 152.866 37.443C152.766 37.4636 152.671 37.5161 152.482 37.6211L147.549 40.3619C147.349 40.4728 147.249 40.5283 147.176 40.6072C147.112 40.677 147.063 40.7597 147.034 40.8498C147 40.9517 147 41.0659 147 41.2943V46.7057C147 46.9341 147 47.0484 147.034 47.1502C147.063 47.2403 147.112 47.3231 147.176 47.3929C147.249 47.4718 147.349 47.5272 147.549 47.6382L152.482 50.3789C152.671 50.4839 152.766 50.5365 152.866 50.557C152.954 50.5753 153.046 50.5753 153.134 50.557C153.234 50.5365 153.329 50.4839 153.518 50.3789L158.451 47.6382C158.651 47.5272 158.751 47.4718 158.824 47.3929C158.888 47.3231 158.937 47.2403 158.966 47.1502C159 47.0484 159 46.9341 159 46.7057Z" stroke="#C896FA" stroke-width="1.5" stroke-linecap="round" stroke-linejoin="round"/>
<path d="M156 42.3333L150 39" stroke="#C896FA" stroke-width="1.5" stroke-linecap="round" stroke-linejoin="round"/>
<rect x="524" y="27" width="154" height="61" rx="10" fill="#F9F8FE"/>
<path d="M583.309 49V41.7273H587.968V42.8317H584.627V44.8061H587.649V45.9105H584.627V49H583.309ZM590.632 49.1101C590.287 49.1101 589.975 49.0485 589.699 48.9254C589.424 48.8 589.206 48.6153 589.045 48.3714C588.886 48.1276 588.807 47.8269 588.807 47.4695C588.807 47.1617 588.864 46.9072 588.978 46.706C589.091 46.5047 589.246 46.3438 589.443 46.223C589.639 46.1023 589.861 46.0111 590.107 45.9496C590.355 45.8857 590.612 45.8395 590.877 45.8111C591.197 45.7779 591.456 45.7483 591.655 45.7223C591.854 45.6939 591.998 45.6513 592.088 45.5945C592.181 45.5353 592.227 45.4441 592.227 45.321V45.2997C592.227 45.0322 592.148 44.825 591.989 44.6783C591.83 44.5315 591.602 44.4581 591.304 44.4581C590.989 44.4581 590.739 44.5268 590.554 44.6641C590.372 44.8014 590.249 44.9635 590.185 45.1506L588.985 44.9801C589.079 44.6487 589.236 44.3717 589.453 44.1491C589.671 43.9242 589.938 43.7562 590.252 43.6449C590.567 43.5312 590.915 43.4744 591.297 43.4744C591.559 43.4744 591.821 43.5052 592.081 43.5668C592.342 43.6283 592.58 43.7301 592.795 43.8722C593.011 44.0118 593.183 44.2024 593.314 44.4439C593.446 44.6854 593.512 44.9872 593.512 45.3494V49H592.277V48.2507H592.234C592.156 48.4022 592.046 48.5443 591.904 48.6768C591.764 48.8071 591.588 48.9124 591.375 48.9929C591.164 49.071 590.917 49.1101 590.632 49.1101ZM590.966 48.1655C591.224 48.1655 591.448 48.1146 591.637 48.0128C591.827 47.9086 591.972 47.7713 592.074 47.6009C592.178 47.4304 592.23 47.2446 592.23 47.0433V46.4006C592.19 46.4337 592.122 46.4645 592.025 46.4929C591.93 46.5213 591.823 46.5462 591.705 46.5675C591.587 46.5888 591.469 46.6077 591.353 46.6243C591.237 46.6409 591.137 46.6551 591.051 46.6669C590.86 46.6929 590.688 46.7356 590.537 46.7947C590.385 46.8539 590.266 46.9368 590.178 47.0433C590.09 47.1475 590.047 47.2824 590.047 47.4482C590.047 47.6849 590.133 47.8636 590.306 47.9844C590.479 48.1051 590.699 48.1655 590.966 48.1655ZM597.184 49.1065C596.64 49.1065 596.172 48.987 595.782 48.7479C595.393 48.5088 595.094 48.1785 594.883 47.7571C594.675 47.3333 594.571 46.8456 594.571 46.294C594.571 45.7401 594.677 45.2512 594.89 44.8274C595.103 44.4013 595.404 44.0698 595.792 43.8331C596.183 43.594 596.645 43.4744 597.177 43.4744C597.62 43.4744 598.012 43.5561 598.353 43.7195C598.696 43.8804 598.969 44.1089 599.173 44.4048C599.377 44.6984 599.493 45.0417 599.521 45.4347H598.292C598.243 45.1719 598.124 44.9529 597.937 44.7777C597.752 44.6001 597.505 44.5114 597.195 44.5114C596.932 44.5114 596.701 44.5824 596.502 44.7244C596.304 44.8641 596.149 45.0653 596.037 45.3281C595.928 45.5909 595.874 45.9058 595.874 46.2727C595.874 46.6444 595.928 46.964 596.037 47.2315C596.146 47.4967 596.299 47.7015 596.495 47.8459C596.694 47.9879 596.927 48.0589 597.195 48.0589C597.384 48.0589 597.554 48.0234 597.703 47.9524C597.854 47.879 597.981 47.7737 598.083 47.6364C598.185 47.4991 598.254 47.3321 598.292 47.1357H599.521C599.49 47.5215 599.377 47.8636 599.18 48.1619C598.984 48.4579 598.716 48.6899 598.377 48.858C598.039 49.0237 597.641 49.1065 597.184 49.1065ZM603.3 43.5455V44.5398H600.165V43.5455H603.3ZM600.939 42.2386H602.224V47.3594C602.224 47.5322 602.25 47.6648 602.302 47.7571C602.357 47.8471 602.428 47.9086 602.515 47.9418C602.603 47.9749 602.7 47.9915 602.807 47.9915C602.887 47.9915 602.961 47.9856 603.027 47.9737C603.095 47.9619 603.148 47.9512 603.183 47.9418L603.4 48.9467C603.331 48.9704 603.233 48.9964 603.105 49.0249C602.979 49.0533 602.826 49.0698 602.643 49.0746C602.321 49.084 602.031 49.0355 601.773 48.929C601.515 48.8201 601.31 48.652 601.159 48.4247C601.01 48.1974 600.936 47.9134 600.939 47.5724V42.2386ZM607.852 46.706V43.5455H609.137V49H607.891V48.0305H607.834C607.711 48.3359 607.509 48.5857 607.227 48.7798C606.948 48.974 606.603 49.071 606.194 49.071C605.836 49.071 605.52 48.9917 605.245 48.8331C604.973 48.6721 604.76 48.4389 604.606 48.1335C604.452 47.8258 604.375 47.4541 604.375 47.0185V43.5455H605.661V46.8196C605.661 47.1652 605.756 47.4399 605.945 47.6435C606.134 47.8471 606.383 47.9489 606.691 47.9489C606.88 47.9489 607.064 47.9027 607.241 47.8104C607.419 47.718 607.564 47.5807 607.678 47.3984C607.794 47.2138 607.852 46.983 607.852 46.706ZM610.459 49V43.5455H611.706V44.4545H611.763C611.862 44.1397 612.032 43.897 612.274 43.7266C612.518 43.5537 612.796 43.4673 613.108 43.4673C613.18 43.4673 613.259 43.4709 613.346 43.478C613.436 43.4827 613.511 43.491 613.57 43.5028V44.6854C613.516 44.6664 613.429 44.6499 613.311 44.6357C613.195 44.6191 613.082 44.6108 612.974 44.6108C612.739 44.6108 612.528 44.6617 612.341 44.7635C612.157 44.8629 612.011 45.0014 611.905 45.179C611.798 45.3565 611.745 45.5613 611.745 45.7933V49H610.459ZM615.896 49.1101C615.55 49.1101 615.239 49.0485 614.962 48.9254C614.688 48.8 614.47 48.6153 614.309 48.3714C614.15 48.1276 614.071 47.8269 614.071 47.4695C614.071 47.1617 614.128 46.9072 614.241 46.706C614.355 46.5047 614.51 46.3438 614.706 46.223C614.903 46.1023 615.124 46.0111 615.371 45.9496C615.619 45.8857 615.876 45.8395 616.141 45.8111C616.461 45.7779 616.72 45.7483 616.919 45.7223C617.118 45.6939 617.262 45.6513 617.352 45.5945C617.444 45.5353 617.491 45.4441 617.491 45.321V45.2997C617.491 45.0322 617.411 44.825 617.253 44.6783C617.094 44.5315 616.866 44.4581 616.567 44.4581C616.252 44.4581 616.003 44.5268 615.818 44.6641C615.636 44.8014 615.513 44.9635 615.449 45.1506L614.248 44.9801C614.343 44.6487 614.499 44.3717 614.717 44.1491C614.935 43.9242 615.201 43.7562 615.516 43.6449C615.831 43.5312 616.179 43.4744 616.56 43.4744C616.823 43.4744 617.085 43.5052 617.345 43.5668C617.605 43.6283 617.843 43.7301 618.059 43.8722C618.274 44.0118 618.447 44.2024 618.577 44.4439C618.71 44.6854 618.776 44.9872 618.776 45.3494V49H617.54V48.2507H617.498C617.42 48.4022 617.309 48.5443 617.167 48.6768C617.028 48.8071 616.851 48.9124 616.638 48.9929C616.428 49.071 616.18 49.1101 615.896 49.1101ZM616.23 48.1655C616.488 48.1655 616.712 48.1146 616.901 48.0128C617.09 47.9086 617.236 47.7713 617.338 47.6009C617.442 47.4304 617.494 47.2446 617.494 47.0433V46.4006C617.454 46.4337 617.385 46.4645 617.288 46.4929C617.193 46.5213 617.087 46.5462 616.969 46.5675C616.85 46.5888 616.733 46.6077 616.617 46.6243C616.501 46.6409 616.4 46.6551 616.315 46.6669C616.123 46.6929 615.952 46.7356 615.8 46.7947C615.649 46.8539 615.529 46.9368 615.442 47.0433C615.354 47.1475 615.31 47.2824 615.31 47.4482C615.31 47.6849 615.397 47.8636 615.569 47.9844C615.742 48.1051 615.962 48.1655 616.23 48.1655Z" fill="#8D8A99"/>
<path d="M586.461 73H584.492L588.077 62.8182H590.354L593.943 73H591.975L589.255 64.9062H589.176L586.461 73ZM586.526 69.0078H591.895V70.4893H586.526V69.0078ZM595.285 73V62.8182H597.084V66.6264H597.159C597.252 66.4408 597.383 66.2436 597.552 66.0348C597.721 65.8227 597.949 65.642 598.238 65.4929C598.526 65.3404 598.894 65.2642 599.341 65.2642C599.931 65.2642 600.463 65.415 600.937 65.7166C601.415 66.0149 601.792 66.4574 602.071 67.044C602.352 67.6274 602.493 68.3433 602.493 69.1918C602.493 70.0303 602.356 70.7429 602.081 71.3295C601.806 71.9162 601.431 72.3636 600.957 72.6719C600.483 72.9801 599.946 73.1342 599.346 73.1342C598.909 73.1342 598.546 73.0613 598.258 72.9155C597.969 72.7696 597.737 72.594 597.562 72.3885C597.389 72.1797 597.255 71.9825 597.159 71.7969H597.054V73H595.285ZM597.049 69.1818C597.049 69.6757 597.119 70.1082 597.258 70.4794C597.401 70.8506 597.605 71.1406 597.87 71.3494C598.138 71.5549 598.463 71.6577 598.844 71.6577C599.242 71.6577 599.575 71.5516 599.843 71.3395C600.112 71.1241 600.314 70.8307 600.45 70.4595C600.589 70.085 600.659 69.6591 600.659 69.1818C600.659 68.7079 600.591 68.2869 600.455 67.919C600.319 67.5511 600.117 67.2628 599.848 67.054C599.58 66.8452 599.245 66.7408 598.844 66.7408C598.46 66.7408 598.133 66.8419 597.865 67.044C597.596 67.2462 597.392 67.5296 597.253 67.8942C597.117 68.2588 597.049 68.688 597.049 69.1818ZM604.023 73V65.3636H605.768V66.6364H605.848C605.987 66.1955 606.226 65.8558 606.564 65.6172C606.905 65.3752 607.295 65.2543 607.732 65.2543C607.832 65.2543 607.943 65.2592 608.065 65.2692C608.191 65.2758 608.296 65.2874 608.378 65.304V66.9595C608.302 66.933 608.181 66.9098 608.016 66.8899C607.853 66.8667 607.696 66.8551 607.543 66.8551C607.215 66.8551 606.92 66.9264 606.658 67.0689C606.4 67.2081 606.196 67.402 606.047 67.6506C605.898 67.8991 605.823 68.1858 605.823 68.5107V73H604.023ZM609.574 73V65.3636H611.374V73H609.574ZM610.479 64.2798C610.194 64.2798 609.949 64.1854 609.743 63.9964C609.538 63.8042 609.435 63.5739 609.435 63.3054C609.435 63.0336 609.538 62.8033 609.743 62.6143C609.949 62.4221 610.194 62.326 610.479 62.326C610.767 62.326 611.013 62.4221 611.215 62.6143C611.42 62.8033 611.523 63.0336 611.523 63.3054C611.523 63.5739 611.42 63.8042 611.215 63.9964C611.013 64.1854 610.767 64.2798 610.479 64.2798ZM613.225 73V65.3636H614.97V66.6364H615.049C615.188 66.1955 615.427 65.8558 615.765 65.6172C616.106 65.3752 616.496 65.2543 616.933 65.2543C617.033 65.2543 617.144 65.2592 617.266 65.2692C617.392 65.2758 617.497 65.2874 617.58 65.304V66.9595C617.503 66.933 617.382 66.9098 617.217 66.8899C617.054 66.8667 616.897 66.8551 616.744 66.8551C616.416 66.8551 616.121 66.9264 615.859 67.0689C615.601 67.2081 615.397 67.402 615.248 67.6506C615.099 67.8991 615.024 68.1858 615.024 68.5107V73H613.225Z" fill="#757380"/>
<rect x="34" y="28" width="81" height="59" rx="10" fill="#FFEBE0"/>
<path d="M58.4742 50V42.7273H63.2043V43.8317H59.7916V45.8061H62.9593V46.9105H59.7916V48.8956H63.2327V50H58.4742ZM68.8026 45.9872L67.6308 46.1151C67.5976 45.9967 67.5396 45.8854 67.4568 45.7812C67.3763 45.6771 67.2674 45.593 67.1301 45.5291C66.9927 45.4652 66.8247 45.4332 66.6258 45.4332C66.3583 45.4332 66.1334 45.4912 65.9511 45.6072C65.7712 45.7232 65.6824 45.8736 65.6847 46.0582C65.6824 46.2169 65.7404 46.3459 65.8588 46.4453C65.9795 46.5447 66.1784 46.6264 66.4553 46.6903L67.3857 46.8892C67.9018 47.0005 68.2854 47.1768 68.5363 47.4183C68.7896 47.6598 68.9175 47.9759 68.9198 48.3665C68.9175 48.7098 68.8169 49.0128 68.618 49.2756C68.4215 49.536 68.1481 49.7396 67.7977 49.8864C67.4473 50.0331 67.0448 50.1065 66.5903 50.1065C65.9227 50.1065 65.3853 49.9669 64.9781 49.6875C64.5709 49.4058 64.3282 49.014 64.2501 48.5121L65.5036 48.3913C65.5605 48.6375 65.6812 48.8234 65.8659 48.9489C66.0505 49.0743 66.2908 49.1371 66.5867 49.1371C66.8921 49.1371 67.1372 49.0743 67.3218 48.9489C67.5088 48.8234 67.6024 48.6683 67.6024 48.4837C67.6024 48.3274 67.542 48.1984 67.4213 48.0966C67.3029 47.9948 67.1182 47.9167 66.8673 47.8622L65.9369 47.6669C65.4137 47.558 65.0266 47.3745 64.7757 47.1165C64.5247 46.8561 64.4004 46.527 64.4028 46.1293C64.4004 45.7931 64.4916 45.5019 64.6762 45.2557C64.8633 45.0071 65.1225 44.8153 65.4539 44.6804C65.7877 44.5431 66.1724 44.4744 66.608 44.4744C67.2472 44.4744 67.7503 44.6106 68.1173 44.8828C68.4866 45.1551 68.7151 45.5232 68.8026 45.9872ZM72.7036 44.5455V45.5398H69.5679V44.5455H72.7036ZM70.3421 43.2386H71.6276V48.3594C71.6276 48.5322 71.6536 48.6648 71.7057 48.7571C71.7602 48.8471 71.8312 48.9086 71.9188 48.9418C72.0064 48.9749 72.1034 48.9915 72.21 48.9915C72.2905 48.9915 72.3638 48.9856 72.4301 48.9737C72.4988 48.9619 72.5509 48.9512 72.5864 48.9418L72.803 49.9467C72.7343 49.9704 72.6361 49.9964 72.5083 50.0249C72.3828 50.0533 72.2289 50.0698 72.0466 50.0746C71.7246 50.084 71.4346 50.0355 71.1766 49.929C70.9185 49.8201 70.7137 49.652 70.5622 49.4247C70.4131 49.1974 70.3397 48.9134 70.3421 48.5724V43.2386ZM75.3483 50.1101C75.0026 50.1101 74.6913 50.0485 74.4143 49.9254C74.1397 49.8 73.9219 49.6153 73.7609 49.3714C73.6023 49.1276 73.523 48.8269 73.523 48.4695C73.523 48.1617 73.5798 47.9072 73.6934 47.706C73.8071 47.5047 73.9622 47.3438 74.1586 47.223C74.3551 47.1023 74.5765 47.0111 74.8227 46.9496C75.0713 46.8857 75.3282 46.8395 75.5933 46.8111C75.9129 46.7779 76.1721 46.7483 76.371 46.7223C76.5699 46.6939 76.7143 46.6513 76.8042 46.5945C76.8966 46.5353 76.9427 46.4441 76.9427 46.321V46.2997C76.9427 46.0322 76.8634 45.825 76.7048 45.6783C76.5462 45.5315 76.3177 45.4581 76.0194 45.4581C75.7046 45.4581 75.4548 45.5268 75.2702 45.6641C75.0879 45.8014 74.9648 45.9635 74.9008 46.1506L73.7006 45.9801C73.7952 45.6487 73.9515 45.3717 74.1693 45.1491C74.3871 44.9242 74.6534 44.7562 74.9683 44.6449C75.2832 44.5312 75.6312 44.4744 76.0123 44.4744C76.2751 44.4744 76.5367 44.5052 76.7971 44.5668C77.0576 44.6283 77.2955 44.7301 77.5109 44.8722C77.7264 45.0118 77.8992 45.2024 78.0294 45.4439C78.162 45.6854 78.2282 45.9872 78.2282 46.3494V50H76.9925V49.2507H76.9498C76.8717 49.4022 76.7616 49.5443 76.6196 49.6768C76.4799 49.8071 76.3035 49.9124 76.0905 49.9929C75.8798 50.071 75.6324 50.1101 75.3483 50.1101ZM75.6821 49.1655C75.9401 49.1655 76.1639 49.1146 76.3532 49.0128C76.5426 48.9086 76.6882 48.7713 76.79 48.6009C76.8942 48.4304 76.9463 48.2446 76.9463 48.0433V47.4006C76.906 47.4337 76.8374 47.4645 76.7403 47.4929C76.6456 47.5213 76.5391 47.5462 76.4207 47.5675C76.3023 47.5888 76.1852 47.6077 76.0692 47.6243C75.9532 47.6409 75.8525 47.6551 75.7673 47.6669C75.5756 47.6929 75.4039 47.7356 75.2524 47.7947C75.1009 47.8539 74.9813 47.9368 74.8937 48.0433C74.8061 48.1475 74.7623 48.2824 74.7623 48.4482C74.7623 48.6849 74.8488 48.8636 75.0216 48.9844C75.1944 49.1051 75.4146 49.1655 75.6821 49.1655ZM81.545 50.0959C81.1165 50.0959 80.733 49.9858 80.3944 49.7656C80.0559 49.5455 79.7884 49.2259 79.5919 48.8068C79.3954 48.3878 79.2971 47.8788 79.2971 47.2798C79.2971 46.6738 79.3966 46.1624 79.5954 45.7457C79.7967 45.3267 80.0677 45.0107 80.4086 44.7976C80.7496 44.5821 81.1295 44.4744 81.5486 44.4744C81.8682 44.4744 82.1309 44.5289 82.3369 44.6378C82.5429 44.7443 82.7062 44.8733 82.827 45.0249C82.9477 45.174 83.0412 45.3149 83.1075 45.4474H83.1608V42.7273H84.4498V50H83.1856V49.1406H83.1075C83.0412 49.2732 82.9453 49.4141 82.8199 49.5632C82.6944 49.71 82.5287 49.8355 82.3227 49.9396C82.1167 50.0438 81.8575 50.0959 81.545 50.0959ZM81.9037 49.0412C82.1759 49.0412 82.4079 48.9678 82.5997 48.821C82.7915 48.6719 82.9371 48.4647 83.0365 48.1996C83.1359 47.9344 83.1856 47.6255 83.1856 47.2727C83.1856 46.92 83.1359 46.6134 83.0365 46.353C82.9394 46.0926 82.795 45.8902 82.6032 45.7457C82.4139 45.6013 82.1807 45.5291 81.9037 45.5291C81.6172 45.5291 81.3781 45.6037 81.1863 45.7528C80.9946 45.902 80.8502 46.108 80.7531 46.3707C80.656 46.6335 80.6075 46.9342 80.6075 47.2727C80.6075 47.6136 80.656 47.9179 80.7531 48.1854C80.8525 48.4505 80.9981 48.66 81.1899 48.8139C81.384 48.9654 81.622 49.0412 81.9037 49.0412ZM88.199 50.1065C87.6663 50.1065 87.2046 49.9893 86.814 49.755C86.4234 49.5206 86.1204 49.1927 85.9049 48.7713C85.6919 48.3499 85.5853 47.8575 85.5853 47.294C85.5853 46.7306 85.6919 46.237 85.9049 45.8132C86.1204 45.3894 86.4234 45.0604 86.814 44.826C87.2046 44.5916 87.6663 44.4744 88.199 44.4744C88.7316 44.4744 89.1933 44.5916 89.5839 44.826C89.9745 45.0604 90.2764 45.3894 90.4894 45.8132C90.7049 46.237 90.8126 46.7306 90.8126 47.294C90.8126 47.8575 90.7049 48.3499 90.4894 48.7713C90.2764 49.1927 89.9745 49.5206 89.5839 49.755C89.1933 49.9893 88.7316 50.1065 88.199 50.1065ZM88.2061 49.0767C88.4949 49.0767 88.7364 48.9974 88.9305 48.8388C89.1246 48.6778 89.269 48.4624 89.3637 48.1925C89.4608 47.9226 89.5093 47.6219 89.5093 47.2905C89.5093 46.9567 89.4608 46.6548 89.3637 46.3849C89.269 46.1127 89.1246 45.8961 88.9305 45.7351C88.7364 45.5741 88.4949 45.4936 88.2061 45.4936C87.9101 45.4936 87.6639 45.5741 87.4674 45.7351C87.2733 45.8961 87.1277 46.1127 87.0306 46.3849C86.9359 46.6548 86.8886 46.9567 86.8886 47.2905C86.8886 47.6219 86.9359 47.9226 87.0306 48.1925C87.1277 48.4624 87.2733 48.6778 87.4674 48.8388C87.6639 48.9974 87.9101 49.0767 88.2061 49.0767Z" fill="#8D8A99"/>
<path d="M45.3549 73V64.2727H51.0311V65.598H46.9359V67.9673H50.737V69.2926H46.9359V71.6747H51.0652V73H45.3549ZM54.1184 69.1648V73H52.5758V66.4545H54.0502V67.5668H54.127C54.2775 67.2003 54.5176 66.9091 54.8471 66.6932C55.1795 66.4773 55.59 66.3693 56.0787 66.3693C56.5304 66.3693 56.9238 66.4659 57.2591 66.6591C57.5971 66.8523 57.8585 67.1321 58.0431 67.4986C58.2306 67.8651 58.323 68.3097 58.3201 68.8324V73H56.7775V69.071C56.7775 68.6335 56.6639 68.2912 56.4366 68.044C56.2122 67.7969 55.9011 67.6733 55.5034 67.6733C55.2335 67.6733 54.9934 67.733 54.7832 67.8523C54.5758 67.9687 54.4125 68.1378 54.2931 68.3594C54.1767 68.581 54.1184 68.8494 54.1184 69.1648ZM63.1568 66.4545V67.6477H59.394V66.4545H63.1568ZM60.323 64.8864H61.8656V71.0312C61.8656 71.2386 61.8968 71.3977 61.9593 71.5085C62.0247 71.6165 62.1099 71.6903 62.215 71.7301C62.3201 71.7699 62.4366 71.7898 62.5645 71.7898C62.661 71.7898 62.7491 71.7827 62.8287 71.7685C62.911 71.7543 62.9735 71.7415 63.0162 71.7301L63.2761 72.9361C63.1937 72.9645 63.0758 72.9957 62.9224 73.0298C62.7718 73.0639 62.5872 73.0838 62.3684 73.0895C61.9821 73.1009 61.6341 73.0426 61.3244 72.9148C61.0147 72.7841 60.769 72.5824 60.5872 72.3097C60.4082 72.0369 60.3201 71.696 60.323 71.2869V64.8864ZM64.4469 73V66.4545H65.9426V67.5455H66.0108C66.1301 67.1676 66.3347 66.8764 66.6245 66.6719C66.9171 66.4645 67.2509 66.3608 67.6259 66.3608C67.7111 66.3608 67.8063 66.3651 67.9114 66.3736C68.0194 66.3793 68.1088 66.3892 68.1799 66.4034V67.8224C68.1145 67.7997 68.0108 67.7798 67.8688 67.7628C67.7296 67.7429 67.5946 67.733 67.464 67.733C67.1827 67.733 66.9299 67.794 66.7054 67.9162C66.4838 68.0355 66.3091 68.2017 66.1813 68.4148C66.0534 68.6278 65.9895 68.8736 65.9895 69.152V73H64.4469ZM71.8329 73.1278C71.1767 73.1278 70.6099 72.9915 70.1326 72.7188C69.6582 72.4432 69.2931 72.054 69.0375 71.5511C68.7818 71.0455 68.6539 70.4503 68.6539 69.7656C68.6539 69.0923 68.7818 68.5014 69.0375 67.9929C69.296 67.4815 69.6568 67.0838 70.1199 66.7997C70.5829 66.5128 71.127 66.3693 71.752 66.3693C72.1554 66.3693 72.536 66.4347 72.894 66.5653C73.2548 66.6932 73.573 66.892 73.8485 67.1619C74.127 67.4318 74.3457 67.7756 74.5048 68.1932C74.6639 68.608 74.7434 69.1023 74.7434 69.6761V70.1491H69.3784V69.1094H73.2647C73.2619 68.8139 73.198 68.5511 73.073 68.321C72.948 68.0881 72.7733 67.9048 72.5488 67.7713C72.3272 67.6378 72.0687 67.571 71.7733 67.571C71.4579 67.571 71.1809 67.6477 70.9423 67.8011C70.7037 67.9517 70.5176 68.1506 70.3841 68.3977C70.2534 68.642 70.1866 68.9105 70.1838 69.2031V70.1108C70.1838 70.4915 70.2534 70.8182 70.3926 71.0909C70.5318 71.3608 70.7264 71.5682 70.9764 71.7131C71.2264 71.8551 71.519 71.9261 71.8542 71.9261C72.0787 71.9261 72.2818 71.8949 72.4636 71.8324C72.6454 71.767 72.8031 71.6719 72.9366 71.5469C73.0701 71.4219 73.171 71.267 73.2392 71.0824L74.6795 71.2443C74.5886 71.625 74.4153 71.9574 74.1596 72.2415C73.9068 72.5227 73.5829 72.7415 73.188 72.8977C72.7931 73.0511 72.3414 73.1278 71.8329 73.1278ZM78.8951 75.5909C78.3411 75.5909 77.8652 75.5156 77.4675 75.3651C77.0698 75.2173 76.7502 75.0185 76.5087 74.7685C76.2672 74.5185 76.0996 74.2415 76.0059 73.9375L77.3951 73.6009C77.4576 73.7287 77.5485 73.8551 77.6678 73.9801C77.7871 74.108 77.9476 74.2131 78.1493 74.2955C78.3539 74.3807 78.611 74.4233 78.9206 74.4233C79.3581 74.4233 79.7203 74.3168 80.0073 74.1037C80.2942 73.8935 80.4377 73.5469 80.4377 73.0639V71.8239H80.361C80.2814 71.983 80.165 72.1463 80.0115 72.3139C79.861 72.4815 79.6607 72.6222 79.4107 72.7358C79.1635 72.8494 78.8525 72.9062 78.4775 72.9062C77.9746 72.9062 77.5186 72.7884 77.1096 72.5526C76.7033 72.3139 76.3794 71.9588 76.138 71.4872C75.8993 71.0128 75.78 70.419 75.78 69.706C75.78 68.9872 75.8993 68.3807 76.138 67.8864C76.3794 67.3892 76.7047 67.0128 77.1138 66.7571C77.5229 66.4986 77.9789 66.3693 78.4817 66.3693C78.8652 66.3693 79.1806 66.4347 79.4277 66.5653C79.6777 66.6932 79.8766 66.848 80.0243 67.0298C80.1721 67.2088 80.2843 67.3778 80.361 67.5369H80.4462V66.4545H81.9675V73.1065C81.9675 73.6662 81.834 74.1293 81.5669 74.4957C81.2999 74.8622 80.9348 75.1364 80.4718 75.3182C80.0087 75.5 79.4831 75.5909 78.8951 75.5909ZM78.9078 71.696C79.2346 71.696 79.513 71.6165 79.7431 71.4574C79.9732 71.2983 80.1479 71.0696 80.2672 70.7713C80.3865 70.473 80.4462 70.1151 80.4462 69.6974C80.4462 69.2855 80.3865 68.9247 80.2672 68.6151C80.1507 68.3054 79.9775 68.0653 79.7473 67.8949C79.5201 67.7216 79.2402 67.6349 78.9078 67.6349C78.5641 67.6349 78.2772 67.7244 78.0471 67.9034C77.8169 68.0824 77.6436 68.3281 77.5272 68.6406C77.4107 68.9503 77.3525 69.3026 77.3525 69.6974C77.3525 70.098 77.4107 70.4489 77.5272 70.75C77.6465 71.0483 77.8212 71.2812 78.0513 71.4489C78.2843 71.6136 78.5698 71.696 78.9078 71.696ZM85.432 73.1321C85.0172 73.1321 84.6436 73.0582 84.3113 72.9105C83.9817 72.7599 83.7203 72.5384 83.5272 72.2457C83.3368 71.9531 83.2417 71.5923 83.2417 71.1634C83.2417 70.794 83.3098 70.4886 83.4462 70.2472C83.5826 70.0057 83.7686 69.8125 84.0044 69.6676C84.2402 69.5227 84.5059 69.4134 84.8013 69.3395C85.0996 69.2628 85.4078 69.2074 85.726 69.1733C86.1096 69.1335 86.4206 69.098 86.6593 69.0668C86.8979 69.0327 87.0712 68.9815 87.1792 68.9134C87.29 68.8423 87.3453 68.733 87.3453 68.5852V68.5597C87.3453 68.2386 87.2502 67.9901 87.0598 67.8139C86.8695 67.6378 86.5953 67.5497 86.2374 67.5497C85.8596 67.5497 85.5598 67.6321 85.3382 67.7969C85.1195 67.9616 84.9718 68.1562 84.8951 68.3807L83.4547 68.1761C83.5684 67.7784 83.7559 67.446 84.0172 67.179C84.2786 66.9091 84.5982 66.7074 84.976 66.5739C85.3539 66.4375 85.7715 66.3693 86.2289 66.3693C86.5442 66.3693 86.8581 66.4062 87.1706 66.4801C87.4831 66.554 87.7686 66.6761 88.0272 66.8466C88.2857 67.0142 88.4931 67.2429 88.6493 67.5327C88.8084 67.8224 88.888 68.1847 88.888 68.6193V73H87.405V72.1009H87.3539C87.2601 72.2827 87.128 72.4531 86.9576 72.6122C86.79 72.7685 86.5783 72.8949 86.3226 72.9915C86.0698 73.0852 85.7729 73.1321 85.432 73.1321ZM85.8326 71.9986C86.1422 71.9986 86.4107 71.9375 86.638 71.8153C86.8652 71.6903 87.04 71.5256 87.1621 71.321C87.2871 71.1165 87.3496 70.8935 87.3496 70.652V69.8807C87.3013 69.9205 87.2189 69.9574 87.1025 69.9915C86.9888 70.0256 86.861 70.0554 86.7189 70.081C86.5769 70.1065 86.4363 70.1293 86.2971 70.1491C86.1578 70.169 86.0371 70.1861 85.9348 70.2003C85.7047 70.2315 85.4988 70.2827 85.3169 70.3537C85.1351 70.4247 84.9917 70.5241 84.8865 70.652C84.7814 70.777 84.7289 70.9389 84.7289 71.1378C84.7289 71.4219 84.8326 71.6364 85.04 71.7812C85.2473 71.9261 85.5115 71.9986 85.8326 71.9986ZM92.8681 73.1151C92.3539 73.1151 91.8936 72.983 91.4874 72.7188C91.0811 72.4545 90.7601 72.071 90.5243 71.5682C90.2885 71.0653 90.1706 70.4545 90.1706 69.7358C90.1706 69.0085 90.29 68.3949 90.5286 67.8949C90.7701 67.392 91.0953 67.0128 91.5044 66.7571C91.9135 66.4986 92.3695 66.3693 92.8723 66.3693C93.2559 66.3693 93.5712 66.4347 93.8184 66.5653C94.0655 66.6932 94.2615 66.848 94.4064 67.0298C94.5513 67.2088 94.6635 67.3778 94.7431 67.5369H94.807V64.2727H96.3539V73H94.8368V71.9688H94.7431C94.6635 72.1278 94.5485 72.2969 94.3979 72.4759C94.2473 72.652 94.0485 72.8026 93.8013 72.9276C93.5542 73.0526 93.2431 73.1151 92.8681 73.1151ZM93.2985 71.8494C93.6252 71.8494 93.9036 71.7614 94.1337 71.5852C94.3638 71.4062 94.5385 71.1577 94.6578 70.8395C94.7772 70.5213 94.8368 70.1506 94.8368 69.7273C94.8368 69.304 94.7772 68.9361 94.6578 68.6236C94.5414 68.3111 94.3681 68.0682 94.138 67.8949C93.9107 67.7216 93.6309 67.6349 93.2985 67.6349C92.9547 67.6349 92.6678 67.7244 92.4377 67.9034C92.2076 68.0824 92.0343 68.3295 91.9178 68.6449C91.8013 68.9602 91.7431 69.321 91.7431 69.7273C91.7431 70.1364 91.8013 70.5014 91.9178 70.8224C92.0371 71.1406 92.2118 71.392 92.4419 71.5767C92.6749 71.7585 92.9604 71.8494 93.2985 71.8494ZM100.853 73.1278C100.214 73.1278 99.6596 72.9872 99.1909 72.706C98.7221 72.4247 98.3585 72.0312 98.1 71.5256C97.8443 71.0199 97.7164 70.429 97.7164 69.7528C97.7164 69.0767 97.8443 68.4844 98.1 67.9759C98.3585 67.4673 98.7221 67.0724 99.1909 66.7912C99.6596 66.5099 100.214 66.3693 100.853 66.3693C101.492 66.3693 102.046 66.5099 102.515 66.7912C102.983 67.0724 103.346 67.4673 103.601 67.9759C103.86 68.4844 103.989 69.0767 103.989 69.7528C103.989 70.429 103.86 71.0199 103.601 71.5256C103.346 72.0312 102.983 72.4247 102.515 72.706C102.046 72.9872 101.492 73.1278 100.853 73.1278ZM100.861 71.892C101.208 71.892 101.498 71.7969 101.731 71.6065C101.964 71.4134 102.137 71.1548 102.251 70.831C102.367 70.5071 102.425 70.1463 102.425 69.7486C102.425 69.348 102.367 68.9858 102.251 68.6619C102.137 68.3352 101.964 68.0753 101.731 67.8821C101.498 67.6889 101.208 67.5923 100.861 67.5923C100.506 67.5923 100.211 67.6889 99.975 67.8821C99.742 68.0753 99.5673 68.3352 99.4508 68.6619C99.3372 68.9858 99.2804 69.348 99.2804 69.7486C99.2804 70.1463 99.3372 70.5071 99.4508 70.831C99.5673 71.1548 99.742 71.4134 99.975 71.6065C100.211 71.7969 100.506 71.892 100.861 71.892Z" fill="#B35B2D"/>
</g>
<defs>
<filter id="filter0_d_387_4394" x="0" y="0" width="710" height="123" filterUnits="userSpaceOnUse" color-interpolation-filters="sRGB">
<feFlood flood-opacity="0" result="BackgroundImageFix"/>
<feColorMatrix in="SourceAlpha" type="matrix" values="0 0 0 0 0 0 0 0 0 0 0 0 0 0 0 0 0 0 127 0" result="hardAlpha"/>
<feOffset dy="4"/>
<feGaussianBlur stdDeviation="10"/>
<feComposite in2="hardAlpha" operator="out"/>
<feColorMatrix type="matrix" values="0 0 0 0 0.890451 0 0 0 0 0.882708 0 0 0 0 0.929167 0 0 0 0.6 0"/>
<feBlend mode="normal" in2="BackgroundImageFix" result="effect1_dropShadow_387_4394"/>
<feBlend mode="normal" in="SourceGraphic" in2="effect1_dropShadow_387_4394" result="shape"/>
</filter>
</defs>
</svg>
