<svg width="397" height="241" viewBox="0 0 397 241" fill="none" xmlns="http://www.w3.org/2000/svg">
<rect width="397" height="241" fill="white"/>
<path d="M198.5 23C149.037 23 101.6 42.649 66.6246 77.6246C31.6491 112.6 12 160.037 12 209.5" stroke="#8E37ED" stroke-width="4" stroke-linecap="round"/>
<path d="M198.5 23C247.963 23 295.4 42.649 330.375 77.6246C365.351 112.6 385 160.037 385 209.5" stroke="#E7E4F2" stroke-width="4" stroke-linecap="round"/>
<g clip-path="url(#clip0_898_6112)">
<path d="M214.145 19.6959C216.523 19.6574 218.471 21.5745 218.471 23.9527C218.471 26.2658 216.625 28.1556 214.312 28.2089L207.415 28.3679C206.875 28.3804 206.604 28.3866 206.361 28.4672C206.146 28.5385 205.947 28.6518 205.775 28.8007C205.582 28.9688 205.439 29.1981 205.152 29.6566L198.169 40.8299C197.875 41.3005 197.727 41.5359 197.528 41.7066C197.352 41.8577 197.147 41.9714 196.925 42.0408C196.675 42.1193 196.397 42.1193 195.842 42.1193L194.943 42.1193C193.473 42.1193 192.738 42.1193 192.296 41.8097C191.909 41.5394 191.651 41.1218 191.582 40.6552C191.503 40.1209 191.832 39.4636 192.489 38.1489L197.363 28.402L189.251 28.402C188.767 28.402 188.524 28.402 188.301 28.4636C188.103 28.5181 187.916 28.6078 187.75 28.7284C187.562 28.8645 187.411 29.0535 187.109 29.4316L185.327 31.659C185.024 32.0371 184.873 32.2262 184.685 32.3623C184.519 32.4828 184.332 32.5725 184.134 32.6271C183.911 32.6886 183.669 32.6886 183.184 32.6886L182.705 32.6886C181.558 32.6886 180.985 32.6886 180.583 32.453C180.231 32.2463 179.964 31.9206 179.83 31.5346C179.678 31.0944 179.79 30.532 180.015 29.4071L180.966 24.6534C181.006 24.4524 181.026 24.3519 181.034 24.2506C181.041 24.1606 181.041 24.0701 181.034 23.9801C181.026 23.8787 181.006 23.7783 180.966 23.5773L180.015 18.8235C179.79 17.6987 179.678 17.1362 179.83 16.6961C179.964 16.31 180.231 15.9843 180.583 15.7777C180.985 15.542 181.558 15.542 182.705 15.542L183.184 15.542C183.669 15.542 183.911 15.542 184.134 15.6036C184.332 15.6582 184.519 15.7478 184.685 15.8684C184.873 16.0045 185.024 16.1935 185.327 16.5717L187.109 18.799C187.411 19.1772 187.562 19.3662 187.75 19.5023C187.916 19.6228 188.103 19.7125 188.301 19.7671C188.524 19.8287 188.767 19.8287 189.251 19.8287L197.363 19.8287L192.489 10.0817C191.832 8.76708 191.503 8.10974 191.582 7.57542C191.651 7.10884 191.909 6.69126 192.296 6.42094C192.738 6.11137 193.473 6.11137 194.943 6.11137L195.842 6.11137C196.397 6.11137 196.675 6.11137 196.925 6.18982C197.147 6.25925 197.352 6.37296 197.528 6.52406C197.727 6.69478 197.875 6.93012 198.169 7.4008L205.126 18.5317C205.415 18.9942 205.559 19.2255 205.753 19.394C205.941 19.5567 206.162 19.6767 206.4 19.7457C206.647 19.8172 206.92 19.8128 207.465 19.8039L214.145 19.6959Z" fill="#C896FA" stroke="#8E37ED" stroke-width="3" stroke-linecap="round" stroke-linejoin="round"/>
</g>
<circle cx="62" cy="82" r="8" fill="#8E37ED"/>
<path d="M14 224H16.3373C16.5818 224 16.7041 224 16.8192 224.028C16.9213 224.052 17.0188 224.093 17.1083 224.147C17.2092 224.209 17.2957 224.296 17.4686 224.469L21.5314 228.531C21.7043 228.704 21.7908 228.791 21.8526 228.892C21.9075 228.981 21.9479 229.079 21.9724 229.181C22 229.296 22 229.418 22 229.663V232.5C22 232.966 22 233.199 21.9239 233.383C21.8224 233.628 21.6277 233.822 21.3827 233.924C21.1989 234 20.9659 234 20.5 234M15.5 234H14M14 234V224.2C14 223.08 14 222.52 13.782 222.092C13.5903 221.716 13.2843 221.41 12.908 221.218C12.4802 221 11.9201 221 10.8 221H5.2C4.0799 221 3.51984 221 3.09202 221.218C2.71569 221.41 2.40973 221.716 2.21799 222.092C2 222.52 2 223.08 2 224.2V232C2 233.105 2.89543 234 4 234M14 234H10M10 234C10 235.657 8.65685 237 7 237C5.34315 237 4 235.657 4 234M10 234C10 232.343 8.65685 231 7 231C5.34315 231 4 232.343 4 234M20.5 234.5C20.5 235.881 19.3807 237 18 237C16.6193 237 15.5 235.881 15.5 234.5C15.5 233.119 16.6193 232 18 232C19.3807 232 20.5 233.119 20.5 234.5Z" stroke="#8E37ED" stroke-width="2" stroke-linecap="round" stroke-linejoin="round"/>
<path d="M385 239C386 234 393 233.418 393 227C393 222.582 389.418 219 385 219C380.582 219 377 222.582 377 227C377 233.418 384 234 385 239Z" stroke="#E7E4F2" stroke-width="2" stroke-linecap="round" stroke-linejoin="round"/>
<path d="M385 230C386.657 230 388 228.657 388 227C388 225.343 386.657 224 385 224C383.343 224 382 225.343 382 227C382 228.657 383.343 230 385 230Z" stroke="#E7E4F2" stroke-width="2" stroke-linecap="round" stroke-linejoin="round"/>
<defs>
<clipPath id="clip0_898_6112">
<rect width="46" height="46" fill="white" transform="translate(176)"/>
</clipPath>
</defs>
</svg>
