<svg width="397" height="220" viewBox="0 0 397 220" fill="none" xmlns="http://www.w3.org/2000/svg">
<rect width="397" height="218" transform="translate(0 2)" fill="white"/>
<path d="M198.5 2C149.037 2 101.6 21.649 66.6246 56.6246C31.6491 91.6001 12 139.037 12 188.5" stroke="#8E37ED" stroke-width="4" stroke-linecap="round"/>
<path d="M198.5 2C247.963 2 295.4 21.649 330.375 56.6246C365.351 91.6001 385 139.037 385 188.5" stroke="#8E37ED" stroke-width="4" stroke-linecap="round"/>
<path d="M14 203H16.3373C16.5818 203 16.7041 203 16.8192 203.028C16.9213 203.052 17.0188 203.093 17.1083 203.147C17.2092 203.209 17.2957 203.296 17.4686 203.469L21.5314 207.531C21.7043 207.704 21.7908 207.791 21.8526 207.892C21.9075 207.981 21.9479 208.079 21.9724 208.181C22 208.296 22 208.418 22 208.663V211.5C22 211.966 22 212.199 21.9239 212.383C21.8224 212.628 21.6277 212.822 21.3827 212.924C21.1989 213 20.9659 213 20.5 213M15.5 213H14M14 213V203.2C14 202.08 14 201.52 13.782 201.092C13.5903 200.716 13.2843 200.41 12.908 200.218C12.4802 200 11.9201 200 10.8 200H5.2C4.0799 200 3.51984 200 3.09202 200.218C2.71569 200.41 2.40973 200.716 2.21799 201.092C2 201.52 2 202.08 2 203.2V211C2 212.105 2.89543 213 4 213M14 213H10M10 213C10 214.657 8.65685 216 7 216C5.34315 216 4 214.657 4 213M10 213C10 211.343 8.65685 210 7 210C5.34315 210 4 211.343 4 213M20.5 213.5C20.5 214.881 19.3807 216 18 216C16.6193 216 15.5 214.881 15.5 213.5C15.5 212.119 16.6193 211 18 211C19.3807 211 20.5 212.119 20.5 213.5Z" stroke="#8E37ED" stroke-width="2" stroke-linecap="round" stroke-linejoin="round"/>
<path d="M385 218C386 213 393 212.418 393 206C393 201.582 389.418 198 385 198C380.582 198 377 201.582 377 206C377 212.418 384 213 385 218Z" stroke="#8E37ED" stroke-width="2" stroke-linecap="round" stroke-linejoin="round"/>
<path d="M385 209C386.657 209 388 207.657 388 206C388 204.343 386.657 203 385 203C383.343 203 382 204.343 382 206C382 207.657 383.343 209 385 209Z" stroke="#8E37ED" stroke-width="2" stroke-linecap="round" stroke-linejoin="round"/>
</svg>
