<svg width="21" height="20" viewBox="0 0 21 20" fill="none" xmlns="http://www.w3.org/2000/svg">
<path d="M2.89686 15.0964C2.93515 14.7518 2.95429 14.5795 3.00642 14.4185C3.05268 14.2756 3.11802 14.1396 3.20069 14.0142C3.29388 13.8729 3.41645 13.7504 3.6616 13.5052L14.6669 2.49999C15.5873 1.57951 17.0797 1.57951 18.0002 2.49999C18.9207 3.42046 18.9207 4.91285 18.0002 5.83332L6.99493 16.8386C6.74978 17.0837 6.62721 17.2063 6.4859 17.2995C6.36054 17.3821 6.22457 17.4475 6.0817 17.4937C5.92067 17.5459 5.74838 17.565 5.4038 17.6033L2.5835 17.9167L2.89686 15.0964Z" stroke="#8E37ED" stroke-width="2" stroke-linecap="round" stroke-linejoin="round"/>
</svg>
