<svg width="24" height="25" viewBox="0 0 24 25" fill="none" xmlns="http://www.w3.org/2000/svg">
<path d="M20.5 7.77777L12 12.5M12 12.5L3.49997 7.77777M12 12.5L12 22M21 16.5586V8.44147C21 8.09883 21 7.9275 20.9495 7.77471C20.9049 7.63953 20.8318 7.51545 20.7354 7.41076C20.6263 7.29242 20.4766 7.20922 20.177 7.04282L12.777 2.93171C12.4934 2.77415 12.3516 2.69537 12.2015 2.66448C12.0685 2.63715 11.9315 2.63715 11.7986 2.66448C11.6484 2.69537 11.5066 2.77415 11.223 2.93171L3.82297 7.04282C3.52345 7.20922 3.37369 7.29242 3.26463 7.41076C3.16816 7.51545 3.09515 7.63953 3.05048 7.77471C3 7.92751 3 8.09883 3 8.44147V16.5586C3 16.9012 3 17.0725 3.05048 17.2253C3.09515 17.3605 3.16816 17.4846 3.26463 17.5893C3.37369 17.7076 3.52345 17.7908 3.82297 17.9572L11.223 22.0683C11.5066 22.2259 11.6484 22.3047 11.7986 22.3356C11.9315 22.3629 12.0685 22.3629 12.2015 22.3356C12.3516 22.3047 12.4934 22.2259 12.777 22.0683L20.177 17.9572C20.4766 17.7908 20.6263 17.7076 20.7354 17.5893C20.8318 17.4846 20.9049 17.3605 20.9495 17.2253C21 17.0725 21 16.9012 21 16.5586Z" stroke="#8E37ED" stroke-width="2" stroke-linecap="round" stroke-linejoin="round"/>
<path d="M16.5 10L7.5 5" stroke="#8E37ED" stroke-width="2" stroke-linecap="round" stroke-linejoin="round"/>
</svg>
