<svg width="89" height="76" viewBox="0 0 89 76" fill="none" xmlns="http://www.w3.org/2000/svg">
<circle cx="74" cy="20" r="14.5" stroke="#FFA06D"/>
<g clip-path="url(#clip0_240_3784)">
<rect width="76" height="76" rx="38" fill="#EDE1FA"/>
<path d="M52.8043 45.427C51.9847 41.7016 51.7611 37.9016 52.1337 34.1016C52.5062 31.4937 52.4317 28.8114 51.9102 26.2035C51.1651 22.8506 49.1533 19.5721 46.2474 18.0074C43.6396 16.6663 30.9729 15.8467 27.4709 16.8153C24.118 17.7094 20.9141 20.0937 19.8709 23.4467C18.7533 27.1721 21.5102 31.5682 19.8709 34.9957C19.5729 35.5918 19.2003 36.1878 18.7533 36.6349L19.9454 34.6976C19.9454 34.7721 18.4552 36.4859 17.3376 37.9016C15.2513 39.3172 13.0905 40.5094 10.7062 41.478C3.6278 44.6074 -4.34475 45.7251 -10.9016 50.0467C-22.6742 57.7957 -25.8781 73.6663 -18.1291 85.3643C-16.9369 87.2271 -15.4467 88.8663 -13.8075 90.3565C-13.8075 90.3565 -8.74083 82.831 -8.59181 82.98C-6.20749 79.5525 -3.74867 76.1996 -1.36436 72.7721C2.95721 66.8114 12.867 71.9525 17.9337 75.1565C23.1494 78.5094 27.6945 82.7565 32.8356 86.3329C37.9768 89.9094 43.7886 92.8153 49.9729 92.8153C56.1572 92.8153 62.6396 89.2388 64.5023 83.278C66.1415 77.9133 63.7572 72.1761 61.4474 67.0349C58.02 59.7329 54.369 52.878 52.8043 45.427Z" fill="#5F259F"/>
<path d="M53.4003 28.8113C53.1768 25.8309 51.7611 23.074 49.6003 21.1368C47.4396 19.274 44.6827 18.3799 41.8513 18.5289C38.2003 18.6034 34.3258 19.1995 31.1964 21.2858C27.769 23.6701 26.6513 27.3211 26.2043 31.2701C23.6709 29.8544 20.467 30.8231 19.0513 33.4309C18.0082 35.3681 18.2317 37.7525 19.7219 39.3917C20.616 40.3603 25.9062 41.627 25.9062 41.627C25.9062 41.627 25.0121 45.278 24.6396 46.8427C23.8945 50.0466 19.0513 62.2662 19.0513 62.2662L37.8278 78.7329L44.3102 64.1289L40.2866 62.5642L40.8827 51.9838C40.8827 51.9838 47.365 54.5172 50.42 52.2819C54.816 49.1525 53.9219 34.6231 53.4003 28.8113Z" fill="#C896FA"/>
<path d="M53.4003 28.8115C54.816 28.5134 57.5729 26.7997 58.169 25.9056C58.9141 24.8625 58.5415 23.5213 57.5729 22.5527C56.4552 21.5095 55.1141 20.6899 53.6984 20.1683C50.9415 19.0507 48.1101 18.1566 45.2043 17.635C49.5258 21.2115 53.0278 23.2232 53.4003 28.8115Z" fill="#5F259F"/>
<path d="M26.7258 32.1643C27.4709 32.8349 28.5886 32.7604 29.1847 32.0153L29.2592 31.9408C29.8552 31.1212 30.3023 30.2271 30.4513 29.2585C30.6003 28.2898 31.1219 27.3957 31.7925 26.6506C33.1337 25.533 35.1454 26.1291 36.8592 26.2036C39.02 26.3526 41.1807 25.6075 42.82 24.1918C44.0121 23.2232 46.1729 20.5408 45.8003 18.8271C45.5768 17.5604 41.0317 17.4859 39.8396 17.4114C35.0709 16.8898 30.3023 17.4114 25.7572 18.9761C24.267 19.4977 22.9258 21.2859 22.1062 22.6271C21.3611 23.8938 21.2121 25.384 21.7337 26.7996C22.1807 28.2898 23.969 29.631 25.0121 30.6742C25.5337 31.1212 26.1298 31.5683 26.7258 32.1643Z" fill="#5F259F"/>
<path d="M25.8317 41.627L29.6317 42.074L24.9376 45.427" fill="#8E37ED"/>
</g>
<defs>
<clipPath id="clip0_240_3784">
<rect width="76" height="76" rx="38" fill="white"/>
</clipPath>
</defs>
</svg>
