<svg width="21" height="20" viewBox="0 0 21 20" fill="none" xmlns="http://www.w3.org/2000/svg">
<path d="M12.2084 5.00002C13.0223 5.15882 13.7704 5.5569 14.3568 6.1433C14.9432 6.7297 15.3412 7.47774 15.5 8.29169M12.2084 1.66669C13.8994 1.85455 15.4764 2.61183 16.6802 3.81419C17.8841 5.01655 18.6434 6.59253 18.8334 8.28335M9.02253 11.5526C8.02121 10.5513 7.23055 9.41906 6.65056 8.21104C6.60067 8.10714 6.57572 8.05518 6.55656 7.98944C6.48846 7.75581 6.53737 7.46893 6.67905 7.27107C6.71892 7.21539 6.76655 7.16776 6.86181 7.0725C7.15315 6.78117 7.29881 6.6355 7.39405 6.48901C7.75322 5.93661 7.75321 5.22446 7.39405 4.67205C7.29881 4.52557 7.15315 4.3799 6.86181 4.08856L6.69942 3.92617C6.25655 3.4833 6.03511 3.26186 5.7973 3.14158C5.32433 2.90235 4.76577 2.90235 4.29281 3.14158C4.05499 3.26186 3.83355 3.4833 3.39069 3.92617L3.25932 4.05753C2.81797 4.49888 2.59729 4.71956 2.42875 5.01958C2.24174 5.35251 2.10727 5.86958 2.10841 6.25143C2.10943 6.59556 2.17618 6.83074 2.30969 7.30111C3.02716 9.82894 4.38089 12.2142 6.37088 14.2042C8.36086 16.1942 10.7462 17.5479 13.274 18.2654C13.7444 18.3989 13.9795 18.4657 14.3237 18.4667C14.7055 18.4678 15.2226 18.3334 15.5555 18.1464C15.8555 17.9778 16.0762 17.7571 16.5176 17.3158L16.6489 17.1844C17.0918 16.7415 17.3132 16.5201 17.4335 16.2823C17.6728 15.8093 17.6728 15.2508 17.4335 14.7778C17.3132 14.54 17.0918 14.3186 16.6489 13.8757L16.4865 13.7133C16.1952 13.422 16.0495 13.2763 15.9031 13.1811C15.3506 12.8219 14.6385 12.8219 14.0861 13.1811C13.9396 13.2763 13.7939 13.422 13.5026 13.7133C13.4073 13.8086 13.3597 13.8562 13.304 13.8961C13.1062 14.0377 12.8193 14.0866 12.5857 14.0185C12.5199 13.9994 12.468 13.9744 12.3641 13.9245C11.156 13.3446 10.0238 12.5539 9.02253 11.5526Z" stroke="#8E37ED" stroke-width="2" stroke-linecap="round" stroke-linejoin="round"/>
</svg>
