<svg width="360" height="490" viewBox="0 0 360 490" fill="none" xmlns="http://www.w3.org/2000/svg">
<g clip-path="url(#clip0_316_333)">
<path d="M40.3853 86.9999H40.4C40.5729 86.9999 40.722 87.0003 40.851 87.0013C40.7951 87.5648 40.683 88.3234 40.5219 89.4053L40.5215 89.408C40.1029 92.2446 38.9624 96.0327 37.4715 99.7111C35.9768 103.399 34.2052 106.79 32.6084 108.889L32.6 108.9C31.1539 110.828 26.5012 116.376 22.2104 121.165L22.2051 121.171L22.1999 121.177C13.8235 130.677 7.67192 141.63 4.38263 152.931C3.4339 156.064 2.99819 160.388 2.72524 179.258C2.45002 198.286 2.35002 232.352 2.20004 295.295L2.20004 295.296C2.18141 304.739 2.162 313.554 2.14387 321.785C2.01609 379.809 1.95211 408.863 2.6771 424.791C3.09085 433.881 3.76588 438.879 4.90244 442.611C5.75797 445.42 6.89136 447.514 8.20605 449.944C8.62745 450.722 9.06747 451.535 9.52295 452.417C17.6874 468.23 34.4654 481.411 51.6426 485.447L51.6533 485.449L51.6533 485.449C52.459 485.634 54.1427 485.767 56.3432 485.884C58.6304 486.005 61.6882 486.118 65.3983 486.221C72.8213 486.428 82.901 486.6 94.7456 486.737C118.437 487.012 149.22 487.15 180 487.15C210.78 487.15 241.563 487.012 265.255 486.737C277.099 486.6 287.179 486.428 294.602 486.221C298.312 486.118 301.37 486.005 303.657 485.884C305.857 485.767 307.541 485.634 308.347 485.449L308.358 485.447L308.369 485.444C325.532 481.308 342.308 468.235 350.575 452.322L350.579 452.313C350.98 451.533 351.368 450.805 351.741 450.105C353.083 447.587 354.234 445.426 355.104 442.455C356.216 438.656 356.884 433.541 357.298 424.34C358.04 407.834 357.976 377.615 357.846 317.025C357.831 310.029 357.816 302.628 357.8 294.795L357.5 159.495L357.499 159.198L357.412 158.914L355.112 151.414L355.109 151.404C351.621 140.221 346.677 131.48 338.307 121.885L338.306 121.884C324.568 106.155 320.992 99.7191 319.479 89.4094L319.477 89.399C319.313 88.3227 319.2 87.5648 319.143 87.0005C319.222 87 319.308 86.9999 319.4 86.9999C323.313 86.9999 327.542 85.2182 331.158 82.6092C334.797 79.9833 338.044 76.3561 339.913 72.3443L339.916 72.3379L339.919 72.3314C340.844 70.3074 341.358 68.3854 341.645 64.5101C341.926 60.7096 342 54.8812 342 44.9999C342 32.5396 341.885 25.44 340.882 20.6868C340.364 18.2346 339.6 16.3332 338.469 14.6005C337.36 12.9024 335.949 11.4453 334.281 9.85318L334.273 9.84586C333.95 9.54022 333.64 9.21326 333.323 8.87747C332.215 7.70639 331.005 6.42816 328.737 5.57486C325.972 4.53445 321.466 3.96213 312.644 3.60156C297.304 2.97455 268.022 2.98151 209.918 2.99533C200.634 2.99753 190.615 2.99991 179.8 2.99991C111.558 2.99991 75.9156 3.02484 56.8613 3.27505C47.3468 3.40002 41.9114 3.58148 38.6052 3.85022C35.2722 4.12112 33.9095 4.49307 32.6453 5.09174L40.3853 86.9999ZM40.3853 86.9999L40.3706 86.9997C36.3952 86.9412 32.0407 84.9932 28.3732 82.236C24.6873 79.465 21.422 75.6739 19.7525 71.566L40.3853 86.9999ZM320.352 24.6769L320.334 24.6612L320.318 24.6452L318.598 22.9999H179.9H41.1822L39.677 24.6484L39.6621 24.6648L39.6467 24.6808C39.1735 25.1766 38.9652 25.4502 38.8015 25.8229C38.6195 26.2373 38.4376 26.9104 38.3024 28.2506C38.0278 30.9734 38 35.7415 38 45.0999C38 54.7227 38.0031 59.4765 38.2769 62.1188C38.4113 63.416 38.5945 63.9886 38.7557 64.3079C38.9014 64.5964 39.0893 64.8123 39.6486 65.3229L39.6657 65.3386L39.6825 65.3546L41.4025 66.9999H180.1H318.818L320.323 65.3513L320.338 65.335L320.353 65.3189C320.827 64.8232 321.035 64.5496 321.199 64.1769C321.381 63.7625 321.562 63.0894 321.698 61.7491C321.972 59.0264 322 54.2583 322 44.8999C322 35.2771 321.997 30.5233 321.723 27.881C321.589 26.5838 321.406 26.0112 321.244 25.6919C321.099 25.4034 320.911 25.1875 320.352 24.6769ZM306.741 113.851L306.734 113.838L306.727 113.825C304.847 110.222 302.929 105.116 301.484 100.286C300.056 95.5124 299 90.7174 299 87.7999V86.9999H180H61V87.7999C61 90.7174 59.9443 95.5124 58.5161 100.286C57.0709 105.116 55.1532 110.222 53.2732 113.825L53.2664 113.838L53.2594 113.851C51.1604 117.734 46.0547 124.66 41.9072 129.415L41.8967 129.427L41.8861 129.438C35.5458 136.478 31.7197 141.22 29.0954 145.774C26.4986 150.279 25.0293 154.688 23.5525 161.134C22.9057 164.145 22.5004 169.08 22.2749 188.086C22.0501 207.034 22 239.795 22 298.3C22 362.561 22.0001 395.19 22.2498 412.571C22.5002 430 23.0077 431.874 23.9113 434.811C27.8245 447.505 38.7755 459.157 51.4473 464.345L56.8821 466.5H180H303.118L308.543 464.349C308.546 464.347 308.549 464.346 308.552 464.345C321.224 459.157 332.176 447.505 336.089 434.811C336.993 431.874 337.5 429.999 337.75 412.646C338 395.34 338 362.861 338 298.9C338 242.246 337.95 209.533 337.738 190.159C337.525 170.72 337.145 164.877 336.54 161.797C335.163 155.26 333.717 150.734 331.097 146.111C328.45 141.439 324.552 136.576 318.115 129.44L318.104 129.427L318.093 129.415C313.945 124.66 308.84 117.734 306.741 113.851Z" fill="#F1C956" stroke="#F1C956" stroke-width="4"/>
<path d="M172.303 99.6096L172.294 99.6105C150.637 101.858 132.51 110.461 116.986 125.986C99.0133 143.958 90.5987 164.267 90.7 189.504C90.7009 213.433 99.1111 233.827 115.963 251.191C133.342 269.182 155.063 278.301 180.004 278.2C205.337 278.199 225.043 269.985 243.014 252.014C260.987 234.042 269.401 213.732 269.3 188.496C269.3 188.494 269.3 188.493 269.3 188.492L267.3 188.5C267.3 154.3 247 123.2 215.6 109L172.303 99.6096ZM172.303 99.6096C178.592 98.9859 186.633 99.5357 194.538 100.891C202.447 102.247 210.374 104.437 216.425 107.178L172.303 99.6096ZM201.857 122.294L201.847 122.29C196.597 120.477 189.485 119.395 182.257 119.149C175.029 118.903 167.866 119.499 162.517 120.932L162.511 120.933C137.122 127.645 118.264 146.887 111.839 172.388L111.839 172.389C108.931 183.924 109.521 199.829 113.292 210.852L113.294 210.857C120.593 232.365 136.331 248.209 158.153 255.809C161.773 257.049 163.914 257.693 166.752 258.053C169.655 258.422 173.327 258.5 180 258.5C186.673 258.5 190.345 258.422 193.248 258.053C196.085 257.693 198.226 257.049 201.846 255.81C223.566 248.211 239.211 232.566 246.81 210.846C248.05 207.226 248.693 205.085 249.053 202.248C249.422 199.345 249.5 195.673 249.5 189C249.5 182.326 249.422 178.655 249.053 175.752C248.693 172.914 248.05 170.774 246.81 167.154C239.209 145.427 223.362 129.592 201.857 122.294Z" fill="#F1C956" stroke="#F1C956" stroke-width="4"/>
<path d="M170.207 234.864L170.208 234.884C170.524 238.304 171.361 241.165 173.009 243.197C174.74 245.332 177.156 246.3 180 246.3C182.846 246.3 185.268 245.329 187 243.16C188.645 241.101 189.477 238.19 189.792 234.678L189.793 234.669L189.794 234.659C189.894 233.41 189.982 232.504 190.091 231.821C190.202 231.123 190.312 230.807 190.383 230.667C190.41 230.616 190.412 230.615 190.417 230.615C190.419 230.615 190.421 230.615 190.424 230.613C190.518 230.561 190.736 230.477 191.308 230.358L191.322 230.355L191.336 230.352C196.201 229.265 200.154 227.706 203.38 225.386C206.627 223.051 209.027 220.025 210.898 216.176C218.061 201.52 209.402 183.518 193.417 180.144C190.407 179.499 183.542 179 178.1 179C173.574 179 171.323 178.941 169.943 178.674C169.316 178.552 168.962 178.402 168.694 178.238C168.407 178.063 168.114 177.809 167.654 177.326C166.555 176.151 165.98 174.498 166 172.823C166.02 171.146 166.63 169.634 167.654 168.672C168.085 168.283 168.369 168.082 168.774 167.915C169.232 167.726 169.953 167.541 171.302 167.387C174.031 167.076 178.737 166.95 187.733 166.8C187.733 166.8 187.733 166.8 187.734 166.8L170.207 234.864ZM170.207 234.864L170.205 234.845L169.935 231.122L162.325 230.798C162.323 230.798 162.322 230.798 162.32 230.798C158.369 230.65 155.761 230.499 153.91 230.106C151.879 229.675 150.643 228.931 149.466 227.695C145.811 224.018 145.811 217.98 149.468 214.303C150.032 213.713 150.679 213.11 151.676 212.65C152.63 212.209 153.772 211.96 155.258 211.788C158.195 211.449 163.176 211.349 172.266 211.2C181.262 211.049 185.969 210.924 188.712 210.613C190.066 210.459 190.802 210.273 191.281 210.079C191.702 209.91 192.005 209.704 192.448 209.325C193.417 208.366 194.003 206.862 194.013 205.188C194.022 203.505 193.445 201.849 192.346 200.673C191.886 200.19 191.593 199.937 191.306 199.761C191.038 199.598 190.684 199.447 190.057 199.326C188.677 199.058 186.426 199 181.9 199C176.459 199 169.594 198.5 166.584 197.856C150.598 194.483 141.939 176.479 149.102 161.823C150.974 157.974 153.375 154.945 156.651 152.609C159.899 150.293 163.894 148.738 168.842 147.653C169.465 147.496 169.725 147.386 169.818 147.338C169.826 147.317 169.835 147.288 169.845 147.249C169.873 147.146 169.902 146.992 169.928 146.763C169.98 146.292 170 145.644 170 144.7C170 139.086 171.967 134.58 176.106 132.511C179.439 130.844 182.831 131.152 185.442 133.325C187.929 135.395 189.414 138.908 189.792 143.121L189.793 143.138L189.795 143.155L190.065 146.877L197.675 147.201C197.677 147.201 197.678 147.201 197.68 147.201C201.631 147.35 204.239 147.501 206.09 147.893C208.121 148.324 209.357 149.069 210.534 150.305C214.189 153.982 214.189 160.02 210.532 163.696L170.207 234.864ZM169.864 147.31C169.862 147.31 169.855 147.314 169.846 147.322C169.86 147.314 169.865 147.31 169.864 147.31Z" fill="#F1C956" stroke="#F1C956" stroke-width="4"/>
<path d="M174.878 296.135L174.867 296.139C171.467 297.478 169.203 298.582 166.721 301.164C164.375 303.604 161.839 307.363 157.627 313.804C157.627 313.804 157.626 313.805 157.626 313.805L150.763 324.238L141.313 323.703L141.3 323.702C123.166 322.793 104.899 324.559 89.2305 328.343C73.6204 332.113 60.3537 337.944 52.4351 345.338L52.4332 345.34C52.3251 345.441 52.2179 345.541 52.1115 345.641C49.9535 347.66 48.1594 349.338 46.7886 351.143C45.2882 353.119 44.3044 355.221 43.6718 358.095C43.054 360.902 42.7702 364.454 42.6321 369.328C42.4996 374.006 42.4998 380.02 42.5 387.921C42.5 388.277 42.5 388.636 42.5 389C42.5 389.361 42.5 389.718 42.5 390.071C42.4998 398 42.4996 404.03 42.6337 408.716C42.7733 413.597 43.0603 417.15 43.6853 419.959C44.9557 425.669 47.6385 428.18 52.0762 432.332C52.2264 432.473 52.3785 432.615 52.5327 432.759L52.5335 432.76C59.8649 439.62 70.9884 444.961 84.5578 448.594C98.1563 452.235 114.358 454.2 131.996 454.2C159.188 454.3 180.019 450.373 197.682 441.695L197.686 441.693L205.106 438.028L212.423 441.597L212.424 441.598C228.442 449.404 247.834 454.297 262.988 454.3C267.12 454.351 270.566 453.964 273.763 452.957C276.97 451.948 279.821 450.347 282.801 448.099M174.878 296.135L205.1 435.8L213.3 439.8C229.1 447.5 248.2 452.3 263 452.3C271 452.4 275.9 450.8 281.6 446.5C286.4 442.9 313.6 399.5 315 393.5C318.4 378.4 304.7 356 279 334.5C258.1 317.1 228.9 302.2 206.6 297.6M174.878 296.135C178.321 294.802 183.738 294.151 189.461 294.075C195.241 293.998 201.589 294.507 207.007 295.642M174.878 296.135L206.6 297.6M282.801 448.099C282.802 448.098 282.803 448.097 282.805 448.096L281.601 446.502L282.8 448.1C282.8 448.1 282.801 448.099 282.801 448.099ZM282.801 448.099C283.647 447.464 284.751 446.177 285.932 444.667C287.17 443.082 288.655 441.035 290.289 438.685C293.559 433.984 297.47 428.006 301.268 421.964C305.067 415.922 308.764 409.796 311.605 404.794C313.024 402.295 314.239 400.06 315.147 398.249C316.02 396.51 316.711 394.971 316.948 393.954L316.949 393.947L316.951 393.939C318.819 385.646 315.943 375.714 309.62 365.358C303.262 354.946 293.247 343.811 280.283 332.966L280.28 332.963C259.178 315.395 229.687 300.321 207.007 295.642M207.007 295.642C207.008 295.642 207.009 295.642 207.01 295.642L206.6 297.6M207.007 295.642C207.006 295.641 207.005 295.641 207.004 295.641L206.6 297.6M294.633 377.937L294.628 377.928C288.723 366.649 276.908 354.287 262.238 343.287C247.597 332.31 230.284 322.819 213.563 317.195C205.03 314.352 201.418 313.691 193.427 313.398L193.427 313.398C187.927 313.197 184.837 313.27 182.83 313.766C181.886 314 181.247 314.314 180.735 314.705C180.211 315.106 179.724 315.658 179.171 316.499L179.162 316.513L179.152 316.526C178.504 317.478 178.342 317.949 178.309 318.516C178.266 319.25 178.435 320.292 178.945 322.435C180.575 329.257 185.745 337.243 193.421 345.475C201.055 353.663 210.998 361.915 221.883 369.281C232.766 376.645 244.541 383.091 255.816 387.69C267.119 392.3 277.79 395 286.5 395C288.638 395 291.27 394.501 293.524 393.742C294.644 393.365 295.615 392.942 296.349 392.522C297.141 392.068 297.442 391.74 297.499 391.647L297.508 391.633L297.518 391.618C297.999 390.87 298.281 389.233 297.818 386.624C297.375 384.121 296.308 381.094 294.633 377.937ZM165.25 338.96L165.243 338.942L165.236 338.925C165.154 338.714 165.07 338.513 164.986 338.321C164.774 338.615 164.545 338.938 164.299 339.288C162.955 341.198 161.171 343.848 159.284 346.779C155.18 353.214 153.33 356.643 152.904 359.552C152.504 362.28 153.334 364.795 155.781 369.591L155.783 369.593C161.384 380.602 173.21 393.008 188.064 404.176C202.883 415.318 220.523 425.085 237.547 430.907L237.55 430.908C242.352 432.559 245.112 433.408 247.895 433.878C250.68 434.348 253.556 434.45 258.61 434.5C258.902 434.5 259.186 434.5 259.463 434.5C262.359 434.501 264.441 434.502 266.104 434.356C267.883 434.199 268.979 433.887 269.889 433.344C270.822 432.788 271.743 431.882 272.98 430.207C274.117 428.669 275.413 426.634 277.184 423.856C277.355 423.587 277.53 423.312 277.71 423.03C278.129 422.364 278.524 421.738 278.895 421.15C280.265 418.978 281.311 417.322 282.064 416.024C282.541 415.202 282.866 414.583 283.07 414.111C283.086 414.074 283.101 414.039 283.115 414.006C282.566 413.899 281.822 413.822 280.762 413.712C280.408 413.675 280.019 413.635 279.59 413.589C251.84 410.73 213.653 391.166 187.532 366.658L187.526 366.653C182.853 362.234 177.918 356.817 173.857 351.795C169.847 346.835 166.523 342.059 165.25 338.96ZM143.527 386.435L143.495 386.394L143.464 386.351C141.46 383.502 139.348 379.496 137.619 375.553C135.897 371.629 134.477 367.594 133.935 364.672C132.538 357.461 133.946 350.742 137.915 344.723C138.24 344.197 138.55 343.689 138.83 343.219C138.524 343.21 138.197 343.201 137.85 343.193C135.386 343.137 132.036 343.125 128.527 343.15C121.445 343.2 113.963 343.402 111.756 343.683C95.0927 345.866 82.7426 349.32 72.6217 354.575C68.8202 356.549 66.108 358.46 64.3715 360.275C62.6431 362.081 62.0084 363.65 62.0125 365.006C62.0167 366.365 62.6633 367.945 64.4109 369.767C66.1651 371.597 68.8986 373.528 72.7259 375.527L72.7323 375.53L72.7387 375.534C86.6356 382.92 107.568 387 131.9 387C136.029 387 139.776 386.925 142.48 386.814C142.945 386.795 143.376 386.775 143.771 386.754C143.692 386.648 143.61 386.541 143.527 386.435ZM146.445 405.895L146.443 405.895C116.925 408.01 84.8317 403.202 65.9029 393.687C64.5252 392.998 63.2285 392.369 62.1825 391.879C62.1662 392.221 62.1508 392.594 62.1362 392.997C62.0499 395.39 62 398.714 62 402.4C62 408.88 62.0309 412.089 62.3276 414.051C62.4666 414.971 62.6518 415.51 62.8723 415.935C63.1057 416.385 63.431 416.813 64.0186 417.498L64.0257 417.507L64.0328 417.515C66.5296 420.494 72.1538 423.797 80.0049 426.753C87.7547 429.672 97.3624 432.139 107.486 433.62C114.326 434.597 125.747 434.975 136.902 434.775C148.093 434.575 158.724 433.799 164.044 432.552L164.056 432.55C167.934 431.666 173.528 430.083 178.313 428.579C180.703 427.828 182.867 427.104 184.496 426.505C184.71 426.427 184.913 426.351 185.105 426.278C185.067 426.243 185.027 426.208 184.987 426.173C183.638 424.978 181.643 423.395 179.328 421.72L179.317 421.712L179.306 421.704C174.59 418.192 168.026 412.945 164.64 409.766L159.385 404.957L146.445 405.895Z" fill="#F1C956" stroke="#F1C956" stroke-width="4"/>
</g>
<defs>
<clipPath id="clip0_316_333">
<rect width="360" height="490" fill="white"/>
</clipPath>
</defs>
</svg>
