<svg width="22" height="22" viewBox="0 0 22 22" fill="none" xmlns="http://www.w3.org/2000/svg">
<g clip-path="url(#clip0_834_2103)">
<path d="M16.5002 6.41665V4.76665C16.5002 3.73988 16.5002 3.2265 16.3003 2.83433C16.1246 2.48937 15.8441 2.2089 15.4991 2.03313C15.107 1.83331 14.5936 1.83331 13.5668 1.83331H8.4335C7.40673 1.83331 6.89335 1.83331 6.50118 2.03313C6.15622 2.2089 5.87575 2.48937 5.69998 2.83433C5.50016 3.2265 5.50016 3.73988 5.50016 4.76665V6.41665M5.50016 16.5C4.64769 16.5 4.22145 16.5 3.87174 16.4063C2.92274 16.152 2.18148 15.4107 1.9272 14.4617C1.8335 14.112 1.8335 13.6858 1.8335 12.8333V10.8166C1.8335 9.2765 1.8335 8.50643 2.13323 7.91817C2.39688 7.40073 2.81758 6.98003 3.33502 6.71638C3.92328 6.41665 4.69335 6.41665 6.2335 6.41665H15.7668C17.307 6.41665 18.077 6.41665 18.6653 6.71638C19.1827 6.98003 19.6034 7.40073 19.8671 7.91817C20.1668 8.50643 20.1668 9.2765 20.1668 10.8166V12.8333C20.1668 13.6858 20.1668 14.112 20.0731 14.4617C19.8188 15.4107 19.0776 16.152 18.1286 16.4063C17.7789 16.5 17.3526 16.5 16.5002 16.5M13.7502 9.62498H16.5002M8.4335 20.1666H13.5668C14.5936 20.1666 15.107 20.1666 15.4991 19.9668C15.8441 19.7911 16.1246 19.5106 16.3003 19.1656C16.5002 18.7735 16.5002 18.2601 16.5002 17.2333V15.7666C16.5002 14.7399 16.5002 14.2265 16.3003 13.8343C16.1246 13.4894 15.8441 13.2089 15.4991 13.0331C15.107 12.8333 14.5936 12.8333 13.5668 12.8333H8.4335C7.40673 12.8333 6.89335 12.8333 6.50118 13.0331C6.15622 13.2089 5.87575 13.4894 5.69998 13.8343C5.50016 14.2265 5.50016 14.7399 5.50016 15.7666V17.2333C5.50016 18.2601 5.50016 18.7735 5.69998 19.1656C5.87575 19.5106 6.15622 19.7911 6.50118 19.9668C6.89335 20.1666 7.40673 20.1666 8.4335 20.1666Z" stroke="#B8B4C8" stroke-width="2" stroke-linecap="round" stroke-linejoin="round"/>
</g>
<defs>
<clipPath id="clip0_834_2103">
<rect width="22" height="22" fill="white"/>
</clipPath>
</defs>
</svg>
