<svg width="454" height="373" viewBox="0 0 454 373" fill="none" xmlns="http://www.w3.org/2000/svg">
<g clip-path="url(#clip0_240_3327)">
<path d="M163.902 219.772C164.715 218.96 198.229 202.736 198.229 202.736L203.829 174.794L240.415 176.056L243.034 203.277L284.227 221.574" fill="#EDE1FA"/>
<path d="M242.402 195.886L240.505 176.146L203.92 174.885L202.836 180.383C206.63 185.25 211.237 189.486 216.386 192.821C221.354 195.976 226.955 198.41 232.827 198.319C236.169 198.229 239.421 197.418 242.402 195.886Z" fill="#5F259F"/>
<path d="M218.463 99.3519C230.387 97.5492 243.034 101.876 251.797 110.078C262.727 120.263 264.805 134.324 262.546 148.655C261.191 157.579 257.307 166.322 250.713 172.541C242.041 180.743 228.942 183.808 217.289 181.104C205.636 178.4 195.609 170.017 190.008 159.472C186.575 152.802 184.769 145.411 184.588 137.929C184.498 130.899 185.943 126.302 189.285 120.443C195.609 109.537 205.997 101.245 218.463 99.3519Z" fill="#EDE1FA"/>
<path d="M190.912 138.11C188.924 134.504 183.775 133.242 180.162 135.225C176.458 137.299 174.561 141.535 175.464 145.681C176.458 149.737 179.529 152.982 183.594 154.154C187.569 155.325 191.905 154.694 195.519 152.621" fill="#EDE1FA"/>
<path d="M199.945 132.521C208.256 126.933 219.186 126.663 227.677 131.981C224.877 136.127 220.27 138.831 215.302 139.191C210.424 139.552 203.468 137.749 199.945 132.521Z" fill="white"/>
<path d="M259.746 119.993C261.191 118.641 263.179 118.28 264.985 119.091C266.702 119.903 268.057 121.255 268.96 122.967C272.754 130.088 268.599 138.741 261.282 141.445" fill="#EDE1FA"/>
<path d="M200.306 133.062C208.436 127.564 219.005 127.384 227.407 132.521C228.129 132.972 228.852 131.8 228.129 131.35C219.367 125.942 208.256 126.212 199.674 131.89C198.951 132.431 199.674 133.603 200.306 133.062Z" fill="#5F259F"/>
<path d="M208.346 129.006C208.256 133.423 211.779 137.028 216.115 137.118C219.999 137.208 223.341 134.414 224.064 130.628C219.186 128.285 213.676 127.744 208.346 129.006Z" fill="#5F259F"/>
<path d="M233.73 125.851C235.717 125.671 237.343 127.203 237.524 129.096C237.614 129.907 237.343 130.719 236.892 131.35C236.44 132.071 237.614 132.792 238.066 132.071C239.602 129.817 238.969 126.843 236.711 125.311C235.808 124.77 234.814 124.409 233.73 124.499C232.827 124.499 232.827 125.851 233.73 125.851Z" fill="#5F259F"/>
<path d="M250.261 138.11C244.66 136.667 238.698 137.749 233.911 141.084C232.556 141.985 231.381 143.157 230.297 144.329C229.755 144.96 230.297 146.132 231.201 145.861C237.524 143.878 243.938 141.895 250.261 139.912C251.345 139.552 250.894 137.839 249.81 138.2C243.486 140.183 237.072 142.166 230.749 144.149L231.652 145.681C236.169 140.453 243.215 138.2 249.9 139.912C250.352 140.002 250.803 139.642 250.894 139.101C250.894 138.65 250.713 138.29 250.261 138.11Z" fill="#FF6D6D"/>
<path d="M190.46 159.472C192.086 157.398 193.621 155.145 195.338 153.072C193.26 154.154 190.911 154.785 188.563 154.875C188.834 156.497 189.556 158.029 190.46 159.472Z" fill="#495894"/>
<path d="M189.376 135.406C189.466 136.848 191.815 137.208 192.899 136.127C193.983 135.045 193.983 133.423 193.983 131.981C193.983 130.538 193.983 128.916 194.886 127.744C196.151 126.302 198.319 126.212 200.216 126.122C211.417 125.401 221.625 116.297 223.432 105.211C226.593 110.709 232.013 115.396 238.156 116.838C244.299 118.28 250.442 116.387 253.874 111.069C246.467 103.408 236.53 98.4506 225.871 97.2789C215.031 95.8367 203.468 98.3605 194.886 105.211C186.304 112.061 181.336 123.508 183.323 134.234C185.401 134.685 187.388 135.045 189.376 135.406Z" fill="#5F259F"/>
<path d="M227.045 102.326C227.226 94.9353 222.167 88.2653 215.844 84.3895C209.34 80.3335 201.39 78.9815 193.893 80.7842C186.575 82.677 180.071 88.2653 177.632 95.4761C175.193 102.687 177.09 111.34 182.691 116.387C188.292 121.435 197.506 122.426 203.829 118.19" fill="#5F259F"/>
<path d="M184.046 100.524C175.916 91.3299 164.534 84.3896 152.248 84.029C139.963 83.6685 127.135 90.6088 122.799 102.056C119.096 112.061 122.348 123.959 130.026 131.259C137.705 138.56 149.267 141.355 159.746 139.281C170.225 137.208 179.439 130.448 185.582 121.795" fill="#5F259F"/>
<path d="M257.849 117.379C253.332 117.649 249.267 120.083 246.919 123.868C248.725 126.302 251.435 127.924 254.416 128.195C257.036 128.375 259.656 127.564 261.734 125.851C260.74 121.885 259.927 120.804 257.849 117.379Z" fill="white"/>
<path d="M137.976 134.865C125.69 129.637 111.508 135.406 106.359 147.664C101.119 159.922 106.901 174.073 119.186 179.211C121.354 180.112 123.703 180.743 126.051 181.014C132.826 181.645 139.511 179.571 144.841 175.335C150.08 171.099 153.784 165.15 155.229 158.57C157.036 150.548 155.771 142.076 151.616 134.955" fill="#5F259F"/>
<path d="M261.282 124.319C259.385 126.482 256.313 127.203 253.694 126.122C251.255 124.86 250.08 122.066 250.713 119.452C253.061 118.37 255.681 117.739 258.21 117.649C259.294 119.812 260.649 122.156 261.282 124.319Z" fill="#5F259F"/>
<path d="M112.14 201.654C114.037 208.234 121.083 212.38 127.949 212.741C133.82 213.102 139.602 210.848 143.757 206.612C152.429 197.238 146.738 180.833 134.001 178.85C122.799 177.138 108.888 190.298 112.14 201.654Z" fill="#5F259F"/>
<path d="M204.462 122.877C204.281 122.877 204.191 122.787 204.1 122.697C204.01 122.516 204.01 122.336 204.191 122.156C206.72 119.722 210.153 118.37 213.676 118.37C216.115 118.37 218.554 119.001 220.632 120.353C220.812 120.443 220.903 120.714 220.812 120.894C220.722 121.074 220.541 121.164 220.361 121.164H220.27C219.186 120.984 218.012 120.894 216.928 120.894C212.772 120.984 208.527 121.615 204.462 122.877C204.552 122.787 204.462 122.787 204.462 122.877Z" fill="#5F259F"/>
<path d="M213.585 118.731C215.934 118.731 218.283 119.362 220.27 120.624C219.186 120.443 218.012 120.353 216.837 120.353C212.592 120.443 208.346 121.164 204.371 122.336C206.901 119.993 210.153 118.731 213.585 118.731ZM213.585 117.829C209.882 117.829 206.359 119.181 203.739 121.705C203.468 121.976 203.378 122.426 203.558 122.787C203.739 123.057 204.01 123.237 204.371 123.237H204.642C208.617 121.976 212.772 121.345 216.837 121.254C217.921 121.254 219.005 121.345 220.09 121.525H220.18C220.722 121.525 221.083 121.164 221.083 120.624C221.083 120.353 220.903 119.993 220.632 119.812C218.644 118.55 216.115 117.829 213.585 117.829Z" fill="#5F259F"/>
<path d="M77.4517 356.257H376.548C376.548 364.729 369.593 371.67 361.101 371.67H92.8988C84.4074 371.67 77.4517 364.729 77.4517 356.257Z" fill="#99D6FF" stroke="#77C8FF" stroke-miterlimit="10"/>
<path d="M117.47 218.419H340.776C347.912 218.419 353.694 224.188 353.694 231.309V372.459H104.552V231.309C104.552 224.188 110.333 218.419 117.47 218.419Z" fill="#495894"/>
<path d="M228.762 309.005C236.844 309.005 243.396 302.467 243.396 294.403C243.396 286.338 236.844 279.801 228.762 279.801C220.679 279.801 214.127 286.338 214.127 294.403C214.127 302.467 220.679 309.005 228.762 309.005Z" fill="white"/>
<path d="M247.461 124.139C249.9 120.353 254.145 118.01 258.662 118.01C259.024 118.01 259.385 117.739 259.385 117.289C259.385 116.838 259.114 116.568 258.662 116.568C253.603 116.568 248.996 119.182 246.286 123.418C245.835 124.229 247.009 124.86 247.461 124.139Z" fill="#5F259F"/>
<path d="M263.45 140.093C262.817 138.65 262.275 137.749 261.191 137.749C258.933 137.569 255.862 144.419 259.114 152.261L260.83 156.317C261.643 153.793 262.275 151.269 262.637 148.745C263.088 145.861 263.359 142.977 263.45 140.093Z" fill="#5F259F"/>
<path d="M310.966 218.419C310.604 217.338 270.496 150.368 267.876 143.968C265.257 137.569 265.076 134.054 262.818 133.873C260.559 133.693 257.488 140.543 260.74 148.385C263.992 156.227 267.154 163.798 267.154 163.798C267.154 163.798 264.082 166.051 264.986 169.026C264.986 169.026 260.288 167.223 258.662 171.64C258.211 173.262 258.391 175.065 259.295 176.507C259.295 176.507 253.152 174.254 250.713 178.76C248.906 182.185 249.177 192.28 249.358 196.787C249.448 198.77 250.351 200.663 251.887 202.015C253.603 203.457 256.223 203.998 259.024 199.401L269.051 218.419H310.966Z" fill="#EDE1FA"/>
<path d="M284.407 181.104L272.754 164.159C271.67 163.257 270.315 162.987 268.96 163.347" fill="#EDE1FA"/>
<path d="M284.407 181.104L272.754 164.159C271.67 163.257 270.315 162.987 268.96 163.347" stroke="#495894" stroke-miterlimit="10"/>
<path d="M264.986 169.116L276.819 188.405" stroke="#495894" stroke-miterlimit="10"/>
<path d="M259.294 176.597L269.141 193.813" stroke="#495894" stroke-miterlimit="10"/>
<path d="M253.694 186.782L260.469 202.015" stroke="#495894" stroke-miterlimit="10"/>
<path d="M300.577 200.843L295.157 179.481C294.434 176.777 293.712 174.073 291.905 171.91C290.098 169.747 285.401 168.846 282.691 171.009" fill="#EDE1FA"/>
<path opacity="0.21" d="M210.785 163.527C216.223 163.527 220.631 159.129 220.631 153.703C220.631 148.277 216.223 143.878 210.785 143.878C205.347 143.878 200.938 148.277 200.938 153.703C200.938 159.129 205.347 163.527 210.785 163.527Z" fill="#FF6D6D"/>
</g>
<g clip-path="url(#clip1_240_3327)">
<path d="M82.1007 75.3894C87.7398 75.3894 92.3112 70.8001 92.3112 65.1388C92.3112 59.4775 87.7398 54.8882 82.1007 54.8882C76.4616 54.8882 71.8901 59.4775 71.8901 65.1388C71.8901 70.8001 76.4616 75.3894 82.1007 75.3894Z" fill="#FFBC99"/>
<path d="M379.777 156.212H399.727L389.752 111.109L417.085 133.66V106.693L436.563 124.119L453.372 101.331" stroke="#342C53" stroke-width="2" stroke-miterlimit="10"/>
<path d="M0.809069 31.3116C0.180728 17.1185 12.9832 3.79265 27.1994 3.87151C41.4156 3.95036 53.9824 17.5127 53.1185 31.7059C52.6472 39.4333 46.9921 47.7914 39.3735 47.3183C31.8334 46.8452 27.3565 38.2505 27.2779 30.6808C27.1208 12.9394 45.814 -2.35771 63.0934 1.34828" stroke="#342C53" stroke-width="2" stroke-miterlimit="10"/>
</g>
<defs>
<clipPath id="clip0_240_3327">
<rect width="300" height="293" fill="white" transform="translate(77 80)"/>
</clipPath>
<clipPath id="clip1_240_3327">
<rect width="454" height="157" fill="white"/>
</clipPath>
</defs>
</svg>
