<svg width="22" height="21" viewBox="0 0 22 21" fill="none" xmlns="http://www.w3.org/2000/svg">
<path d="M14.9996 6.5C14.9996 7.56087 14.5782 8.57828 13.828 9.32843C13.0779 10.0786 12.0605 10.5 10.9996 10.5C9.93872 10.5 8.92131 10.0786 8.17116 9.32843C7.42102 8.57828 6.99959 7.56087 6.99959 6.5M2.63281 5.90138L1.93281 14.3014C1.78243 16.1059 1.70724 17.0082 2.01227 17.7042C2.28027 18.3157 2.74462 18.8204 3.33177 19.1382C4.00006 19.5 4.90545 19.5 6.71623 19.5H15.283C17.0937 19.5 17.9991 19.5 18.6674 19.1382C19.2546 18.8204 19.7189 18.3157 19.9869 17.7042C20.2919 17.0082 20.2167 16.1059 20.0664 14.3014L19.3664 5.90138C19.237 4.34875 19.1723 3.57243 18.8285 2.98486C18.5257 2.46744 18.0748 2.0526 17.5341 1.79385C16.92 1.5 16.141 1.5 14.583 1.5L7.41623 1.5C5.85821 1.5 5.07921 1.5 4.4651 1.79384C3.92433 2.0526 3.47349 2.46744 3.17071 2.98486C2.82689 3.57243 2.76219 4.34875 2.63281 5.90138Z" stroke="#8E37ED" stroke-width="2" stroke-linecap="round" stroke-linejoin="round"/>
</svg>
