<svg width="22" height="23" viewBox="0 0 22 23" fill="none" xmlns="http://www.w3.org/2000/svg">
<path d="M14.6664 7.83333C14.6664 8.80579 14.2801 9.73842 13.5924 10.4261C12.9048 11.1137 11.9722 11.5 10.9997 11.5C10.0272 11.5 9.09461 11.1137 8.40698 10.4261C7.71935 9.73842 7.33304 8.80579 7.33304 7.83333M3.33015 7.2846L2.68849 14.9846C2.55064 16.6387 2.48172 17.4658 2.76133 18.1038C3.007 18.6644 3.43265 19.127 3.97087 19.4184C4.58347 19.75 5.41341 19.75 7.07329 19.75H14.9261C16.586 19.75 17.4159 19.75 18.0285 19.4184C18.5668 19.127 18.9924 18.6644 19.2381 18.1038C19.5177 17.4658 19.4488 16.6387 19.3109 14.9846L18.6693 7.2846C18.5507 5.86135 18.4913 5.14973 18.1762 4.61112C17.8986 4.13682 17.4854 3.75655 16.9897 3.51936C16.4267 3.25 15.7126 3.25 14.2845 3.25L7.71496 3.25C6.28678 3.25 5.57269 3.25 5.00976 3.51936C4.51405 3.75655 4.10078 4.13682 3.82324 4.61112C3.50806 5.14973 3.44876 5.86135 3.33015 7.2846Z" stroke="white" stroke-width="2" stroke-linecap="round" stroke-linejoin="round"/>
</svg>
