<svg width="46" height="46" viewBox="0 0 46 46" fill="none" xmlns="http://www.w3.org/2000/svg">
<g clip-path="url(#clip0_465_4312)">
<path d="M33.0625 10.0625H12.9375C9.50626 10.0625 6.21556 11.4256 3.78931 13.8518C1.36305 16.2781 0 19.5688 0 23C0 26.4312 1.36305 29.7219 3.78931 32.1482C6.21556 34.5744 9.50626 35.9375 12.9375 35.9375H33.0625C36.4937 35.9375 39.7844 34.5744 42.2107 32.1482C44.6369 29.7219 46 26.4312 46 23C46 19.5688 44.6369 16.2781 42.2107 13.8518C39.7844 11.4256 36.4937 10.0625 33.0625 10.0625ZM33.0625 30.7266C31.5343 30.7266 30.0405 30.2734 28.7699 29.4244C27.4992 28.5754 26.5089 27.3687 25.9241 25.9568C25.3393 24.545 25.1863 22.9914 25.4844 21.4926C25.7825 19.9938 26.5184 18.6171 27.599 17.5365C28.6796 16.4559 30.0563 15.72 31.5551 15.4219C33.0539 15.1238 34.6075 15.2768 36.0193 15.8616C37.4312 16.4464 38.6379 17.4367 39.4869 18.7074C40.3359 19.978 40.7891 21.4718 40.7891 23C40.7905 24.0151 40.5916 25.0204 40.2038 25.9585C39.816 26.8966 39.2469 27.7489 38.5292 28.4667C37.8114 29.1844 36.9591 29.7535 36.021 30.1413C35.0829 30.5291 34.0776 30.728 33.0625 30.7266Z" fill="#8E37ED"/>
<path d="M12.6921 23.3636C12.6921 24.1473 12.5453 24.8184 12.2518 25.3771C11.9606 25.9335 11.5628 26.3596 11.0586 26.6555C10.5567 26.9515 9.98732 27.0994 9.35049 27.0994C8.71365 27.0994 8.1431 26.9515 7.63884 26.6555C7.13694 26.3572 6.73922 25.9299 6.44566 25.3736C6.15446 24.8149 6.00887 24.1449 6.00887 23.3636C6.00887 22.58 6.15446 21.91 6.44566 21.3537C6.73922 20.795 7.13694 20.3677 7.63884 20.0717C8.1431 19.7758 8.71365 19.6278 9.35049 19.6278C9.98732 19.6278 10.5567 19.7758 11.0586 20.0717C11.5628 20.3677 11.9606 20.795 12.2518 21.3537C12.5453 21.91 12.6921 22.58 12.6921 23.3636ZM11.3675 23.3636C11.3675 22.812 11.2811 22.3468 11.1083 21.968C10.9378 21.5869 10.7011 21.2992 10.3981 21.1051C10.095 20.9086 9.74585 20.8104 9.35049 20.8104C8.95513 20.8104 8.60593 20.9086 8.3029 21.1051C7.99987 21.2992 7.76194 21.5869 7.58912 21.968C7.41867 22.3468 7.33344 22.812 7.33344 23.3636C7.33344 23.9152 7.41867 24.3816 7.58912 24.7628C7.76194 25.1416 7.99987 25.4292 8.3029 25.6257C8.60593 25.8198 8.95513 25.9169 9.35049 25.9169C9.74585 25.9169 10.095 25.8198 10.3981 25.6257C10.7011 25.4292 10.9378 25.1416 11.1083 24.7628C11.2811 24.3816 11.3675 23.9152 11.3675 23.3636ZM19.9142 19.7273V27H18.7424L15.3155 22.0462H15.2551V27H13.9377V19.7273H15.1166L18.5399 24.6847H18.6039V19.7273H19.9142Z" fill="white"/>
</g>
<defs>
<clipPath id="clip0_465_4312">
<rect width="46" height="46" fill="white"/>
</clipPath>
</defs>
</svg>
