<svg width="46" height="46" viewBox="0 0 46 46" fill="none" xmlns="http://www.w3.org/2000/svg">
<g clip-path="url(#clip0_465_4314)">
<path d="M33.0625 10.0625L12.9375 10.0625C9.50626 10.0625 6.21556 11.4256 3.78931 13.8518C1.36305 16.2781 0 19.5688 0 23C0 26.4312 1.36305 29.7219 3.78931 32.1482C6.21556 34.5744 9.50626 35.9375 12.9375 35.9375H33.0625C36.4937 35.9375 39.7844 34.5744 42.2107 32.1482C44.6369 29.7219 46 26.4312 46 23C46 19.5688 44.6369 16.2781 42.2107 13.8518C39.7844 11.4256 36.4937 10.0625 33.0625 10.0625ZM13.0625 30.7266C11.5343 30.7266 10.0405 30.2734 8.76985 29.4244C7.49923 28.5754 6.50889 27.3687 5.92409 25.9568C5.33928 24.545 5.18627 22.9914 5.4844 21.4926C5.78253 19.9938 6.51841 18.6171 7.59899 17.5365C8.67957 16.4559 10.0563 15.72 11.5551 15.4219C13.0539 15.1238 14.6075 15.2768 16.0193 15.8616C17.4312 16.4464 18.6379 17.4367 19.4869 18.7074C20.3359 19.978 20.7891 21.4718 20.7891 23C20.7905 24.0151 20.5916 25.0204 20.2038 25.9585C19.816 26.8966 19.2469 27.7489 18.5292 28.4667C17.8114 29.1844 16.9591 29.7535 16.021 30.1413C15.0829 30.5291 14.0776 30.728 13.0625 30.7266Z" fill="#E7E4F2"/>
<path d="M30.2159 23.3636C30.2159 24.1473 30.0691 24.8184 29.7756 25.3771C29.4844 25.9335 29.0866 26.3596 28.5824 26.6555C28.0805 26.9515 27.5111 27.0994 26.8743 27.0994C26.2375 27.0994 25.6669 26.9515 25.1626 26.6555C24.6607 26.3572 24.263 25.9299 23.9695 25.3736C23.6783 24.8149 23.5327 24.1449 23.5327 23.3636C23.5327 22.58 23.6783 21.91 23.9695 21.3537C24.263 20.795 24.6607 20.3677 25.1626 20.0717C25.6669 19.7758 26.2375 19.6278 26.8743 19.6278C27.5111 19.6278 28.0805 19.7758 28.5824 20.0717C29.0866 20.3677 29.4844 20.795 29.7756 21.3537C30.0691 21.91 30.2159 22.58 30.2159 23.3636ZM28.8913 23.3636C28.8913 22.812 28.8049 22.3468 28.6321 21.968C28.4616 21.5869 28.2249 21.2992 27.9219 21.1051C27.6188 20.9086 27.2696 20.8104 26.8743 20.8104C26.4789 20.8104 26.1297 20.9086 25.8267 21.1051C25.5237 21.2992 25.2857 21.5869 25.1129 21.968C24.9425 22.3468 24.8572 22.812 24.8572 23.3636C24.8572 23.9152 24.9425 24.3816 25.1129 24.7628C25.2857 25.1416 25.5237 25.4292 25.8267 25.6257C26.1297 25.8198 26.4789 25.9169 26.8743 25.9169C27.2696 25.9169 27.6188 25.8198 27.9219 25.6257C28.2249 25.4292 28.4616 25.1416 28.6321 24.7628C28.8049 24.3816 28.8913 23.9152 28.8913 23.3636ZM31.4615 27L31.4615 19.7273L36.1206 19.7273L36.1206 20.8317L32.7789 20.8317L32.7789 22.8061L35.801 22.8061L35.801 23.9105L32.7789 23.9105L32.7789 27L31.4615 27ZM37.3208 27L37.3208 19.7273L41.9799 19.7273L41.9799 20.8317L38.6383 20.8317L38.6383 22.8061L41.6603 22.8061L41.6603 23.9105L38.6383 23.9105L38.6383 27L37.3208 27Z" fill="#B8B4C8"/>
</g>
<defs>
<clipPath id="clip0_465_4314">
<rect width="46" height="46" fill="white"/>
</clipPath>
</defs>
</svg>
