<svg width="225" height="163" viewBox="0 0 225 163" fill="none" xmlns="http://www.w3.org/2000/svg">
<g clip-path="url(#clip0_586_4883)">
<path d="M67.6953 112.337H81.5421" stroke="#5F259F" stroke-width="0.566522" stroke-miterlimit="10"/>
<path d="M14.3084 27.7472C15.8469 27.3627 17.3085 26.7475 18.6163 25.9016C17.3085 25.0557 15.8469 24.4405 14.3084 24.056C12.7698 23.6715 11.539 22.4411 11.1544 20.9031C10.7697 19.3651 10.1543 17.904 9.30814 16.5967C8.46194 17.904 7.84653 19.3651 7.4619 20.9031C7.07726 22.4411 5.84643 23.6715 4.3079 24.056C2.76936 24.4405 1.30775 25.0557 0 25.9016C1.30775 26.7475 2.76936 27.3627 4.3079 27.7472C5.84643 28.1317 7.07726 29.3621 7.4619 30.9001C7.84653 32.4381 8.46194 33.8992 9.30814 35.2065C10.1543 33.8992 10.7697 32.4381 11.1544 30.9001C11.539 29.3621 12.7698 28.2086 14.3084 27.7472Z" fill="#FFE699"/>
<path d="M34.2321 75.5791L25.3855 82.577" stroke="#342C53" stroke-width="0.424891" stroke-miterlimit="10"/>
<path d="M103.158 16.2124C103.158 16.2124 102.312 41.0511 104.466 45.1268C106.235 48.7411 110.312 50.5867 114.159 49.587L114.697 62.9676C114.697 62.9676 126.929 79.8856 141.468 61.2758L139.621 39.0517C139.621 39.0517 142.852 41.2049 146.468 34.8991C150.084 28.5933 146.545 19.8267 140.16 25.6711L138.852 26.9015L138.468 17.9811L103.158 16.2124Z" fill="#EDE1FA"/>
<path d="M100.774 16.8278C100.774 16.8278 99.8507 11.3679 102.928 7.29215C106.005 3.21645 121.39 -2.16655 129.775 0.909448C138.16 3.98545 138.699 14.29 138.853 18.3658L100.774 16.8278Z" fill="#5F259F" stroke="#2D7CB3" stroke-width="0.566522" stroke-miterlimit="10"/>
<path opacity="0.46" d="M82.3105 72.426C82.3105 72.426 88.8493 63.2749 96.542 59.7375L114.389 54.8159L114.62 61.0448C114.62 61.0448 128.62 71.657 140.929 59.8144V54.2007C140.929 54.2007 167.161 62.1983 176.469 70.5035C182.777 76.1172 192.854 105.108 192.854 105.108L166.391 111.337L101.311 111.645V167.013H94.3111L92.9264 111.722" fill="#8E37ED"/>
<path d="M56.925 137.1L70.9257 158.632C73.6951 162.861 78.3107 165.399 83.3878 165.399C87.465 165.399 91.3113 163.784 94.0807 160.862L96.1577 109.954L92.9268 111.723L86.7726 85.1152L56.925 137.1Z" fill="#EDE1FA"/>
<path d="M22.6164 69.7349L38.2325 135.1C39.3095 139.714 44.0021 142.636 48.6177 141.483C48.8484 141.406 49.0792 141.329 49.31 141.252L89.0811 128.179C93.389 126.795 95.8507 122.258 94.7737 117.874L78.6191 53.2783C77.4652 48.6643 72.7727 45.819 68.1571 46.9725C68.0032 47.0494 67.8493 47.0494 67.6955 47.1263L28.4628 59.4303C24.1549 60.8145 21.6164 65.2747 22.6164 69.7349Z" fill="#E0FFE4" stroke="#6ADB78" stroke-width="0.566522" stroke-miterlimit="10"/>
<path d="M74.4644 95.8041L49.0016 105.878L48.54 104.032L73.9259 93.9585L74.4644 95.8041Z" fill="#6ADB78"/>
<path d="M72.2337 102.725L54.0021 109.876L53.5405 107.954L71.7722 100.802L72.2337 102.725Z" fill="#6ADB78"/>
<path d="M40.3092 91.6514L36.232 98.88L33.5396 116.029L29.1548 97.9572L40.3092 91.6514Z" fill="#2D7CB3"/>
<path d="M33.5404 116.029C32.7711 115.26 28.2324 110.184 24.8477 106.416C22.386 103.725 20.8475 100.264 20.5398 96.6499L19.6166 86.6529C19.3089 83.1924 21.0013 79.8857 24.0015 78.1939L33.3865 72.8878C34.6943 72.1957 36.3097 72.5802 37.0021 73.8875C37.079 73.9644 37.079 74.1182 37.1559 74.1951L37.3098 74.5796C37.6944 75.5024 37.5406 76.5021 36.9252 77.1942L34.2327 80.5778L39.156 77.9632C40.5407 77.4249 42.0023 78.0401 42.6177 79.4243L42.7716 79.7319C43.2332 80.7316 42.9254 81.962 42.0793 82.731L34.6174 89.1137L36.7713 88.0371C38.0791 87.4219 39.6945 87.9602 40.3099 89.2675C40.8484 90.421 40.4638 91.8052 39.4637 92.4973C37.2329 94.1122 33.7712 96.8037 33.6173 97.1113C33.4635 97.6496 31.6172 108.108 31.6172 108.108L33.5404 116.029Z" fill="#EDE1FA"/>
<path d="M83.7737 129.947L88.8509 140.329" stroke="#342C53" stroke-width="0.424891" stroke-miterlimit="10"/>
<path d="M183.931 111.645H101.389V171.781H183.931V111.645Z" fill="#FFA06D" stroke="#FFE699" stroke-width="0.566522" stroke-miterlimit="10"/>
<path d="M133.93 112.107H116.621V131.716H133.93V112.107Z" fill="white"/>
<g clip-path="url(#clip1_586_4883)">
<path d="M102.851 162.553L203.778 61.6606" stroke="#FFE699" stroke-width="0.566522" stroke-miterlimit="10"/>
<path d="M106.543 166.244L207.548 65.3516" stroke="#FFE699" stroke-width="0.566522" stroke-miterlimit="10"/>
<path d="M110.236 169.936L211.241 69.043" stroke="#FFE699" stroke-width="0.566522" stroke-miterlimit="10"/>
<path d="M113.928 173.627L214.933 72.7339" stroke="#FFE699" stroke-width="0.566522" stroke-miterlimit="10"/>
<path d="M117.62 177.318L218.625 76.4253" stroke="#FFE699" stroke-width="0.566522" stroke-miterlimit="10"/>
<path d="M121.313 181.009L222.318 80.1162" stroke="#FFE699" stroke-width="0.566522" stroke-miterlimit="10"/>
<path d="M125.005 184.7L226.01 83.8076" stroke="#FFE699" stroke-width="0.566522" stroke-miterlimit="10"/>
<path d="M128.698 188.469L229.703 87.499" stroke="#FFE699" stroke-width="0.566522" stroke-miterlimit="10"/>
<path d="M132.39 192.16L233.395 91.1899" stroke="#FFE699" stroke-width="0.566522" stroke-miterlimit="10"/>
<path d="M136.083 195.774L237.088 94.8813" stroke="#FFE699" stroke-width="0.566522" stroke-miterlimit="10"/>
<path d="M139.853 199.543L240.78 98.5728" stroke="#FFE699" stroke-width="0.566522" stroke-miterlimit="10"/>
<path d="M143.544 203.233L244.472 102.264" stroke="#FFE699" stroke-width="0.566522" stroke-miterlimit="10"/>
<path d="M147.238 206.925L248.165 105.955" stroke="#FFE699" stroke-width="0.566522" stroke-miterlimit="10"/>
</g>
<path d="M183.855 111.645H150.853V171.781H183.855V111.645Z" stroke="#FFE699" stroke-width="0.566522" stroke-miterlimit="10"/>
<path d="M189.547 105.877L198.701 162.014C199.624 168.628 196.393 175.087 190.547 178.394C183.854 182.162 176.085 186.546 175.931 186.776C175.7 187.238 165.392 181.316 162.161 171.781H173.161L178.546 164.321L166.469 111.337L189.547 105.877Z" fill="#EDE1FA"/>
<path d="M102.774 22.4416H88.8499C88.8499 22.4416 88.6961 16.9048 101.081 16.9048L103.081 16.9817L102.774 22.4416Z" fill="#342C53"/>
<path d="M158.084 110.569L154.469 77.4248" stroke="#8E37ED" stroke-width="0.566522" stroke-miterlimit="10"/>
<path d="M138.93 26.9013L138.545 18.2885C138.545 18.0578 127.16 17.7502 125.929 17.6733C126.006 20.0572 127.006 22.3642 128.621 24.1329C129.929 25.2864 131.545 26.2092 133.16 26.8244L136.16 28.1317C137.776 28.8238 138.006 28.5162 138.93 26.9013Z" fill="#2D7CB3"/>
<path d="M139.313 33.7459L144.929 29.5933" stroke="#342C53" stroke-width="0.566522" stroke-linecap="round" stroke-linejoin="round"/>
<path d="M108.466 39.3593C111.697 39.8976 115.005 39.0517 117.62 37.0523C117.928 36.8216 117.466 36.4371 117.236 36.6678C114.774 38.5903 111.697 39.3593 108.697 38.821C108.235 38.7441 108.081 39.2824 108.466 39.3593Z" fill="#342C53"/>
<g clip-path="url(#clip2_586_4883)">
<path d="M93.312 28.0549C95.389 24.9789 99.5431 24.2099 102.543 26.2093C103.697 26.9783 104.543 28.0549 105.082 29.3622C100.851 31.4385 96.2352 31.5923 93.312 28.0549Z" fill="white"/>
</g>
<path d="M114.159 50.0486L122.468 46.3574L114.39 55.2778L114.159 50.0486Z" fill="#342C53"/>
<path d="M112.697 17.2121L103.158 16.9814C103.158 17.0583 103.158 17.1352 103.081 17.1352C101.774 17.7504 100.543 18.6732 99.6198 19.8267C98.6967 21.2109 98.4659 22.9796 99.0044 24.5176C99.7736 26.1325 101.158 27.2091 102.928 27.5936C103.005 27.5936 102.928 25.1328 102.928 24.9021C103.081 23.8255 103.312 22.7489 104.389 22.4413C105.466 22.1337 106.62 22.5182 107.697 22.5951C110.928 22.672 111.928 19.8267 112.851 17.3659C112.851 17.3659 112.774 17.2121 112.697 17.2121Z" fill="#2D7CB3"/>
<path d="M122.237 28.2856C120.16 25.5172 116.313 24.902 113.544 26.9783C112.467 27.7473 111.698 28.8239 111.313 30.0543C115.236 31.7461 119.16 30.5926 122.237 28.2856Z" fill="white"/>
<path d="M108.467 30.5161C108.005 31.2851 107.774 32.2079 107.928 33.1307C108.082 33.8997 108.62 34.438 109.313 34.6687C109.697 34.7456 109.851 34.2073 109.467 34.1304C108.928 33.9766 108.544 33.5152 108.467 32.9769C108.467 32.2079 108.62 31.5158 109.005 30.8237C109.082 30.6699 109.005 30.5161 108.928 30.4392C108.697 30.3623 108.544 30.3623 108.467 30.5161Z" fill="#342C53"/>
<path d="M122.467 23.2871C120.082 21.9798 117.159 22.0567 114.774 23.364C117.313 23.2871 119.928 23.2871 122.467 23.2871Z" fill="#342C53"/>
<path d="M122.62 22.9794C120.082 21.6721 117.082 21.6721 114.62 23.0563C114.466 23.1332 114.466 23.287 114.543 23.4408C114.62 23.5177 114.697 23.5946 114.774 23.5946C117.312 23.5946 119.928 23.5946 122.466 23.5177C122.62 23.5177 122.697 23.3639 122.697 23.2101C122.697 23.0563 122.543 22.9794 122.466 22.9794C119.928 22.9794 117.312 23.0563 114.774 23.0563L114.928 23.5946C117.235 22.3642 120.005 22.2873 122.313 23.5177C122.697 23.6715 122.928 23.2101 122.62 22.9794Z" fill="#342C53"/>
<path d="M117.775 30.5161C117.775 29.6702 117.544 28.8243 117.006 28.1322C116.313 27.2863 115.313 26.748 114.159 26.5942C112.775 27.3632 111.775 28.5936 111.236 30.0547C113.313 30.9006 115.621 31.1313 117.775 30.5161Z" fill="#342C53"/>
<path d="M37.3863 87.1909L26.3088 96.0344" stroke="#342C53" stroke-width="0.424891" stroke-miterlimit="10"/>
<path d="M138.699 13.6748H129.391V17.7505H138.699V13.6748Z" stroke="white" stroke-width="0.566522" stroke-miterlimit="10"/>
<path d="M35.1544 79.8091L24.0769 88.6526" stroke="#342C53" stroke-width="0.424891" stroke-miterlimit="10"/>
<path d="M163.16 111.415L170.93 166.937L162.083 171.782H173.084L178.469 164.322L166.391 111.338L163.16 111.415Z" fill="#FFE699"/>
<path d="M139.622 39.0515L135.699 38.5132L139.853 42.0506L139.622 39.0515Z" fill="#342C53"/>
<path opacity="0.21" d="M123.313 39.2056C125.65 39.2056 127.544 37.312 127.544 34.9761C127.544 32.6402 125.65 30.7466 123.313 30.7466C120.977 30.7466 119.082 32.6402 119.082 34.9761C119.082 37.312 120.977 39.2056 123.313 39.2056Z" fill="#8E37ED"/>
<path d="M96.1578 109.877L97.4655 79.8086L95.0808 75.5791" stroke="#8E37ED" stroke-width="0.566522" stroke-miterlimit="10"/>
<path opacity="0.43" d="M167.084 114.26L191.008 114.798L189.547 105.877L166.392 111.337L167.084 114.26Z" fill="#2D7CB3"/>
<path d="M33.9237 38.0524C35.4531 38.0524 36.693 36.813 36.693 35.284C36.693 33.7551 35.4531 32.5156 33.9237 32.5156C32.3942 32.5156 31.1543 33.7551 31.1543 35.284C31.1543 36.813 32.3942 38.0524 33.9237 38.0524Z" fill="#FFE699"/>
<path d="M100.389 16.8276C102.62 16.9045 104.851 17.4428 106.928 18.2887C109.005 19.1346 110.697 20.6726 112.697 21.6723C114.082 22.4413 115.543 22.9027 117.082 23.0565C118.467 23.0565 119.774 22.7489 120.928 22.0568C122.159 21.4416 127.929 18.1349 128.236 17.9042L100.389 16.8276Z" fill="#5F259F" stroke="#2D7CB3" stroke-width="0.566522" stroke-miterlimit="10"/>
<path d="M217.933 73.7335C220.549 73.0414 223.088 71.9648 225.395 70.5806C223.088 69.1195 220.549 68.0429 217.933 67.3508C215.241 66.6587 213.164 64.5824 212.472 61.8909C211.779 59.2763 210.779 56.7386 209.318 54.4316C207.856 56.7386 206.779 59.2763 206.164 61.8909C205.471 64.5824 203.394 66.6587 200.702 67.3508C198.086 68.0429 195.548 69.1195 193.24 70.5037C195.548 71.9648 198.086 73.0414 200.702 73.6566C203.394 74.3487 205.471 76.425 206.164 79.1165C206.856 81.7311 207.933 84.2689 209.318 86.5759C210.779 84.2689 211.856 81.7311 212.549 79.1165C213.241 76.5019 215.241 74.4256 217.933 73.7335Z" fill="#A3F2AD"/>
<g clip-path="url(#clip3_586_4883)">
<path d="M57.2029 95.1457C62.4653 93.7361 65.6172 88.2787 64.2072 83.0181C62.7971 77.7575 57.3378 74.6067 52.0754 76.0162C46.8129 77.4258 43.661 82.8832 45.0711 88.1438C46.4811 93.4044 51.9404 96.5552 57.2029 95.1457Z" fill="#A3F2AD"/>
<path d="M50.5727 86.6702L54.006 88.6517L57.98 81.7849" stroke="#2DB33E" stroke-width="1.5" stroke-linecap="round" stroke-linejoin="round"/>
</g>
</g>
<defs>
<clipPath id="clip0_586_4883">
<rect width="225" height="163" fill="white"/>
</clipPath>
<clipPath id="clip1_586_4883">
<rect width="47.5257" height="61.0833" fill="white" transform="translate(103.199 111.308)"/>
</clipPath>
<clipPath id="clip2_586_4883">
<rect width="2.71576" height="5.42963" fill="white" transform="translate(102.504 24.9448)"/>
</clipPath>
<clipPath id="clip3_586_4883">
<rect width="23.7728" height="23.7656" fill="white" transform="matrix(0.965948 -0.258735 0.258903 0.965903 40.0811 77.1787)"/>
</clipPath>
</defs>
</svg>
