<svg width="255" height="211" viewBox="0 0 255 211" fill="none" xmlns="http://www.w3.org/2000/svg">
<g clip-path="url(#clip0_586_5083)">
<path d="M92.0591 124.258C92.5157 123.802 111.34 114.689 111.34 114.689L114.485 98.9951L135.035 99.7039L136.506 114.993L159.643 125.27" fill="#EDE1FA"/>
<path d="M136.151 110.841L135.085 99.7542L114.536 99.0454L113.927 102.134C116.058 104.867 118.646 107.247 121.538 109.12C124.329 110.892 127.474 112.259 130.772 112.208C132.65 112.158 134.476 111.702 136.151 110.841Z" fill="#5F259F"/>
<path d="M122.705 56.6211C129.402 55.6086 136.506 58.0386 141.427 62.6456C147.567 68.3664 148.734 76.2641 147.465 84.3136C146.704 89.3256 144.522 94.2363 140.819 97.7295C135.948 102.337 128.591 104.058 122.045 102.539C115.5 101.02 109.868 96.312 106.722 90.3888C104.794 86.6424 103.779 82.4911 103.678 78.2891C103.627 74.3403 104.439 71.7583 106.316 68.4676C109.868 62.3419 115.703 57.6843 122.705 56.6211Z" fill="#EDE1FA"/>
<path d="M107.23 78.3901C106.113 76.3651 103.221 75.6563 101.192 76.7701C99.1115 77.9345 98.046 80.3139 98.5534 82.6427C99.1115 84.9209 100.837 86.7434 103.12 87.4016C105.352 88.0597 107.788 87.7053 109.817 86.5409" fill="#EDE1FA"/>
<path d="M112.304 75.2515C116.972 72.1127 123.111 71.9608 127.88 74.9478C126.308 77.2766 123.72 78.7954 120.929 78.9979C118.189 79.2004 114.283 78.1879 112.304 75.2515Z" fill="white"/>
<path d="M145.892 68.2145C146.704 67.4551 147.82 67.2526 148.835 67.7082C149.799 68.1639 150.56 68.9233 151.067 69.8852C153.198 73.8846 150.864 78.7447 146.755 80.2635" fill="#EDE1FA"/>
<path d="M112.507 75.555C117.073 72.4668 123.009 72.3656 127.728 75.2513C128.134 75.5044 128.54 74.8462 128.134 74.5931C123.212 71.5555 116.972 71.7074 112.151 74.8969C111.745 75.2006 112.151 75.8588 112.507 75.555Z" fill="#5F259F"/>
<path d="M117.022 73.2769C116.971 75.7576 118.95 77.7826 121.385 77.8332C123.567 77.8839 125.445 76.3145 125.85 74.1882C123.111 72.8719 120.016 72.5681 117.022 73.2769Z" fill="#5F259F"/>
<path d="M131.279 71.5049C132.396 71.4037 133.309 72.2643 133.41 73.3275C133.461 73.7831 133.309 74.2388 133.055 74.5931C132.802 74.9981 133.461 75.4032 133.715 74.9981C134.577 73.7325 134.222 72.0618 132.954 71.2012C132.446 70.8974 131.888 70.6949 131.279 70.7455C130.772 70.7455 130.772 71.5049 131.279 71.5049Z" fill="#5F259F"/>
<path d="M140.565 78.3903C137.419 77.5803 134.07 78.1878 131.381 80.061C130.62 80.5673 129.96 81.2254 129.351 81.8835C129.047 82.2379 129.351 82.8961 129.859 82.7442C133.411 81.6304 137.013 80.5166 140.565 79.4029C141.173 79.2003 140.92 78.2384 140.311 78.441C136.759 79.5547 133.157 80.6685 129.605 81.7823L130.113 82.6429C132.649 79.7066 136.607 78.441 140.362 79.4029C140.615 79.4535 140.869 79.251 140.92 78.9472C140.92 78.6941 140.818 78.4916 140.565 78.3903Z" fill="#FF6D6D"/>
<path d="M106.976 90.3884C107.889 89.224 108.752 87.9583 109.716 86.7939C108.549 87.4015 107.23 87.7558 105.911 87.8065C106.063 88.7177 106.469 89.5784 106.976 90.3884Z" fill="#495894"/>
<path d="M106.367 76.8714C106.418 77.6814 107.737 77.8839 108.346 77.2764C108.955 76.6689 108.955 75.7576 108.955 74.9476C108.955 74.1376 108.955 73.2263 109.462 72.5682C110.172 71.7582 111.39 71.7075 112.456 71.6569C118.747 71.2519 124.481 66.1386 125.495 59.9116C127.271 62.9998 130.316 65.6324 133.766 66.4424C137.216 67.2524 140.666 66.1893 142.594 63.2023C138.434 58.8991 132.853 56.1147 126.865 55.4565C120.777 54.6465 114.282 56.064 109.462 59.9116C104.642 63.7592 101.851 70.1887 102.968 76.2133C104.135 76.4664 105.251 76.6689 106.367 76.8714Z" fill="#5F259F"/>
<path d="M127.525 58.2916C127.627 54.1403 124.785 50.394 121.233 48.217C117.58 45.9389 113.115 45.1795 108.904 46.192C104.794 47.2551 101.141 50.394 99.7712 54.444C98.4012 58.4941 99.4667 63.3542 102.613 66.1893C105.758 69.0244 110.934 69.5813 114.485 67.2018" fill="#5F259F"/>
<path d="M103.374 57.2789C98.8072 52.1151 92.4141 48.2169 85.5137 48.0144C78.6133 47.8119 71.4085 51.7101 68.973 58.1396C66.8927 63.7591 68.7193 70.4417 73.0321 74.5425C77.3448 78.6432 83.8394 80.2126 89.725 79.0482C95.6107 77.8838 100.786 74.0868 104.236 69.2267" fill="#5F259F"/>
<path d="M144.827 66.7461C142.29 66.898 140.007 68.2649 138.688 70.3912C139.702 71.7581 141.224 72.6694 142.899 72.8212C144.37 72.9225 145.842 72.4668 147.009 71.505C146.45 69.2774 145.994 68.6699 144.827 66.7461Z" fill="white"/>
<path d="M77.4969 76.5676C70.5965 73.6313 62.6306 76.8714 59.7385 83.7565C56.7956 90.6417 60.0429 98.59 66.9433 101.476C68.161 101.982 69.4802 102.336 70.7994 102.488C74.6048 102.843 78.3595 101.678 81.353 99.2988C84.2958 96.9193 86.3761 93.578 87.1879 89.8823C88.2027 85.3766 87.4924 80.6177 85.1584 76.6182" fill="#5F259F"/>
<path d="M146.755 70.6443C145.689 71.8593 143.964 72.2643 142.493 71.6568C141.123 70.948 140.463 69.3786 140.819 67.9105C142.138 67.303 143.609 66.9486 145.03 66.8979C145.639 68.113 146.4 69.4293 146.755 70.6443Z" fill="#5F259F"/>
<path d="M62.9858 114.081C64.0513 117.777 68.0089 120.106 71.865 120.308C75.163 120.511 78.4102 119.245 80.7442 116.866C85.6151 111.601 82.4186 102.387 75.2644 101.273C68.9729 100.311 61.1592 107.702 62.9858 114.081Z" fill="#5F259F"/>
<path d="M114.84 69.8345C114.739 69.8345 114.688 69.7839 114.637 69.7333C114.587 69.632 114.587 69.5308 114.688 69.4295C116.109 68.0626 118.037 67.3032 120.016 67.3032C121.386 67.3032 122.755 67.6576 123.922 68.417C124.024 68.4676 124.075 68.6195 124.024 68.7208C123.973 68.822 123.872 68.8726 123.77 68.8726H123.72C123.111 68.7714 122.451 68.7208 121.842 68.7208C119.508 68.7714 117.124 69.1258 114.84 69.8345C114.891 69.7839 114.84 69.7839 114.84 69.8345Z" fill="#5F259F"/>
<path d="M119.965 67.5053C121.284 67.5053 122.603 67.8597 123.72 68.5684C123.111 68.4672 122.451 68.4166 121.792 68.4166C119.407 68.4672 117.022 68.8722 114.79 69.5303C116.21 68.2141 118.037 67.5053 119.965 67.5053ZM119.965 66.999C117.885 66.999 115.906 67.7584 114.435 69.1759C114.282 69.3278 114.232 69.581 114.333 69.7835C114.435 69.9353 114.587 70.0366 114.79 70.0366H114.942C117.174 69.3278 119.508 68.9734 121.792 68.9228C122.4 68.9228 123.009 68.9734 123.618 69.0747H123.669C123.973 69.0747 124.176 68.8722 124.176 68.5684C124.176 68.4166 124.075 68.214 123.923 68.1128C122.806 67.404 121.386 66.999 119.965 66.999Z" fill="#5F259F"/>
<path d="M43.5024 200.917H211.497C211.497 205.676 207.59 209.575 202.821 209.575H52.1787C47.4093 209.575 43.5024 205.676 43.5024 200.917Z" fill="#FF9999" stroke="#FFE0E0" stroke-miterlimit="10"/>
<path d="M65.9792 123.498H191.405C195.413 123.498 198.66 126.738 198.66 130.738V210.018H58.7236V130.738C58.7236 126.738 61.9709 123.498 65.9792 123.498Z" fill="#495894"/>
<path d="M128.489 174.377C133.029 174.377 136.709 170.706 136.709 166.176C136.709 161.647 133.029 157.975 128.489 157.975C123.95 157.975 120.27 161.647 120.27 166.176C120.27 170.706 123.95 174.377 128.489 174.377Z" fill="white"/>
<path d="M138.992 70.5431C140.362 68.4168 142.747 67.1005 145.284 67.1005C145.487 67.1005 145.69 66.9487 145.69 66.6955C145.69 66.4424 145.537 66.2905 145.284 66.2905C142.442 66.2905 139.855 67.7587 138.332 70.1381C138.079 70.5938 138.738 70.9481 138.992 70.5431Z" fill="#5F259F"/>
<path d="M147.973 79.5038C147.618 78.6938 147.313 78.1875 146.704 78.1875C145.436 78.0862 143.711 81.9338 145.537 86.3383L146.501 88.6165C146.958 87.199 147.313 85.7814 147.516 84.3639C147.77 82.7439 147.922 81.1238 147.973 79.5038Z" fill="#5F259F"/>
<path d="M174.661 123.498C174.458 122.891 151.93 85.2753 150.459 81.6809C148.987 78.0864 148.886 76.112 147.617 76.0107C146.349 75.9095 144.624 79.7571 146.45 84.1616C148.277 88.566 150.053 92.8186 150.053 92.8186C150.053 92.8186 148.328 94.0843 148.835 95.7549C148.835 95.7549 146.197 94.7424 145.283 97.2231C145.03 98.1344 145.131 99.1469 145.638 99.9569C145.638 99.9569 142.188 98.6913 140.818 101.223C139.803 103.146 139.956 108.817 140.057 111.348C140.108 112.462 140.615 113.525 141.478 114.284C142.442 115.094 143.913 115.398 145.486 112.816L151.118 123.498H174.661Z" fill="#EDE1FA"/>
<path d="M159.744 102.539L153.199 93.0209C152.59 92.5147 151.829 92.3628 151.068 92.5653" fill="#EDE1FA"/>
<path d="M159.744 102.539L153.199 93.0209C152.59 92.5147 151.829 92.3628 151.068 92.5653" stroke="#495894" stroke-miterlimit="10"/>
<path d="M148.835 95.8057L155.482 106.64" stroke="#495894" stroke-miterlimit="10"/>
<path d="M145.639 100.007L151.169 109.677" stroke="#495894" stroke-miterlimit="10"/>
<path d="M142.493 105.729L146.298 114.284" stroke="#495894" stroke-miterlimit="10"/>
<path d="M168.826 113.626L165.782 101.627C165.376 100.109 164.97 98.5898 163.955 97.3748C162.94 96.1597 160.302 95.6535 158.78 96.8685" fill="#EDE1FA"/>
<path opacity="0.21" d="M118.392 92.6669C121.447 92.6669 123.923 90.1963 123.923 87.1486C123.923 84.101 121.447 81.6304 118.392 81.6304C115.338 81.6304 112.862 84.101 112.862 87.1486C112.862 90.1963 115.338 92.6669 118.392 92.6669Z" fill="#FF6D6D"/>
</g>
<g clip-path="url(#clip1_586_5083)">
<path d="M46.1139 43.1615C49.2813 43.1615 51.8489 40.5838 51.8489 37.404C51.8489 34.2242 49.2813 31.6465 46.1139 31.6465C42.9466 31.6465 40.3789 34.2242 40.3789 37.404C40.3789 40.5838 42.9466 43.1615 46.1139 43.1615Z" fill="#FFBC99"/>
<path d="M213.311 88.5572H224.516L218.914 63.2242L234.266 75.8907V60.744L245.206 70.5318L254.647 57.7324" stroke="#CC3333" stroke-width="2" stroke-miterlimit="10"/>
<path d="M0.454366 18.4045C0.101443 10.4326 7.29225 2.94786 15.2771 2.99215C23.262 3.03644 30.3205 10.6541 29.8352 18.626C29.5705 22.9663 26.3942 27.6608 22.115 27.3951C17.8799 27.1294 15.3654 22.3019 15.3212 18.0502C15.233 8.08532 25.7325 -0.506644 35.4378 1.57492" stroke="#CC3333" stroke-width="2" stroke-miterlimit="10"/>
</g>
<defs>
<clipPath id="clip0_586_5083">
<rect width="168.502" height="164.57" fill="white" transform="translate(43.2485 45.7515)"/>
</clipPath>
<clipPath id="clip1_586_5083">
<rect width="255" height="88.1828" fill="white" transform="translate(0 0.817383)"/>
</clipPath>
</defs>
</svg>
